%TF.GenerationSoftware,KiCad,Pcbnew,8.0.7*%
%TF.CreationDate,2025-01-01T06:24:57-05:00*%
%TF.ProjectId,kicad_macropad,6b696361-645f-46d6-9163-726f7061642e,rev?*%
%TF.SameCoordinates,Original*%
%TF.FileFunction,Copper,L1,Top*%
%TF.FilePolarity,Positive*%
%FSLAX46Y46*%
G04 Gerber Fmt 4.6, Leading zero omitted, Abs format (unit mm)*
G04 Created by KiCad (PCBNEW 8.0.7) date 2025-01-01 06:24:57*
%MOMM*%
%LPD*%
G01*
G04 APERTURE LIST*
G04 Aperture macros list*
%AMRoundRect*
0 Rectangle with rounded corners*
0 $1 Rounding radius*
0 $2 $3 $4 $5 $6 $7 $8 $9 X,Y pos of 4 corners*
0 Add a 4 corners polygon primitive as box body*
4,1,4,$2,$3,$4,$5,$6,$7,$8,$9,$2,$3,0*
0 Add four circle primitives for the rounded corners*
1,1,$1+$1,$2,$3*
1,1,$1+$1,$4,$5*
1,1,$1+$1,$6,$7*
1,1,$1+$1,$8,$9*
0 Add four rect primitives between the rounded corners*
20,1,$1+$1,$2,$3,$4,$5,0*
20,1,$1+$1,$4,$5,$6,$7,0*
20,1,$1+$1,$6,$7,$8,$9,0*
20,1,$1+$1,$8,$9,$2,$3,0*%
G04 Aperture macros list end*
%TA.AperFunction,SMDPad,CuDef*%
%ADD10R,0.700000X3.400000*%
%TD*%
%TA.AperFunction,SMDPad,CuDef*%
%ADD11R,1.600000X3.800000*%
%TD*%
%TA.AperFunction,SMDPad,CuDef*%
%ADD12R,1.600000X3.000000*%
%TD*%
%TA.AperFunction,SMDPad,CuDef*%
%ADD13R,1.600000X1.800000*%
%TD*%
%TA.AperFunction,SMDPad,CuDef*%
%ADD14R,1.600000X2.600000*%
%TD*%
%TA.AperFunction,SMDPad,CuDef*%
%ADD15RoundRect,0.150000X0.200000X-0.150000X0.200000X0.150000X-0.200000X0.150000X-0.200000X-0.150000X0*%
%TD*%
%TA.AperFunction,SMDPad,CuDef*%
%ADD16RoundRect,0.150000X0.150000X0.200000X-0.150000X0.200000X-0.150000X-0.200000X0.150000X-0.200000X0*%
%TD*%
%TA.AperFunction,ComponentPad*%
%ADD17O,1.700000X1.700000*%
%TD*%
%TA.AperFunction,SMDPad,CuDef*%
%ADD18R,3.500000X1.700000*%
%TD*%
%TA.AperFunction,ComponentPad*%
%ADD19R,1.700000X1.700000*%
%TD*%
%TA.AperFunction,SMDPad,CuDef*%
%ADD20R,1.700000X3.500000*%
%TD*%
%TA.AperFunction,ViaPad*%
%ADD21C,0.600000*%
%TD*%
%TA.AperFunction,Conductor*%
%ADD22C,0.200000*%
%TD*%
G04 APERTURE END LIST*
D10*
%TO.P,S9,1,1*%
%TO.N,Column 2*%
X146810000Y-133275000D03*
%TO.P,S9,2,2*%
%TO.N,Net-(D9-A)*%
X149260000Y-133275000D03*
D11*
%TO.P,S9,3*%
%TO.N,N/C*%
X141260000Y-127075000D03*
D12*
X141260000Y-135475000D03*
D13*
X153660000Y-125950000D03*
D14*
X153660000Y-130975000D03*
D13*
X153660000Y-136000000D03*
%TD*%
D10*
%TO.P,S8,1,1*%
%TO.N,Column 1*%
X130930000Y-133275000D03*
%TO.P,S8,2,2*%
%TO.N,Net-(D8-A)*%
X133380000Y-133275000D03*
D11*
%TO.P,S8,3*%
%TO.N,N/C*%
X125380000Y-127075000D03*
D12*
X125380000Y-135475000D03*
D13*
X137780000Y-125950000D03*
D14*
X137780000Y-130975000D03*
D13*
X137780000Y-136000000D03*
%TD*%
D15*
%TO.P,D1,1,K*%
%TO.N,Row 0*%
X117050000Y-95575000D03*
%TO.P,D1,2,A*%
%TO.N,Net-(D1-A)*%
X117050000Y-96975000D03*
%TD*%
D10*
%TO.P,S1,1,1*%
%TO.N,Column 0*%
X115050000Y-101515000D03*
%TO.P,S1,2,2*%
%TO.N,Net-(D1-A)*%
X117500000Y-101515000D03*
D11*
%TO.P,S1,3*%
%TO.N,N/C*%
X109500000Y-95315000D03*
D12*
X109500000Y-103715000D03*
D13*
X121900000Y-94190000D03*
D14*
X121900000Y-99215000D03*
D13*
X121900000Y-104240000D03*
%TD*%
D16*
%TO.P,D7,1,K*%
%TO.N,Row 2*%
X116100000Y-140315000D03*
%TO.P,D7,2,A*%
%TO.N,Net-(D7-A)*%
X117500000Y-140315000D03*
%TD*%
D10*
%TO.P,S6,1,1*%
%TO.N,Column 2*%
X146810000Y-117395000D03*
%TO.P,S6,2,2*%
%TO.N,Net-(D6-A)*%
X149260000Y-117395000D03*
D11*
%TO.P,S6,3*%
%TO.N,N/C*%
X141260000Y-111195000D03*
D12*
X141260000Y-119595000D03*
D13*
X153660000Y-110070000D03*
D14*
X153660000Y-115095000D03*
D13*
X153660000Y-120120000D03*
%TD*%
D16*
%TO.P,D9,1,K*%
%TO.N,Row 2*%
X147900000Y-140315000D03*
%TO.P,D9,2,A*%
%TO.N,Net-(D9-A)*%
X149300000Y-140315000D03*
%TD*%
D10*
%TO.P,S3,1,1*%
%TO.N,Column 2*%
X146810000Y-101515000D03*
%TO.P,S3,2,2*%
%TO.N,Net-(D3-A)*%
X149260000Y-101515000D03*
D11*
%TO.P,S3,3*%
%TO.N,N/C*%
X141260000Y-95315000D03*
D12*
X141260000Y-103715000D03*
D13*
X153660000Y-94190000D03*
D14*
X153660000Y-99215000D03*
D13*
X153660000Y-104240000D03*
%TD*%
D16*
%TO.P,D4,1,K*%
%TO.N,Row 1*%
X116150000Y-112015000D03*
%TO.P,D4,2,A*%
%TO.N,Net-(D4-A)*%
X117550000Y-112015000D03*
%TD*%
%TO.P,D6,1,K*%
%TO.N,Row 1*%
X148150000Y-112015000D03*
%TO.P,D6,2,A*%
%TO.N,Net-(D6-A)*%
X149550000Y-112015000D03*
%TD*%
%TO.P,D8,1,K*%
%TO.N,Row 2*%
X131900000Y-140315000D03*
%TO.P,D8,2,A*%
%TO.N,Net-(D8-A)*%
X133300000Y-140315000D03*
%TD*%
%TO.P,D5,1,K*%
%TO.N,Row 1*%
X132150000Y-112015000D03*
%TO.P,D5,2,A*%
%TO.N,Net-(D5-A)*%
X133550000Y-112015000D03*
%TD*%
D10*
%TO.P,S5,1,1*%
%TO.N,Column 1*%
X130930000Y-117395000D03*
%TO.P,S5,2,2*%
%TO.N,Net-(D5-A)*%
X133380000Y-117395000D03*
D11*
%TO.P,S5,3*%
%TO.N,N/C*%
X125380000Y-111195000D03*
D12*
X125380000Y-119595000D03*
D13*
X137780000Y-110070000D03*
D14*
X137780000Y-115095000D03*
D13*
X137780000Y-120120000D03*
%TD*%
D10*
%TO.P,S4,1,1*%
%TO.N,Column 0*%
X115050000Y-117395000D03*
%TO.P,S4,2,2*%
%TO.N,Net-(D4-A)*%
X117500000Y-117395000D03*
D11*
%TO.P,S4,3*%
%TO.N,N/C*%
X109500000Y-111195000D03*
D12*
X109500000Y-119595000D03*
D13*
X121900000Y-110070000D03*
D14*
X121900000Y-115095000D03*
D13*
X121900000Y-120120000D03*
%TD*%
D17*
%TO.P,U1,1,GPIO0*%
%TO.N,Column 0*%
X81210000Y-94185000D03*
D18*
X80310000Y-94185000D03*
D17*
%TO.P,U1,2,GPIO1*%
%TO.N,Column 1*%
X81210000Y-96725000D03*
D18*
X80310000Y-96725000D03*
D19*
%TO.P,U1,3,GND*%
%TO.N,unconnected-(U1-GND-Pad3)*%
X81210000Y-99265000D03*
D18*
X80310000Y-99265000D03*
D17*
%TO.P,U1,4,GPIO2*%
%TO.N,Column 2*%
X81210000Y-101805000D03*
D18*
X80310000Y-101805000D03*
D17*
%TO.P,U1,5,GPIO3*%
%TO.N,Row 0*%
X81210000Y-104345000D03*
D18*
X80310000Y-104345000D03*
D17*
%TO.P,U1,6,GPIO4*%
%TO.N,Row 1*%
X81210000Y-106885000D03*
D18*
X80310000Y-106885000D03*
D17*
%TO.P,U1,7,GPIO5*%
%TO.N,Row 2*%
X81210000Y-109425000D03*
D18*
X80310000Y-109425000D03*
D19*
%TO.P,U1,8,GND*%
%TO.N,unconnected-(U1-GND-Pad8)*%
X81210000Y-111965000D03*
D18*
X80310000Y-111965000D03*
D17*
%TO.P,U1,9,GPIO6*%
%TO.N,unconnected-(U1-GPIO6-Pad9)*%
X81210000Y-114505000D03*
D18*
X80310000Y-114505000D03*
D17*
%TO.P,U1,10,GPIO7*%
%TO.N,unconnected-(U1-GPIO7-Pad10)*%
X81210000Y-117045000D03*
D18*
X80310000Y-117045000D03*
D17*
%TO.P,U1,11,GPIO8*%
%TO.N,unconnected-(U1-GPIO8-Pad11)*%
X81210000Y-119585000D03*
D18*
X80310000Y-119585000D03*
D17*
%TO.P,U1,12,GPIO9*%
%TO.N,unconnected-(U1-GPIO9-Pad12)*%
X81210000Y-122125000D03*
D18*
X80310000Y-122125000D03*
D19*
%TO.P,U1,13,GND*%
%TO.N,unconnected-(U1-GND-Pad13)*%
X81210000Y-124665000D03*
D18*
X80310000Y-124665000D03*
D17*
%TO.P,U1,14,GPIO10*%
%TO.N,unconnected-(U1-GPIO10-Pad14)*%
X81210000Y-127205000D03*
D18*
X80310000Y-127205000D03*
D17*
%TO.P,U1,15,GPIO11*%
%TO.N,unconnected-(U1-GPIO11-Pad15)*%
X81210000Y-129745000D03*
D18*
X80310000Y-129745000D03*
D17*
%TO.P,U1,16,GPIO12*%
%TO.N,unconnected-(U1-GPIO12-Pad16)*%
X81210000Y-132285000D03*
D18*
X80310000Y-132285000D03*
D17*
%TO.P,U1,17,GPIO13*%
%TO.N,unconnected-(U1-GPIO13-Pad17)*%
X81210000Y-134825000D03*
D18*
X80310000Y-134825000D03*
D19*
%TO.P,U1,18,GND*%
%TO.N,unconnected-(U1-GND-Pad18)*%
X81210000Y-137365000D03*
D18*
X80310000Y-137365000D03*
D17*
%TO.P,U1,19,GPIO14*%
%TO.N,unconnected-(U1-GPIO14-Pad19)*%
X81210000Y-139905000D03*
D18*
X80310000Y-139905000D03*
D17*
%TO.P,U1,20,GPIO15*%
%TO.N,unconnected-(U1-GPIO15-Pad20)*%
X81210000Y-142445000D03*
D18*
X80310000Y-142445000D03*
D17*
%TO.P,U1,21,GPIO16*%
%TO.N,unconnected-(U1-GPIO16-Pad21)*%
X98990000Y-142445000D03*
D18*
X99890000Y-142445000D03*
D17*
%TO.P,U1,22,GPIO17*%
%TO.N,unconnected-(U1-GPIO17-Pad22)*%
X98990000Y-139905000D03*
D18*
X99890000Y-139905000D03*
D19*
%TO.P,U1,23,GND*%
%TO.N,unconnected-(U1-GND-Pad23)*%
X98990000Y-137365000D03*
D18*
X99890000Y-137365000D03*
D17*
%TO.P,U1,24,GPIO18*%
%TO.N,unconnected-(U1-GPIO18-Pad24)*%
X98990000Y-134825000D03*
D18*
X99890000Y-134825000D03*
D17*
%TO.P,U1,25,GPIO19*%
%TO.N,unconnected-(U1-GPIO19-Pad25)*%
X98990000Y-132285000D03*
D18*
X99890000Y-132285000D03*
D17*
%TO.P,U1,26,GPIO20*%
%TO.N,unconnected-(U1-GPIO20-Pad26)*%
X98990000Y-129745000D03*
D18*
X99890000Y-129745000D03*
D17*
%TO.P,U1,27,GPIO21*%
%TO.N,unconnected-(U1-GPIO21-Pad27)*%
X98990000Y-127205000D03*
D18*
X99890000Y-127205000D03*
D19*
%TO.P,U1,28,GND*%
%TO.N,unconnected-(U1-GND-Pad28)*%
X98990000Y-124665000D03*
D18*
X99890000Y-124665000D03*
D17*
%TO.P,U1,29,GPIO22*%
%TO.N,unconnected-(U1-GPIO22-Pad29)*%
X98990000Y-122125000D03*
D18*
X99890000Y-122125000D03*
D17*
%TO.P,U1,30,RUN*%
%TO.N,unconnected-(U1-RUN-Pad30)*%
X98990000Y-119585000D03*
D18*
X99890000Y-119585000D03*
D17*
%TO.P,U1,31,GPIO26_ADC0*%
%TO.N,unconnected-(U1-GPIO26_ADC0-Pad31)*%
X98990000Y-117045000D03*
D18*
X99890000Y-117045000D03*
D17*
%TO.P,U1,32,GPIO27_ADC1*%
%TO.N,unconnected-(U1-GPIO27_ADC1-Pad32)*%
X98990000Y-114505000D03*
D18*
X99890000Y-114505000D03*
D19*
%TO.P,U1,33,AGND*%
%TO.N,unconnected-(U1-AGND-Pad33)*%
X98990000Y-111965000D03*
D18*
X99890000Y-111965000D03*
D17*
%TO.P,U1,34,GPIO28_ADC2*%
%TO.N,unconnected-(U1-GPIO28_ADC2-Pad34)*%
X98990000Y-109425000D03*
D18*
X99890000Y-109425000D03*
D17*
%TO.P,U1,35,ADC_VREF*%
%TO.N,unconnected-(U1-ADC_VREF-Pad35)*%
X98990000Y-106885000D03*
D18*
X99890000Y-106885000D03*
D17*
%TO.P,U1,36,3V3*%
%TO.N,unconnected-(U1-3V3-Pad36)*%
X98990000Y-104345000D03*
D18*
X99890000Y-104345000D03*
D17*
%TO.P,U1,37,3V3_EN*%
%TO.N,unconnected-(U1-3V3_EN-Pad37)*%
X98990000Y-101805000D03*
D18*
X99890000Y-101805000D03*
D19*
%TO.P,U1,38,GND*%
%TO.N,unconnected-(U1-GND-Pad38)*%
X98990000Y-99265000D03*
D18*
X99890000Y-99265000D03*
D17*
%TO.P,U1,39,VSYS*%
%TO.N,unconnected-(U1-VSYS-Pad39)*%
X98990000Y-96725000D03*
D18*
X99890000Y-96725000D03*
D17*
%TO.P,U1,40,VBUS*%
%TO.N,unconnected-(U1-VBUS-Pad40)*%
X98990000Y-94185000D03*
D18*
X99890000Y-94185000D03*
D17*
%TO.P,U1,41,SWCLK*%
%TO.N,unconnected-(U1-SWCLK-Pad41)*%
X87560000Y-142215000D03*
D20*
X87560000Y-143115000D03*
D19*
%TO.P,U1,42,GND*%
%TO.N,unconnected-(U1-GND-Pad42)*%
X90100000Y-142215000D03*
D20*
X90100000Y-143115000D03*
D17*
%TO.P,U1,43,SWDIO*%
%TO.N,unconnected-(U1-SWDIO-Pad43)*%
X92640000Y-142215000D03*
D20*
X92640000Y-143115000D03*
%TD*%
D10*
%TO.P,S7,1,1*%
%TO.N,Column 0*%
X115050000Y-133275000D03*
%TO.P,S7,2,2*%
%TO.N,Net-(D7-A)*%
X117500000Y-133275000D03*
D11*
%TO.P,S7,3*%
%TO.N,N/C*%
X109500000Y-127075000D03*
D12*
X109500000Y-135475000D03*
D13*
X121900000Y-125950000D03*
D14*
X121900000Y-130975000D03*
D13*
X121900000Y-136000000D03*
%TD*%
D15*
%TO.P,D3,1,K*%
%TO.N,Row 0*%
X148850000Y-95432500D03*
%TO.P,D3,2,A*%
%TO.N,Net-(D3-A)*%
X148850000Y-96832500D03*
%TD*%
%TO.P,D2,1,K*%
%TO.N,Row 0*%
X132930000Y-95485000D03*
%TO.P,D2,2,A*%
%TO.N,Net-(D2-A)*%
X132930000Y-96885000D03*
%TD*%
D10*
%TO.P,S2,1,1*%
%TO.N,Column 1*%
X130930000Y-101515000D03*
%TO.P,S2,2,2*%
%TO.N,Net-(D2-A)*%
X133380000Y-101515000D03*
D11*
%TO.P,S2,3*%
%TO.N,N/C*%
X125380000Y-95315000D03*
D12*
X125380000Y-103715000D03*
D13*
X137780000Y-94190000D03*
D14*
X137780000Y-99215000D03*
D13*
X137780000Y-104240000D03*
%TD*%
D21*
%TO.N,Row 0*%
X113600000Y-94565000D03*
%TO.N,Row 1*%
X116100000Y-108315000D03*
%TO.N,Column 1*%
X130850000Y-109815000D03*
X129600000Y-94315000D03*
X130850000Y-114315000D03*
%TO.N,Column 2*%
X146350000Y-94065000D03*
X146600000Y-110065000D03*
X146600000Y-114315000D03*
%TD*%
D22*
%TO.N,Row 0*%
X119635000Y-92990000D02*
X117050000Y-95575000D01*
X135425000Y-92990000D02*
X132930000Y-95485000D01*
X117050000Y-95575000D02*
X114610000Y-95575000D01*
X130435000Y-92990000D02*
X119635000Y-92990000D01*
X114610000Y-95575000D02*
X113600000Y-94565000D01*
X148850000Y-95432500D02*
X146407500Y-92990000D01*
X146407500Y-92990000D02*
X135425000Y-92990000D01*
X132930000Y-95485000D02*
X130435000Y-92990000D01*
%TO.N,Net-(D1-A)*%
X117050000Y-101065000D02*
X117500000Y-101515000D01*
X117050000Y-96975000D02*
X117050000Y-101065000D01*
%TO.N,Net-(D2-A)*%
X132930000Y-101065000D02*
X133380000Y-101515000D01*
X132930000Y-96885000D02*
X132930000Y-101065000D01*
%TO.N,Net-(D3-A)*%
X148850000Y-96832500D02*
X148850000Y-101105000D01*
X148850000Y-101105000D02*
X149260000Y-101515000D01*
%TO.N,Net-(D4-A)*%
X117500000Y-112065000D02*
X117550000Y-112015000D01*
X117500000Y-117395000D02*
X117500000Y-112065000D01*
%TO.N,Row 1*%
X116850000Y-111315000D02*
X116150000Y-112015000D01*
X133950000Y-111315000D02*
X132850000Y-111315000D01*
X146770000Y-113395000D02*
X136030000Y-113395000D01*
X116150000Y-108365000D02*
X116100000Y-108315000D01*
X130770000Y-113395000D02*
X120150000Y-113395000D01*
X132850000Y-111315000D02*
X132150000Y-112015000D01*
X148150000Y-112015000D02*
X146770000Y-113395000D01*
X136030000Y-113395000D02*
X133950000Y-111315000D01*
X120150000Y-113395000D02*
X118070000Y-111315000D01*
X132150000Y-112015000D02*
X130770000Y-113395000D01*
X118070000Y-111315000D02*
X116850000Y-111315000D01*
X116150000Y-112015000D02*
X116150000Y-108365000D01*
%TO.N,Net-(D5-A)*%
X133380000Y-117395000D02*
X133380000Y-112185000D01*
X133380000Y-112185000D02*
X133550000Y-112015000D01*
%TO.N,Net-(D6-A)*%
X149260000Y-112305000D02*
X149550000Y-112015000D01*
X149260000Y-117395000D02*
X149260000Y-112305000D01*
%TO.N,Row 2*%
X116100000Y-140315000D02*
X116100000Y-139175000D01*
X116100000Y-139175000D02*
X110600000Y-133675000D01*
X104710000Y-133675000D02*
X101930000Y-130895000D01*
X131250000Y-140965000D02*
X116750000Y-140965000D01*
X97840000Y-130895000D02*
X97840000Y-126055000D01*
X132550000Y-140965000D02*
X131900000Y-140315000D01*
X116750000Y-140965000D02*
X116100000Y-140315000D01*
X147250000Y-140965000D02*
X132550000Y-140965000D01*
X97840000Y-126055000D02*
X81210000Y-109425000D01*
X101930000Y-130895000D02*
X97840000Y-130895000D01*
X110600000Y-133675000D02*
X104710000Y-133675000D01*
X131900000Y-140315000D02*
X131250000Y-140965000D01*
X147900000Y-140315000D02*
X147250000Y-140965000D01*
%TO.N,Net-(D7-A)*%
X117500000Y-133275000D02*
X117500000Y-140315000D01*
%TO.N,Net-(D8-A)*%
X133380000Y-140235000D02*
X133300000Y-140315000D01*
X133380000Y-133275000D02*
X133380000Y-140235000D01*
%TO.N,Net-(D9-A)*%
X149260000Y-133275000D02*
X149260000Y-140155000D01*
X149260000Y-140155000D02*
X149100000Y-140315000D01*
%TO.N,Column 0*%
X110300000Y-92815000D02*
X82580000Y-92815000D01*
X115050000Y-101515000D02*
X115050000Y-117395000D01*
X82580000Y-92815000D02*
X81210000Y-94185000D01*
X115050000Y-97565000D02*
X110300000Y-92815000D01*
X115050000Y-117395000D02*
X115050000Y-133275000D01*
X115050000Y-101515000D02*
X115050000Y-97565000D01*
%TO.N,Column 1*%
X130930000Y-109735000D02*
X130850000Y-109815000D01*
X130930000Y-95645000D02*
X129600000Y-94315000D01*
X130930000Y-117395000D02*
X130930000Y-133275000D01*
X130930000Y-101515000D02*
X130930000Y-95645000D01*
X130930000Y-101515000D02*
X130930000Y-109735000D01*
X130930000Y-117395000D02*
X130930000Y-114395000D01*
X130930000Y-114395000D02*
X130850000Y-114315000D01*
%TO.N,Column 2*%
X146810000Y-117395000D02*
X146810000Y-133275000D01*
X146810000Y-101515000D02*
X146810000Y-94525000D01*
X146810000Y-114525000D02*
X146810000Y-117395000D01*
X146810000Y-94525000D02*
X146350000Y-94065000D01*
X146810000Y-109855000D02*
X146600000Y-110065000D01*
X146810000Y-101515000D02*
X146810000Y-109855000D01*
X146600000Y-114315000D02*
X146810000Y-114525000D01*
%TD*%
%TA.AperFunction,NonConductor*%
G36*
X158792539Y-89585185D02*
G01*
X158838294Y-89637989D01*
X158849500Y-89689500D01*
X158849500Y-145690500D01*
X158829815Y-145757539D01*
X158777011Y-145803294D01*
X158725500Y-145814500D01*
X75974500Y-145814500D01*
X75907461Y-145794815D01*
X75861706Y-145742011D01*
X75850500Y-145690500D01*
X75850500Y-93287135D01*
X78059500Y-93287135D01*
X78059500Y-95082870D01*
X78059501Y-95082876D01*
X78065908Y-95142483D01*
X78116202Y-95277328D01*
X78116203Y-95277330D01*
X78193578Y-95380689D01*
X78217995Y-95446153D01*
X78203144Y-95514426D01*
X78193578Y-95529309D01*
X78183168Y-95543216D01*
X78116203Y-95632669D01*
X78116202Y-95632671D01*
X78065908Y-95767517D01*
X78063416Y-95790701D01*
X78059501Y-95827123D01*
X78059500Y-95827135D01*
X78059500Y-97622870D01*
X78059501Y-97622876D01*
X78065908Y-97682483D01*
X78116202Y-97817328D01*
X78116203Y-97817330D01*
X78193578Y-97920689D01*
X78217995Y-97986153D01*
X78203144Y-98054426D01*
X78193578Y-98069311D01*
X78116203Y-98172669D01*
X78116202Y-98172671D01*
X78065908Y-98307517D01*
X78059501Y-98367116D01*
X78059501Y-98367123D01*
X78059500Y-98367135D01*
X78059500Y-100162870D01*
X78059501Y-100162876D01*
X78065908Y-100222483D01*
X78116202Y-100357328D01*
X78116203Y-100357330D01*
X78193578Y-100460689D01*
X78217995Y-100526153D01*
X78203144Y-100594426D01*
X78193578Y-100609311D01*
X78116203Y-100712669D01*
X78116202Y-100712671D01*
X78065908Y-100847517D01*
X78059501Y-100907116D01*
X78059501Y-100907123D01*
X78059500Y-100907135D01*
X78059500Y-102702870D01*
X78059501Y-102702876D01*
X78065908Y-102762483D01*
X78116202Y-102897328D01*
X78116203Y-102897330D01*
X78193578Y-103000689D01*
X78217995Y-103066153D01*
X78203144Y-103134426D01*
X78193578Y-103149311D01*
X78116203Y-103252669D01*
X78116202Y-103252671D01*
X78065908Y-103387517D01*
X78059501Y-103447116D01*
X78059501Y-103447123D01*
X78059500Y-103447135D01*
X78059500Y-105242870D01*
X78059501Y-105242876D01*
X78065908Y-105302483D01*
X78116202Y-105437328D01*
X78116203Y-105437330D01*
X78193578Y-105540689D01*
X78217995Y-105606153D01*
X78203144Y-105674426D01*
X78193578Y-105689311D01*
X78116203Y-105792669D01*
X78116202Y-105792671D01*
X78065908Y-105927517D01*
X78059501Y-105987116D01*
X78059501Y-105987123D01*
X78059500Y-105987135D01*
X78059500Y-107782870D01*
X78059501Y-107782876D01*
X78065908Y-107842483D01*
X78116202Y-107977328D01*
X78116203Y-107977330D01*
X78193578Y-108080689D01*
X78217995Y-108146153D01*
X78203144Y-108214426D01*
X78193578Y-108229311D01*
X78116203Y-108332669D01*
X78116202Y-108332671D01*
X78065908Y-108467517D01*
X78063034Y-108494254D01*
X78059501Y-108527123D01*
X78059500Y-108527135D01*
X78059500Y-110322870D01*
X78059501Y-110322876D01*
X78065908Y-110382483D01*
X78116202Y-110517328D01*
X78116203Y-110517330D01*
X78193578Y-110620689D01*
X78217995Y-110686153D01*
X78203144Y-110754426D01*
X78193578Y-110769311D01*
X78116203Y-110872669D01*
X78116202Y-110872671D01*
X78065908Y-111007517D01*
X78064794Y-111017883D01*
X78059501Y-111067123D01*
X78059500Y-111067135D01*
X78059500Y-112862870D01*
X78059501Y-112862876D01*
X78065908Y-112922483D01*
X78116202Y-113057328D01*
X78116203Y-113057330D01*
X78193578Y-113160689D01*
X78217995Y-113226153D01*
X78203144Y-113294426D01*
X78193578Y-113309311D01*
X78116203Y-113412669D01*
X78116202Y-113412671D01*
X78065908Y-113547517D01*
X78061439Y-113589091D01*
X78059501Y-113607123D01*
X78059500Y-113607135D01*
X78059500Y-115402870D01*
X78059501Y-115402876D01*
X78065908Y-115462483D01*
X78116202Y-115597328D01*
X78116203Y-115597330D01*
X78193578Y-115700689D01*
X78217995Y-115766153D01*
X78203144Y-115834426D01*
X78193578Y-115849311D01*
X78116203Y-115952669D01*
X78116202Y-115952671D01*
X78065908Y-116087517D01*
X78059501Y-116147116D01*
X78059501Y-116147123D01*
X78059500Y-116147135D01*
X78059500Y-117942870D01*
X78059501Y-117942876D01*
X78065908Y-118002483D01*
X78116202Y-118137328D01*
X78116203Y-118137330D01*
X78193578Y-118240689D01*
X78217995Y-118306153D01*
X78203144Y-118374426D01*
X78193578Y-118389311D01*
X78116203Y-118492669D01*
X78116202Y-118492671D01*
X78065908Y-118627517D01*
X78059501Y-118687116D01*
X78059501Y-118687123D01*
X78059500Y-118687135D01*
X78059500Y-120482870D01*
X78059501Y-120482876D01*
X78065908Y-120542483D01*
X78116202Y-120677328D01*
X78116203Y-120677330D01*
X78193578Y-120780689D01*
X78217995Y-120846153D01*
X78203144Y-120914426D01*
X78193578Y-120929311D01*
X78116203Y-121032669D01*
X78116202Y-121032671D01*
X78065908Y-121167517D01*
X78059501Y-121227116D01*
X78059501Y-121227123D01*
X78059500Y-121227135D01*
X78059500Y-123022870D01*
X78059501Y-123022876D01*
X78065908Y-123082483D01*
X78116202Y-123217328D01*
X78116203Y-123217330D01*
X78193578Y-123320689D01*
X78217995Y-123386153D01*
X78203144Y-123454426D01*
X78193578Y-123469311D01*
X78116203Y-123572669D01*
X78116202Y-123572671D01*
X78065908Y-123707517D01*
X78059501Y-123767116D01*
X78059501Y-123767123D01*
X78059500Y-123767135D01*
X78059500Y-125562870D01*
X78059501Y-125562876D01*
X78065908Y-125622483D01*
X78116202Y-125757328D01*
X78116203Y-125757330D01*
X78193578Y-125860689D01*
X78217995Y-125926153D01*
X78203144Y-125994426D01*
X78193578Y-126009311D01*
X78116203Y-126112669D01*
X78116202Y-126112671D01*
X78065908Y-126247517D01*
X78059501Y-126307116D01*
X78059501Y-126307123D01*
X78059500Y-126307135D01*
X78059500Y-128102870D01*
X78059501Y-128102876D01*
X78065908Y-128162483D01*
X78116202Y-128297328D01*
X78116203Y-128297330D01*
X78193578Y-128400689D01*
X78217995Y-128466153D01*
X78203144Y-128534426D01*
X78193578Y-128549311D01*
X78116203Y-128652669D01*
X78116202Y-128652671D01*
X78065908Y-128787517D01*
X78059501Y-128847116D01*
X78059501Y-128847123D01*
X78059500Y-128847135D01*
X78059500Y-130642870D01*
X78059501Y-130642876D01*
X78065908Y-130702483D01*
X78116202Y-130837328D01*
X78116203Y-130837330D01*
X78193578Y-130940689D01*
X78217995Y-131006153D01*
X78203144Y-131074426D01*
X78193578Y-131089311D01*
X78116203Y-131192669D01*
X78116202Y-131192671D01*
X78065908Y-131327517D01*
X78060748Y-131375518D01*
X78059501Y-131387123D01*
X78059500Y-131387135D01*
X78059500Y-133182870D01*
X78059501Y-133182876D01*
X78065908Y-133242483D01*
X78116202Y-133377328D01*
X78116203Y-133377330D01*
X78193578Y-133480689D01*
X78217995Y-133546153D01*
X78203144Y-133614426D01*
X78193578Y-133629311D01*
X78116203Y-133732669D01*
X78116202Y-133732671D01*
X78065908Y-133867517D01*
X78059501Y-133927116D01*
X78059501Y-133927123D01*
X78059500Y-133927135D01*
X78059500Y-135722870D01*
X78059501Y-135722876D01*
X78065908Y-135782483D01*
X78116202Y-135917328D01*
X78116203Y-135917330D01*
X78193578Y-136020689D01*
X78217995Y-136086153D01*
X78203144Y-136154426D01*
X78193578Y-136169311D01*
X78116203Y-136272669D01*
X78116202Y-136272671D01*
X78065908Y-136407517D01*
X78059501Y-136467116D01*
X78059501Y-136467123D01*
X78059500Y-136467135D01*
X78059500Y-138262870D01*
X78059501Y-138262876D01*
X78065908Y-138322483D01*
X78116202Y-138457328D01*
X78116203Y-138457330D01*
X78193578Y-138560689D01*
X78217995Y-138626153D01*
X78203144Y-138694426D01*
X78193578Y-138709311D01*
X78116203Y-138812669D01*
X78116202Y-138812671D01*
X78065908Y-138947517D01*
X78061044Y-138992764D01*
X78059501Y-139007123D01*
X78059500Y-139007135D01*
X78059500Y-140802870D01*
X78059501Y-140802876D01*
X78065908Y-140862483D01*
X78116202Y-140997328D01*
X78116203Y-140997330D01*
X78193578Y-141100689D01*
X78217995Y-141166153D01*
X78203144Y-141234426D01*
X78193578Y-141249309D01*
X78191628Y-141251916D01*
X78116203Y-141352669D01*
X78116202Y-141352671D01*
X78065908Y-141487517D01*
X78061924Y-141524577D01*
X78059501Y-141547123D01*
X78059500Y-141547135D01*
X78059500Y-143342870D01*
X78059501Y-143342876D01*
X78065908Y-143402483D01*
X78116202Y-143537328D01*
X78116206Y-143537335D01*
X78202452Y-143652544D01*
X78202455Y-143652547D01*
X78317664Y-143738793D01*
X78317671Y-143738797D01*
X78452517Y-143789091D01*
X78452516Y-143789091D01*
X78459444Y-143789835D01*
X78512127Y-143795500D01*
X81145611Y-143795499D01*
X81156419Y-143795971D01*
X81209999Y-143800659D01*
X81210000Y-143800659D01*
X81210001Y-143800659D01*
X81263580Y-143795971D01*
X81274388Y-143795499D01*
X82107871Y-143795499D01*
X82107872Y-143795499D01*
X82167483Y-143789091D01*
X82302331Y-143738796D01*
X82417546Y-143652546D01*
X82503796Y-143537331D01*
X82554091Y-143402483D01*
X82560500Y-143342873D01*
X82560499Y-142509383D01*
X82560971Y-142498576D01*
X82565659Y-142445000D01*
X82565659Y-142444999D01*
X82560971Y-142391421D01*
X82560499Y-142380613D01*
X82560499Y-142214997D01*
X86204341Y-142214997D01*
X86204341Y-142215001D01*
X86209028Y-142268574D01*
X86209500Y-142279381D01*
X86209500Y-144912870D01*
X86209501Y-144912876D01*
X86215908Y-144972483D01*
X86266202Y-145107328D01*
X86266206Y-145107335D01*
X86352452Y-145222544D01*
X86352455Y-145222547D01*
X86467664Y-145308793D01*
X86467671Y-145308797D01*
X86602517Y-145359091D01*
X86602516Y-145359091D01*
X86609444Y-145359835D01*
X86662127Y-145365500D01*
X88457872Y-145365499D01*
X88517483Y-145359091D01*
X88652331Y-145308796D01*
X88755690Y-145231421D01*
X88821152Y-145207004D01*
X88889425Y-145221855D01*
X88904303Y-145231416D01*
X89007665Y-145308793D01*
X89007668Y-145308795D01*
X89007671Y-145308797D01*
X89142517Y-145359091D01*
X89142516Y-145359091D01*
X89149444Y-145359835D01*
X89202127Y-145365500D01*
X90997872Y-145365499D01*
X91057483Y-145359091D01*
X91192331Y-145308796D01*
X91295690Y-145231421D01*
X91361152Y-145207004D01*
X91429425Y-145221855D01*
X91444303Y-145231416D01*
X91547665Y-145308793D01*
X91547668Y-145308795D01*
X91547671Y-145308797D01*
X91682517Y-145359091D01*
X91682516Y-145359091D01*
X91689444Y-145359835D01*
X91742127Y-145365500D01*
X93537872Y-145365499D01*
X93597483Y-145359091D01*
X93732331Y-145308796D01*
X93847546Y-145222546D01*
X93933796Y-145107331D01*
X93984091Y-144972483D01*
X93990500Y-144912873D01*
X93990499Y-142279381D01*
X93990971Y-142268578D01*
X93995659Y-142215000D01*
X93995659Y-142214999D01*
X93990971Y-142161418D01*
X93990499Y-142150610D01*
X93990499Y-141317129D01*
X93990498Y-141317123D01*
X93990497Y-141317116D01*
X93984091Y-141257517D01*
X93981030Y-141249311D01*
X93933797Y-141122671D01*
X93933793Y-141122664D01*
X93847547Y-141007455D01*
X93847544Y-141007452D01*
X93732335Y-140921206D01*
X93732328Y-140921202D01*
X93597482Y-140870908D01*
X93597483Y-140870908D01*
X93537883Y-140864501D01*
X93537881Y-140864500D01*
X93537873Y-140864500D01*
X93537865Y-140864500D01*
X92704383Y-140864500D01*
X92693576Y-140864028D01*
X92640002Y-140859341D01*
X92639999Y-140859341D01*
X92604865Y-140862414D01*
X92586421Y-140864028D01*
X92575616Y-140864500D01*
X91742129Y-140864500D01*
X91742123Y-140864501D01*
X91682516Y-140870908D01*
X91547671Y-140921202D01*
X91547669Y-140921203D01*
X91444311Y-140998578D01*
X91378847Y-141022995D01*
X91310574Y-141008144D01*
X91295689Y-140998578D01*
X91261024Y-140972628D01*
X91222952Y-140944127D01*
X91192330Y-140921203D01*
X91192328Y-140921202D01*
X91057482Y-140870908D01*
X91057483Y-140870908D01*
X90997883Y-140864501D01*
X90997881Y-140864500D01*
X90997873Y-140864500D01*
X90997864Y-140864500D01*
X89202129Y-140864500D01*
X89202123Y-140864501D01*
X89142516Y-140870908D01*
X89007671Y-140921202D01*
X89007669Y-140921203D01*
X88904311Y-140998578D01*
X88838847Y-141022995D01*
X88770574Y-141008144D01*
X88755689Y-140998578D01*
X88721024Y-140972628D01*
X88682952Y-140944127D01*
X88652330Y-140921203D01*
X88652328Y-140921202D01*
X88517482Y-140870908D01*
X88517483Y-140870908D01*
X88457883Y-140864501D01*
X88457881Y-140864500D01*
X88457873Y-140864500D01*
X88457865Y-140864500D01*
X87624383Y-140864500D01*
X87613576Y-140864028D01*
X87560002Y-140859341D01*
X87559999Y-140859341D01*
X87524865Y-140862414D01*
X87506421Y-140864028D01*
X87495616Y-140864500D01*
X86662129Y-140864500D01*
X86662123Y-140864501D01*
X86602516Y-140870908D01*
X86467671Y-140921202D01*
X86467664Y-140921206D01*
X86352455Y-141007452D01*
X86352452Y-141007455D01*
X86266206Y-141122664D01*
X86266202Y-141122671D01*
X86215908Y-141257517D01*
X86209501Y-141317116D01*
X86209501Y-141317123D01*
X86209500Y-141317135D01*
X86209500Y-142150618D01*
X86209028Y-142161425D01*
X86204341Y-142214997D01*
X82560499Y-142214997D01*
X82560499Y-141547129D01*
X82560498Y-141547123D01*
X82560497Y-141547116D01*
X82555299Y-141498757D01*
X82554091Y-141487516D01*
X82503797Y-141352671D01*
X82503795Y-141352668D01*
X82426421Y-141249309D01*
X82402004Y-141183848D01*
X82416855Y-141115575D01*
X82426416Y-141100696D01*
X82503796Y-140997331D01*
X82554091Y-140862483D01*
X82560500Y-140802873D01*
X82560499Y-139969383D01*
X82560971Y-139958576D01*
X82565659Y-139905000D01*
X82565659Y-139904999D01*
X82560971Y-139851421D01*
X82560499Y-139840613D01*
X82560499Y-139007129D01*
X82560498Y-139007123D01*
X82560497Y-139007116D01*
X82554091Y-138947517D01*
X82552486Y-138943215D01*
X82503797Y-138812671D01*
X82503795Y-138812668D01*
X82426421Y-138709309D01*
X82402004Y-138643848D01*
X82416855Y-138575575D01*
X82426416Y-138560696D01*
X82503796Y-138457331D01*
X82554091Y-138322483D01*
X82560500Y-138262873D01*
X82560499Y-136467128D01*
X82554091Y-136407517D01*
X82503796Y-136272669D01*
X82426421Y-136169309D01*
X82402004Y-136103848D01*
X82416855Y-136035575D01*
X82426416Y-136020696D01*
X82503796Y-135917331D01*
X82554091Y-135782483D01*
X82560500Y-135722873D01*
X82560499Y-134889383D01*
X82560971Y-134878576D01*
X82562801Y-134857668D01*
X82565659Y-134825000D01*
X82560971Y-134771421D01*
X82560499Y-134760613D01*
X82560499Y-133927129D01*
X82560498Y-133927123D01*
X82560497Y-133927116D01*
X82554091Y-133867517D01*
X82503796Y-133732669D01*
X82426421Y-133629309D01*
X82402004Y-133563848D01*
X82416855Y-133495575D01*
X82426416Y-133480696D01*
X82503796Y-133377331D01*
X82554091Y-133242483D01*
X82560500Y-133182873D01*
X82560499Y-132349383D01*
X82560971Y-132338576D01*
X82565659Y-132285000D01*
X82565659Y-132284999D01*
X82560971Y-132231421D01*
X82560499Y-132220613D01*
X82560499Y-131387129D01*
X82560498Y-131387123D01*
X82560497Y-131387116D01*
X82554091Y-131327517D01*
X82513041Y-131217457D01*
X82503797Y-131192671D01*
X82503795Y-131192668D01*
X82490206Y-131174515D01*
X82426421Y-131089309D01*
X82402004Y-131023848D01*
X82416855Y-130955575D01*
X82426416Y-130940696D01*
X82503796Y-130837331D01*
X82554091Y-130702483D01*
X82560500Y-130642873D01*
X82560499Y-129809384D01*
X82560971Y-129798576D01*
X82565659Y-129745000D01*
X82565659Y-129744999D01*
X82560971Y-129691421D01*
X82560499Y-129680613D01*
X82560499Y-128847129D01*
X82560498Y-128847123D01*
X82560497Y-128847116D01*
X82554091Y-128787517D01*
X82503796Y-128652669D01*
X82426421Y-128549309D01*
X82402004Y-128483848D01*
X82416855Y-128415575D01*
X82426416Y-128400696D01*
X82503796Y-128297331D01*
X82554091Y-128162483D01*
X82560500Y-128102873D01*
X82560499Y-127269384D01*
X82560971Y-127258576D01*
X82565659Y-127205000D01*
X82565659Y-127204999D01*
X82560971Y-127151421D01*
X82560499Y-127140613D01*
X82560499Y-126307129D01*
X82560498Y-126307123D01*
X82560497Y-126307116D01*
X82554091Y-126247517D01*
X82503796Y-126112669D01*
X82426421Y-126009309D01*
X82402004Y-125943848D01*
X82416855Y-125875575D01*
X82426416Y-125860696D01*
X82503796Y-125757331D01*
X82554091Y-125622483D01*
X82560500Y-125562873D01*
X82560499Y-123767128D01*
X82554091Y-123707517D01*
X82503796Y-123572669D01*
X82426421Y-123469309D01*
X82402004Y-123403848D01*
X82416855Y-123335575D01*
X82426416Y-123320696D01*
X82503796Y-123217331D01*
X82554091Y-123082483D01*
X82560500Y-123022873D01*
X82560499Y-122189383D01*
X82560971Y-122178576D01*
X82565659Y-122125000D01*
X82565659Y-122124999D01*
X82560971Y-122071421D01*
X82560499Y-122060613D01*
X82560499Y-121227129D01*
X82560498Y-121227123D01*
X82560497Y-121227116D01*
X82554091Y-121167517D01*
X82544899Y-121142873D01*
X82503797Y-121032671D01*
X82503795Y-121032668D01*
X82426421Y-120929309D01*
X82402004Y-120863848D01*
X82416855Y-120795575D01*
X82426416Y-120780696D01*
X82503796Y-120677331D01*
X82554091Y-120542483D01*
X82560500Y-120482873D01*
X82560499Y-119649383D01*
X82560971Y-119638576D01*
X82565659Y-119585000D01*
X82565659Y-119584999D01*
X82560971Y-119531421D01*
X82560499Y-119520613D01*
X82560499Y-118687129D01*
X82560498Y-118687123D01*
X82560497Y-118687116D01*
X82554091Y-118627517D01*
X82544977Y-118603082D01*
X82503797Y-118492671D01*
X82503795Y-118492668D01*
X82426421Y-118389309D01*
X82402004Y-118323848D01*
X82416855Y-118255575D01*
X82426416Y-118240696D01*
X82503796Y-118137331D01*
X82554091Y-118002483D01*
X82560500Y-117942873D01*
X82560499Y-117109383D01*
X82560971Y-117098576D01*
X82565659Y-117045000D01*
X82565659Y-117044999D01*
X82560971Y-116991421D01*
X82560499Y-116980613D01*
X82560499Y-116147129D01*
X82560498Y-116147123D01*
X82560497Y-116147116D01*
X82554091Y-116087517D01*
X82547108Y-116068795D01*
X82503797Y-115952671D01*
X82503795Y-115952668D01*
X82485071Y-115927656D01*
X82426421Y-115849309D01*
X82402004Y-115783848D01*
X82416855Y-115715575D01*
X82426416Y-115700696D01*
X82503796Y-115597331D01*
X82554091Y-115462483D01*
X82560500Y-115402873D01*
X82560499Y-114569383D01*
X82560971Y-114558576D01*
X82565659Y-114505000D01*
X82565659Y-114504999D01*
X82560971Y-114451421D01*
X82560499Y-114440613D01*
X82560499Y-113607129D01*
X82560498Y-113607123D01*
X82560497Y-113607116D01*
X82554091Y-113547517D01*
X82550838Y-113538796D01*
X82503797Y-113412671D01*
X82503795Y-113412668D01*
X82426421Y-113309309D01*
X82402004Y-113243848D01*
X82416855Y-113175575D01*
X82426416Y-113160696D01*
X82503796Y-113057331D01*
X82554091Y-112922483D01*
X82560500Y-112862873D01*
X82560499Y-111924095D01*
X82580183Y-111857057D01*
X82632987Y-111811302D01*
X82702146Y-111801358D01*
X82765702Y-111830383D01*
X82772180Y-111836415D01*
X97203181Y-126267416D01*
X97236666Y-126328739D01*
X97239500Y-126355097D01*
X97239500Y-130815943D01*
X97239500Y-130974057D01*
X97270383Y-131089312D01*
X97280423Y-131126783D01*
X97280426Y-131126790D01*
X97359475Y-131263709D01*
X97359479Y-131263714D01*
X97359480Y-131263716D01*
X97471284Y-131375520D01*
X97577500Y-131436843D01*
X97625715Y-131487409D01*
X97639500Y-131544230D01*
X97639500Y-132220616D01*
X97639028Y-132231423D01*
X97634341Y-132284997D01*
X97634341Y-132285002D01*
X97639028Y-132338576D01*
X97639500Y-132349383D01*
X97639500Y-133182870D01*
X97639501Y-133182876D01*
X97645908Y-133242483D01*
X97696202Y-133377328D01*
X97696203Y-133377330D01*
X97773578Y-133480689D01*
X97797995Y-133546153D01*
X97783144Y-133614426D01*
X97773578Y-133629311D01*
X97696203Y-133732669D01*
X97696202Y-133732671D01*
X97645908Y-133867517D01*
X97639501Y-133927116D01*
X97639501Y-133927123D01*
X97639500Y-133927135D01*
X97639500Y-134760616D01*
X97639028Y-134771423D01*
X97634341Y-134824997D01*
X97634341Y-134825002D01*
X97639028Y-134878576D01*
X97639500Y-134889383D01*
X97639500Y-135722870D01*
X97639501Y-135722876D01*
X97645908Y-135782483D01*
X97696202Y-135917328D01*
X97696203Y-135917330D01*
X97773578Y-136020689D01*
X97797995Y-136086153D01*
X97783144Y-136154426D01*
X97773578Y-136169311D01*
X97696203Y-136272669D01*
X97696202Y-136272671D01*
X97645908Y-136407517D01*
X97639501Y-136467116D01*
X97639501Y-136467123D01*
X97639500Y-136467135D01*
X97639500Y-138262870D01*
X97639501Y-138262876D01*
X97645908Y-138322483D01*
X97696202Y-138457328D01*
X97696203Y-138457330D01*
X97773578Y-138560689D01*
X97797995Y-138626153D01*
X97783144Y-138694426D01*
X97773578Y-138709311D01*
X97696203Y-138812669D01*
X97696202Y-138812671D01*
X97645908Y-138947517D01*
X97641044Y-138992764D01*
X97639501Y-139007123D01*
X97639500Y-139007135D01*
X97639500Y-139840616D01*
X97639028Y-139851423D01*
X97634341Y-139904997D01*
X97634341Y-139905002D01*
X97639028Y-139958576D01*
X97639500Y-139969383D01*
X97639500Y-140802870D01*
X97639501Y-140802876D01*
X97645908Y-140862483D01*
X97696202Y-140997328D01*
X97696203Y-140997330D01*
X97773578Y-141100689D01*
X97797995Y-141166153D01*
X97783144Y-141234426D01*
X97773578Y-141249309D01*
X97771628Y-141251916D01*
X97696203Y-141352669D01*
X97696202Y-141352671D01*
X97645908Y-141487517D01*
X97641924Y-141524577D01*
X97639501Y-141547123D01*
X97639500Y-141547135D01*
X97639500Y-142380616D01*
X97639028Y-142391423D01*
X97634341Y-142444997D01*
X97634341Y-142445002D01*
X97639028Y-142498576D01*
X97639500Y-142509383D01*
X97639500Y-143342870D01*
X97639501Y-143342876D01*
X97645908Y-143402483D01*
X97696202Y-143537328D01*
X97696206Y-143537335D01*
X97782452Y-143652544D01*
X97782455Y-143652547D01*
X97897664Y-143738793D01*
X97897671Y-143738797D01*
X98032517Y-143789091D01*
X98032516Y-143789091D01*
X98039444Y-143789835D01*
X98092127Y-143795500D01*
X98925616Y-143795499D01*
X98936425Y-143795971D01*
X98990000Y-143800659D01*
X99043575Y-143795971D01*
X99054384Y-143795499D01*
X101687871Y-143795499D01*
X101687872Y-143795499D01*
X101747483Y-143789091D01*
X101882331Y-143738796D01*
X101997546Y-143652546D01*
X102083796Y-143537331D01*
X102134091Y-143402483D01*
X102140500Y-143342873D01*
X102140499Y-141547128D01*
X102135299Y-141498757D01*
X102134091Y-141487516D01*
X102083797Y-141352671D01*
X102083795Y-141352668D01*
X102006421Y-141249309D01*
X101982004Y-141183848D01*
X101996855Y-141115575D01*
X102006416Y-141100696D01*
X102083796Y-140997331D01*
X102134091Y-140862483D01*
X102140500Y-140802873D01*
X102140499Y-139007128D01*
X102134091Y-138947517D01*
X102132486Y-138943215D01*
X102083797Y-138812671D01*
X102083795Y-138812668D01*
X102006421Y-138709309D01*
X101982004Y-138643848D01*
X101996855Y-138575575D01*
X102006416Y-138560696D01*
X102083796Y-138457331D01*
X102134091Y-138322483D01*
X102140500Y-138262873D01*
X102140499Y-136467128D01*
X102134091Y-136407517D01*
X102083796Y-136272669D01*
X102006421Y-136169309D01*
X101982004Y-136103848D01*
X101996855Y-136035575D01*
X102006416Y-136020696D01*
X102083796Y-135917331D01*
X102134091Y-135782483D01*
X102140500Y-135722873D01*
X102140499Y-133927128D01*
X102134091Y-133867517D01*
X102083796Y-133732669D01*
X102006421Y-133629309D01*
X101982004Y-133563848D01*
X101996855Y-133495575D01*
X102006416Y-133480696D01*
X102083796Y-133377331D01*
X102134091Y-133242483D01*
X102140500Y-133182873D01*
X102140499Y-132254095D01*
X102160183Y-132187057D01*
X102212987Y-132141302D01*
X102282146Y-132131358D01*
X102345702Y-132160383D01*
X102352178Y-132166413D01*
X104341284Y-134155520D01*
X104341286Y-134155521D01*
X104341290Y-134155524D01*
X104478209Y-134234573D01*
X104478216Y-134234577D01*
X104630943Y-134275501D01*
X104630945Y-134275501D01*
X104796654Y-134275501D01*
X104796670Y-134275500D01*
X108075500Y-134275500D01*
X108142539Y-134295185D01*
X108188294Y-134347989D01*
X108199500Y-134399500D01*
X108199500Y-137022870D01*
X108199501Y-137022876D01*
X108205908Y-137082483D01*
X108256202Y-137217328D01*
X108256206Y-137217335D01*
X108342452Y-137332544D01*
X108342455Y-137332547D01*
X108457664Y-137418793D01*
X108457671Y-137418797D01*
X108592517Y-137469091D01*
X108592516Y-137469091D01*
X108599444Y-137469835D01*
X108652127Y-137475500D01*
X110347872Y-137475499D01*
X110407483Y-137469091D01*
X110542331Y-137418796D01*
X110657546Y-137332546D01*
X110743796Y-137217331D01*
X110794091Y-137082483D01*
X110800500Y-137022873D01*
X110800499Y-135024095D01*
X110820184Y-134957057D01*
X110872987Y-134911302D01*
X110942146Y-134901358D01*
X111005702Y-134930383D01*
X111012180Y-134936415D01*
X115463181Y-139387416D01*
X115496666Y-139448739D01*
X115499500Y-139475097D01*
X115499500Y-139594191D01*
X115479815Y-139661230D01*
X115463181Y-139681872D01*
X115431923Y-139713129D01*
X115431917Y-139713137D01*
X115348255Y-139854603D01*
X115348254Y-139854606D01*
X115302402Y-140012426D01*
X115302401Y-140012432D01*
X115299500Y-140049298D01*
X115299500Y-140580701D01*
X115302401Y-140617567D01*
X115302402Y-140617573D01*
X115348254Y-140775393D01*
X115348255Y-140775396D01*
X115431917Y-140916862D01*
X115431923Y-140916870D01*
X115548129Y-141033076D01*
X115548133Y-141033079D01*
X115548135Y-141033081D01*
X115689602Y-141116744D01*
X115709979Y-141122664D01*
X115847426Y-141162597D01*
X115847429Y-141162597D01*
X115847431Y-141162598D01*
X115884306Y-141165500D01*
X116049903Y-141165500D01*
X116116942Y-141185185D01*
X116137584Y-141201819D01*
X116265139Y-141329374D01*
X116265149Y-141329385D01*
X116269479Y-141333715D01*
X116269480Y-141333716D01*
X116381284Y-141445520D01*
X116454026Y-141487517D01*
X116518215Y-141524577D01*
X116670943Y-141565501D01*
X116670946Y-141565501D01*
X116836653Y-141565501D01*
X116836669Y-141565500D01*
X131163331Y-141565500D01*
X131163347Y-141565501D01*
X131170943Y-141565501D01*
X131329054Y-141565501D01*
X131329057Y-141565501D01*
X131481785Y-141524577D01*
X131545974Y-141487517D01*
X131618716Y-141445520D01*
X131730520Y-141333716D01*
X131730520Y-141333714D01*
X131740725Y-141323510D01*
X131740727Y-141323506D01*
X131812320Y-141251914D01*
X131873643Y-141218431D01*
X131943334Y-141223416D01*
X131987681Y-141251916D01*
X132065139Y-141329374D01*
X132065149Y-141329385D01*
X132069479Y-141333715D01*
X132069480Y-141333716D01*
X132181284Y-141445520D01*
X132254026Y-141487517D01*
X132318215Y-141524577D01*
X132470943Y-141565501D01*
X132470946Y-141565501D01*
X132636653Y-141565501D01*
X132636669Y-141565500D01*
X147163331Y-141565500D01*
X147163347Y-141565501D01*
X147170943Y-141565501D01*
X147329054Y-141565501D01*
X147329057Y-141565501D01*
X147481785Y-141524577D01*
X147545974Y-141487517D01*
X147618716Y-141445520D01*
X147730520Y-141333716D01*
X147730520Y-141333714D01*
X147740725Y-141323510D01*
X147740727Y-141323506D01*
X147862417Y-141201818D01*
X147923741Y-141168334D01*
X147950098Y-141165500D01*
X148115686Y-141165500D01*
X148115694Y-141165500D01*
X148152569Y-141162598D01*
X148152571Y-141162597D01*
X148152573Y-141162597D01*
X148194191Y-141150505D01*
X148310398Y-141116744D01*
X148451865Y-141033081D01*
X148477494Y-141007452D01*
X148512319Y-140972628D01*
X148573642Y-140939143D01*
X148643334Y-140944127D01*
X148687681Y-140972628D01*
X148748129Y-141033076D01*
X148748133Y-141033079D01*
X148748135Y-141033081D01*
X148889602Y-141116744D01*
X148909979Y-141122664D01*
X149047426Y-141162597D01*
X149047429Y-141162597D01*
X149047431Y-141162598D01*
X149084306Y-141165500D01*
X149084314Y-141165500D01*
X149515686Y-141165500D01*
X149515694Y-141165500D01*
X149552569Y-141162598D01*
X149552571Y-141162597D01*
X149552573Y-141162597D01*
X149594191Y-141150505D01*
X149710398Y-141116744D01*
X149851865Y-141033081D01*
X149968081Y-140916865D01*
X150051744Y-140775398D01*
X150097598Y-140617569D01*
X150100500Y-140580694D01*
X150100500Y-140049306D01*
X150097598Y-140012431D01*
X150085091Y-139969383D01*
X150051745Y-139854606D01*
X150051744Y-139854603D01*
X150051744Y-139854602D01*
X149968081Y-139713135D01*
X149968079Y-139713133D01*
X149968076Y-139713129D01*
X149896819Y-139641872D01*
X149863334Y-139580549D01*
X149860500Y-139554191D01*
X149860500Y-135474749D01*
X149880185Y-135407710D01*
X149910190Y-135375482D01*
X149967546Y-135332546D01*
X150053796Y-135217331D01*
X150104091Y-135082483D01*
X150107354Y-135052135D01*
X152359500Y-135052135D01*
X152359500Y-136947870D01*
X152359501Y-136947876D01*
X152365908Y-137007483D01*
X152416202Y-137142328D01*
X152416206Y-137142335D01*
X152502452Y-137257544D01*
X152502455Y-137257547D01*
X152617664Y-137343793D01*
X152617671Y-137343797D01*
X152752517Y-137394091D01*
X152752516Y-137394091D01*
X152759444Y-137394835D01*
X152812127Y-137400500D01*
X154507872Y-137400499D01*
X154567483Y-137394091D01*
X154702331Y-137343796D01*
X154817546Y-137257546D01*
X154903796Y-137142331D01*
X154954091Y-137007483D01*
X154960500Y-136947873D01*
X154960499Y-135052128D01*
X154954091Y-134992517D01*
X154940865Y-134957057D01*
X154903797Y-134857671D01*
X154903793Y-134857664D01*
X154817547Y-134742455D01*
X154817544Y-134742452D01*
X154702335Y-134656206D01*
X154702328Y-134656202D01*
X154567482Y-134605908D01*
X154567483Y-134605908D01*
X154507883Y-134599501D01*
X154507881Y-134599500D01*
X154507873Y-134599500D01*
X154507865Y-134599500D01*
X154205753Y-134599500D01*
X154138714Y-134579815D01*
X154092959Y-134527011D01*
X154083015Y-134457853D01*
X154084136Y-134451309D01*
X154110499Y-134318770D01*
X154110500Y-134318768D01*
X154110500Y-134151232D01*
X154110499Y-134151228D01*
X154077817Y-133986925D01*
X154077816Y-133986918D01*
X154013703Y-133832137D01*
X153947242Y-133732671D01*
X153920626Y-133692837D01*
X153802162Y-133574373D01*
X153662860Y-133481295D01*
X153508082Y-133417184D01*
X153508074Y-133417182D01*
X153343771Y-133384500D01*
X153343767Y-133384500D01*
X153176233Y-133384500D01*
X153176228Y-133384500D01*
X153011925Y-133417182D01*
X153011917Y-133417184D01*
X152857139Y-133481295D01*
X152717837Y-133574373D01*
X152599373Y-133692837D01*
X152506295Y-133832139D01*
X152442184Y-133986917D01*
X152442182Y-133986925D01*
X152409500Y-134151228D01*
X152409500Y-134318771D01*
X152442182Y-134483074D01*
X152442184Y-134483082D01*
X152505796Y-134636655D01*
X152513265Y-134706125D01*
X152490502Y-134758419D01*
X152416204Y-134857668D01*
X152416202Y-134857671D01*
X152365908Y-134992517D01*
X152359501Y-135052116D01*
X152359501Y-135052123D01*
X152359500Y-135052135D01*
X150107354Y-135052135D01*
X150110500Y-135022873D01*
X150110499Y-131527128D01*
X150104091Y-131467517D01*
X150078722Y-131399500D01*
X150053797Y-131332671D01*
X150053793Y-131332664D01*
X149967547Y-131217455D01*
X149967544Y-131217452D01*
X149852335Y-131131206D01*
X149852328Y-131131202D01*
X149717482Y-131080908D01*
X149717483Y-131080908D01*
X149657883Y-131074501D01*
X149657881Y-131074500D01*
X149657873Y-131074500D01*
X149657864Y-131074500D01*
X148862129Y-131074500D01*
X148862123Y-131074501D01*
X148802516Y-131080908D01*
X148667671Y-131131202D01*
X148667664Y-131131206D01*
X148552455Y-131217452D01*
X148552452Y-131217455D01*
X148466206Y-131332664D01*
X148466202Y-131332671D01*
X148415908Y-131467517D01*
X148409501Y-131527116D01*
X148409501Y-131527123D01*
X148409500Y-131527135D01*
X148409500Y-135022870D01*
X148409501Y-135022876D01*
X148415908Y-135082483D01*
X148466202Y-135217328D01*
X148466203Y-135217329D01*
X148466204Y-135217331D01*
X148552452Y-135332543D01*
X148552455Y-135332547D01*
X148609810Y-135375482D01*
X148651682Y-135431415D01*
X148659500Y-135474749D01*
X148659500Y-139505191D01*
X148639815Y-139572230D01*
X148587011Y-139617985D01*
X148517853Y-139627929D01*
X148458656Y-139600895D01*
X148458031Y-139601702D01*
X148454605Y-139599044D01*
X148454297Y-139598904D01*
X148453664Y-139598315D01*
X148451862Y-139596917D01*
X148310396Y-139513255D01*
X148310393Y-139513254D01*
X148152573Y-139467402D01*
X148152567Y-139467401D01*
X148115701Y-139464500D01*
X148115694Y-139464500D01*
X147684306Y-139464500D01*
X147684298Y-139464500D01*
X147647432Y-139467401D01*
X147647426Y-139467402D01*
X147489606Y-139513254D01*
X147489603Y-139513255D01*
X147348137Y-139596917D01*
X147348129Y-139596923D01*
X147231923Y-139713129D01*
X147231917Y-139713137D01*
X147148255Y-139854603D01*
X147148254Y-139854606D01*
X147102402Y-140012426D01*
X147102401Y-140012432D01*
X147099500Y-140049298D01*
X147099500Y-140214903D01*
X147079815Y-140281942D01*
X147063181Y-140302584D01*
X147037584Y-140328181D01*
X146976261Y-140361666D01*
X146949903Y-140364500D01*
X134224500Y-140364500D01*
X134157461Y-140344815D01*
X134111706Y-140292011D01*
X134100500Y-140240500D01*
X134100500Y-140049313D01*
X134100499Y-140049298D01*
X134097598Y-140012432D01*
X134097597Y-140012426D01*
X134051745Y-139854606D01*
X134051745Y-139854605D01*
X134051744Y-139854603D01*
X134051744Y-139854602D01*
X133997767Y-139763331D01*
X133980500Y-139700211D01*
X133980500Y-135474749D01*
X134000185Y-135407710D01*
X134030190Y-135375482D01*
X134087546Y-135332546D01*
X134173796Y-135217331D01*
X134224091Y-135082483D01*
X134227354Y-135052135D01*
X136479500Y-135052135D01*
X136479500Y-136947870D01*
X136479501Y-136947876D01*
X136485908Y-137007483D01*
X136536202Y-137142328D01*
X136536206Y-137142335D01*
X136622452Y-137257544D01*
X136622455Y-137257547D01*
X136737664Y-137343793D01*
X136737671Y-137343797D01*
X136872517Y-137394091D01*
X136872516Y-137394091D01*
X136879444Y-137394835D01*
X136932127Y-137400500D01*
X138627872Y-137400499D01*
X138687483Y-137394091D01*
X138822331Y-137343796D01*
X138937546Y-137257546D01*
X139023796Y-137142331D01*
X139074091Y-137007483D01*
X139080500Y-136947873D01*
X139080499Y-135052128D01*
X139074091Y-134992517D01*
X139060865Y-134957057D01*
X139023797Y-134857671D01*
X139023793Y-134857664D01*
X138937547Y-134742455D01*
X138937544Y-134742452D01*
X138822335Y-134656206D01*
X138822328Y-134656202D01*
X138687482Y-134605908D01*
X138687483Y-134605908D01*
X138627883Y-134599501D01*
X138627881Y-134599500D01*
X138627873Y-134599500D01*
X138627865Y-134599500D01*
X138325753Y-134599500D01*
X138258714Y-134579815D01*
X138212959Y-134527011D01*
X138203015Y-134457853D01*
X138204136Y-134451309D01*
X138230499Y-134318770D01*
X138230500Y-134318768D01*
X138230500Y-134151232D01*
X138230499Y-134151228D01*
X138197817Y-133986925D01*
X138197816Y-133986918D01*
X138173053Y-133927135D01*
X139959500Y-133927135D01*
X139959500Y-137022870D01*
X139959501Y-137022876D01*
X139965908Y-137082483D01*
X140016202Y-137217328D01*
X140016206Y-137217335D01*
X140102452Y-137332544D01*
X140102455Y-137332547D01*
X140217664Y-137418793D01*
X140217671Y-137418797D01*
X140352517Y-137469091D01*
X140352516Y-137469091D01*
X140359444Y-137469835D01*
X140412127Y-137475500D01*
X142107872Y-137475499D01*
X142167483Y-137469091D01*
X142302331Y-137418796D01*
X142417546Y-137332546D01*
X142503796Y-137217331D01*
X142554091Y-137082483D01*
X142560500Y-137022873D01*
X142560499Y-133927128D01*
X142554091Y-133867517D01*
X142503796Y-133732669D01*
X142503795Y-133732668D01*
X142503793Y-133732664D01*
X142417547Y-133617455D01*
X142417544Y-133617452D01*
X142302335Y-133531206D01*
X142302328Y-133531202D01*
X142167482Y-133480908D01*
X142167483Y-133480908D01*
X142107883Y-133474501D01*
X142107881Y-133474500D01*
X142107873Y-133474500D01*
X142107864Y-133474500D01*
X140412129Y-133474500D01*
X140412123Y-133474501D01*
X140352516Y-133480908D01*
X140217671Y-133531202D01*
X140217664Y-133531206D01*
X140102455Y-133617452D01*
X140102452Y-133617455D01*
X140016206Y-133732664D01*
X140016202Y-133732671D01*
X139965908Y-133867517D01*
X139959501Y-133927116D01*
X139959501Y-133927123D01*
X139959500Y-133927135D01*
X138173053Y-133927135D01*
X138133703Y-133832137D01*
X138067242Y-133732671D01*
X138040626Y-133692837D01*
X137922162Y-133574373D01*
X137782860Y-133481295D01*
X137628082Y-133417184D01*
X137628074Y-133417182D01*
X137463771Y-133384500D01*
X137463767Y-133384500D01*
X137296233Y-133384500D01*
X137296228Y-133384500D01*
X137131925Y-133417182D01*
X137131917Y-133417184D01*
X136977139Y-133481295D01*
X136837837Y-133574373D01*
X136719373Y-133692837D01*
X136626295Y-133832139D01*
X136562184Y-133986917D01*
X136562182Y-133986925D01*
X136529500Y-134151228D01*
X136529500Y-134318771D01*
X136562182Y-134483074D01*
X136562184Y-134483082D01*
X136625796Y-134636655D01*
X136633265Y-134706125D01*
X136610502Y-134758419D01*
X136536204Y-134857668D01*
X136536202Y-134857671D01*
X136485908Y-134992517D01*
X136479501Y-135052116D01*
X136479501Y-135052123D01*
X136479500Y-135052135D01*
X134227354Y-135052135D01*
X134230500Y-135022873D01*
X134230499Y-131527128D01*
X134224091Y-131467517D01*
X134198722Y-131399500D01*
X134173797Y-131332671D01*
X134173793Y-131332664D01*
X134087547Y-131217455D01*
X134087544Y-131217452D01*
X133972335Y-131131206D01*
X133972328Y-131131202D01*
X133837482Y-131080908D01*
X133837483Y-131080908D01*
X133777883Y-131074501D01*
X133777881Y-131074500D01*
X133777873Y-131074500D01*
X133777864Y-131074500D01*
X132982129Y-131074500D01*
X132982123Y-131074501D01*
X132922516Y-131080908D01*
X132787671Y-131131202D01*
X132787664Y-131131206D01*
X132672455Y-131217452D01*
X132672452Y-131217455D01*
X132586206Y-131332664D01*
X132586202Y-131332671D01*
X132535908Y-131467517D01*
X132529501Y-131527116D01*
X132529501Y-131527123D01*
X132529500Y-131527135D01*
X132529500Y-135022870D01*
X132529501Y-135022876D01*
X132535908Y-135082483D01*
X132586202Y-135217328D01*
X132586203Y-135217329D01*
X132586204Y-135217331D01*
X132672452Y-135332543D01*
X132672455Y-135332547D01*
X132729810Y-135375482D01*
X132771682Y-135431415D01*
X132779500Y-135474749D01*
X132779500Y-139514191D01*
X132759815Y-139581230D01*
X132743181Y-139601872D01*
X132687681Y-139657372D01*
X132626358Y-139690857D01*
X132556666Y-139685873D01*
X132512319Y-139657372D01*
X132451870Y-139596923D01*
X132451862Y-139596917D01*
X132310396Y-139513255D01*
X132310393Y-139513254D01*
X132152573Y-139467402D01*
X132152567Y-139467401D01*
X132115701Y-139464500D01*
X132115694Y-139464500D01*
X131684306Y-139464500D01*
X131684298Y-139464500D01*
X131647432Y-139467401D01*
X131647426Y-139467402D01*
X131489606Y-139513254D01*
X131489603Y-139513255D01*
X131348137Y-139596917D01*
X131348129Y-139596923D01*
X131231923Y-139713129D01*
X131231917Y-139713137D01*
X131148255Y-139854603D01*
X131148254Y-139854606D01*
X131102402Y-140012426D01*
X131102401Y-140012432D01*
X131099500Y-140049298D01*
X131099500Y-140214903D01*
X131079815Y-140281942D01*
X131063181Y-140302584D01*
X131037584Y-140328181D01*
X130976261Y-140361666D01*
X130949903Y-140364500D01*
X118424500Y-140364500D01*
X118357461Y-140344815D01*
X118311706Y-140292011D01*
X118300500Y-140240500D01*
X118300500Y-140049313D01*
X118300499Y-140049298D01*
X118297598Y-140012432D01*
X118297597Y-140012426D01*
X118251745Y-139854606D01*
X118251744Y-139854603D01*
X118251744Y-139854602D01*
X118168081Y-139713135D01*
X118168079Y-139713133D01*
X118168076Y-139713129D01*
X118136819Y-139681872D01*
X118103334Y-139620549D01*
X118100500Y-139594191D01*
X118100500Y-135474749D01*
X118120185Y-135407710D01*
X118150190Y-135375482D01*
X118207546Y-135332546D01*
X118293796Y-135217331D01*
X118344091Y-135082483D01*
X118347354Y-135052135D01*
X120599500Y-135052135D01*
X120599500Y-136947870D01*
X120599501Y-136947876D01*
X120605908Y-137007483D01*
X120656202Y-137142328D01*
X120656206Y-137142335D01*
X120742452Y-137257544D01*
X120742455Y-137257547D01*
X120857664Y-137343793D01*
X120857671Y-137343797D01*
X120992517Y-137394091D01*
X120992516Y-137394091D01*
X120999444Y-137394835D01*
X121052127Y-137400500D01*
X122747872Y-137400499D01*
X122807483Y-137394091D01*
X122942331Y-137343796D01*
X123057546Y-137257546D01*
X123143796Y-137142331D01*
X123194091Y-137007483D01*
X123200500Y-136947873D01*
X123200499Y-135052128D01*
X123194091Y-134992517D01*
X123180865Y-134957057D01*
X123143797Y-134857671D01*
X123143793Y-134857664D01*
X123057547Y-134742455D01*
X123057544Y-134742452D01*
X122942335Y-134656206D01*
X122942328Y-134656202D01*
X122807482Y-134605908D01*
X122807483Y-134605908D01*
X122747883Y-134599501D01*
X122747881Y-134599500D01*
X122747873Y-134599500D01*
X122747865Y-134599500D01*
X122445753Y-134599500D01*
X122378714Y-134579815D01*
X122332959Y-134527011D01*
X122323015Y-134457853D01*
X122324136Y-134451309D01*
X122350499Y-134318770D01*
X122350500Y-134318768D01*
X122350500Y-134151232D01*
X122350499Y-134151228D01*
X122317817Y-133986925D01*
X122317816Y-133986918D01*
X122293053Y-133927135D01*
X124079500Y-133927135D01*
X124079500Y-137022870D01*
X124079501Y-137022876D01*
X124085908Y-137082483D01*
X124136202Y-137217328D01*
X124136206Y-137217335D01*
X124222452Y-137332544D01*
X124222455Y-137332547D01*
X124337664Y-137418793D01*
X124337671Y-137418797D01*
X124472517Y-137469091D01*
X124472516Y-137469091D01*
X124479444Y-137469835D01*
X124532127Y-137475500D01*
X126227872Y-137475499D01*
X126287483Y-137469091D01*
X126422331Y-137418796D01*
X126537546Y-137332546D01*
X126623796Y-137217331D01*
X126674091Y-137082483D01*
X126680500Y-137022873D01*
X126680499Y-133927128D01*
X126674091Y-133867517D01*
X126623796Y-133732669D01*
X126623795Y-133732668D01*
X126623793Y-133732664D01*
X126537547Y-133617455D01*
X126537544Y-133617452D01*
X126422335Y-133531206D01*
X126422328Y-133531202D01*
X126287482Y-133480908D01*
X126287483Y-133480908D01*
X126227883Y-133474501D01*
X126227881Y-133474500D01*
X126227873Y-133474500D01*
X126227864Y-133474500D01*
X124532129Y-133474500D01*
X124532123Y-133474501D01*
X124472516Y-133480908D01*
X124337671Y-133531202D01*
X124337664Y-133531206D01*
X124222455Y-133617452D01*
X124222452Y-133617455D01*
X124136206Y-133732664D01*
X124136202Y-133732671D01*
X124085908Y-133867517D01*
X124079501Y-133927116D01*
X124079501Y-133927123D01*
X124079500Y-133927135D01*
X122293053Y-133927135D01*
X122253703Y-133832137D01*
X122187242Y-133732671D01*
X122160626Y-133692837D01*
X122042162Y-133574373D01*
X121902860Y-133481295D01*
X121748082Y-133417184D01*
X121748074Y-133417182D01*
X121583771Y-133384500D01*
X121583767Y-133384500D01*
X121416233Y-133384500D01*
X121416228Y-133384500D01*
X121251925Y-133417182D01*
X121251917Y-133417184D01*
X121097139Y-133481295D01*
X120957837Y-133574373D01*
X120839373Y-133692837D01*
X120746295Y-133832139D01*
X120682184Y-133986917D01*
X120682182Y-133986925D01*
X120649500Y-134151228D01*
X120649500Y-134318771D01*
X120682182Y-134483074D01*
X120682184Y-134483082D01*
X120745796Y-134636655D01*
X120753265Y-134706125D01*
X120730502Y-134758419D01*
X120656204Y-134857668D01*
X120656202Y-134857671D01*
X120605908Y-134992517D01*
X120599501Y-135052116D01*
X120599501Y-135052123D01*
X120599500Y-135052135D01*
X118347354Y-135052135D01*
X118350500Y-135022873D01*
X118350499Y-131527128D01*
X118344091Y-131467517D01*
X118318722Y-131399500D01*
X118293797Y-131332671D01*
X118293793Y-131332664D01*
X118207547Y-131217455D01*
X118207544Y-131217452D01*
X118092335Y-131131206D01*
X118092328Y-131131202D01*
X117957482Y-131080908D01*
X117957483Y-131080908D01*
X117897883Y-131074501D01*
X117897881Y-131074500D01*
X117897873Y-131074500D01*
X117897864Y-131074500D01*
X117102129Y-131074500D01*
X117102123Y-131074501D01*
X117042516Y-131080908D01*
X116907671Y-131131202D01*
X116907664Y-131131206D01*
X116792455Y-131217452D01*
X116792452Y-131217455D01*
X116706206Y-131332664D01*
X116706202Y-131332671D01*
X116655908Y-131467517D01*
X116649501Y-131527116D01*
X116649501Y-131527123D01*
X116649500Y-131527135D01*
X116649500Y-135022870D01*
X116649501Y-135022876D01*
X116655908Y-135082483D01*
X116706202Y-135217328D01*
X116706203Y-135217329D01*
X116706204Y-135217331D01*
X116792452Y-135332543D01*
X116792455Y-135332547D01*
X116849810Y-135375482D01*
X116891682Y-135431415D01*
X116899500Y-135474749D01*
X116899500Y-138899051D01*
X116879815Y-138966090D01*
X116827011Y-139011845D01*
X116757853Y-139021789D01*
X116694297Y-138992764D01*
X116663642Y-138950253D01*
X116663641Y-138950254D01*
X116663631Y-138950237D01*
X116660940Y-138946505D01*
X116659577Y-138943215D01*
X116580524Y-138806290D01*
X116580518Y-138806282D01*
X111087590Y-133313355D01*
X111087588Y-133313352D01*
X110968717Y-133194481D01*
X110968716Y-133194480D01*
X110881904Y-133144360D01*
X110881904Y-133144359D01*
X110881900Y-133144358D01*
X110831785Y-133115423D01*
X110679057Y-133074499D01*
X110520943Y-133074499D01*
X110513347Y-133074499D01*
X110513331Y-133074500D01*
X110358440Y-133074500D01*
X110291401Y-133054815D01*
X110245646Y-133002011D01*
X110235702Y-132932853D01*
X110264727Y-132869297D01*
X110289549Y-132847398D01*
X110340602Y-132813284D01*
X110394352Y-132777370D01*
X110502370Y-132669352D01*
X110587239Y-132542337D01*
X110645698Y-132401205D01*
X110675500Y-132251380D01*
X110675500Y-132098620D01*
X110645698Y-131948795D01*
X110587239Y-131807663D01*
X110587238Y-131807662D01*
X110587235Y-131807656D01*
X110502370Y-131680648D01*
X110502367Y-131680644D01*
X110394355Y-131572632D01*
X110394351Y-131572629D01*
X110267343Y-131487764D01*
X110267334Y-131487759D01*
X110126205Y-131429302D01*
X110126197Y-131429300D01*
X109976384Y-131399500D01*
X109976380Y-131399500D01*
X109823620Y-131399500D01*
X109823615Y-131399500D01*
X109673802Y-131429300D01*
X109673794Y-131429302D01*
X109532665Y-131487759D01*
X109532656Y-131487764D01*
X109405648Y-131572629D01*
X109405644Y-131572632D01*
X109297632Y-131680644D01*
X109297629Y-131680648D01*
X109212764Y-131807656D01*
X109212759Y-131807665D01*
X109154302Y-131948794D01*
X109154300Y-131948802D01*
X109124500Y-132098615D01*
X109124500Y-132251384D01*
X109154300Y-132401197D01*
X109154302Y-132401205D01*
X109212759Y-132542334D01*
X109212764Y-132542343D01*
X109297629Y-132669351D01*
X109297632Y-132669355D01*
X109405644Y-132777367D01*
X109405648Y-132777370D01*
X109510451Y-132847398D01*
X109555256Y-132901010D01*
X109563963Y-132970335D01*
X109533808Y-133033363D01*
X109474365Y-133070082D01*
X109441560Y-133074500D01*
X105010098Y-133074500D01*
X104943059Y-133054815D01*
X104922417Y-133038181D01*
X102417590Y-130533355D01*
X102417588Y-130533352D01*
X102298717Y-130414481D01*
X102298716Y-130414480D01*
X102211904Y-130364360D01*
X102211904Y-130364359D01*
X102211900Y-130364358D01*
X102202496Y-130358928D01*
X102154283Y-130308362D01*
X102140499Y-130251543D01*
X102140499Y-128847129D01*
X102140498Y-128847123D01*
X102140497Y-128847116D01*
X102134091Y-128787517D01*
X102083796Y-128652669D01*
X102006421Y-128549309D01*
X101982004Y-128483848D01*
X101996855Y-128415575D01*
X102006416Y-128400696D01*
X102083796Y-128297331D01*
X102134091Y-128162483D01*
X102140500Y-128102873D01*
X102140499Y-126307128D01*
X102134091Y-126247517D01*
X102083796Y-126112669D01*
X102006421Y-126009309D01*
X101982004Y-125943848D01*
X101996855Y-125875575D01*
X102006416Y-125860696D01*
X102083796Y-125757331D01*
X102134091Y-125622483D01*
X102140500Y-125562873D01*
X102140500Y-125127135D01*
X108199500Y-125127135D01*
X108199500Y-129022870D01*
X108199501Y-129022876D01*
X108205908Y-129082483D01*
X108256202Y-129217328D01*
X108256206Y-129217335D01*
X108342452Y-129332544D01*
X108342455Y-129332547D01*
X108457664Y-129418793D01*
X108457671Y-129418797D01*
X108592517Y-129469091D01*
X108592516Y-129469091D01*
X108599444Y-129469835D01*
X108652127Y-129475500D01*
X110347872Y-129475499D01*
X110407483Y-129469091D01*
X110542331Y-129418796D01*
X110657546Y-129332546D01*
X110743796Y-129217331D01*
X110794091Y-129082483D01*
X110800500Y-129022873D01*
X110800499Y-125127128D01*
X110794091Y-125067517D01*
X110743796Y-124932669D01*
X110743795Y-124932668D01*
X110743793Y-124932664D01*
X110657547Y-124817455D01*
X110657544Y-124817452D01*
X110542335Y-124731206D01*
X110542328Y-124731202D01*
X110407482Y-124680908D01*
X110407483Y-124680908D01*
X110347883Y-124674501D01*
X110347881Y-124674500D01*
X110347873Y-124674500D01*
X110347864Y-124674500D01*
X108652129Y-124674500D01*
X108652123Y-124674501D01*
X108592516Y-124680908D01*
X108457671Y-124731202D01*
X108457664Y-124731206D01*
X108342455Y-124817452D01*
X108342452Y-124817455D01*
X108256206Y-124932664D01*
X108256202Y-124932671D01*
X108205908Y-125067517D01*
X108199501Y-125127116D01*
X108199501Y-125127123D01*
X108199500Y-125127135D01*
X102140500Y-125127135D01*
X102140499Y-123767128D01*
X102134091Y-123707517D01*
X102083796Y-123572669D01*
X102006421Y-123469309D01*
X101982004Y-123403848D01*
X101996855Y-123335575D01*
X102006416Y-123320696D01*
X102083796Y-123217331D01*
X102134091Y-123082483D01*
X102140500Y-123022873D01*
X102140499Y-121227128D01*
X102134091Y-121167517D01*
X102124899Y-121142873D01*
X102083797Y-121032671D01*
X102083795Y-121032668D01*
X102006421Y-120929309D01*
X101982004Y-120863848D01*
X101996855Y-120795575D01*
X102006416Y-120780696D01*
X102083796Y-120677331D01*
X102134091Y-120542483D01*
X102140500Y-120482873D01*
X102140499Y-118687128D01*
X102134091Y-118627517D01*
X102124977Y-118603082D01*
X102083797Y-118492671D01*
X102083795Y-118492668D01*
X102006421Y-118389309D01*
X101982004Y-118323848D01*
X101996855Y-118255575D01*
X102006416Y-118240696D01*
X102083796Y-118137331D01*
X102117437Y-118047135D01*
X108199500Y-118047135D01*
X108199500Y-121142870D01*
X108199501Y-121142876D01*
X108205908Y-121202483D01*
X108256202Y-121337328D01*
X108256206Y-121337335D01*
X108342452Y-121452544D01*
X108342455Y-121452547D01*
X108457664Y-121538793D01*
X108457671Y-121538797D01*
X108592517Y-121589091D01*
X108592516Y-121589091D01*
X108599444Y-121589835D01*
X108652127Y-121595500D01*
X110347872Y-121595499D01*
X110407483Y-121589091D01*
X110542331Y-121538796D01*
X110657546Y-121452546D01*
X110743796Y-121337331D01*
X110794091Y-121202483D01*
X110800500Y-121142873D01*
X110800499Y-118047128D01*
X110794091Y-117987517D01*
X110743796Y-117852669D01*
X110743795Y-117852668D01*
X110743793Y-117852664D01*
X110657547Y-117737455D01*
X110657544Y-117737452D01*
X110542335Y-117651206D01*
X110542328Y-117651202D01*
X110407482Y-117600908D01*
X110407483Y-117600908D01*
X110347883Y-117594501D01*
X110347881Y-117594500D01*
X110347873Y-117594500D01*
X110347864Y-117594500D01*
X108652129Y-117594500D01*
X108652123Y-117594501D01*
X108592516Y-117600908D01*
X108457671Y-117651202D01*
X108457664Y-117651206D01*
X108342455Y-117737452D01*
X108342452Y-117737455D01*
X108256206Y-117852664D01*
X108256202Y-117852671D01*
X108205908Y-117987517D01*
X108199501Y-118047116D01*
X108199501Y-118047123D01*
X108199500Y-118047135D01*
X102117437Y-118047135D01*
X102134091Y-118002483D01*
X102140500Y-117942873D01*
X102140499Y-116218615D01*
X109124500Y-116218615D01*
X109124500Y-116371384D01*
X109154300Y-116521197D01*
X109154302Y-116521205D01*
X109212759Y-116662334D01*
X109212764Y-116662343D01*
X109297629Y-116789351D01*
X109297632Y-116789355D01*
X109405644Y-116897367D01*
X109405648Y-116897370D01*
X109532656Y-116982235D01*
X109532662Y-116982238D01*
X109532663Y-116982239D01*
X109673795Y-117040698D01*
X109823615Y-117070499D01*
X109823619Y-117070500D01*
X109823620Y-117070500D01*
X109976381Y-117070500D01*
X109976382Y-117070499D01*
X110126205Y-117040698D01*
X110267337Y-116982239D01*
X110394352Y-116897370D01*
X110502370Y-116789352D01*
X110587239Y-116662337D01*
X110645698Y-116521205D01*
X110675500Y-116371380D01*
X110675500Y-116218620D01*
X110645698Y-116068795D01*
X110587239Y-115927663D01*
X110587238Y-115927662D01*
X110587235Y-115927656D01*
X110502370Y-115800648D01*
X110502367Y-115800644D01*
X110394355Y-115692632D01*
X110394351Y-115692629D01*
X110267343Y-115607764D01*
X110267334Y-115607759D01*
X110126205Y-115549302D01*
X110126197Y-115549300D01*
X109976384Y-115519500D01*
X109976380Y-115519500D01*
X109823620Y-115519500D01*
X109823615Y-115519500D01*
X109673802Y-115549300D01*
X109673794Y-115549302D01*
X109532665Y-115607759D01*
X109532656Y-115607764D01*
X109405648Y-115692629D01*
X109405644Y-115692632D01*
X109297632Y-115800644D01*
X109297629Y-115800648D01*
X109212764Y-115927656D01*
X109212759Y-115927665D01*
X109154302Y-116068794D01*
X109154300Y-116068802D01*
X109124500Y-116218615D01*
X102140499Y-116218615D01*
X102140499Y-116147128D01*
X102134091Y-116087517D01*
X102127108Y-116068795D01*
X102083797Y-115952671D01*
X102083795Y-115952668D01*
X102065071Y-115927656D01*
X102006421Y-115849309D01*
X101982004Y-115783848D01*
X101996855Y-115715575D01*
X102006416Y-115700696D01*
X102083796Y-115597331D01*
X102134091Y-115462483D01*
X102140500Y-115402873D01*
X102140499Y-113607128D01*
X102134091Y-113547517D01*
X102130838Y-113538796D01*
X102083797Y-113412671D01*
X102083795Y-113412668D01*
X102006421Y-113309309D01*
X101982004Y-113243848D01*
X101996855Y-113175575D01*
X102006416Y-113160696D01*
X102083796Y-113057331D01*
X102134091Y-112922483D01*
X102140500Y-112862873D01*
X102140499Y-111067128D01*
X102134091Y-111007517D01*
X102111253Y-110946286D01*
X102083797Y-110872671D01*
X102083795Y-110872668D01*
X102055208Y-110834481D01*
X102006421Y-110769309D01*
X101982004Y-110703848D01*
X101996855Y-110635575D01*
X102006416Y-110620696D01*
X102083796Y-110517331D01*
X102134091Y-110382483D01*
X102140500Y-110322873D01*
X102140499Y-109247135D01*
X108199500Y-109247135D01*
X108199500Y-113142870D01*
X108199501Y-113142876D01*
X108205908Y-113202483D01*
X108256202Y-113337328D01*
X108256206Y-113337335D01*
X108342452Y-113452544D01*
X108342455Y-113452547D01*
X108457664Y-113538793D01*
X108457671Y-113538797D01*
X108592517Y-113589091D01*
X108592516Y-113589091D01*
X108599444Y-113589835D01*
X108652127Y-113595500D01*
X110347872Y-113595499D01*
X110407483Y-113589091D01*
X110542331Y-113538796D01*
X110657546Y-113452546D01*
X110743796Y-113337331D01*
X110794091Y-113202483D01*
X110800500Y-113142873D01*
X110800499Y-109247128D01*
X110794091Y-109187517D01*
X110780866Y-109152060D01*
X110743797Y-109052671D01*
X110743793Y-109052664D01*
X110657547Y-108937455D01*
X110657544Y-108937452D01*
X110542335Y-108851206D01*
X110542328Y-108851202D01*
X110407482Y-108800908D01*
X110407483Y-108800908D01*
X110347883Y-108794501D01*
X110347881Y-108794500D01*
X110347873Y-108794500D01*
X110347864Y-108794500D01*
X108652129Y-108794500D01*
X108652123Y-108794501D01*
X108592516Y-108800908D01*
X108457671Y-108851202D01*
X108457664Y-108851206D01*
X108342455Y-108937452D01*
X108342452Y-108937455D01*
X108256206Y-109052664D01*
X108256202Y-109052671D01*
X108205908Y-109187517D01*
X108202513Y-109219099D01*
X108199501Y-109247123D01*
X108199500Y-109247135D01*
X102140499Y-109247135D01*
X102140499Y-108527128D01*
X102134091Y-108467517D01*
X102083796Y-108332669D01*
X102006421Y-108229309D01*
X101982004Y-108163848D01*
X101996855Y-108095575D01*
X102006416Y-108080696D01*
X102083796Y-107977331D01*
X102134091Y-107842483D01*
X102140500Y-107782873D01*
X102140499Y-105987128D01*
X102134091Y-105927517D01*
X102083796Y-105792669D01*
X102006421Y-105689309D01*
X101982004Y-105623848D01*
X101996855Y-105555575D01*
X102006416Y-105540696D01*
X102083796Y-105437331D01*
X102134091Y-105302483D01*
X102140500Y-105242873D01*
X102140499Y-103447128D01*
X102134091Y-103387517D01*
X102098513Y-103292128D01*
X102083797Y-103252671D01*
X102083795Y-103252668D01*
X102068709Y-103232516D01*
X102006421Y-103149309D01*
X101982004Y-103083848D01*
X101996855Y-103015575D01*
X102006416Y-103000696D01*
X102083796Y-102897331D01*
X102134091Y-102762483D01*
X102140500Y-102702873D01*
X102140500Y-102167135D01*
X108199500Y-102167135D01*
X108199500Y-105262870D01*
X108199501Y-105262876D01*
X108205908Y-105322483D01*
X108256202Y-105457328D01*
X108256206Y-105457335D01*
X108342452Y-105572544D01*
X108342455Y-105572547D01*
X108457664Y-105658793D01*
X108457671Y-105658797D01*
X108592517Y-105709091D01*
X108592516Y-105709091D01*
X108599444Y-105709835D01*
X108652127Y-105715500D01*
X110347872Y-105715499D01*
X110407483Y-105709091D01*
X110542331Y-105658796D01*
X110657546Y-105572546D01*
X110743796Y-105457331D01*
X110794091Y-105322483D01*
X110800500Y-105262873D01*
X110800499Y-102167128D01*
X110794091Y-102107517D01*
X110743796Y-101972669D01*
X110743795Y-101972668D01*
X110743793Y-101972664D01*
X110657547Y-101857455D01*
X110657544Y-101857452D01*
X110542335Y-101771206D01*
X110542328Y-101771202D01*
X110407482Y-101720908D01*
X110407483Y-101720908D01*
X110347883Y-101714501D01*
X110347881Y-101714500D01*
X110347873Y-101714500D01*
X110347864Y-101714500D01*
X108652129Y-101714500D01*
X108652123Y-101714501D01*
X108592516Y-101720908D01*
X108457671Y-101771202D01*
X108457664Y-101771206D01*
X108342455Y-101857452D01*
X108342452Y-101857455D01*
X108256206Y-101972664D01*
X108256202Y-101972671D01*
X108205908Y-102107517D01*
X108199501Y-102167116D01*
X108199501Y-102167123D01*
X108199500Y-102167135D01*
X102140500Y-102167135D01*
X102140499Y-100907128D01*
X102134091Y-100847517D01*
X102109780Y-100782337D01*
X102083797Y-100712671D01*
X102083795Y-100712668D01*
X102006421Y-100609309D01*
X101982004Y-100543848D01*
X101996855Y-100475575D01*
X102006416Y-100460696D01*
X102083796Y-100357331D01*
X102090777Y-100338615D01*
X109124500Y-100338615D01*
X109124500Y-100491384D01*
X109154300Y-100641197D01*
X109154302Y-100641205D01*
X109212759Y-100782334D01*
X109212764Y-100782343D01*
X109297629Y-100909351D01*
X109297632Y-100909355D01*
X109405644Y-101017367D01*
X109405648Y-101017370D01*
X109532656Y-101102235D01*
X109532662Y-101102238D01*
X109532663Y-101102239D01*
X109673795Y-101160698D01*
X109791214Y-101184054D01*
X109823615Y-101190499D01*
X109823619Y-101190500D01*
X109823620Y-101190500D01*
X109976381Y-101190500D01*
X109976382Y-101190499D01*
X110126205Y-101160698D01*
X110267337Y-101102239D01*
X110394352Y-101017370D01*
X110502370Y-100909352D01*
X110587239Y-100782337D01*
X110645698Y-100641205D01*
X110675500Y-100491380D01*
X110675500Y-100338620D01*
X110645698Y-100188795D01*
X110587239Y-100047663D01*
X110587238Y-100047662D01*
X110587235Y-100047656D01*
X110502370Y-99920648D01*
X110502367Y-99920644D01*
X110394355Y-99812632D01*
X110394351Y-99812629D01*
X110267343Y-99727764D01*
X110267334Y-99727759D01*
X110126205Y-99669302D01*
X110126197Y-99669300D01*
X109976384Y-99639500D01*
X109976380Y-99639500D01*
X109823620Y-99639500D01*
X109823615Y-99639500D01*
X109673802Y-99669300D01*
X109673794Y-99669302D01*
X109532665Y-99727759D01*
X109532656Y-99727764D01*
X109405648Y-99812629D01*
X109405644Y-99812632D01*
X109297632Y-99920644D01*
X109297629Y-99920648D01*
X109212764Y-100047656D01*
X109212759Y-100047665D01*
X109154302Y-100188794D01*
X109154300Y-100188802D01*
X109124500Y-100338615D01*
X102090777Y-100338615D01*
X102134091Y-100222483D01*
X102140500Y-100162873D01*
X102140499Y-98367128D01*
X102134091Y-98307517D01*
X102083796Y-98172669D01*
X102006421Y-98069309D01*
X101982004Y-98003848D01*
X101996855Y-97935575D01*
X102006416Y-97920696D01*
X102083796Y-97817331D01*
X102134091Y-97682483D01*
X102140500Y-97622873D01*
X102140499Y-95827128D01*
X102134091Y-95767517D01*
X102123339Y-95738690D01*
X102083797Y-95632671D01*
X102083795Y-95632668D01*
X102006421Y-95529309D01*
X101982004Y-95463848D01*
X101996855Y-95395575D01*
X102006416Y-95380696D01*
X102083796Y-95277331D01*
X102134091Y-95142483D01*
X102140500Y-95082873D01*
X102140499Y-93539499D01*
X102160184Y-93472461D01*
X102212987Y-93426706D01*
X102264499Y-93415500D01*
X108075500Y-93415500D01*
X108142539Y-93435185D01*
X108188294Y-93487989D01*
X108199500Y-93539500D01*
X108199500Y-97262870D01*
X108199501Y-97262876D01*
X108205908Y-97322483D01*
X108256202Y-97457328D01*
X108256206Y-97457335D01*
X108342452Y-97572544D01*
X108342455Y-97572547D01*
X108457664Y-97658793D01*
X108457671Y-97658797D01*
X108592517Y-97709091D01*
X108592516Y-97709091D01*
X108599444Y-97709835D01*
X108652127Y-97715500D01*
X110347872Y-97715499D01*
X110407483Y-97709091D01*
X110542331Y-97658796D01*
X110657546Y-97572546D01*
X110743796Y-97457331D01*
X110794091Y-97322483D01*
X110800500Y-97262873D01*
X110800499Y-94464095D01*
X110820184Y-94397057D01*
X110872987Y-94351302D01*
X110942146Y-94341358D01*
X111005702Y-94370383D01*
X111012180Y-94376415D01*
X114413181Y-97777416D01*
X114446666Y-97838739D01*
X114449500Y-97865097D01*
X114449500Y-99315249D01*
X114429815Y-99382288D01*
X114399812Y-99414515D01*
X114342457Y-99457451D01*
X114342451Y-99457457D01*
X114256206Y-99572664D01*
X114256202Y-99572671D01*
X114205908Y-99707517D01*
X114199501Y-99767116D01*
X114199501Y-99767123D01*
X114199500Y-99767135D01*
X114199500Y-103262870D01*
X114199501Y-103262876D01*
X114205908Y-103322483D01*
X114256202Y-103457328D01*
X114256203Y-103457329D01*
X114256204Y-103457331D01*
X114342452Y-103572543D01*
X114342455Y-103572547D01*
X114399810Y-103615482D01*
X114441682Y-103671415D01*
X114449500Y-103714749D01*
X114449500Y-115195249D01*
X114429815Y-115262288D01*
X114399812Y-115294515D01*
X114342457Y-115337451D01*
X114342451Y-115337457D01*
X114256206Y-115452664D01*
X114256202Y-115452671D01*
X114205908Y-115587517D01*
X114199501Y-115647116D01*
X114199501Y-115647123D01*
X114199500Y-115647135D01*
X114199500Y-119142870D01*
X114199501Y-119142876D01*
X114205908Y-119202483D01*
X114256202Y-119337328D01*
X114256203Y-119337329D01*
X114256204Y-119337331D01*
X114342452Y-119452543D01*
X114342455Y-119452547D01*
X114399810Y-119495482D01*
X114441682Y-119551415D01*
X114449500Y-119594749D01*
X114449500Y-131075249D01*
X114429815Y-131142288D01*
X114399812Y-131174515D01*
X114342457Y-131217451D01*
X114342451Y-131217457D01*
X114256206Y-131332664D01*
X114256202Y-131332671D01*
X114205908Y-131467517D01*
X114199501Y-131527116D01*
X114199501Y-131527123D01*
X114199500Y-131527135D01*
X114199500Y-135022870D01*
X114199501Y-135022876D01*
X114205908Y-135082483D01*
X114256202Y-135217328D01*
X114256206Y-135217335D01*
X114342452Y-135332544D01*
X114342455Y-135332547D01*
X114457664Y-135418793D01*
X114457671Y-135418797D01*
X114592517Y-135469091D01*
X114592516Y-135469091D01*
X114599444Y-135469835D01*
X114652127Y-135475500D01*
X115447872Y-135475499D01*
X115507483Y-135469091D01*
X115642331Y-135418796D01*
X115757546Y-135332546D01*
X115843796Y-135217331D01*
X115894091Y-135082483D01*
X115900500Y-135022873D01*
X115900499Y-131527128D01*
X115894091Y-131467517D01*
X115868722Y-131399500D01*
X115843797Y-131332671D01*
X115843793Y-131332664D01*
X115757548Y-131217457D01*
X115757546Y-131217454D01*
X115757542Y-131217451D01*
X115700188Y-131174515D01*
X115658318Y-131118581D01*
X115650500Y-131075249D01*
X115650500Y-129627135D01*
X120599500Y-129627135D01*
X120599500Y-132322870D01*
X120599501Y-132322876D01*
X120605908Y-132382483D01*
X120656202Y-132517328D01*
X120656206Y-132517335D01*
X120742452Y-132632544D01*
X120742455Y-132632547D01*
X120857664Y-132718793D01*
X120857671Y-132718797D01*
X120992517Y-132769091D01*
X120992516Y-132769091D01*
X120999444Y-132769835D01*
X121052127Y-132775500D01*
X122747872Y-132775499D01*
X122807483Y-132769091D01*
X122942331Y-132718796D01*
X123057546Y-132632546D01*
X123143796Y-132517331D01*
X123194091Y-132382483D01*
X123200500Y-132322873D01*
X123200500Y-132098615D01*
X125004500Y-132098615D01*
X125004500Y-132251384D01*
X125034300Y-132401197D01*
X125034302Y-132401205D01*
X125092759Y-132542334D01*
X125092764Y-132542343D01*
X125177629Y-132669351D01*
X125177632Y-132669355D01*
X125285644Y-132777367D01*
X125285648Y-132777370D01*
X125412656Y-132862235D01*
X125412662Y-132862238D01*
X125412663Y-132862239D01*
X125553795Y-132920698D01*
X125703615Y-132950499D01*
X125703619Y-132950500D01*
X125703620Y-132950500D01*
X125856381Y-132950500D01*
X125856382Y-132950499D01*
X126006205Y-132920698D01*
X126147337Y-132862239D01*
X126274352Y-132777370D01*
X126382370Y-132669352D01*
X126467239Y-132542337D01*
X126525698Y-132401205D01*
X126555500Y-132251380D01*
X126555500Y-132098620D01*
X126525698Y-131948795D01*
X126467239Y-131807663D01*
X126467238Y-131807662D01*
X126467235Y-131807656D01*
X126382370Y-131680648D01*
X126382367Y-131680644D01*
X126274355Y-131572632D01*
X126274351Y-131572629D01*
X126147343Y-131487764D01*
X126147334Y-131487759D01*
X126006205Y-131429302D01*
X126006197Y-131429300D01*
X125856384Y-131399500D01*
X125856380Y-131399500D01*
X125703620Y-131399500D01*
X125703615Y-131399500D01*
X125553802Y-131429300D01*
X125553794Y-131429302D01*
X125412665Y-131487759D01*
X125412656Y-131487764D01*
X125285648Y-131572629D01*
X125285644Y-131572632D01*
X125177632Y-131680644D01*
X125177629Y-131680648D01*
X125092764Y-131807656D01*
X125092759Y-131807665D01*
X125034302Y-131948794D01*
X125034300Y-131948802D01*
X125004500Y-132098615D01*
X123200500Y-132098615D01*
X123200499Y-129627128D01*
X123194091Y-129567517D01*
X123143796Y-129432669D01*
X123143795Y-129432668D01*
X123143793Y-129432664D01*
X123057547Y-129317455D01*
X123057544Y-129317452D01*
X122942335Y-129231206D01*
X122942328Y-129231202D01*
X122807482Y-129180908D01*
X122807483Y-129180908D01*
X122747883Y-129174501D01*
X122747881Y-129174500D01*
X122747873Y-129174500D01*
X122747864Y-129174500D01*
X121052129Y-129174500D01*
X121052123Y-129174501D01*
X120992516Y-129180908D01*
X120857671Y-129231202D01*
X120857664Y-129231206D01*
X120742455Y-129317452D01*
X120742452Y-129317455D01*
X120656206Y-129432664D01*
X120656202Y-129432671D01*
X120605908Y-129567517D01*
X120599501Y-129627116D01*
X120599501Y-129627123D01*
X120599500Y-129627135D01*
X115650500Y-129627135D01*
X115650500Y-125002135D01*
X120599500Y-125002135D01*
X120599500Y-126897870D01*
X120599501Y-126897876D01*
X120605908Y-126957483D01*
X120656202Y-127092328D01*
X120656203Y-127092330D01*
X120730502Y-127191580D01*
X120754919Y-127257044D01*
X120745796Y-127313343D01*
X120682185Y-127466913D01*
X120682182Y-127466925D01*
X120649500Y-127631228D01*
X120649500Y-127798771D01*
X120682182Y-127963074D01*
X120682184Y-127963082D01*
X120746295Y-128117860D01*
X120839373Y-128257162D01*
X120957837Y-128375626D01*
X121050494Y-128437537D01*
X121097137Y-128468703D01*
X121251918Y-128532816D01*
X121416228Y-128565499D01*
X121416232Y-128565500D01*
X121416233Y-128565500D01*
X121583768Y-128565500D01*
X121583769Y-128565499D01*
X121748082Y-128532816D01*
X121902863Y-128468703D01*
X122042162Y-128375626D01*
X122160626Y-128257162D01*
X122253703Y-128117863D01*
X122317816Y-127963082D01*
X122350500Y-127798767D01*
X122350500Y-127631233D01*
X122324136Y-127498690D01*
X122330363Y-127429099D01*
X122373226Y-127373921D01*
X122439116Y-127350677D01*
X122445753Y-127350499D01*
X122747871Y-127350499D01*
X122747872Y-127350499D01*
X122807483Y-127344091D01*
X122942331Y-127293796D01*
X123057546Y-127207546D01*
X123143796Y-127092331D01*
X123194091Y-126957483D01*
X123200500Y-126897873D01*
X123200499Y-125127135D01*
X124079500Y-125127135D01*
X124079500Y-129022870D01*
X124079501Y-129022876D01*
X124085908Y-129082483D01*
X124136202Y-129217328D01*
X124136206Y-129217335D01*
X124222452Y-129332544D01*
X124222455Y-129332547D01*
X124337664Y-129418793D01*
X124337671Y-129418797D01*
X124472517Y-129469091D01*
X124472516Y-129469091D01*
X124479444Y-129469835D01*
X124532127Y-129475500D01*
X126227872Y-129475499D01*
X126287483Y-129469091D01*
X126422331Y-129418796D01*
X126537546Y-129332546D01*
X126623796Y-129217331D01*
X126674091Y-129082483D01*
X126680500Y-129022873D01*
X126680499Y-125127128D01*
X126674091Y-125067517D01*
X126623796Y-124932669D01*
X126623795Y-124932668D01*
X126623793Y-124932664D01*
X126537547Y-124817455D01*
X126537544Y-124817452D01*
X126422335Y-124731206D01*
X126422328Y-124731202D01*
X126287482Y-124680908D01*
X126287483Y-124680908D01*
X126227883Y-124674501D01*
X126227881Y-124674500D01*
X126227873Y-124674500D01*
X126227864Y-124674500D01*
X124532129Y-124674500D01*
X124532123Y-124674501D01*
X124472516Y-124680908D01*
X124337671Y-124731202D01*
X124337664Y-124731206D01*
X124222455Y-124817452D01*
X124222452Y-124817455D01*
X124136206Y-124932664D01*
X124136202Y-124932671D01*
X124085908Y-125067517D01*
X124079501Y-125127116D01*
X124079501Y-125127123D01*
X124079500Y-125127135D01*
X123200499Y-125127135D01*
X123200499Y-125002128D01*
X123194091Y-124942517D01*
X123143796Y-124807669D01*
X123143795Y-124807668D01*
X123143793Y-124807664D01*
X123057547Y-124692455D01*
X123057544Y-124692452D01*
X122942335Y-124606206D01*
X122942328Y-124606202D01*
X122807482Y-124555908D01*
X122807483Y-124555908D01*
X122747883Y-124549501D01*
X122747881Y-124549500D01*
X122747873Y-124549500D01*
X122747864Y-124549500D01*
X121052129Y-124549500D01*
X121052123Y-124549501D01*
X120992516Y-124555908D01*
X120857671Y-124606202D01*
X120857664Y-124606206D01*
X120742455Y-124692452D01*
X120742452Y-124692455D01*
X120656206Y-124807664D01*
X120656202Y-124807671D01*
X120605908Y-124942517D01*
X120599501Y-125002116D01*
X120599501Y-125002123D01*
X120599500Y-125002135D01*
X115650500Y-125002135D01*
X115650500Y-119594749D01*
X115670185Y-119527710D01*
X115700190Y-119495482D01*
X115757546Y-119452546D01*
X115843796Y-119337331D01*
X115894091Y-119202483D01*
X115900500Y-119142873D01*
X115900499Y-115647128D01*
X115894091Y-115587517D01*
X115868722Y-115519500D01*
X115843797Y-115452671D01*
X115843793Y-115452664D01*
X115757548Y-115337457D01*
X115757546Y-115337454D01*
X115757542Y-115337451D01*
X115700188Y-115294515D01*
X115658318Y-115238581D01*
X115650500Y-115195249D01*
X115650500Y-112956010D01*
X115670185Y-112888971D01*
X115722989Y-112843216D01*
X115792147Y-112833272D01*
X115809095Y-112836934D01*
X115897426Y-112862597D01*
X115897429Y-112862597D01*
X115897431Y-112862598D01*
X115934306Y-112865500D01*
X115934314Y-112865500D01*
X116365686Y-112865500D01*
X116365694Y-112865500D01*
X116402569Y-112862598D01*
X116402571Y-112862597D01*
X116402573Y-112862597D01*
X116460501Y-112845767D01*
X116560398Y-112816744D01*
X116694327Y-112737539D01*
X116708580Y-112729110D01*
X116709655Y-112730928D01*
X116764532Y-112709381D01*
X116833050Y-112723059D01*
X116883296Y-112771609D01*
X116899500Y-112832895D01*
X116899500Y-115195249D01*
X116879815Y-115262288D01*
X116849812Y-115294515D01*
X116792457Y-115337451D01*
X116792451Y-115337457D01*
X116706206Y-115452664D01*
X116706202Y-115452671D01*
X116655908Y-115587517D01*
X116649501Y-115647116D01*
X116649501Y-115647123D01*
X116649500Y-115647135D01*
X116649500Y-119142870D01*
X116649501Y-119142876D01*
X116655908Y-119202483D01*
X116706202Y-119337328D01*
X116706206Y-119337335D01*
X116792452Y-119452544D01*
X116792455Y-119452547D01*
X116907664Y-119538793D01*
X116907671Y-119538797D01*
X117042517Y-119589091D01*
X117042516Y-119589091D01*
X117049444Y-119589835D01*
X117102127Y-119595500D01*
X117897872Y-119595499D01*
X117957483Y-119589091D01*
X118092331Y-119538796D01*
X118207546Y-119452546D01*
X118293796Y-119337331D01*
X118344091Y-119202483D01*
X118347354Y-119172135D01*
X120599500Y-119172135D01*
X120599500Y-121067870D01*
X120599501Y-121067876D01*
X120605908Y-121127483D01*
X120656202Y-121262328D01*
X120656206Y-121262335D01*
X120742452Y-121377544D01*
X120742455Y-121377547D01*
X120857664Y-121463793D01*
X120857671Y-121463797D01*
X120992517Y-121514091D01*
X120992516Y-121514091D01*
X120999444Y-121514835D01*
X121052127Y-121520500D01*
X122747872Y-121520499D01*
X122807483Y-121514091D01*
X122942331Y-121463796D01*
X123057546Y-121377546D01*
X123143796Y-121262331D01*
X123194091Y-121127483D01*
X123200500Y-121067873D01*
X123200499Y-119172128D01*
X123194091Y-119112517D01*
X123143796Y-118977669D01*
X123143795Y-118977668D01*
X123143793Y-118977664D01*
X123057547Y-118862455D01*
X123057544Y-118862452D01*
X122942335Y-118776206D01*
X122942328Y-118776202D01*
X122807482Y-118725908D01*
X122807483Y-118725908D01*
X122747883Y-118719501D01*
X122747881Y-118719500D01*
X122747873Y-118719500D01*
X122747865Y-118719500D01*
X122445753Y-118719500D01*
X122378714Y-118699815D01*
X122332959Y-118647011D01*
X122323015Y-118577853D01*
X122324136Y-118571309D01*
X122339778Y-118492669D01*
X122350500Y-118438767D01*
X122350500Y-118271233D01*
X122317816Y-118106918D01*
X122293053Y-118047135D01*
X124079500Y-118047135D01*
X124079500Y-121142870D01*
X124079501Y-121142876D01*
X124085908Y-121202483D01*
X124136202Y-121337328D01*
X124136206Y-121337335D01*
X124222452Y-121452544D01*
X124222455Y-121452547D01*
X124337664Y-121538793D01*
X124337671Y-121538797D01*
X124472517Y-121589091D01*
X124472516Y-121589091D01*
X124479444Y-121589835D01*
X124532127Y-121595500D01*
X126227872Y-121595499D01*
X126287483Y-121589091D01*
X126422331Y-121538796D01*
X126537546Y-121452546D01*
X126623796Y-121337331D01*
X126674091Y-121202483D01*
X126680500Y-121142873D01*
X126680499Y-118047128D01*
X126674091Y-117987517D01*
X126623796Y-117852669D01*
X126623795Y-117852668D01*
X126623793Y-117852664D01*
X126537547Y-117737455D01*
X126537544Y-117737452D01*
X126422335Y-117651206D01*
X126422328Y-117651202D01*
X126287482Y-117600908D01*
X126287483Y-117600908D01*
X126227883Y-117594501D01*
X126227881Y-117594500D01*
X126227873Y-117594500D01*
X126227864Y-117594500D01*
X124532129Y-117594500D01*
X124532123Y-117594501D01*
X124472516Y-117600908D01*
X124337671Y-117651202D01*
X124337664Y-117651206D01*
X124222455Y-117737452D01*
X124222452Y-117737455D01*
X124136206Y-117852664D01*
X124136202Y-117852671D01*
X124085908Y-117987517D01*
X124079501Y-118047116D01*
X124079501Y-118047123D01*
X124079500Y-118047135D01*
X122293053Y-118047135D01*
X122253703Y-117952137D01*
X122187242Y-117852671D01*
X122160626Y-117812837D01*
X122042162Y-117694373D01*
X121902860Y-117601295D01*
X121748082Y-117537184D01*
X121748074Y-117537182D01*
X121583771Y-117504500D01*
X121583767Y-117504500D01*
X121416233Y-117504500D01*
X121416228Y-117504500D01*
X121251925Y-117537182D01*
X121251917Y-117537184D01*
X121097139Y-117601295D01*
X120957837Y-117694373D01*
X120839373Y-117812837D01*
X120746295Y-117952139D01*
X120682184Y-118106917D01*
X120682182Y-118106925D01*
X120649500Y-118271228D01*
X120649500Y-118438771D01*
X120682182Y-118603074D01*
X120682184Y-118603082D01*
X120745796Y-118756655D01*
X120753265Y-118826125D01*
X120730502Y-118878419D01*
X120656204Y-118977668D01*
X120656202Y-118977671D01*
X120605908Y-119112517D01*
X120602644Y-119142883D01*
X120599501Y-119172123D01*
X120599500Y-119172135D01*
X118347354Y-119172135D01*
X118350500Y-119142873D01*
X118350499Y-115647128D01*
X118344091Y-115587517D01*
X118318722Y-115519500D01*
X118293797Y-115452671D01*
X118293793Y-115452664D01*
X118207548Y-115337457D01*
X118207546Y-115337454D01*
X118207542Y-115337451D01*
X118150188Y-115294515D01*
X118108318Y-115238581D01*
X118100500Y-115195249D01*
X118100500Y-112785809D01*
X118120185Y-112718770D01*
X118136819Y-112698128D01*
X118218076Y-112616870D01*
X118218081Y-112616865D01*
X118249883Y-112563089D01*
X118300949Y-112515408D01*
X118369690Y-112502902D01*
X118434280Y-112529547D01*
X118444295Y-112538530D01*
X119665139Y-113759374D01*
X119665149Y-113759385D01*
X119669479Y-113763715D01*
X119669480Y-113763716D01*
X119781284Y-113875520D01*
X119866121Y-113924500D01*
X119918215Y-113954577D01*
X120070942Y-113995500D01*
X120070943Y-113995500D01*
X120475500Y-113995500D01*
X120542539Y-114015185D01*
X120588294Y-114067989D01*
X120599500Y-114119500D01*
X120599500Y-116442870D01*
X120599501Y-116442876D01*
X120605908Y-116502483D01*
X120656202Y-116637328D01*
X120656206Y-116637335D01*
X120742452Y-116752544D01*
X120742455Y-116752547D01*
X120857664Y-116838793D01*
X120857671Y-116838797D01*
X120992517Y-116889091D01*
X120992516Y-116889091D01*
X120999444Y-116889835D01*
X121052127Y-116895500D01*
X122747872Y-116895499D01*
X122807483Y-116889091D01*
X122942331Y-116838796D01*
X123057546Y-116752546D01*
X123143796Y-116637331D01*
X123194091Y-116502483D01*
X123200500Y-116442873D01*
X123200500Y-116218615D01*
X125004500Y-116218615D01*
X125004500Y-116371384D01*
X125034300Y-116521197D01*
X125034302Y-116521205D01*
X125092759Y-116662334D01*
X125092764Y-116662343D01*
X125177629Y-116789351D01*
X125177632Y-116789355D01*
X125285644Y-116897367D01*
X125285648Y-116897370D01*
X125412656Y-116982235D01*
X125412662Y-116982238D01*
X125412663Y-116982239D01*
X125553795Y-117040698D01*
X125703615Y-117070499D01*
X125703619Y-117070500D01*
X125703620Y-117070500D01*
X125856381Y-117070500D01*
X125856382Y-117070499D01*
X126006205Y-117040698D01*
X126147337Y-116982239D01*
X126274352Y-116897370D01*
X126382370Y-116789352D01*
X126467239Y-116662337D01*
X126525698Y-116521205D01*
X126555500Y-116371380D01*
X126555500Y-116218620D01*
X126525698Y-116068795D01*
X126467239Y-115927663D01*
X126467238Y-115927662D01*
X126467235Y-115927656D01*
X126382370Y-115800648D01*
X126382367Y-115800644D01*
X126274355Y-115692632D01*
X126274351Y-115692629D01*
X126147343Y-115607764D01*
X126147334Y-115607759D01*
X126006205Y-115549302D01*
X126006197Y-115549300D01*
X125856384Y-115519500D01*
X125856380Y-115519500D01*
X125703620Y-115519500D01*
X125703615Y-115519500D01*
X125553802Y-115549300D01*
X125553794Y-115549302D01*
X125412665Y-115607759D01*
X125412656Y-115607764D01*
X125285648Y-115692629D01*
X125285644Y-115692632D01*
X125177632Y-115800644D01*
X125177629Y-115800648D01*
X125092764Y-115927656D01*
X125092759Y-115927665D01*
X125034302Y-116068794D01*
X125034300Y-116068802D01*
X125004500Y-116218615D01*
X123200500Y-116218615D01*
X123200499Y-114119499D01*
X123220184Y-114052461D01*
X123272987Y-114006706D01*
X123324499Y-113995500D01*
X129941677Y-113995500D01*
X130008716Y-114015185D01*
X130054471Y-114067989D01*
X130064897Y-114133383D01*
X130044435Y-114314996D01*
X130044435Y-114315003D01*
X130064630Y-114494249D01*
X130064631Y-114494254D01*
X130124211Y-114664523D01*
X130220184Y-114817262D01*
X130293181Y-114890259D01*
X130326666Y-114951582D01*
X130329500Y-114977940D01*
X130329500Y-115195249D01*
X130309815Y-115262288D01*
X130279812Y-115294515D01*
X130222457Y-115337451D01*
X130222451Y-115337457D01*
X130136206Y-115452664D01*
X130136202Y-115452671D01*
X130085908Y-115587517D01*
X130079501Y-115647116D01*
X130079501Y-115647123D01*
X130079500Y-115647135D01*
X130079500Y-119142870D01*
X130079501Y-119142876D01*
X130085908Y-119202483D01*
X130136202Y-119337328D01*
X130136203Y-119337329D01*
X130136204Y-119337331D01*
X130222452Y-119452543D01*
X130222455Y-119452547D01*
X130279810Y-119495482D01*
X130321682Y-119551415D01*
X130329500Y-119594749D01*
X130329500Y-131075249D01*
X130309815Y-131142288D01*
X130279812Y-131174515D01*
X130222457Y-131217451D01*
X130222451Y-131217457D01*
X130136206Y-131332664D01*
X130136202Y-131332671D01*
X130085908Y-131467517D01*
X130079501Y-131527116D01*
X130079501Y-131527123D01*
X130079500Y-131527135D01*
X130079500Y-135022870D01*
X130079501Y-135022876D01*
X130085908Y-135082483D01*
X130136202Y-135217328D01*
X130136206Y-135217335D01*
X130222452Y-135332544D01*
X130222455Y-135332547D01*
X130337664Y-135418793D01*
X130337671Y-135418797D01*
X130472517Y-135469091D01*
X130472516Y-135469091D01*
X130479444Y-135469835D01*
X130532127Y-135475500D01*
X131327872Y-135475499D01*
X131387483Y-135469091D01*
X131522331Y-135418796D01*
X131637546Y-135332546D01*
X131723796Y-135217331D01*
X131774091Y-135082483D01*
X131780500Y-135022873D01*
X131780499Y-131527128D01*
X131774091Y-131467517D01*
X131748722Y-131399500D01*
X131723797Y-131332671D01*
X131723793Y-131332664D01*
X131637548Y-131217457D01*
X131637546Y-131217454D01*
X131637542Y-131217451D01*
X131580188Y-131174515D01*
X131538318Y-131118581D01*
X131530500Y-131075249D01*
X131530500Y-129627135D01*
X136479500Y-129627135D01*
X136479500Y-132322870D01*
X136479501Y-132322876D01*
X136485908Y-132382483D01*
X136536202Y-132517328D01*
X136536206Y-132517335D01*
X136622452Y-132632544D01*
X136622455Y-132632547D01*
X136737664Y-132718793D01*
X136737671Y-132718797D01*
X136872517Y-132769091D01*
X136872516Y-132769091D01*
X136879444Y-132769835D01*
X136932127Y-132775500D01*
X138627872Y-132775499D01*
X138687483Y-132769091D01*
X138822331Y-132718796D01*
X138937546Y-132632546D01*
X139023796Y-132517331D01*
X139074091Y-132382483D01*
X139080500Y-132322873D01*
X139080500Y-132098615D01*
X140884500Y-132098615D01*
X140884500Y-132251384D01*
X140914300Y-132401197D01*
X140914302Y-132401205D01*
X140972759Y-132542334D01*
X140972764Y-132542343D01*
X141057629Y-132669351D01*
X141057632Y-132669355D01*
X141165644Y-132777367D01*
X141165648Y-132777370D01*
X141292656Y-132862235D01*
X141292662Y-132862238D01*
X141292663Y-132862239D01*
X141433795Y-132920698D01*
X141583615Y-132950499D01*
X141583619Y-132950500D01*
X141583620Y-132950500D01*
X141736381Y-132950500D01*
X141736382Y-132950499D01*
X141886205Y-132920698D01*
X142027337Y-132862239D01*
X142154352Y-132777370D01*
X142262370Y-132669352D01*
X142347239Y-132542337D01*
X142405698Y-132401205D01*
X142435500Y-132251380D01*
X142435500Y-132098620D01*
X142405698Y-131948795D01*
X142347239Y-131807663D01*
X142347238Y-131807662D01*
X142347235Y-131807656D01*
X142262370Y-131680648D01*
X142262367Y-131680644D01*
X142154355Y-131572632D01*
X142154351Y-131572629D01*
X142027343Y-131487764D01*
X142027334Y-131487759D01*
X141886205Y-131429302D01*
X141886197Y-131429300D01*
X141736384Y-131399500D01*
X141736380Y-131399500D01*
X141583620Y-131399500D01*
X141583615Y-131399500D01*
X141433802Y-131429300D01*
X141433794Y-131429302D01*
X141292665Y-131487759D01*
X141292656Y-131487764D01*
X141165648Y-131572629D01*
X141165644Y-131572632D01*
X141057632Y-131680644D01*
X141057629Y-131680648D01*
X140972764Y-131807656D01*
X140972759Y-131807665D01*
X140914302Y-131948794D01*
X140914300Y-131948802D01*
X140884500Y-132098615D01*
X139080500Y-132098615D01*
X139080499Y-129627128D01*
X139074091Y-129567517D01*
X139023796Y-129432669D01*
X139023795Y-129432668D01*
X139023793Y-129432664D01*
X138937547Y-129317455D01*
X138937544Y-129317452D01*
X138822335Y-129231206D01*
X138822328Y-129231202D01*
X138687482Y-129180908D01*
X138687483Y-129180908D01*
X138627883Y-129174501D01*
X138627881Y-129174500D01*
X138627873Y-129174500D01*
X138627864Y-129174500D01*
X136932129Y-129174500D01*
X136932123Y-129174501D01*
X136872516Y-129180908D01*
X136737671Y-129231202D01*
X136737664Y-129231206D01*
X136622455Y-129317452D01*
X136622452Y-129317455D01*
X136536206Y-129432664D01*
X136536202Y-129432671D01*
X136485908Y-129567517D01*
X136479501Y-129627116D01*
X136479501Y-129627123D01*
X136479500Y-129627135D01*
X131530500Y-129627135D01*
X131530500Y-125002135D01*
X136479500Y-125002135D01*
X136479500Y-126897870D01*
X136479501Y-126897876D01*
X136485908Y-126957483D01*
X136536202Y-127092328D01*
X136536203Y-127092330D01*
X136610502Y-127191580D01*
X136634919Y-127257044D01*
X136625796Y-127313343D01*
X136562185Y-127466913D01*
X136562182Y-127466925D01*
X136529500Y-127631228D01*
X136529500Y-127798771D01*
X136562182Y-127963074D01*
X136562184Y-127963082D01*
X136626295Y-128117860D01*
X136719373Y-128257162D01*
X136837837Y-128375626D01*
X136930494Y-128437537D01*
X136977137Y-128468703D01*
X137131918Y-128532816D01*
X137296228Y-128565499D01*
X137296232Y-128565500D01*
X137296233Y-128565500D01*
X137463768Y-128565500D01*
X137463769Y-128565499D01*
X137628082Y-128532816D01*
X137782863Y-128468703D01*
X137922162Y-128375626D01*
X138040626Y-128257162D01*
X138133703Y-128117863D01*
X138197816Y-127963082D01*
X138230500Y-127798767D01*
X138230500Y-127631233D01*
X138204136Y-127498690D01*
X138210363Y-127429099D01*
X138253226Y-127373921D01*
X138319116Y-127350677D01*
X138325753Y-127350499D01*
X138627871Y-127350499D01*
X138627872Y-127350499D01*
X138687483Y-127344091D01*
X138822331Y-127293796D01*
X138937546Y-127207546D01*
X139023796Y-127092331D01*
X139074091Y-126957483D01*
X139080500Y-126897873D01*
X139080499Y-125127135D01*
X139959500Y-125127135D01*
X139959500Y-129022870D01*
X139959501Y-129022876D01*
X139965908Y-129082483D01*
X140016202Y-129217328D01*
X140016206Y-129217335D01*
X140102452Y-129332544D01*
X140102455Y-129332547D01*
X140217664Y-129418793D01*
X140217671Y-129418797D01*
X140352517Y-129469091D01*
X140352516Y-129469091D01*
X140359444Y-129469835D01*
X140412127Y-129475500D01*
X142107872Y-129475499D01*
X142167483Y-129469091D01*
X142302331Y-129418796D01*
X142417546Y-129332546D01*
X142503796Y-129217331D01*
X142554091Y-129082483D01*
X142560500Y-129022873D01*
X142560499Y-125127128D01*
X142554091Y-125067517D01*
X142503796Y-124932669D01*
X142503795Y-124932668D01*
X142503793Y-124932664D01*
X142417547Y-124817455D01*
X142417544Y-124817452D01*
X142302335Y-124731206D01*
X142302328Y-124731202D01*
X142167482Y-124680908D01*
X142167483Y-124680908D01*
X142107883Y-124674501D01*
X142107881Y-124674500D01*
X142107873Y-124674500D01*
X142107864Y-124674500D01*
X140412129Y-124674500D01*
X140412123Y-124674501D01*
X140352516Y-124680908D01*
X140217671Y-124731202D01*
X140217664Y-124731206D01*
X140102455Y-124817452D01*
X140102452Y-124817455D01*
X140016206Y-124932664D01*
X140016202Y-124932671D01*
X139965908Y-125067517D01*
X139959501Y-125127116D01*
X139959501Y-125127123D01*
X139959500Y-125127135D01*
X139080499Y-125127135D01*
X139080499Y-125002128D01*
X139074091Y-124942517D01*
X139023796Y-124807669D01*
X139023795Y-124807668D01*
X139023793Y-124807664D01*
X138937547Y-124692455D01*
X138937544Y-124692452D01*
X138822335Y-124606206D01*
X138822328Y-124606202D01*
X138687482Y-124555908D01*
X138687483Y-124555908D01*
X138627883Y-124549501D01*
X138627881Y-124549500D01*
X138627873Y-124549500D01*
X138627864Y-124549500D01*
X136932129Y-124549500D01*
X136932123Y-124549501D01*
X136872516Y-124555908D01*
X136737671Y-124606202D01*
X136737664Y-124606206D01*
X136622455Y-124692452D01*
X136622452Y-124692455D01*
X136536206Y-124807664D01*
X136536202Y-124807671D01*
X136485908Y-124942517D01*
X136479501Y-125002116D01*
X136479501Y-125002123D01*
X136479500Y-125002135D01*
X131530500Y-125002135D01*
X131530500Y-119594749D01*
X131550185Y-119527710D01*
X131580190Y-119495482D01*
X131637546Y-119452546D01*
X131723796Y-119337331D01*
X131774091Y-119202483D01*
X131780500Y-119142873D01*
X131780499Y-115647128D01*
X131774091Y-115587517D01*
X131748722Y-115519500D01*
X131723797Y-115452671D01*
X131723793Y-115452664D01*
X131637548Y-115337457D01*
X131637546Y-115337454D01*
X131637542Y-115337451D01*
X131580188Y-115294515D01*
X131538318Y-115238581D01*
X131530500Y-115195249D01*
X131530500Y-114772321D01*
X131549506Y-114706349D01*
X131575789Y-114664522D01*
X131635368Y-114494255D01*
X131640194Y-114451423D01*
X131655565Y-114315003D01*
X131655565Y-114314996D01*
X131635369Y-114135750D01*
X131635368Y-114135745D01*
X131575789Y-113965478D01*
X131568939Y-113954577D01*
X131521499Y-113879076D01*
X131479816Y-113812738D01*
X131428337Y-113761259D01*
X131394852Y-113699936D01*
X131399836Y-113630244D01*
X131428337Y-113585897D01*
X131561688Y-113452547D01*
X132112417Y-112901819D01*
X132173740Y-112868334D01*
X132200098Y-112865500D01*
X132365686Y-112865500D01*
X132365694Y-112865500D01*
X132402569Y-112862598D01*
X132402571Y-112862597D01*
X132402573Y-112862597D01*
X132560392Y-112816746D01*
X132560392Y-112816745D01*
X132560398Y-112816744D01*
X132592381Y-112797829D01*
X132660102Y-112780647D01*
X132726365Y-112802807D01*
X132770128Y-112857272D01*
X132779500Y-112904562D01*
X132779500Y-115195249D01*
X132759815Y-115262288D01*
X132729812Y-115294515D01*
X132672457Y-115337451D01*
X132672451Y-115337457D01*
X132586206Y-115452664D01*
X132586202Y-115452671D01*
X132535908Y-115587517D01*
X132529501Y-115647116D01*
X132529501Y-115647123D01*
X132529500Y-115647135D01*
X132529500Y-119142870D01*
X132529501Y-119142876D01*
X132535908Y-119202483D01*
X132586202Y-119337328D01*
X132586206Y-119337335D01*
X132672452Y-119452544D01*
X132672455Y-119452547D01*
X132787664Y-119538793D01*
X132787671Y-119538797D01*
X132922517Y-119589091D01*
X132922516Y-119589091D01*
X132929444Y-119589835D01*
X132982127Y-119595500D01*
X133777872Y-119595499D01*
X133837483Y-119589091D01*
X133972331Y-119538796D01*
X134087546Y-119452546D01*
X134173796Y-119337331D01*
X134224091Y-119202483D01*
X134227354Y-119172135D01*
X136479500Y-119172135D01*
X136479500Y-121067870D01*
X136479501Y-121067876D01*
X136485908Y-121127483D01*
X136536202Y-121262328D01*
X136536206Y-121262335D01*
X136622452Y-121377544D01*
X136622455Y-121377547D01*
X136737664Y-121463793D01*
X136737671Y-121463797D01*
X136872517Y-121514091D01*
X136872516Y-121514091D01*
X136879444Y-121514835D01*
X136932127Y-121520500D01*
X138627872Y-121520499D01*
X138687483Y-121514091D01*
X138822331Y-121463796D01*
X138937546Y-121377546D01*
X139023796Y-121262331D01*
X139074091Y-121127483D01*
X139080500Y-121067873D01*
X139080499Y-119172128D01*
X139074091Y-119112517D01*
X139023796Y-118977669D01*
X139023795Y-118977668D01*
X139023793Y-118977664D01*
X138937547Y-118862455D01*
X138937544Y-118862452D01*
X138822335Y-118776206D01*
X138822328Y-118776202D01*
X138687482Y-118725908D01*
X138687483Y-118725908D01*
X138627883Y-118719501D01*
X138627881Y-118719500D01*
X138627873Y-118719500D01*
X138627865Y-118719500D01*
X138325753Y-118719500D01*
X138258714Y-118699815D01*
X138212959Y-118647011D01*
X138203015Y-118577853D01*
X138204136Y-118571309D01*
X138219778Y-118492669D01*
X138230500Y-118438767D01*
X138230500Y-118271233D01*
X138197816Y-118106918D01*
X138173053Y-118047135D01*
X139959500Y-118047135D01*
X139959500Y-121142870D01*
X139959501Y-121142876D01*
X139965908Y-121202483D01*
X140016202Y-121337328D01*
X140016206Y-121337335D01*
X140102452Y-121452544D01*
X140102455Y-121452547D01*
X140217664Y-121538793D01*
X140217671Y-121538797D01*
X140352517Y-121589091D01*
X140352516Y-121589091D01*
X140359444Y-121589835D01*
X140412127Y-121595500D01*
X142107872Y-121595499D01*
X142167483Y-121589091D01*
X142302331Y-121538796D01*
X142417546Y-121452546D01*
X142503796Y-121337331D01*
X142554091Y-121202483D01*
X142560500Y-121142873D01*
X142560499Y-118047128D01*
X142554091Y-117987517D01*
X142503796Y-117852669D01*
X142503795Y-117852668D01*
X142503793Y-117852664D01*
X142417547Y-117737455D01*
X142417544Y-117737452D01*
X142302335Y-117651206D01*
X142302328Y-117651202D01*
X142167482Y-117600908D01*
X142167483Y-117600908D01*
X142107883Y-117594501D01*
X142107881Y-117594500D01*
X142107873Y-117594500D01*
X142107864Y-117594500D01*
X140412129Y-117594500D01*
X140412123Y-117594501D01*
X140352516Y-117600908D01*
X140217671Y-117651202D01*
X140217664Y-117651206D01*
X140102455Y-117737452D01*
X140102452Y-117737455D01*
X140016206Y-117852664D01*
X140016202Y-117852671D01*
X139965908Y-117987517D01*
X139959501Y-118047116D01*
X139959501Y-118047123D01*
X139959500Y-118047135D01*
X138173053Y-118047135D01*
X138133703Y-117952137D01*
X138067242Y-117852671D01*
X138040626Y-117812837D01*
X137922162Y-117694373D01*
X137782860Y-117601295D01*
X137628082Y-117537184D01*
X137628074Y-117537182D01*
X137463771Y-117504500D01*
X137463767Y-117504500D01*
X137296233Y-117504500D01*
X137296228Y-117504500D01*
X137131925Y-117537182D01*
X137131917Y-117537184D01*
X136977139Y-117601295D01*
X136837837Y-117694373D01*
X136719373Y-117812837D01*
X136626295Y-117952139D01*
X136562184Y-118106917D01*
X136562182Y-118106925D01*
X136529500Y-118271228D01*
X136529500Y-118438771D01*
X136562182Y-118603074D01*
X136562184Y-118603082D01*
X136625796Y-118756655D01*
X136633265Y-118826125D01*
X136610502Y-118878419D01*
X136536204Y-118977668D01*
X136536202Y-118977671D01*
X136485908Y-119112517D01*
X136482644Y-119142883D01*
X136479501Y-119172123D01*
X136479500Y-119172135D01*
X134227354Y-119172135D01*
X134230500Y-119142873D01*
X134230499Y-115647128D01*
X134224091Y-115587517D01*
X134198722Y-115519500D01*
X134173797Y-115452671D01*
X134173793Y-115452664D01*
X134087548Y-115337457D01*
X134087546Y-115337454D01*
X134087542Y-115337451D01*
X134030188Y-115294515D01*
X133988318Y-115238581D01*
X133980500Y-115195249D01*
X133980500Y-112875583D01*
X134000185Y-112808544D01*
X134041379Y-112768851D01*
X134101865Y-112733081D01*
X134149447Y-112685499D01*
X134222675Y-112612272D01*
X134283998Y-112578787D01*
X134353690Y-112583771D01*
X134398037Y-112612272D01*
X135545139Y-113759374D01*
X135545149Y-113759385D01*
X135549479Y-113763715D01*
X135549480Y-113763716D01*
X135661284Y-113875520D01*
X135746121Y-113924500D01*
X135798215Y-113954577D01*
X135950942Y-113995500D01*
X135950943Y-113995500D01*
X136355500Y-113995500D01*
X136422539Y-114015185D01*
X136468294Y-114067989D01*
X136479500Y-114119500D01*
X136479500Y-116442870D01*
X136479501Y-116442876D01*
X136485908Y-116502483D01*
X136536202Y-116637328D01*
X136536206Y-116637335D01*
X136622452Y-116752544D01*
X136622455Y-116752547D01*
X136737664Y-116838793D01*
X136737671Y-116838797D01*
X136872517Y-116889091D01*
X136872516Y-116889091D01*
X136879444Y-116889835D01*
X136932127Y-116895500D01*
X138627872Y-116895499D01*
X138687483Y-116889091D01*
X138822331Y-116838796D01*
X138937546Y-116752546D01*
X139023796Y-116637331D01*
X139074091Y-116502483D01*
X139080500Y-116442873D01*
X139080500Y-116218615D01*
X140884500Y-116218615D01*
X140884500Y-116371384D01*
X140914300Y-116521197D01*
X140914302Y-116521205D01*
X140972759Y-116662334D01*
X140972764Y-116662343D01*
X141057629Y-116789351D01*
X141057632Y-116789355D01*
X141165644Y-116897367D01*
X141165648Y-116897370D01*
X141292656Y-116982235D01*
X141292662Y-116982238D01*
X141292663Y-116982239D01*
X141433795Y-117040698D01*
X141583615Y-117070499D01*
X141583619Y-117070500D01*
X141583620Y-117070500D01*
X141736381Y-117070500D01*
X141736382Y-117070499D01*
X141886205Y-117040698D01*
X142027337Y-116982239D01*
X142154352Y-116897370D01*
X142262370Y-116789352D01*
X142347239Y-116662337D01*
X142405698Y-116521205D01*
X142435500Y-116371380D01*
X142435500Y-116218620D01*
X142405698Y-116068795D01*
X142347239Y-115927663D01*
X142347238Y-115927662D01*
X142347235Y-115927656D01*
X142262370Y-115800648D01*
X142262367Y-115800644D01*
X142154355Y-115692632D01*
X142154351Y-115692629D01*
X142027343Y-115607764D01*
X142027334Y-115607759D01*
X141886205Y-115549302D01*
X141886197Y-115549300D01*
X141736384Y-115519500D01*
X141736380Y-115519500D01*
X141583620Y-115519500D01*
X141583615Y-115519500D01*
X141433802Y-115549300D01*
X141433794Y-115549302D01*
X141292665Y-115607759D01*
X141292656Y-115607764D01*
X141165648Y-115692629D01*
X141165644Y-115692632D01*
X141057632Y-115800644D01*
X141057629Y-115800648D01*
X140972764Y-115927656D01*
X140972759Y-115927665D01*
X140914302Y-116068794D01*
X140914300Y-116068802D01*
X140884500Y-116218615D01*
X139080500Y-116218615D01*
X139080499Y-114119499D01*
X139100184Y-114052461D01*
X139152987Y-114006706D01*
X139204499Y-113995500D01*
X145691677Y-113995500D01*
X145758716Y-114015185D01*
X145804471Y-114067989D01*
X145814897Y-114133383D01*
X145794435Y-114314996D01*
X145794435Y-114315003D01*
X145814630Y-114494249D01*
X145814631Y-114494254D01*
X145874211Y-114664523D01*
X145970184Y-114817262D01*
X146097738Y-114944816D01*
X146151473Y-114978580D01*
X146197762Y-115030911D01*
X146209500Y-115083572D01*
X146209500Y-115195249D01*
X146189815Y-115262288D01*
X146159812Y-115294515D01*
X146102457Y-115337451D01*
X146102451Y-115337457D01*
X146016206Y-115452664D01*
X146016202Y-115452671D01*
X145965908Y-115587517D01*
X145959501Y-115647116D01*
X145959501Y-115647123D01*
X145959500Y-115647135D01*
X145959500Y-119142870D01*
X145959501Y-119142876D01*
X145965908Y-119202483D01*
X146016202Y-119337328D01*
X146016203Y-119337329D01*
X146016204Y-119337331D01*
X146102452Y-119452543D01*
X146102455Y-119452547D01*
X146159810Y-119495482D01*
X146201682Y-119551415D01*
X146209500Y-119594749D01*
X146209500Y-131075249D01*
X146189815Y-131142288D01*
X146159812Y-131174515D01*
X146102457Y-131217451D01*
X146102451Y-131217457D01*
X146016206Y-131332664D01*
X146016202Y-131332671D01*
X145965908Y-131467517D01*
X145959501Y-131527116D01*
X145959501Y-131527123D01*
X145959500Y-131527135D01*
X145959500Y-135022870D01*
X145959501Y-135022876D01*
X145965908Y-135082483D01*
X146016202Y-135217328D01*
X146016206Y-135217335D01*
X146102452Y-135332544D01*
X146102455Y-135332547D01*
X146217664Y-135418793D01*
X146217671Y-135418797D01*
X146352517Y-135469091D01*
X146352516Y-135469091D01*
X146359444Y-135469835D01*
X146412127Y-135475500D01*
X147207872Y-135475499D01*
X147267483Y-135469091D01*
X147402331Y-135418796D01*
X147517546Y-135332546D01*
X147603796Y-135217331D01*
X147654091Y-135082483D01*
X147660500Y-135022873D01*
X147660499Y-131527128D01*
X147654091Y-131467517D01*
X147628722Y-131399500D01*
X147603797Y-131332671D01*
X147603793Y-131332664D01*
X147517548Y-131217457D01*
X147517546Y-131217454D01*
X147517542Y-131217451D01*
X147460188Y-131174515D01*
X147418318Y-131118581D01*
X147410500Y-131075249D01*
X147410500Y-129627135D01*
X152359500Y-129627135D01*
X152359500Y-132322870D01*
X152359501Y-132322876D01*
X152365908Y-132382483D01*
X152416202Y-132517328D01*
X152416206Y-132517335D01*
X152502452Y-132632544D01*
X152502455Y-132632547D01*
X152617664Y-132718793D01*
X152617671Y-132718797D01*
X152752517Y-132769091D01*
X152752516Y-132769091D01*
X152759444Y-132769835D01*
X152812127Y-132775500D01*
X154507872Y-132775499D01*
X154567483Y-132769091D01*
X154702331Y-132718796D01*
X154817546Y-132632546D01*
X154903796Y-132517331D01*
X154954091Y-132382483D01*
X154960500Y-132322873D01*
X154960499Y-129627128D01*
X154954091Y-129567517D01*
X154903796Y-129432669D01*
X154903795Y-129432668D01*
X154903793Y-129432664D01*
X154817547Y-129317455D01*
X154817544Y-129317452D01*
X154702335Y-129231206D01*
X154702328Y-129231202D01*
X154567482Y-129180908D01*
X154567483Y-129180908D01*
X154507883Y-129174501D01*
X154507881Y-129174500D01*
X154507873Y-129174500D01*
X154507864Y-129174500D01*
X152812129Y-129174500D01*
X152812123Y-129174501D01*
X152752516Y-129180908D01*
X152617671Y-129231202D01*
X152617664Y-129231206D01*
X152502455Y-129317452D01*
X152502452Y-129317455D01*
X152416206Y-129432664D01*
X152416202Y-129432671D01*
X152365908Y-129567517D01*
X152359501Y-129627116D01*
X152359501Y-129627123D01*
X152359500Y-129627135D01*
X147410500Y-129627135D01*
X147410500Y-125002135D01*
X152359500Y-125002135D01*
X152359500Y-126897870D01*
X152359501Y-126897876D01*
X152365908Y-126957483D01*
X152416202Y-127092328D01*
X152416203Y-127092330D01*
X152490502Y-127191580D01*
X152514919Y-127257044D01*
X152505796Y-127313343D01*
X152442185Y-127466913D01*
X152442182Y-127466925D01*
X152409500Y-127631228D01*
X152409500Y-127798771D01*
X152442182Y-127963074D01*
X152442184Y-127963082D01*
X152506295Y-128117860D01*
X152599373Y-128257162D01*
X152717837Y-128375626D01*
X152810494Y-128437537D01*
X152857137Y-128468703D01*
X153011918Y-128532816D01*
X153176228Y-128565499D01*
X153176232Y-128565500D01*
X153176233Y-128565500D01*
X153343768Y-128565500D01*
X153343769Y-128565499D01*
X153508082Y-128532816D01*
X153662863Y-128468703D01*
X153802162Y-128375626D01*
X153920626Y-128257162D01*
X154013703Y-128117863D01*
X154077816Y-127963082D01*
X154110500Y-127798767D01*
X154110500Y-127631233D01*
X154084136Y-127498690D01*
X154090363Y-127429099D01*
X154133226Y-127373921D01*
X154199116Y-127350677D01*
X154205753Y-127350499D01*
X154507871Y-127350499D01*
X154507872Y-127350499D01*
X154567483Y-127344091D01*
X154702331Y-127293796D01*
X154817546Y-127207546D01*
X154903796Y-127092331D01*
X154954091Y-126957483D01*
X154960500Y-126897873D01*
X154960499Y-125002128D01*
X154954091Y-124942517D01*
X154903796Y-124807669D01*
X154903795Y-124807668D01*
X154903793Y-124807664D01*
X154817547Y-124692455D01*
X154817544Y-124692452D01*
X154702335Y-124606206D01*
X154702328Y-124606202D01*
X154567482Y-124555908D01*
X154567483Y-124555908D01*
X154507883Y-124549501D01*
X154507881Y-124549500D01*
X154507873Y-124549500D01*
X154507864Y-124549500D01*
X152812129Y-124549500D01*
X152812123Y-124549501D01*
X152752516Y-124555908D01*
X152617671Y-124606202D01*
X152617664Y-124606206D01*
X152502455Y-124692452D01*
X152502452Y-124692455D01*
X152416206Y-124807664D01*
X152416202Y-124807671D01*
X152365908Y-124942517D01*
X152359501Y-125002116D01*
X152359501Y-125002123D01*
X152359500Y-125002135D01*
X147410500Y-125002135D01*
X147410500Y-119594749D01*
X147430185Y-119527710D01*
X147460190Y-119495482D01*
X147517546Y-119452546D01*
X147603796Y-119337331D01*
X147654091Y-119202483D01*
X147660500Y-119142873D01*
X147660499Y-115647128D01*
X147654091Y-115587517D01*
X147628722Y-115519500D01*
X147603797Y-115452671D01*
X147603793Y-115452664D01*
X147517548Y-115337457D01*
X147517546Y-115337454D01*
X147517542Y-115337451D01*
X147460188Y-115294515D01*
X147418318Y-115238581D01*
X147410500Y-115195249D01*
X147410500Y-114614059D01*
X147410501Y-114614046D01*
X147410501Y-114445943D01*
X147402711Y-114416875D01*
X147399266Y-114370897D01*
X147405565Y-114315000D01*
X147385368Y-114135745D01*
X147325789Y-113965478D01*
X147325788Y-113965476D01*
X147325788Y-113965475D01*
X147271499Y-113879076D01*
X147252498Y-113811839D01*
X147272865Y-113745004D01*
X147288806Y-113725427D01*
X148112417Y-112901819D01*
X148173740Y-112868334D01*
X148200098Y-112865500D01*
X148365686Y-112865500D01*
X148365694Y-112865500D01*
X148402569Y-112862598D01*
X148402571Y-112862597D01*
X148402573Y-112862597D01*
X148500905Y-112834029D01*
X148570774Y-112834228D01*
X148629444Y-112872170D01*
X148658288Y-112935808D01*
X148659500Y-112953105D01*
X148659500Y-115195249D01*
X148639815Y-115262288D01*
X148609812Y-115294515D01*
X148552457Y-115337451D01*
X148552451Y-115337457D01*
X148466206Y-115452664D01*
X148466202Y-115452671D01*
X148415908Y-115587517D01*
X148409501Y-115647116D01*
X148409501Y-115647123D01*
X148409500Y-115647135D01*
X148409500Y-119142870D01*
X148409501Y-119142876D01*
X148415908Y-119202483D01*
X148466202Y-119337328D01*
X148466206Y-119337335D01*
X148552452Y-119452544D01*
X148552455Y-119452547D01*
X148667664Y-119538793D01*
X148667671Y-119538797D01*
X148802517Y-119589091D01*
X148802516Y-119589091D01*
X148809444Y-119589835D01*
X148862127Y-119595500D01*
X149657872Y-119595499D01*
X149717483Y-119589091D01*
X149852331Y-119538796D01*
X149967546Y-119452546D01*
X150053796Y-119337331D01*
X150104091Y-119202483D01*
X150107354Y-119172135D01*
X152359500Y-119172135D01*
X152359500Y-121067870D01*
X152359501Y-121067876D01*
X152365908Y-121127483D01*
X152416202Y-121262328D01*
X152416206Y-121262335D01*
X152502452Y-121377544D01*
X152502455Y-121377547D01*
X152617664Y-121463793D01*
X152617671Y-121463797D01*
X152752517Y-121514091D01*
X152752516Y-121514091D01*
X152759444Y-121514835D01*
X152812127Y-121520500D01*
X154507872Y-121520499D01*
X154567483Y-121514091D01*
X154702331Y-121463796D01*
X154817546Y-121377546D01*
X154903796Y-121262331D01*
X154954091Y-121127483D01*
X154960500Y-121067873D01*
X154960499Y-119172128D01*
X154954091Y-119112517D01*
X154903796Y-118977669D01*
X154903795Y-118977668D01*
X154903793Y-118977664D01*
X154817547Y-118862455D01*
X154817544Y-118862452D01*
X154702335Y-118776206D01*
X154702328Y-118776202D01*
X154567482Y-118725908D01*
X154567483Y-118725908D01*
X154507883Y-118719501D01*
X154507881Y-118719500D01*
X154507873Y-118719500D01*
X154507865Y-118719500D01*
X154205753Y-118719500D01*
X154138714Y-118699815D01*
X154092959Y-118647011D01*
X154083015Y-118577853D01*
X154084136Y-118571309D01*
X154099778Y-118492669D01*
X154110500Y-118438767D01*
X154110500Y-118271233D01*
X154077816Y-118106918D01*
X154013703Y-117952137D01*
X153947242Y-117852671D01*
X153920626Y-117812837D01*
X153802162Y-117694373D01*
X153662860Y-117601295D01*
X153508082Y-117537184D01*
X153508074Y-117537182D01*
X153343771Y-117504500D01*
X153343767Y-117504500D01*
X153176233Y-117504500D01*
X153176228Y-117504500D01*
X153011925Y-117537182D01*
X153011917Y-117537184D01*
X152857139Y-117601295D01*
X152717837Y-117694373D01*
X152599373Y-117812837D01*
X152506295Y-117952139D01*
X152442184Y-118106917D01*
X152442182Y-118106925D01*
X152409500Y-118271228D01*
X152409500Y-118438771D01*
X152442182Y-118603074D01*
X152442184Y-118603082D01*
X152505796Y-118756655D01*
X152513265Y-118826125D01*
X152490502Y-118878419D01*
X152416204Y-118977668D01*
X152416202Y-118977671D01*
X152365908Y-119112517D01*
X152362644Y-119142883D01*
X152359501Y-119172123D01*
X152359500Y-119172135D01*
X150107354Y-119172135D01*
X150110500Y-119142873D01*
X150110499Y-115647128D01*
X150104091Y-115587517D01*
X150078722Y-115519500D01*
X150053797Y-115452671D01*
X150053793Y-115452664D01*
X149967548Y-115337457D01*
X149967546Y-115337454D01*
X149967542Y-115337451D01*
X149910188Y-115294515D01*
X149868318Y-115238581D01*
X149860500Y-115195249D01*
X149860500Y-113747135D01*
X152359500Y-113747135D01*
X152359500Y-116442870D01*
X152359501Y-116442876D01*
X152365908Y-116502483D01*
X152416202Y-116637328D01*
X152416206Y-116637335D01*
X152502452Y-116752544D01*
X152502455Y-116752547D01*
X152617664Y-116838793D01*
X152617671Y-116838797D01*
X152752517Y-116889091D01*
X152752516Y-116889091D01*
X152759444Y-116889835D01*
X152812127Y-116895500D01*
X154507872Y-116895499D01*
X154567483Y-116889091D01*
X154702331Y-116838796D01*
X154817546Y-116752546D01*
X154903796Y-116637331D01*
X154954091Y-116502483D01*
X154960500Y-116442873D01*
X154960499Y-113747128D01*
X154954091Y-113687517D01*
X154924110Y-113607135D01*
X154903797Y-113552671D01*
X154903793Y-113552664D01*
X154817547Y-113437455D01*
X154817544Y-113437452D01*
X154702335Y-113351206D01*
X154702328Y-113351202D01*
X154567482Y-113300908D01*
X154567483Y-113300908D01*
X154507883Y-113294501D01*
X154507881Y-113294500D01*
X154507873Y-113294500D01*
X154507864Y-113294500D01*
X152812129Y-113294500D01*
X152812123Y-113294501D01*
X152752516Y-113300908D01*
X152617671Y-113351202D01*
X152617664Y-113351206D01*
X152502455Y-113437452D01*
X152502452Y-113437455D01*
X152416206Y-113552664D01*
X152416202Y-113552671D01*
X152365908Y-113687517D01*
X152359728Y-113745004D01*
X152359501Y-113747123D01*
X152359500Y-113747135D01*
X149860500Y-113747135D01*
X149860500Y-112938868D01*
X149880185Y-112871829D01*
X149932989Y-112826074D01*
X149949897Y-112819794D01*
X149960398Y-112816744D01*
X150101865Y-112733081D01*
X150218081Y-112616865D01*
X150301744Y-112475398D01*
X150347598Y-112317569D01*
X150350500Y-112280694D01*
X150350500Y-111749306D01*
X150347598Y-111712431D01*
X150322119Y-111624734D01*
X150301745Y-111554606D01*
X150301744Y-111554603D01*
X150301744Y-111554602D01*
X150218081Y-111413135D01*
X150218079Y-111413133D01*
X150218076Y-111413129D01*
X150101870Y-111296923D01*
X150101862Y-111296917D01*
X149960396Y-111213255D01*
X149960393Y-111213254D01*
X149802573Y-111167402D01*
X149802567Y-111167401D01*
X149765701Y-111164500D01*
X149765694Y-111164500D01*
X149334306Y-111164500D01*
X149334298Y-111164500D01*
X149297432Y-111167401D01*
X149297426Y-111167402D01*
X149139606Y-111213254D01*
X149139603Y-111213255D01*
X148998137Y-111296917D01*
X148998129Y-111296923D01*
X148937681Y-111357372D01*
X148876358Y-111390857D01*
X148806666Y-111385873D01*
X148762319Y-111357372D01*
X148701870Y-111296923D01*
X148701862Y-111296917D01*
X148560396Y-111213255D01*
X148560393Y-111213254D01*
X148402573Y-111167402D01*
X148402567Y-111167401D01*
X148365701Y-111164500D01*
X148365694Y-111164500D01*
X147934306Y-111164500D01*
X147934298Y-111164500D01*
X147897432Y-111167401D01*
X147897426Y-111167402D01*
X147739606Y-111213254D01*
X147739603Y-111213255D01*
X147598137Y-111296917D01*
X147598129Y-111296923D01*
X147481923Y-111413129D01*
X147481917Y-111413137D01*
X147398255Y-111554603D01*
X147398254Y-111554606D01*
X147352402Y-111712426D01*
X147352401Y-111712432D01*
X147349500Y-111749298D01*
X147349500Y-111914902D01*
X147329815Y-111981941D01*
X147313181Y-112002583D01*
X146557584Y-112758181D01*
X146496261Y-112791666D01*
X146469903Y-112794500D01*
X142684500Y-112794500D01*
X142617461Y-112774815D01*
X142571706Y-112722011D01*
X142560500Y-112670500D01*
X142560499Y-109247129D01*
X142560498Y-109247123D01*
X142560497Y-109247116D01*
X142554091Y-109187517D01*
X142540866Y-109152060D01*
X142503797Y-109052671D01*
X142503793Y-109052664D01*
X142417547Y-108937455D01*
X142417544Y-108937452D01*
X142302335Y-108851206D01*
X142302328Y-108851202D01*
X142167482Y-108800908D01*
X142167483Y-108800908D01*
X142107883Y-108794501D01*
X142107881Y-108794500D01*
X142107873Y-108794500D01*
X142107864Y-108794500D01*
X140412129Y-108794500D01*
X140412123Y-108794501D01*
X140352516Y-108800908D01*
X140217671Y-108851202D01*
X140217664Y-108851206D01*
X140102455Y-108937452D01*
X140102452Y-108937455D01*
X140016206Y-109052664D01*
X140016202Y-109052671D01*
X139965908Y-109187517D01*
X139962513Y-109219099D01*
X139959500Y-109247127D01*
X139959500Y-111017883D01*
X139959501Y-112670500D01*
X139939816Y-112737539D01*
X139887012Y-112783294D01*
X139835501Y-112794500D01*
X137883639Y-112794500D01*
X137816600Y-112774815D01*
X137770845Y-112722011D01*
X137760901Y-112652853D01*
X137789926Y-112589297D01*
X137814748Y-112567398D01*
X137821492Y-112562892D01*
X137922162Y-112495626D01*
X138040626Y-112377162D01*
X138133703Y-112237863D01*
X138197816Y-112083082D01*
X138230500Y-111918767D01*
X138230500Y-111751233D01*
X138204136Y-111618690D01*
X138210363Y-111549099D01*
X138253226Y-111493921D01*
X138319116Y-111470677D01*
X138325753Y-111470499D01*
X138627871Y-111470499D01*
X138627872Y-111470499D01*
X138687483Y-111464091D01*
X138822331Y-111413796D01*
X138937546Y-111327546D01*
X139023796Y-111212331D01*
X139074091Y-111077483D01*
X139080500Y-111017873D01*
X139080499Y-109122128D01*
X139074091Y-109062517D01*
X139023796Y-108927669D01*
X139023795Y-108927668D01*
X139023793Y-108927664D01*
X138937547Y-108812455D01*
X138937544Y-108812452D01*
X138822335Y-108726206D01*
X138822328Y-108726202D01*
X138687482Y-108675908D01*
X138687483Y-108675908D01*
X138627883Y-108669501D01*
X138627881Y-108669500D01*
X138627873Y-108669500D01*
X138627864Y-108669500D01*
X136932129Y-108669500D01*
X136932123Y-108669501D01*
X136872516Y-108675908D01*
X136737671Y-108726202D01*
X136737664Y-108726206D01*
X136622455Y-108812452D01*
X136622452Y-108812455D01*
X136536206Y-108927664D01*
X136536202Y-108927671D01*
X136485908Y-109062517D01*
X136479501Y-109122116D01*
X136479501Y-109122123D01*
X136479500Y-109122135D01*
X136479500Y-111017870D01*
X136479501Y-111017876D01*
X136485908Y-111077483D01*
X136536202Y-111212328D01*
X136536203Y-111212330D01*
X136610502Y-111311580D01*
X136634919Y-111377044D01*
X136625796Y-111433343D01*
X136562185Y-111586913D01*
X136562182Y-111586925D01*
X136529500Y-111751228D01*
X136529500Y-111918771D01*
X136562182Y-112083074D01*
X136562184Y-112083082D01*
X136626295Y-112237860D01*
X136719373Y-112377162D01*
X136837834Y-112495623D01*
X136837838Y-112495626D01*
X136945252Y-112567398D01*
X136990057Y-112621010D01*
X136998764Y-112690335D01*
X136968610Y-112753362D01*
X136909167Y-112790082D01*
X136876361Y-112794500D01*
X136330097Y-112794500D01*
X136263058Y-112774815D01*
X136242416Y-112758181D01*
X134437590Y-110953355D01*
X134437588Y-110953352D01*
X134318717Y-110834481D01*
X134318716Y-110834480D01*
X134231904Y-110784360D01*
X134231904Y-110784359D01*
X134231900Y-110784358D01*
X134181785Y-110755423D01*
X134029057Y-110714499D01*
X133870943Y-110714499D01*
X133863347Y-110714499D01*
X133863331Y-110714500D01*
X132770940Y-110714500D01*
X132730019Y-110725464D01*
X132730019Y-110725465D01*
X132692751Y-110735451D01*
X132618214Y-110755423D01*
X132618209Y-110755426D01*
X132481290Y-110834475D01*
X132481282Y-110834481D01*
X132369478Y-110946286D01*
X132187584Y-111128181D01*
X132126261Y-111161666D01*
X132099903Y-111164500D01*
X131934298Y-111164500D01*
X131897432Y-111167401D01*
X131897426Y-111167402D01*
X131739606Y-111213254D01*
X131739603Y-111213255D01*
X131598137Y-111296917D01*
X131598129Y-111296923D01*
X131481923Y-111413129D01*
X131481917Y-111413137D01*
X131398255Y-111554603D01*
X131398254Y-111554606D01*
X131352402Y-111712426D01*
X131352401Y-111712432D01*
X131349500Y-111749298D01*
X131349500Y-111914902D01*
X131329815Y-111981941D01*
X131313181Y-112002583D01*
X130557584Y-112758181D01*
X130496261Y-112791666D01*
X130469903Y-112794500D01*
X126804500Y-112794500D01*
X126737461Y-112774815D01*
X126691706Y-112722011D01*
X126680500Y-112670500D01*
X126680499Y-109247129D01*
X126680498Y-109247123D01*
X126680497Y-109247116D01*
X126674091Y-109187517D01*
X126660866Y-109152060D01*
X126623797Y-109052671D01*
X126623793Y-109052664D01*
X126537547Y-108937455D01*
X126537544Y-108937452D01*
X126422335Y-108851206D01*
X126422328Y-108851202D01*
X126287482Y-108800908D01*
X126287483Y-108800908D01*
X126227883Y-108794501D01*
X126227881Y-108794500D01*
X126227873Y-108794500D01*
X126227864Y-108794500D01*
X124532129Y-108794500D01*
X124532123Y-108794501D01*
X124472516Y-108800908D01*
X124337671Y-108851202D01*
X124337664Y-108851206D01*
X124222455Y-108937452D01*
X124222452Y-108937455D01*
X124136206Y-109052664D01*
X124136202Y-109052671D01*
X124085908Y-109187517D01*
X124082513Y-109219099D01*
X124079500Y-109247127D01*
X124079500Y-111017883D01*
X124079501Y-112670500D01*
X124059816Y-112737539D01*
X124007012Y-112783294D01*
X123955501Y-112794500D01*
X122003639Y-112794500D01*
X121936600Y-112774815D01*
X121890845Y-112722011D01*
X121880901Y-112652853D01*
X121909926Y-112589297D01*
X121934748Y-112567398D01*
X121941492Y-112562892D01*
X122042162Y-112495626D01*
X122160626Y-112377162D01*
X122253703Y-112237863D01*
X122317816Y-112083082D01*
X122350500Y-111918767D01*
X122350500Y-111751233D01*
X122324136Y-111618690D01*
X122330363Y-111549099D01*
X122373226Y-111493921D01*
X122439116Y-111470677D01*
X122445753Y-111470499D01*
X122747871Y-111470499D01*
X122747872Y-111470499D01*
X122807483Y-111464091D01*
X122942331Y-111413796D01*
X123057546Y-111327546D01*
X123143796Y-111212331D01*
X123194091Y-111077483D01*
X123200500Y-111017873D01*
X123200499Y-109122128D01*
X123194091Y-109062517D01*
X123143796Y-108927669D01*
X123143795Y-108927668D01*
X123143793Y-108927664D01*
X123057547Y-108812455D01*
X123057544Y-108812452D01*
X122942335Y-108726206D01*
X122942328Y-108726202D01*
X122807482Y-108675908D01*
X122807483Y-108675908D01*
X122747883Y-108669501D01*
X122747881Y-108669500D01*
X122747873Y-108669500D01*
X122747864Y-108669500D01*
X121052129Y-108669500D01*
X121052123Y-108669501D01*
X120992516Y-108675908D01*
X120857671Y-108726202D01*
X120857664Y-108726206D01*
X120742455Y-108812452D01*
X120742452Y-108812455D01*
X120656206Y-108927664D01*
X120656202Y-108927671D01*
X120605908Y-109062517D01*
X120599501Y-109122116D01*
X120599501Y-109122123D01*
X120599500Y-109122135D01*
X120599500Y-111017870D01*
X120599501Y-111017876D01*
X120605908Y-111077483D01*
X120656202Y-111212328D01*
X120656203Y-111212330D01*
X120730502Y-111311580D01*
X120754919Y-111377044D01*
X120745796Y-111433343D01*
X120682185Y-111586913D01*
X120682182Y-111586925D01*
X120649500Y-111751228D01*
X120649500Y-111918771D01*
X120682182Y-112083074D01*
X120682184Y-112083082D01*
X120746295Y-112237860D01*
X120839373Y-112377162D01*
X120957834Y-112495623D01*
X120957838Y-112495626D01*
X121065252Y-112567398D01*
X121110057Y-112621010D01*
X121118764Y-112690335D01*
X121088610Y-112753362D01*
X121029167Y-112790082D01*
X120996361Y-112794500D01*
X120450097Y-112794500D01*
X120383058Y-112774815D01*
X120362416Y-112758181D01*
X118557590Y-110953355D01*
X118557588Y-110953352D01*
X118438717Y-110834481D01*
X118438716Y-110834480D01*
X118351904Y-110784360D01*
X118351904Y-110784359D01*
X118351900Y-110784358D01*
X118301785Y-110755423D01*
X118149057Y-110714499D01*
X117990943Y-110714499D01*
X117983347Y-110714499D01*
X117983331Y-110714500D01*
X116874500Y-110714500D01*
X116807461Y-110694815D01*
X116761706Y-110642011D01*
X116750500Y-110590500D01*
X116750500Y-108820067D01*
X116769507Y-108754094D01*
X116825788Y-108664524D01*
X116825789Y-108664522D01*
X116885368Y-108494255D01*
X116903574Y-108332671D01*
X116905565Y-108315003D01*
X116905565Y-108314996D01*
X116885369Y-108135750D01*
X116885368Y-108135745D01*
X116866103Y-108080688D01*
X116825789Y-107965478D01*
X116729816Y-107812738D01*
X116602262Y-107685184D01*
X116449523Y-107589211D01*
X116279254Y-107529631D01*
X116279249Y-107529630D01*
X116100004Y-107509435D01*
X116099996Y-107509435D01*
X115920750Y-107529630D01*
X115920742Y-107529632D01*
X115815454Y-107566474D01*
X115745675Y-107570035D01*
X115685048Y-107535306D01*
X115652821Y-107473312D01*
X115650500Y-107449432D01*
X115650500Y-103714749D01*
X115670185Y-103647710D01*
X115700190Y-103615482D01*
X115757546Y-103572546D01*
X115843796Y-103457331D01*
X115894091Y-103322483D01*
X115900500Y-103262873D01*
X115900499Y-99767128D01*
X115894091Y-99707517D01*
X115868722Y-99639500D01*
X115843797Y-99572671D01*
X115843793Y-99572664D01*
X115757548Y-99457457D01*
X115757546Y-99457454D01*
X115757542Y-99457451D01*
X115700188Y-99414515D01*
X115658318Y-99358581D01*
X115650500Y-99315249D01*
X115650500Y-97485944D01*
X115650500Y-97485943D01*
X115642833Y-97457331D01*
X115619207Y-97369156D01*
X115609577Y-97333216D01*
X115568965Y-97262873D01*
X115530524Y-97196290D01*
X115530521Y-97196286D01*
X115530520Y-97196284D01*
X115418716Y-97084480D01*
X115418715Y-97084479D01*
X115414385Y-97080149D01*
X115414374Y-97080139D01*
X114721416Y-96387181D01*
X114687931Y-96325858D01*
X114692915Y-96256166D01*
X114734787Y-96200233D01*
X114800251Y-96175816D01*
X114809097Y-96175500D01*
X116280191Y-96175500D01*
X116347230Y-96195185D01*
X116392985Y-96247989D01*
X116402929Y-96317147D01*
X116373904Y-96380703D01*
X116367872Y-96387181D01*
X116331923Y-96423129D01*
X116331917Y-96423137D01*
X116248255Y-96564603D01*
X116248254Y-96564606D01*
X116202402Y-96722426D01*
X116202401Y-96722432D01*
X116199500Y-96759298D01*
X116199500Y-97190701D01*
X116202401Y-97227567D01*
X116202402Y-97227573D01*
X116248254Y-97385393D01*
X116248255Y-97385396D01*
X116248256Y-97385398D01*
X116269257Y-97420909D01*
X116331917Y-97526862D01*
X116331923Y-97526870D01*
X116413181Y-97608128D01*
X116446666Y-97669451D01*
X116449500Y-97695809D01*
X116449500Y-100978330D01*
X116449499Y-100978348D01*
X116449499Y-101144054D01*
X116449498Y-101144054D01*
X116490423Y-101296785D01*
X116507492Y-101326349D01*
X116507491Y-101326349D01*
X116507492Y-101326350D01*
X116569475Y-101433709D01*
X116569481Y-101433717D01*
X116613181Y-101477417D01*
X116646666Y-101538740D01*
X116649500Y-101565098D01*
X116649500Y-103262870D01*
X116649501Y-103262876D01*
X116655908Y-103322483D01*
X116706202Y-103457328D01*
X116706206Y-103457335D01*
X116792452Y-103572544D01*
X116792455Y-103572547D01*
X116907664Y-103658793D01*
X116907671Y-103658797D01*
X117042517Y-103709091D01*
X117042516Y-103709091D01*
X117049444Y-103709835D01*
X117102127Y-103715500D01*
X117897872Y-103715499D01*
X117957483Y-103709091D01*
X118092331Y-103658796D01*
X118207546Y-103572546D01*
X118293796Y-103457331D01*
X118344091Y-103322483D01*
X118347354Y-103292135D01*
X120599500Y-103292135D01*
X120599500Y-105187870D01*
X120599501Y-105187876D01*
X120605908Y-105247483D01*
X120656202Y-105382328D01*
X120656206Y-105382335D01*
X120742452Y-105497544D01*
X120742455Y-105497547D01*
X120857664Y-105583793D01*
X120857671Y-105583797D01*
X120992517Y-105634091D01*
X120992516Y-105634091D01*
X120999444Y-105634835D01*
X121052127Y-105640500D01*
X122747872Y-105640499D01*
X122807483Y-105634091D01*
X122942331Y-105583796D01*
X123057546Y-105497546D01*
X123143796Y-105382331D01*
X123194091Y-105247483D01*
X123200500Y-105187873D01*
X123200499Y-103292128D01*
X123194091Y-103232517D01*
X123163057Y-103149311D01*
X123143797Y-103097671D01*
X123143793Y-103097664D01*
X123057547Y-102982455D01*
X123057544Y-102982452D01*
X122942335Y-102896206D01*
X122942328Y-102896202D01*
X122807482Y-102845908D01*
X122807483Y-102845908D01*
X122747883Y-102839501D01*
X122747881Y-102839500D01*
X122747873Y-102839500D01*
X122747865Y-102839500D01*
X122445753Y-102839500D01*
X122378714Y-102819815D01*
X122332959Y-102767011D01*
X122323015Y-102697853D01*
X122324136Y-102691309D01*
X122350499Y-102558770D01*
X122350500Y-102558768D01*
X122350500Y-102391232D01*
X122350499Y-102391228D01*
X122317817Y-102226925D01*
X122317816Y-102226918D01*
X122293053Y-102167135D01*
X124079500Y-102167135D01*
X124079500Y-105262870D01*
X124079501Y-105262876D01*
X124085908Y-105322483D01*
X124136202Y-105457328D01*
X124136206Y-105457335D01*
X124222452Y-105572544D01*
X124222455Y-105572547D01*
X124337664Y-105658793D01*
X124337671Y-105658797D01*
X124472517Y-105709091D01*
X124472516Y-105709091D01*
X124479444Y-105709835D01*
X124532127Y-105715500D01*
X126227872Y-105715499D01*
X126287483Y-105709091D01*
X126422331Y-105658796D01*
X126537546Y-105572546D01*
X126623796Y-105457331D01*
X126674091Y-105322483D01*
X126680500Y-105262873D01*
X126680499Y-102167128D01*
X126674091Y-102107517D01*
X126623796Y-101972669D01*
X126623795Y-101972668D01*
X126623793Y-101972664D01*
X126537547Y-101857455D01*
X126537544Y-101857452D01*
X126422335Y-101771206D01*
X126422328Y-101771202D01*
X126287482Y-101720908D01*
X126287483Y-101720908D01*
X126227883Y-101714501D01*
X126227881Y-101714500D01*
X126227873Y-101714500D01*
X126227864Y-101714500D01*
X124532129Y-101714500D01*
X124532123Y-101714501D01*
X124472516Y-101720908D01*
X124337671Y-101771202D01*
X124337664Y-101771206D01*
X124222455Y-101857452D01*
X124222452Y-101857455D01*
X124136206Y-101972664D01*
X124136202Y-101972671D01*
X124085908Y-102107517D01*
X124079501Y-102167116D01*
X124079501Y-102167123D01*
X124079500Y-102167135D01*
X122293053Y-102167135D01*
X122253703Y-102072137D01*
X122187242Y-101972671D01*
X122160626Y-101932837D01*
X122042162Y-101814373D01*
X121902860Y-101721295D01*
X121748082Y-101657184D01*
X121748074Y-101657182D01*
X121583771Y-101624500D01*
X121583767Y-101624500D01*
X121416233Y-101624500D01*
X121416228Y-101624500D01*
X121251925Y-101657182D01*
X121251917Y-101657184D01*
X121097139Y-101721295D01*
X120957837Y-101814373D01*
X120839373Y-101932837D01*
X120746295Y-102072139D01*
X120682184Y-102226917D01*
X120682182Y-102226925D01*
X120649500Y-102391228D01*
X120649500Y-102558771D01*
X120682182Y-102723074D01*
X120682184Y-102723082D01*
X120745796Y-102876655D01*
X120753265Y-102946125D01*
X120730502Y-102998419D01*
X120656204Y-103097668D01*
X120656202Y-103097671D01*
X120605908Y-103232517D01*
X120602644Y-103262883D01*
X120599501Y-103292123D01*
X120599500Y-103292135D01*
X118347354Y-103292135D01*
X118350500Y-103262873D01*
X118350499Y-99767128D01*
X118344091Y-99707517D01*
X118318722Y-99639500D01*
X118293797Y-99572671D01*
X118293793Y-99572664D01*
X118207547Y-99457455D01*
X118207544Y-99457452D01*
X118092335Y-99371206D01*
X118092328Y-99371202D01*
X117957482Y-99320908D01*
X117957483Y-99320908D01*
X117897883Y-99314501D01*
X117897881Y-99314500D01*
X117897873Y-99314500D01*
X117897865Y-99314500D01*
X117774500Y-99314500D01*
X117707461Y-99294815D01*
X117661706Y-99242011D01*
X117650500Y-99190500D01*
X117650500Y-97867135D01*
X120599500Y-97867135D01*
X120599500Y-100562870D01*
X120599501Y-100562876D01*
X120605908Y-100622483D01*
X120656202Y-100757328D01*
X120656206Y-100757335D01*
X120742452Y-100872544D01*
X120742455Y-100872547D01*
X120857664Y-100958793D01*
X120857671Y-100958797D01*
X120992517Y-101009091D01*
X120992516Y-101009091D01*
X120999444Y-101009835D01*
X121052127Y-101015500D01*
X122747872Y-101015499D01*
X122807483Y-101009091D01*
X122942331Y-100958796D01*
X123057546Y-100872546D01*
X123143796Y-100757331D01*
X123194091Y-100622483D01*
X123200500Y-100562873D01*
X123200500Y-100338615D01*
X125004500Y-100338615D01*
X125004500Y-100491384D01*
X125034300Y-100641197D01*
X125034302Y-100641205D01*
X125092759Y-100782334D01*
X125092764Y-100782343D01*
X125177629Y-100909351D01*
X125177632Y-100909355D01*
X125285644Y-101017367D01*
X125285648Y-101017370D01*
X125412656Y-101102235D01*
X125412662Y-101102238D01*
X125412663Y-101102239D01*
X125553795Y-101160698D01*
X125671214Y-101184054D01*
X125703615Y-101190499D01*
X125703619Y-101190500D01*
X125703620Y-101190500D01*
X125856381Y-101190500D01*
X125856382Y-101190499D01*
X126006205Y-101160698D01*
X126147337Y-101102239D01*
X126274352Y-101017370D01*
X126382370Y-100909352D01*
X126467239Y-100782337D01*
X126525698Y-100641205D01*
X126555500Y-100491380D01*
X126555500Y-100338620D01*
X126525698Y-100188795D01*
X126467239Y-100047663D01*
X126467238Y-100047662D01*
X126467235Y-100047656D01*
X126382370Y-99920648D01*
X126382367Y-99920644D01*
X126274355Y-99812632D01*
X126274351Y-99812629D01*
X126147343Y-99727764D01*
X126147334Y-99727759D01*
X126006205Y-99669302D01*
X126006197Y-99669300D01*
X125856384Y-99639500D01*
X125856380Y-99639500D01*
X125703620Y-99639500D01*
X125703615Y-99639500D01*
X125553802Y-99669300D01*
X125553794Y-99669302D01*
X125412665Y-99727759D01*
X125412656Y-99727764D01*
X125285648Y-99812629D01*
X125285644Y-99812632D01*
X125177632Y-99920644D01*
X125177629Y-99920648D01*
X125092764Y-100047656D01*
X125092759Y-100047665D01*
X125034302Y-100188794D01*
X125034300Y-100188802D01*
X125004500Y-100338615D01*
X123200500Y-100338615D01*
X123200499Y-97867128D01*
X123194091Y-97807517D01*
X123147456Y-97682483D01*
X123143797Y-97672671D01*
X123143793Y-97672664D01*
X123057547Y-97557455D01*
X123057544Y-97557452D01*
X122942335Y-97471206D01*
X122942328Y-97471202D01*
X122807482Y-97420908D01*
X122807483Y-97420908D01*
X122747883Y-97414501D01*
X122747881Y-97414500D01*
X122747873Y-97414500D01*
X122747864Y-97414500D01*
X121052129Y-97414500D01*
X121052123Y-97414501D01*
X120992516Y-97420908D01*
X120857671Y-97471202D01*
X120857664Y-97471206D01*
X120742455Y-97557452D01*
X120742452Y-97557455D01*
X120656206Y-97672664D01*
X120656202Y-97672671D01*
X120605908Y-97807517D01*
X120602552Y-97838739D01*
X120599501Y-97867123D01*
X120599500Y-97867135D01*
X117650500Y-97867135D01*
X117650500Y-97695809D01*
X117670185Y-97628770D01*
X117686819Y-97608128D01*
X117768076Y-97526870D01*
X117768081Y-97526865D01*
X117851744Y-97385398D01*
X117887344Y-97262864D01*
X117897597Y-97227573D01*
X117897598Y-97227567D01*
X117900500Y-97190694D01*
X117900500Y-96759306D01*
X117897598Y-96722431D01*
X117882161Y-96669298D01*
X117856198Y-96579932D01*
X117851744Y-96564602D01*
X117768081Y-96423135D01*
X117768079Y-96423133D01*
X117768076Y-96423129D01*
X117707628Y-96362681D01*
X117674143Y-96301358D01*
X117679127Y-96231666D01*
X117707628Y-96187319D01*
X117768076Y-96126870D01*
X117768081Y-96126865D01*
X117851744Y-95985398D01*
X117888927Y-95857416D01*
X117897597Y-95827573D01*
X117897598Y-95827567D01*
X117897632Y-95827135D01*
X117900500Y-95790694D01*
X117900500Y-95625097D01*
X117920185Y-95558058D01*
X117936819Y-95537416D01*
X119847416Y-93626819D01*
X119908739Y-93593334D01*
X119935097Y-93590500D01*
X120475500Y-93590500D01*
X120542539Y-93610185D01*
X120588294Y-93662989D01*
X120599500Y-93714500D01*
X120599500Y-95137870D01*
X120599501Y-95137876D01*
X120605908Y-95197483D01*
X120656202Y-95332328D01*
X120656203Y-95332329D01*
X120656204Y-95332331D01*
X120716753Y-95413214D01*
X120730502Y-95431580D01*
X120754919Y-95497044D01*
X120745796Y-95553343D01*
X120682185Y-95706913D01*
X120682182Y-95706925D01*
X120649500Y-95871228D01*
X120649500Y-96038771D01*
X120682182Y-96203074D01*
X120682184Y-96203082D01*
X120746295Y-96357860D01*
X120839373Y-96497162D01*
X120957837Y-96615626D01*
X121038163Y-96669298D01*
X121097137Y-96708703D01*
X121251918Y-96772816D01*
X121416228Y-96805499D01*
X121416232Y-96805500D01*
X121416233Y-96805500D01*
X121583768Y-96805500D01*
X121583769Y-96805499D01*
X121748082Y-96772816D01*
X121902863Y-96708703D01*
X122042162Y-96615626D01*
X122160626Y-96497162D01*
X122253703Y-96357863D01*
X122317816Y-96203082D01*
X122350500Y-96038767D01*
X122350500Y-95871233D01*
X122324136Y-95738690D01*
X122330363Y-95669099D01*
X122373226Y-95613921D01*
X122439116Y-95590677D01*
X122445753Y-95590499D01*
X122747871Y-95590499D01*
X122747872Y-95590499D01*
X122807483Y-95584091D01*
X122942331Y-95533796D01*
X123057546Y-95447546D01*
X123143796Y-95332331D01*
X123194091Y-95197483D01*
X123200500Y-95137873D01*
X123200499Y-93714499D01*
X123220184Y-93647461D01*
X123272987Y-93601706D01*
X123324499Y-93590500D01*
X123955500Y-93590500D01*
X124022539Y-93610185D01*
X124068294Y-93662989D01*
X124079500Y-93714500D01*
X124079500Y-97262870D01*
X124079501Y-97262876D01*
X124085908Y-97322483D01*
X124136202Y-97457328D01*
X124136206Y-97457335D01*
X124222452Y-97572544D01*
X124222455Y-97572547D01*
X124337664Y-97658793D01*
X124337671Y-97658797D01*
X124472517Y-97709091D01*
X124472516Y-97709091D01*
X124479444Y-97709835D01*
X124532127Y-97715500D01*
X126227872Y-97715499D01*
X126287483Y-97709091D01*
X126422331Y-97658796D01*
X126537546Y-97572546D01*
X126623796Y-97457331D01*
X126674091Y-97322483D01*
X126680500Y-97262873D01*
X126680499Y-93714499D01*
X126700184Y-93647461D01*
X126752988Y-93601706D01*
X126804499Y-93590500D01*
X128893060Y-93590500D01*
X128960099Y-93610185D01*
X129005854Y-93662989D01*
X129015798Y-93732147D01*
X128986773Y-93795703D01*
X128980741Y-93802181D01*
X128970184Y-93812737D01*
X128874211Y-93965476D01*
X128814631Y-94135745D01*
X128814630Y-94135750D01*
X128794435Y-94314996D01*
X128794435Y-94315003D01*
X128814630Y-94494249D01*
X128814631Y-94494254D01*
X128874211Y-94664523D01*
X128945138Y-94777402D01*
X128970184Y-94817262D01*
X129097738Y-94944816D01*
X129250478Y-95040789D01*
X129420745Y-95100368D01*
X129507669Y-95110161D01*
X129572080Y-95137226D01*
X129581465Y-95145700D01*
X130293181Y-95857416D01*
X130326666Y-95918739D01*
X130329500Y-95945097D01*
X130329500Y-99315249D01*
X130309815Y-99382288D01*
X130279812Y-99414515D01*
X130222457Y-99457451D01*
X130222451Y-99457457D01*
X130136206Y-99572664D01*
X130136202Y-99572671D01*
X130085908Y-99707517D01*
X130079501Y-99767116D01*
X130079501Y-99767123D01*
X130079500Y-99767135D01*
X130079500Y-103262870D01*
X130079501Y-103262876D01*
X130085908Y-103322483D01*
X130136202Y-103457328D01*
X130136203Y-103457329D01*
X130136204Y-103457331D01*
X130222452Y-103572543D01*
X130222455Y-103572547D01*
X130279810Y-103615482D01*
X130321682Y-103671415D01*
X130329500Y-103714749D01*
X130329500Y-109152060D01*
X130309815Y-109219099D01*
X130293181Y-109239741D01*
X130220184Y-109312737D01*
X130124211Y-109465476D01*
X130064631Y-109635745D01*
X130064630Y-109635750D01*
X130044435Y-109814996D01*
X130044435Y-109815003D01*
X130064630Y-109994249D01*
X130064631Y-109994254D01*
X130124211Y-110164523D01*
X130220184Y-110317262D01*
X130347738Y-110444816D01*
X130500478Y-110540789D01*
X130642544Y-110590500D01*
X130670745Y-110600368D01*
X130670750Y-110600369D01*
X130849996Y-110620565D01*
X130850000Y-110620565D01*
X130850004Y-110620565D01*
X131029249Y-110600369D01*
X131029252Y-110600368D01*
X131029255Y-110600368D01*
X131199522Y-110540789D01*
X131352262Y-110444816D01*
X131479816Y-110317262D01*
X131575789Y-110164522D01*
X131635368Y-109994255D01*
X131635369Y-109994249D01*
X131655565Y-109815003D01*
X131655565Y-109814996D01*
X131635369Y-109635750D01*
X131635368Y-109635745D01*
X131584154Y-109489385D01*
X131575789Y-109465478D01*
X131556753Y-109435182D01*
X131549506Y-109423648D01*
X131530500Y-109357676D01*
X131530500Y-103714749D01*
X131550185Y-103647710D01*
X131580190Y-103615482D01*
X131637546Y-103572546D01*
X131723796Y-103457331D01*
X131774091Y-103322483D01*
X131780500Y-103262873D01*
X131780499Y-99767128D01*
X131774091Y-99707517D01*
X131748722Y-99639500D01*
X131723797Y-99572671D01*
X131723793Y-99572664D01*
X131637548Y-99457457D01*
X131637546Y-99457454D01*
X131637542Y-99457451D01*
X131580188Y-99414515D01*
X131538318Y-99358581D01*
X131530500Y-99315249D01*
X131530500Y-95734059D01*
X131530501Y-95734046D01*
X131530501Y-95565945D01*
X131530501Y-95565943D01*
X131489577Y-95413215D01*
X131442878Y-95332331D01*
X131410520Y-95276284D01*
X131298716Y-95164480D01*
X131298715Y-95164479D01*
X131294385Y-95160149D01*
X131294374Y-95160139D01*
X130430700Y-94296465D01*
X130397215Y-94235142D01*
X130395163Y-94222686D01*
X130385368Y-94135745D01*
X130378486Y-94116079D01*
X130374924Y-94046303D01*
X130409652Y-93985675D01*
X130471645Y-93953447D01*
X130541220Y-93959850D01*
X130583209Y-93987444D01*
X132043181Y-95447416D01*
X132076666Y-95508739D01*
X132079500Y-95535097D01*
X132079500Y-95700701D01*
X132082401Y-95737567D01*
X132082402Y-95737573D01*
X132128254Y-95895393D01*
X132128255Y-95895396D01*
X132211917Y-96036862D01*
X132211923Y-96036870D01*
X132272372Y-96097319D01*
X132305857Y-96158642D01*
X132300873Y-96228334D01*
X132272372Y-96272681D01*
X132211923Y-96333129D01*
X132211917Y-96333137D01*
X132128255Y-96474603D01*
X132128254Y-96474606D01*
X132082402Y-96632426D01*
X132082401Y-96632432D01*
X132079500Y-96669298D01*
X132079500Y-97100701D01*
X132082401Y-97137567D01*
X132082402Y-97137573D01*
X132128254Y-97295393D01*
X132128255Y-97295396D01*
X132211917Y-97436862D01*
X132211923Y-97436870D01*
X132293181Y-97518128D01*
X132326666Y-97579451D01*
X132329500Y-97605809D01*
X132329500Y-100978330D01*
X132329499Y-100978348D01*
X132329499Y-101144054D01*
X132329498Y-101144054D01*
X132370423Y-101296785D01*
X132387492Y-101326349D01*
X132387491Y-101326349D01*
X132387492Y-101326350D01*
X132449475Y-101433709D01*
X132449481Y-101433717D01*
X132493181Y-101477417D01*
X132526666Y-101538740D01*
X132529500Y-101565098D01*
X132529500Y-103262870D01*
X132529501Y-103262876D01*
X132535908Y-103322483D01*
X132586202Y-103457328D01*
X132586206Y-103457335D01*
X132672452Y-103572544D01*
X132672455Y-103572547D01*
X132787664Y-103658793D01*
X132787671Y-103658797D01*
X132922517Y-103709091D01*
X132922516Y-103709091D01*
X132929444Y-103709835D01*
X132982127Y-103715500D01*
X133777872Y-103715499D01*
X133837483Y-103709091D01*
X133972331Y-103658796D01*
X134087546Y-103572546D01*
X134173796Y-103457331D01*
X134224091Y-103322483D01*
X134227354Y-103292135D01*
X136479500Y-103292135D01*
X136479500Y-105187870D01*
X136479501Y-105187876D01*
X136485908Y-105247483D01*
X136536202Y-105382328D01*
X136536206Y-105382335D01*
X136622452Y-105497544D01*
X136622455Y-105497547D01*
X136737664Y-105583793D01*
X136737671Y-105583797D01*
X136872517Y-105634091D01*
X136872516Y-105634091D01*
X136879444Y-105634835D01*
X136932127Y-105640500D01*
X138627872Y-105640499D01*
X138687483Y-105634091D01*
X138822331Y-105583796D01*
X138937546Y-105497546D01*
X139023796Y-105382331D01*
X139074091Y-105247483D01*
X139080500Y-105187873D01*
X139080499Y-103292128D01*
X139074091Y-103232517D01*
X139043057Y-103149311D01*
X139023797Y-103097671D01*
X139023793Y-103097664D01*
X138937547Y-102982455D01*
X138937544Y-102982452D01*
X138822335Y-102896206D01*
X138822328Y-102896202D01*
X138687482Y-102845908D01*
X138687483Y-102845908D01*
X138627883Y-102839501D01*
X138627881Y-102839500D01*
X138627873Y-102839500D01*
X138627865Y-102839500D01*
X138325753Y-102839500D01*
X138258714Y-102819815D01*
X138212959Y-102767011D01*
X138203015Y-102697853D01*
X138204136Y-102691309D01*
X138230499Y-102558770D01*
X138230500Y-102558768D01*
X138230500Y-102391232D01*
X138230499Y-102391228D01*
X138197817Y-102226925D01*
X138197816Y-102226918D01*
X138173053Y-102167135D01*
X139959500Y-102167135D01*
X139959500Y-105262870D01*
X139959501Y-105262876D01*
X139965908Y-105322483D01*
X140016202Y-105457328D01*
X140016206Y-105457335D01*
X140102452Y-105572544D01*
X140102455Y-105572547D01*
X140217664Y-105658793D01*
X140217671Y-105658797D01*
X140352517Y-105709091D01*
X140352516Y-105709091D01*
X140359444Y-105709835D01*
X140412127Y-105715500D01*
X142107872Y-105715499D01*
X142167483Y-105709091D01*
X142302331Y-105658796D01*
X142417546Y-105572546D01*
X142503796Y-105457331D01*
X142554091Y-105322483D01*
X142560500Y-105262873D01*
X142560499Y-102167128D01*
X142554091Y-102107517D01*
X142503796Y-101972669D01*
X142503795Y-101972668D01*
X142503793Y-101972664D01*
X142417547Y-101857455D01*
X142417544Y-101857452D01*
X142302335Y-101771206D01*
X142302328Y-101771202D01*
X142167482Y-101720908D01*
X142167483Y-101720908D01*
X142107883Y-101714501D01*
X142107881Y-101714500D01*
X142107873Y-101714500D01*
X142107864Y-101714500D01*
X140412129Y-101714500D01*
X140412123Y-101714501D01*
X140352516Y-101720908D01*
X140217671Y-101771202D01*
X140217664Y-101771206D01*
X140102455Y-101857452D01*
X140102452Y-101857455D01*
X140016206Y-101972664D01*
X140016202Y-101972671D01*
X139965908Y-102107517D01*
X139959501Y-102167116D01*
X139959501Y-102167123D01*
X139959500Y-102167135D01*
X138173053Y-102167135D01*
X138133703Y-102072137D01*
X138067242Y-101972671D01*
X138040626Y-101932837D01*
X137922162Y-101814373D01*
X137782860Y-101721295D01*
X137628082Y-101657184D01*
X137628074Y-101657182D01*
X137463771Y-101624500D01*
X137463767Y-101624500D01*
X137296233Y-101624500D01*
X137296228Y-101624500D01*
X137131925Y-101657182D01*
X137131917Y-101657184D01*
X136977139Y-101721295D01*
X136837837Y-101814373D01*
X136719373Y-101932837D01*
X136626295Y-102072139D01*
X136562184Y-102226917D01*
X136562182Y-102226925D01*
X136529500Y-102391228D01*
X136529500Y-102558771D01*
X136562182Y-102723074D01*
X136562184Y-102723082D01*
X136625796Y-102876655D01*
X136633265Y-102946125D01*
X136610502Y-102998419D01*
X136536204Y-103097668D01*
X136536202Y-103097671D01*
X136485908Y-103232517D01*
X136482644Y-103262883D01*
X136479501Y-103292123D01*
X136479500Y-103292135D01*
X134227354Y-103292135D01*
X134230500Y-103262873D01*
X134230499Y-99767128D01*
X134224091Y-99707517D01*
X134198722Y-99639500D01*
X134173797Y-99572671D01*
X134173793Y-99572664D01*
X134087547Y-99457455D01*
X134087544Y-99457452D01*
X133972335Y-99371206D01*
X133972328Y-99371202D01*
X133837482Y-99320908D01*
X133837483Y-99320908D01*
X133777883Y-99314501D01*
X133777881Y-99314500D01*
X133777873Y-99314500D01*
X133777865Y-99314500D01*
X133654500Y-99314500D01*
X133587461Y-99294815D01*
X133541706Y-99242011D01*
X133530500Y-99190500D01*
X133530500Y-97867135D01*
X136479500Y-97867135D01*
X136479500Y-100562870D01*
X136479501Y-100562876D01*
X136485908Y-100622483D01*
X136536202Y-100757328D01*
X136536206Y-100757335D01*
X136622452Y-100872544D01*
X136622455Y-100872547D01*
X136737664Y-100958793D01*
X136737671Y-100958797D01*
X136872517Y-101009091D01*
X136872516Y-101009091D01*
X136879444Y-101009835D01*
X136932127Y-101015500D01*
X138627872Y-101015499D01*
X138687483Y-101009091D01*
X138822331Y-100958796D01*
X138937546Y-100872546D01*
X139023796Y-100757331D01*
X139074091Y-100622483D01*
X139080500Y-100562873D01*
X139080500Y-100338615D01*
X140884500Y-100338615D01*
X140884500Y-100491384D01*
X140914300Y-100641197D01*
X140914302Y-100641205D01*
X140972759Y-100782334D01*
X140972764Y-100782343D01*
X141057629Y-100909351D01*
X141057632Y-100909355D01*
X141165644Y-101017367D01*
X141165648Y-101017370D01*
X141292656Y-101102235D01*
X141292662Y-101102238D01*
X141292663Y-101102239D01*
X141433795Y-101160698D01*
X141551214Y-101184054D01*
X141583615Y-101190499D01*
X141583619Y-101190500D01*
X141583620Y-101190500D01*
X141736381Y-101190500D01*
X141736382Y-101190499D01*
X141886205Y-101160698D01*
X142027337Y-101102239D01*
X142154352Y-101017370D01*
X142262370Y-100909352D01*
X142347239Y-100782337D01*
X142405698Y-100641205D01*
X142435500Y-100491380D01*
X142435500Y-100338620D01*
X142405698Y-100188795D01*
X142347239Y-100047663D01*
X142347238Y-100047662D01*
X142347235Y-100047656D01*
X142262370Y-99920648D01*
X142262367Y-99920644D01*
X142154355Y-99812632D01*
X142154351Y-99812629D01*
X142027343Y-99727764D01*
X142027334Y-99727759D01*
X141886205Y-99669302D01*
X141886197Y-99669300D01*
X141736384Y-99639500D01*
X141736380Y-99639500D01*
X141583620Y-99639500D01*
X141583615Y-99639500D01*
X141433802Y-99669300D01*
X141433794Y-99669302D01*
X141292665Y-99727759D01*
X141292656Y-99727764D01*
X141165648Y-99812629D01*
X141165644Y-99812632D01*
X141057632Y-99920644D01*
X141057629Y-99920648D01*
X140972764Y-100047656D01*
X140972759Y-100047665D01*
X140914302Y-100188794D01*
X140914300Y-100188802D01*
X140884500Y-100338615D01*
X139080500Y-100338615D01*
X139080499Y-97867128D01*
X139074091Y-97807517D01*
X139027456Y-97682483D01*
X139023797Y-97672671D01*
X139023793Y-97672664D01*
X138937547Y-97557455D01*
X138937544Y-97557452D01*
X138822335Y-97471206D01*
X138822328Y-97471202D01*
X138687482Y-97420908D01*
X138687483Y-97420908D01*
X138627883Y-97414501D01*
X138627881Y-97414500D01*
X138627873Y-97414500D01*
X138627864Y-97414500D01*
X136932129Y-97414500D01*
X136932123Y-97414501D01*
X136872516Y-97420908D01*
X136737671Y-97471202D01*
X136737664Y-97471206D01*
X136622455Y-97557452D01*
X136622452Y-97557455D01*
X136536206Y-97672664D01*
X136536202Y-97672671D01*
X136485908Y-97807517D01*
X136482552Y-97838739D01*
X136479501Y-97867123D01*
X136479500Y-97867135D01*
X133530500Y-97867135D01*
X133530500Y-97605809D01*
X133550185Y-97538770D01*
X133566819Y-97518128D01*
X133648076Y-97436870D01*
X133648081Y-97436865D01*
X133731744Y-97295398D01*
X133777598Y-97137569D01*
X133780500Y-97100694D01*
X133780500Y-96669306D01*
X133777598Y-96632431D01*
X133773058Y-96616806D01*
X133731745Y-96474606D01*
X133731744Y-96474603D01*
X133731744Y-96474602D01*
X133648081Y-96333135D01*
X133648079Y-96333133D01*
X133648076Y-96333129D01*
X133587628Y-96272681D01*
X133554143Y-96211358D01*
X133559127Y-96141666D01*
X133587628Y-96097319D01*
X133648076Y-96036870D01*
X133648081Y-96036865D01*
X133731744Y-95895398D01*
X133777598Y-95737569D01*
X133780500Y-95700694D01*
X133780500Y-95535097D01*
X133800185Y-95468058D01*
X133816819Y-95447416D01*
X135637416Y-93626819D01*
X135698739Y-93593334D01*
X135725097Y-93590500D01*
X136355500Y-93590500D01*
X136422539Y-93610185D01*
X136468294Y-93662989D01*
X136479500Y-93714500D01*
X136479500Y-95137870D01*
X136479501Y-95137876D01*
X136485908Y-95197483D01*
X136536202Y-95332328D01*
X136536203Y-95332329D01*
X136536204Y-95332331D01*
X136596753Y-95413214D01*
X136610502Y-95431580D01*
X136634919Y-95497044D01*
X136625796Y-95553343D01*
X136562185Y-95706913D01*
X136562182Y-95706925D01*
X136529500Y-95871228D01*
X136529500Y-96038771D01*
X136562182Y-96203074D01*
X136562184Y-96203082D01*
X136626295Y-96357860D01*
X136719373Y-96497162D01*
X136837837Y-96615626D01*
X136918163Y-96669298D01*
X136977137Y-96708703D01*
X137131918Y-96772816D01*
X137296228Y-96805499D01*
X137296232Y-96805500D01*
X137296233Y-96805500D01*
X137463768Y-96805500D01*
X137463769Y-96805499D01*
X137628082Y-96772816D01*
X137782863Y-96708703D01*
X137922162Y-96615626D01*
X138040626Y-96497162D01*
X138133703Y-96357863D01*
X138197816Y-96203082D01*
X138230500Y-96038767D01*
X138230500Y-95871233D01*
X138204136Y-95738690D01*
X138210363Y-95669099D01*
X138253226Y-95613921D01*
X138319116Y-95590677D01*
X138325753Y-95590499D01*
X138627871Y-95590499D01*
X138627872Y-95590499D01*
X138687483Y-95584091D01*
X138822331Y-95533796D01*
X138937546Y-95447546D01*
X139023796Y-95332331D01*
X139074091Y-95197483D01*
X139080500Y-95137873D01*
X139080499Y-93714499D01*
X139100184Y-93647461D01*
X139152987Y-93601706D01*
X139204499Y-93590500D01*
X139835500Y-93590500D01*
X139902539Y-93610185D01*
X139948294Y-93662989D01*
X139959500Y-93714500D01*
X139959500Y-97262870D01*
X139959501Y-97262876D01*
X139965908Y-97322483D01*
X140016202Y-97457328D01*
X140016206Y-97457335D01*
X140102452Y-97572544D01*
X140102455Y-97572547D01*
X140217664Y-97658793D01*
X140217671Y-97658797D01*
X140352517Y-97709091D01*
X140352516Y-97709091D01*
X140359444Y-97709835D01*
X140412127Y-97715500D01*
X142107872Y-97715499D01*
X142167483Y-97709091D01*
X142302331Y-97658796D01*
X142417546Y-97572546D01*
X142503796Y-97457331D01*
X142554091Y-97322483D01*
X142560500Y-97262873D01*
X142560499Y-93714499D01*
X142580184Y-93647461D01*
X142632988Y-93601706D01*
X142684499Y-93590500D01*
X145493180Y-93590500D01*
X145560219Y-93610185D01*
X145605974Y-93662989D01*
X145615918Y-93732147D01*
X145610222Y-93755454D01*
X145564632Y-93885742D01*
X145564630Y-93885750D01*
X145544435Y-94064996D01*
X145544435Y-94065003D01*
X145564630Y-94244249D01*
X145564631Y-94244254D01*
X145624211Y-94414523D01*
X145687838Y-94515784D01*
X145720184Y-94567262D01*
X145847738Y-94694816D01*
X145958517Y-94764423D01*
X146000478Y-94790789D01*
X146126454Y-94834870D01*
X146183231Y-94875592D01*
X146208978Y-94940545D01*
X146209500Y-94951912D01*
X146209500Y-99315249D01*
X146189815Y-99382288D01*
X146159812Y-99414515D01*
X146102457Y-99457451D01*
X146102451Y-99457457D01*
X146016206Y-99572664D01*
X146016202Y-99572671D01*
X145965908Y-99707517D01*
X145959501Y-99767116D01*
X145959501Y-99767123D01*
X145959500Y-99767135D01*
X145959500Y-103262870D01*
X145959501Y-103262876D01*
X145965908Y-103322483D01*
X146016202Y-103457328D01*
X146016203Y-103457329D01*
X146016204Y-103457331D01*
X146102452Y-103572543D01*
X146102455Y-103572547D01*
X146159810Y-103615482D01*
X146201682Y-103671415D01*
X146209500Y-103714749D01*
X146209500Y-109296426D01*
X146189815Y-109363465D01*
X146151473Y-109401419D01*
X146097740Y-109435182D01*
X146097737Y-109435184D01*
X145970184Y-109562737D01*
X145874211Y-109715476D01*
X145814631Y-109885745D01*
X145814630Y-109885750D01*
X145794435Y-110064996D01*
X145794435Y-110065003D01*
X145814630Y-110244249D01*
X145814631Y-110244254D01*
X145874211Y-110414523D01*
X145938810Y-110517331D01*
X145970184Y-110567262D01*
X146097738Y-110694816D01*
X146146514Y-110725464D01*
X146240244Y-110784359D01*
X146250478Y-110790789D01*
X146375337Y-110834479D01*
X146420745Y-110850368D01*
X146420750Y-110850369D01*
X146599996Y-110870565D01*
X146600000Y-110870565D01*
X146600004Y-110870565D01*
X146779249Y-110850369D01*
X146779252Y-110850368D01*
X146779255Y-110850368D01*
X146949522Y-110790789D01*
X147102262Y-110694816D01*
X147229816Y-110567262D01*
X147325789Y-110414522D01*
X147385368Y-110244255D01*
X147405565Y-110065000D01*
X147399266Y-110009100D01*
X147402713Y-109963118D01*
X147402857Y-109962582D01*
X147410501Y-109934057D01*
X147410501Y-109775943D01*
X147410501Y-109768348D01*
X147410500Y-109768330D01*
X147410500Y-109122135D01*
X152359500Y-109122135D01*
X152359500Y-111017870D01*
X152359501Y-111017876D01*
X152365908Y-111077483D01*
X152416202Y-111212328D01*
X152416203Y-111212330D01*
X152490502Y-111311580D01*
X152514919Y-111377044D01*
X152505796Y-111433343D01*
X152442185Y-111586913D01*
X152442182Y-111586925D01*
X152409500Y-111751228D01*
X152409500Y-111918771D01*
X152442182Y-112083074D01*
X152442184Y-112083082D01*
X152506295Y-112237860D01*
X152599373Y-112377162D01*
X152717837Y-112495626D01*
X152768604Y-112529547D01*
X152857137Y-112588703D01*
X153011918Y-112652816D01*
X153176228Y-112685499D01*
X153176232Y-112685500D01*
X153176233Y-112685500D01*
X153343768Y-112685500D01*
X153343769Y-112685499D01*
X153508082Y-112652816D01*
X153662863Y-112588703D01*
X153802162Y-112495626D01*
X153920626Y-112377162D01*
X154013703Y-112237863D01*
X154077816Y-112083082D01*
X154110500Y-111918767D01*
X154110500Y-111751233D01*
X154084136Y-111618690D01*
X154090363Y-111549099D01*
X154133226Y-111493921D01*
X154199116Y-111470677D01*
X154205753Y-111470499D01*
X154507871Y-111470499D01*
X154507872Y-111470499D01*
X154567483Y-111464091D01*
X154702331Y-111413796D01*
X154817546Y-111327546D01*
X154903796Y-111212331D01*
X154954091Y-111077483D01*
X154960500Y-111017873D01*
X154960499Y-109122128D01*
X154954091Y-109062517D01*
X154903796Y-108927669D01*
X154903795Y-108927668D01*
X154903793Y-108927664D01*
X154817547Y-108812455D01*
X154817544Y-108812452D01*
X154702335Y-108726206D01*
X154702328Y-108726202D01*
X154567482Y-108675908D01*
X154567483Y-108675908D01*
X154507883Y-108669501D01*
X154507881Y-108669500D01*
X154507873Y-108669500D01*
X154507864Y-108669500D01*
X152812129Y-108669500D01*
X152812123Y-108669501D01*
X152752516Y-108675908D01*
X152617671Y-108726202D01*
X152617664Y-108726206D01*
X152502455Y-108812452D01*
X152502452Y-108812455D01*
X152416206Y-108927664D01*
X152416202Y-108927671D01*
X152365908Y-109062517D01*
X152359501Y-109122116D01*
X152359501Y-109122123D01*
X152359500Y-109122135D01*
X147410500Y-109122135D01*
X147410500Y-103714749D01*
X147430185Y-103647710D01*
X147460190Y-103615482D01*
X147517546Y-103572546D01*
X147603796Y-103457331D01*
X147654091Y-103322483D01*
X147660500Y-103262873D01*
X147660499Y-99767128D01*
X147654091Y-99707517D01*
X147628722Y-99639500D01*
X147603797Y-99572671D01*
X147603793Y-99572664D01*
X147517548Y-99457457D01*
X147517546Y-99457454D01*
X147517542Y-99457451D01*
X147460188Y-99414515D01*
X147418318Y-99358581D01*
X147410500Y-99315249D01*
X147410500Y-95141597D01*
X147430185Y-95074558D01*
X147482989Y-95028803D01*
X147552147Y-95018859D01*
X147615703Y-95047884D01*
X147622181Y-95053916D01*
X147963181Y-95394916D01*
X147996666Y-95456239D01*
X147999500Y-95482597D01*
X147999500Y-95648201D01*
X148002401Y-95685067D01*
X148002402Y-95685073D01*
X148048254Y-95842893D01*
X148048255Y-95842896D01*
X148131917Y-95984362D01*
X148131923Y-95984370D01*
X148192372Y-96044819D01*
X148225857Y-96106142D01*
X148220873Y-96175834D01*
X148192372Y-96220181D01*
X148131923Y-96280629D01*
X148131917Y-96280637D01*
X148048255Y-96422103D01*
X148048254Y-96422106D01*
X148002402Y-96579926D01*
X148002401Y-96579932D01*
X147999500Y-96616798D01*
X147999500Y-97048201D01*
X148002401Y-97085067D01*
X148002402Y-97085073D01*
X148048254Y-97242893D01*
X148048255Y-97242896D01*
X148131917Y-97384362D01*
X148131923Y-97384370D01*
X148213181Y-97465628D01*
X148246666Y-97526951D01*
X148249500Y-97553309D01*
X148249500Y-101018330D01*
X148249499Y-101018348D01*
X148249499Y-101184054D01*
X148249498Y-101184054D01*
X148290423Y-101336785D01*
X148319358Y-101386900D01*
X148319359Y-101386904D01*
X148319360Y-101386904D01*
X148346386Y-101433716D01*
X148369479Y-101473714D01*
X148369481Y-101473717D01*
X148373181Y-101477417D01*
X148406666Y-101538740D01*
X148409500Y-101565098D01*
X148409500Y-103262870D01*
X148409501Y-103262876D01*
X148415908Y-103322483D01*
X148466202Y-103457328D01*
X148466206Y-103457335D01*
X148552452Y-103572544D01*
X148552455Y-103572547D01*
X148667664Y-103658793D01*
X148667671Y-103658797D01*
X148802517Y-103709091D01*
X148802516Y-103709091D01*
X148809444Y-103709835D01*
X148862127Y-103715500D01*
X149657872Y-103715499D01*
X149717483Y-103709091D01*
X149852331Y-103658796D01*
X149967546Y-103572546D01*
X150053796Y-103457331D01*
X150104091Y-103322483D01*
X150107354Y-103292135D01*
X152359500Y-103292135D01*
X152359500Y-105187870D01*
X152359501Y-105187876D01*
X152365908Y-105247483D01*
X152416202Y-105382328D01*
X152416206Y-105382335D01*
X152502452Y-105497544D01*
X152502455Y-105497547D01*
X152617664Y-105583793D01*
X152617671Y-105583797D01*
X152752517Y-105634091D01*
X152752516Y-105634091D01*
X152759444Y-105634835D01*
X152812127Y-105640500D01*
X154507872Y-105640499D01*
X154567483Y-105634091D01*
X154702331Y-105583796D01*
X154817546Y-105497546D01*
X154903796Y-105382331D01*
X154954091Y-105247483D01*
X154960500Y-105187873D01*
X154960499Y-103292128D01*
X154954091Y-103232517D01*
X154923057Y-103149311D01*
X154903797Y-103097671D01*
X154903793Y-103097664D01*
X154817547Y-102982455D01*
X154817544Y-102982452D01*
X154702335Y-102896206D01*
X154702328Y-102896202D01*
X154567482Y-102845908D01*
X154567483Y-102845908D01*
X154507883Y-102839501D01*
X154507881Y-102839500D01*
X154507873Y-102839500D01*
X154507865Y-102839500D01*
X154205753Y-102839500D01*
X154138714Y-102819815D01*
X154092959Y-102767011D01*
X154083015Y-102697853D01*
X154084136Y-102691309D01*
X154110499Y-102558770D01*
X154110500Y-102558768D01*
X154110500Y-102391232D01*
X154110499Y-102391228D01*
X154077817Y-102226925D01*
X154077816Y-102226918D01*
X154013703Y-102072137D01*
X153947242Y-101972671D01*
X153920626Y-101932837D01*
X153802162Y-101814373D01*
X153662860Y-101721295D01*
X153508082Y-101657184D01*
X153508074Y-101657182D01*
X153343771Y-101624500D01*
X153343767Y-101624500D01*
X153176233Y-101624500D01*
X153176228Y-101624500D01*
X153011925Y-101657182D01*
X153011917Y-101657184D01*
X152857139Y-101721295D01*
X152717837Y-101814373D01*
X152599373Y-101932837D01*
X152506295Y-102072139D01*
X152442184Y-102226917D01*
X152442182Y-102226925D01*
X152409500Y-102391228D01*
X152409500Y-102558771D01*
X152442182Y-102723074D01*
X152442184Y-102723082D01*
X152505796Y-102876655D01*
X152513265Y-102946125D01*
X152490502Y-102998419D01*
X152416204Y-103097668D01*
X152416202Y-103097671D01*
X152365908Y-103232517D01*
X152362644Y-103262883D01*
X152359501Y-103292123D01*
X152359500Y-103292135D01*
X150107354Y-103292135D01*
X150110500Y-103262873D01*
X150110499Y-99767128D01*
X150104091Y-99707517D01*
X150078722Y-99639500D01*
X150053797Y-99572671D01*
X150053793Y-99572664D01*
X149967547Y-99457455D01*
X149967544Y-99457452D01*
X149852335Y-99371206D01*
X149852328Y-99371202D01*
X149717482Y-99320908D01*
X149717483Y-99320908D01*
X149657883Y-99314501D01*
X149657881Y-99314500D01*
X149657873Y-99314500D01*
X149657865Y-99314500D01*
X149574500Y-99314500D01*
X149507461Y-99294815D01*
X149461706Y-99242011D01*
X149450500Y-99190500D01*
X149450500Y-97867135D01*
X152359500Y-97867135D01*
X152359500Y-100562870D01*
X152359501Y-100562876D01*
X152365908Y-100622483D01*
X152416202Y-100757328D01*
X152416206Y-100757335D01*
X152502452Y-100872544D01*
X152502455Y-100872547D01*
X152617664Y-100958793D01*
X152617671Y-100958797D01*
X152752517Y-101009091D01*
X152752516Y-101009091D01*
X152759444Y-101009835D01*
X152812127Y-101015500D01*
X154507872Y-101015499D01*
X154567483Y-101009091D01*
X154702331Y-100958796D01*
X154817546Y-100872546D01*
X154903796Y-100757331D01*
X154954091Y-100622483D01*
X154960500Y-100562873D01*
X154960499Y-97867128D01*
X154954091Y-97807517D01*
X154907456Y-97682483D01*
X154903797Y-97672671D01*
X154903793Y-97672664D01*
X154817547Y-97557455D01*
X154817544Y-97557452D01*
X154702335Y-97471206D01*
X154702328Y-97471202D01*
X154567482Y-97420908D01*
X154567483Y-97420908D01*
X154507883Y-97414501D01*
X154507881Y-97414500D01*
X154507873Y-97414500D01*
X154507864Y-97414500D01*
X152812129Y-97414500D01*
X152812123Y-97414501D01*
X152752516Y-97420908D01*
X152617671Y-97471202D01*
X152617664Y-97471206D01*
X152502455Y-97557452D01*
X152502452Y-97557455D01*
X152416206Y-97672664D01*
X152416202Y-97672671D01*
X152365908Y-97807517D01*
X152362552Y-97838739D01*
X152359501Y-97867123D01*
X152359500Y-97867135D01*
X149450500Y-97867135D01*
X149450500Y-97553309D01*
X149470185Y-97486270D01*
X149486819Y-97465628D01*
X149568076Y-97384370D01*
X149568081Y-97384365D01*
X149651744Y-97242898D01*
X149685505Y-97126691D01*
X149697597Y-97085073D01*
X149697598Y-97085067D01*
X149697644Y-97084480D01*
X149700500Y-97048194D01*
X149700500Y-96616806D01*
X149697598Y-96579931D01*
X149693144Y-96564602D01*
X149651745Y-96422106D01*
X149651744Y-96422103D01*
X149651744Y-96422102D01*
X149568081Y-96280635D01*
X149568079Y-96280633D01*
X149568076Y-96280629D01*
X149507628Y-96220181D01*
X149474143Y-96158858D01*
X149479127Y-96089166D01*
X149507628Y-96044819D01*
X149568076Y-95984370D01*
X149568081Y-95984365D01*
X149651744Y-95842898D01*
X149691252Y-95706913D01*
X149697597Y-95685073D01*
X149697598Y-95685067D01*
X149700499Y-95648201D01*
X149700500Y-95648194D01*
X149700500Y-95216806D01*
X149697598Y-95179931D01*
X149693108Y-95164478D01*
X149651745Y-95022106D01*
X149651744Y-95022103D01*
X149651744Y-95022102D01*
X149568081Y-94880635D01*
X149568079Y-94880633D01*
X149568076Y-94880629D01*
X149451870Y-94764423D01*
X149451862Y-94764417D01*
X149334172Y-94694816D01*
X149310398Y-94680756D01*
X149310397Y-94680755D01*
X149310396Y-94680755D01*
X149310393Y-94680754D01*
X149152573Y-94634902D01*
X149152567Y-94634901D01*
X149115701Y-94632000D01*
X149115694Y-94632000D01*
X148950098Y-94632000D01*
X148883059Y-94612315D01*
X148862417Y-94595681D01*
X147508870Y-93242135D01*
X152359500Y-93242135D01*
X152359500Y-95137870D01*
X152359501Y-95137876D01*
X152365908Y-95197483D01*
X152416202Y-95332328D01*
X152416203Y-95332329D01*
X152416204Y-95332331D01*
X152476753Y-95413214D01*
X152490502Y-95431580D01*
X152514919Y-95497044D01*
X152505796Y-95553343D01*
X152442185Y-95706913D01*
X152442182Y-95706925D01*
X152409500Y-95871228D01*
X152409500Y-96038771D01*
X152442182Y-96203074D01*
X152442184Y-96203082D01*
X152506295Y-96357860D01*
X152599373Y-96497162D01*
X152717837Y-96615626D01*
X152798163Y-96669298D01*
X152857137Y-96708703D01*
X153011918Y-96772816D01*
X153176228Y-96805499D01*
X153176232Y-96805500D01*
X153176233Y-96805500D01*
X153343768Y-96805500D01*
X153343769Y-96805499D01*
X153508082Y-96772816D01*
X153662863Y-96708703D01*
X153802162Y-96615626D01*
X153920626Y-96497162D01*
X154013703Y-96357863D01*
X154077816Y-96203082D01*
X154110500Y-96038767D01*
X154110500Y-95871233D01*
X154084136Y-95738690D01*
X154090363Y-95669099D01*
X154133226Y-95613921D01*
X154199116Y-95590677D01*
X154205753Y-95590499D01*
X154507871Y-95590499D01*
X154507872Y-95590499D01*
X154567483Y-95584091D01*
X154702331Y-95533796D01*
X154817546Y-95447546D01*
X154903796Y-95332331D01*
X154954091Y-95197483D01*
X154960500Y-95137873D01*
X154960499Y-93242128D01*
X154954091Y-93182517D01*
X154903796Y-93047669D01*
X154903795Y-93047668D01*
X154903793Y-93047664D01*
X154817547Y-92932455D01*
X154817544Y-92932452D01*
X154702335Y-92846206D01*
X154702328Y-92846202D01*
X154567482Y-92795908D01*
X154567483Y-92795908D01*
X154507883Y-92789501D01*
X154507881Y-92789500D01*
X154507873Y-92789500D01*
X154507864Y-92789500D01*
X152812129Y-92789500D01*
X152812123Y-92789501D01*
X152752516Y-92795908D01*
X152617671Y-92846202D01*
X152617664Y-92846206D01*
X152502455Y-92932452D01*
X152502452Y-92932455D01*
X152416206Y-93047664D01*
X152416202Y-93047671D01*
X152365908Y-93182517D01*
X152359501Y-93242116D01*
X152359501Y-93242123D01*
X152359500Y-93242135D01*
X147508870Y-93242135D01*
X146895090Y-92628355D01*
X146895088Y-92628352D01*
X146776217Y-92509481D01*
X146776216Y-92509480D01*
X146689404Y-92459360D01*
X146689404Y-92459359D01*
X146689400Y-92459358D01*
X146639285Y-92430423D01*
X146486557Y-92389499D01*
X146328443Y-92389499D01*
X146320847Y-92389499D01*
X146320831Y-92389500D01*
X135511669Y-92389500D01*
X135511653Y-92389499D01*
X135504057Y-92389499D01*
X135345943Y-92389499D01*
X135238587Y-92418265D01*
X135193210Y-92430424D01*
X135193209Y-92430425D01*
X135143096Y-92459359D01*
X135143095Y-92459360D01*
X135099689Y-92484420D01*
X135056285Y-92509479D01*
X135056282Y-92509481D01*
X134944478Y-92621286D01*
X133017680Y-94548083D01*
X132956357Y-94581568D01*
X132886665Y-94576584D01*
X132842318Y-94548083D01*
X130922590Y-92628355D01*
X130922588Y-92628352D01*
X130803717Y-92509481D01*
X130803716Y-92509480D01*
X130716904Y-92459360D01*
X130716904Y-92459359D01*
X130716900Y-92459358D01*
X130666785Y-92430423D01*
X130514057Y-92389499D01*
X130355943Y-92389499D01*
X130348347Y-92389499D01*
X130348331Y-92389500D01*
X119714057Y-92389500D01*
X119555943Y-92389500D01*
X119403215Y-92430423D01*
X119403214Y-92430423D01*
X119403212Y-92430424D01*
X119403209Y-92430425D01*
X119353096Y-92459359D01*
X119353095Y-92459360D01*
X119309689Y-92484420D01*
X119266285Y-92509479D01*
X119266282Y-92509481D01*
X119154480Y-92621284D01*
X119154478Y-92621286D01*
X118090581Y-93685184D01*
X117037584Y-94738181D01*
X116976261Y-94771666D01*
X116949903Y-94774500D01*
X116784298Y-94774500D01*
X116747432Y-94777401D01*
X116747426Y-94777402D01*
X116589606Y-94823254D01*
X116589603Y-94823255D01*
X116448137Y-94906917D01*
X116448129Y-94906923D01*
X116416874Y-94938180D01*
X116355552Y-94971666D01*
X116329192Y-94974500D01*
X114910098Y-94974500D01*
X114843059Y-94954815D01*
X114822417Y-94938181D01*
X114430700Y-94546465D01*
X114397215Y-94485142D01*
X114395163Y-94472686D01*
X114385368Y-94385745D01*
X114325789Y-94215478D01*
X114229816Y-94062738D01*
X114102262Y-93935184D01*
X113949523Y-93839211D01*
X113779254Y-93779631D01*
X113779249Y-93779630D01*
X113600004Y-93759435D01*
X113599996Y-93759435D01*
X113420750Y-93779630D01*
X113420745Y-93779631D01*
X113250476Y-93839211D01*
X113097737Y-93935184D01*
X112970184Y-94062737D01*
X112874210Y-94215478D01*
X112855276Y-94269591D01*
X112814554Y-94326367D01*
X112749602Y-94352115D01*
X112681040Y-94338659D01*
X112650553Y-94316318D01*
X110787590Y-92453355D01*
X110787588Y-92453352D01*
X110668717Y-92334481D01*
X110668716Y-92334480D01*
X110581904Y-92284360D01*
X110581904Y-92284359D01*
X110581900Y-92284358D01*
X110531785Y-92255423D01*
X110379057Y-92214499D01*
X110220943Y-92214499D01*
X110213347Y-92214499D01*
X110213331Y-92214500D01*
X82666670Y-92214500D01*
X82666654Y-92214499D01*
X82659058Y-92214499D01*
X82500943Y-92214499D01*
X82424579Y-92234961D01*
X82348214Y-92255423D01*
X82348209Y-92255426D01*
X82211290Y-92334475D01*
X82211282Y-92334481D01*
X81747583Y-92798181D01*
X81686260Y-92831666D01*
X81659902Y-92834500D01*
X81274380Y-92834500D01*
X81263573Y-92834028D01*
X81236575Y-92831666D01*
X81210001Y-92829341D01*
X81209998Y-92829341D01*
X81156424Y-92834028D01*
X81145617Y-92834500D01*
X78512129Y-92834500D01*
X78512123Y-92834501D01*
X78452516Y-92840908D01*
X78317671Y-92891202D01*
X78317664Y-92891206D01*
X78202455Y-92977452D01*
X78202452Y-92977455D01*
X78116206Y-93092664D01*
X78116202Y-93092671D01*
X78065908Y-93227517D01*
X78059501Y-93287116D01*
X78059500Y-93287135D01*
X75850500Y-93287135D01*
X75850500Y-89689500D01*
X75870185Y-89622461D01*
X75922989Y-89576706D01*
X75974500Y-89565500D01*
X158725500Y-89565500D01*
X158792539Y-89585185D01*
G37*
%TD.AperFunction*%
%TA.AperFunction,NonConductor*%
G36*
X97582539Y-93435185D02*
G01*
X97628294Y-93487989D01*
X97639500Y-93539500D01*
X97639500Y-94120616D01*
X97639028Y-94131423D01*
X97634341Y-94184997D01*
X97634341Y-94185002D01*
X97639028Y-94238576D01*
X97639500Y-94249383D01*
X97639500Y-95082870D01*
X97639501Y-95082876D01*
X97645908Y-95142483D01*
X97696202Y-95277328D01*
X97696203Y-95277330D01*
X97773578Y-95380689D01*
X97797995Y-95446153D01*
X97783144Y-95514426D01*
X97773578Y-95529309D01*
X97763168Y-95543216D01*
X97696203Y-95632669D01*
X97696202Y-95632671D01*
X97645908Y-95767517D01*
X97643416Y-95790701D01*
X97639501Y-95827123D01*
X97639500Y-95827135D01*
X97639500Y-96660616D01*
X97639028Y-96671423D01*
X97634341Y-96724997D01*
X97634341Y-96725002D01*
X97639028Y-96778576D01*
X97639500Y-96789383D01*
X97639500Y-97622870D01*
X97639501Y-97622876D01*
X97645908Y-97682483D01*
X97696202Y-97817328D01*
X97696203Y-97817330D01*
X97773578Y-97920689D01*
X97797995Y-97986153D01*
X97783144Y-98054426D01*
X97773578Y-98069311D01*
X97696203Y-98172669D01*
X97696202Y-98172671D01*
X97645908Y-98307517D01*
X97639501Y-98367116D01*
X97639501Y-98367123D01*
X97639500Y-98367135D01*
X97639500Y-100162870D01*
X97639501Y-100162876D01*
X97645908Y-100222483D01*
X97696202Y-100357328D01*
X97696203Y-100357330D01*
X97773578Y-100460689D01*
X97797995Y-100526153D01*
X97783144Y-100594426D01*
X97773578Y-100609311D01*
X97696203Y-100712669D01*
X97696202Y-100712671D01*
X97645908Y-100847517D01*
X97639501Y-100907116D01*
X97639501Y-100907123D01*
X97639500Y-100907135D01*
X97639500Y-101740616D01*
X97639028Y-101751423D01*
X97634341Y-101804997D01*
X97634341Y-101805002D01*
X97639028Y-101858576D01*
X97639500Y-101869383D01*
X97639500Y-102702870D01*
X97639501Y-102702876D01*
X97645908Y-102762483D01*
X97696202Y-102897328D01*
X97696203Y-102897330D01*
X97773578Y-103000689D01*
X97797995Y-103066153D01*
X97783144Y-103134426D01*
X97773578Y-103149311D01*
X97696203Y-103252669D01*
X97696202Y-103252671D01*
X97645908Y-103387517D01*
X97639501Y-103447116D01*
X97639501Y-103447123D01*
X97639500Y-103447135D01*
X97639500Y-104280616D01*
X97639028Y-104291423D01*
X97634341Y-104344997D01*
X97634341Y-104345002D01*
X97639028Y-104398576D01*
X97639500Y-104409383D01*
X97639500Y-105242870D01*
X97639501Y-105242876D01*
X97645908Y-105302483D01*
X97696202Y-105437328D01*
X97696203Y-105437330D01*
X97773578Y-105540689D01*
X97797995Y-105606153D01*
X97783144Y-105674426D01*
X97773578Y-105689311D01*
X97696203Y-105792669D01*
X97696202Y-105792671D01*
X97645908Y-105927517D01*
X97639501Y-105987116D01*
X97639501Y-105987123D01*
X97639500Y-105987135D01*
X97639500Y-106820616D01*
X97639028Y-106831423D01*
X97634341Y-106884997D01*
X97634341Y-106885002D01*
X97639028Y-106938576D01*
X97639500Y-106949383D01*
X97639500Y-107782870D01*
X97639501Y-107782876D01*
X97645908Y-107842483D01*
X97696202Y-107977328D01*
X97696203Y-107977330D01*
X97773578Y-108080689D01*
X97797995Y-108146153D01*
X97783144Y-108214426D01*
X97773578Y-108229311D01*
X97696203Y-108332669D01*
X97696202Y-108332671D01*
X97645908Y-108467517D01*
X97643034Y-108494254D01*
X97639501Y-108527123D01*
X97639500Y-108527135D01*
X97639500Y-109360616D01*
X97639028Y-109371423D01*
X97634341Y-109424997D01*
X97634341Y-109425002D01*
X97639028Y-109478576D01*
X97639500Y-109489383D01*
X97639500Y-110322870D01*
X97639501Y-110322876D01*
X97645908Y-110382483D01*
X97696202Y-110517328D01*
X97696203Y-110517330D01*
X97773578Y-110620689D01*
X97797995Y-110686153D01*
X97783144Y-110754426D01*
X97773578Y-110769311D01*
X97696203Y-110872669D01*
X97696202Y-110872671D01*
X97645908Y-111007517D01*
X97644794Y-111017883D01*
X97639501Y-111067123D01*
X97639500Y-111067135D01*
X97639500Y-112862870D01*
X97639501Y-112862876D01*
X97645908Y-112922483D01*
X97696202Y-113057328D01*
X97696203Y-113057330D01*
X97773578Y-113160689D01*
X97797995Y-113226153D01*
X97783144Y-113294426D01*
X97773578Y-113309311D01*
X97696203Y-113412669D01*
X97696202Y-113412671D01*
X97645908Y-113547517D01*
X97641439Y-113589091D01*
X97639501Y-113607123D01*
X97639500Y-113607135D01*
X97639500Y-114440616D01*
X97639028Y-114451423D01*
X97634341Y-114504997D01*
X97634341Y-114505002D01*
X97639028Y-114558576D01*
X97639500Y-114569383D01*
X97639500Y-115402870D01*
X97639501Y-115402876D01*
X97645908Y-115462483D01*
X97696202Y-115597328D01*
X97696203Y-115597330D01*
X97773578Y-115700689D01*
X97797995Y-115766153D01*
X97783144Y-115834426D01*
X97773578Y-115849311D01*
X97696203Y-115952669D01*
X97696202Y-115952671D01*
X97645908Y-116087517D01*
X97639501Y-116147116D01*
X97639501Y-116147123D01*
X97639500Y-116147135D01*
X97639500Y-116980616D01*
X97639028Y-116991423D01*
X97634341Y-117044997D01*
X97634341Y-117045002D01*
X97639028Y-117098576D01*
X97639500Y-117109383D01*
X97639500Y-117942870D01*
X97639501Y-117942876D01*
X97645908Y-118002483D01*
X97696202Y-118137328D01*
X97696203Y-118137330D01*
X97773578Y-118240689D01*
X97797995Y-118306153D01*
X97783144Y-118374426D01*
X97773578Y-118389311D01*
X97696203Y-118492669D01*
X97696202Y-118492671D01*
X97645908Y-118627517D01*
X97639501Y-118687116D01*
X97639501Y-118687123D01*
X97639500Y-118687135D01*
X97639500Y-119520616D01*
X97639028Y-119531423D01*
X97634341Y-119584997D01*
X97634341Y-119585002D01*
X97639028Y-119638576D01*
X97639500Y-119649383D01*
X97639500Y-120482870D01*
X97639501Y-120482876D01*
X97645908Y-120542483D01*
X97696202Y-120677328D01*
X97696203Y-120677330D01*
X97773578Y-120780689D01*
X97797995Y-120846153D01*
X97783144Y-120914426D01*
X97773578Y-120929311D01*
X97696203Y-121032669D01*
X97696202Y-121032671D01*
X97645908Y-121167517D01*
X97639501Y-121227116D01*
X97639501Y-121227123D01*
X97639500Y-121227135D01*
X97639500Y-122060616D01*
X97639028Y-122071423D01*
X97634341Y-122124997D01*
X97634341Y-122125002D01*
X97639028Y-122178576D01*
X97639500Y-122189383D01*
X97639500Y-123022870D01*
X97639501Y-123022876D01*
X97645908Y-123082483D01*
X97696202Y-123217328D01*
X97696203Y-123217330D01*
X97773578Y-123320689D01*
X97797995Y-123386153D01*
X97783144Y-123454426D01*
X97773578Y-123469311D01*
X97696203Y-123572669D01*
X97696202Y-123572671D01*
X97645908Y-123707517D01*
X97639501Y-123767116D01*
X97639501Y-123767123D01*
X97639500Y-123767135D01*
X97639500Y-124705902D01*
X97619815Y-124772941D01*
X97567011Y-124818696D01*
X97497853Y-124828640D01*
X97434297Y-124799615D01*
X97427819Y-124793583D01*
X82596818Y-109962582D01*
X82563333Y-109901259D01*
X82560499Y-109874901D01*
X82560499Y-109489385D01*
X82560971Y-109478576D01*
X82565659Y-109425000D01*
X82565659Y-109424999D01*
X82560971Y-109371421D01*
X82560499Y-109360613D01*
X82560499Y-108527129D01*
X82560498Y-108527123D01*
X82560497Y-108527116D01*
X82554091Y-108467517D01*
X82503796Y-108332669D01*
X82426421Y-108229309D01*
X82402004Y-108163848D01*
X82416855Y-108095575D01*
X82426416Y-108080696D01*
X82503796Y-107977331D01*
X82554091Y-107842483D01*
X82560500Y-107782873D01*
X82560499Y-106949383D01*
X82560971Y-106938576D01*
X82565659Y-106885000D01*
X82565659Y-106884999D01*
X82560971Y-106831421D01*
X82560499Y-106820613D01*
X82560499Y-105987129D01*
X82560498Y-105987123D01*
X82560497Y-105987116D01*
X82554091Y-105927517D01*
X82503796Y-105792669D01*
X82426421Y-105689309D01*
X82402004Y-105623848D01*
X82416855Y-105555575D01*
X82426416Y-105540696D01*
X82503796Y-105437331D01*
X82554091Y-105302483D01*
X82560500Y-105242873D01*
X82560499Y-104409383D01*
X82560971Y-104398576D01*
X82565659Y-104345000D01*
X82565659Y-104344999D01*
X82560971Y-104291421D01*
X82560499Y-104280613D01*
X82560499Y-103447129D01*
X82560498Y-103447123D01*
X82560497Y-103447116D01*
X82554091Y-103387517D01*
X82518513Y-103292128D01*
X82503797Y-103252671D01*
X82503795Y-103252668D01*
X82488709Y-103232516D01*
X82426421Y-103149309D01*
X82402004Y-103083848D01*
X82416855Y-103015575D01*
X82426416Y-103000696D01*
X82503796Y-102897331D01*
X82554091Y-102762483D01*
X82560500Y-102702873D01*
X82560499Y-101869383D01*
X82560971Y-101858576D01*
X82565659Y-101805000D01*
X82565659Y-101804999D01*
X82560971Y-101751421D01*
X82560499Y-101740613D01*
X82560499Y-100907129D01*
X82560498Y-100907123D01*
X82560497Y-100907116D01*
X82554091Y-100847517D01*
X82529780Y-100782337D01*
X82503797Y-100712671D01*
X82503795Y-100712668D01*
X82426421Y-100609309D01*
X82402004Y-100543848D01*
X82416855Y-100475575D01*
X82426416Y-100460696D01*
X82503796Y-100357331D01*
X82554091Y-100222483D01*
X82560500Y-100162873D01*
X82560499Y-98367128D01*
X82554091Y-98307517D01*
X82503796Y-98172669D01*
X82426421Y-98069309D01*
X82402004Y-98003848D01*
X82416855Y-97935575D01*
X82426416Y-97920696D01*
X82503796Y-97817331D01*
X82554091Y-97682483D01*
X82560500Y-97622873D01*
X82560499Y-96789383D01*
X82560971Y-96778576D01*
X82565659Y-96725000D01*
X82565659Y-96724999D01*
X82560971Y-96671421D01*
X82560499Y-96660613D01*
X82560499Y-95827129D01*
X82560498Y-95827123D01*
X82560497Y-95827116D01*
X82554091Y-95767517D01*
X82543339Y-95738690D01*
X82503797Y-95632671D01*
X82503795Y-95632668D01*
X82426421Y-95529309D01*
X82402004Y-95463848D01*
X82416855Y-95395575D01*
X82426416Y-95380696D01*
X82503796Y-95277331D01*
X82554091Y-95142483D01*
X82560500Y-95082873D01*
X82560499Y-94249383D01*
X82560971Y-94238576D01*
X82561272Y-94235142D01*
X82565659Y-94185000D01*
X82560971Y-94131421D01*
X82560499Y-94120613D01*
X82560499Y-93735098D01*
X82580184Y-93668059D01*
X82596818Y-93647417D01*
X82792417Y-93451819D01*
X82853740Y-93418334D01*
X82880098Y-93415500D01*
X97515500Y-93415500D01*
X97582539Y-93435185D01*
G37*
%TD.AperFunction*%
M02*
