%TF.GenerationSoftware,KiCad,Pcbnew,8.0.7*%
%TF.CreationDate,2025-01-01T06:24:57-05:00*%
%TF.ProjectId,kicad_macropad,6b696361-645f-46d6-9163-726f7061642e,rev?*%
%TF.SameCoordinates,Original*%
%TF.FileFunction,Legend,Bot*%
%TF.FilePolarity,Positive*%
%FSLAX46Y46*%
G04 Gerber Fmt 4.6, Leading zero omitted, Abs format (unit mm)*
G04 Created by KiCad (PCBNEW 8.0.7) date 2025-01-01 06:24:57*
%MOMM*%
%LPD*%
G01*
G04 APERTURE LIST*
%ADD10C,0.150000*%
%ADD11C,1.050000*%
%ADD12C,1.200000*%
%ADD13O,1.700000X1.700000*%
%ADD14R,1.700000X1.700000*%
G04 APERTURE END LIST*
D10*
X84631428Y-103945390D02*
X84707618Y-103907295D01*
X84707618Y-103907295D02*
X84821904Y-103907295D01*
X84821904Y-103907295D02*
X84936190Y-103945390D01*
X84936190Y-103945390D02*
X85012380Y-104021580D01*
X85012380Y-104021580D02*
X85050475Y-104097771D01*
X85050475Y-104097771D02*
X85088571Y-104250152D01*
X85088571Y-104250152D02*
X85088571Y-104364438D01*
X85088571Y-104364438D02*
X85050475Y-104516819D01*
X85050475Y-104516819D02*
X85012380Y-104593009D01*
X85012380Y-104593009D02*
X84936190Y-104669200D01*
X84936190Y-104669200D02*
X84821904Y-104707295D01*
X84821904Y-104707295D02*
X84745713Y-104707295D01*
X84745713Y-104707295D02*
X84631428Y-104669200D01*
X84631428Y-104669200D02*
X84593332Y-104631104D01*
X84593332Y-104631104D02*
X84593332Y-104364438D01*
X84593332Y-104364438D02*
X84745713Y-104364438D01*
X84250475Y-104707295D02*
X84250475Y-103907295D01*
X84250475Y-103907295D02*
X83945713Y-103907295D01*
X83945713Y-103907295D02*
X83869523Y-103945390D01*
X83869523Y-103945390D02*
X83831428Y-103983485D01*
X83831428Y-103983485D02*
X83793332Y-104059676D01*
X83793332Y-104059676D02*
X83793332Y-104173961D01*
X83793332Y-104173961D02*
X83831428Y-104250152D01*
X83831428Y-104250152D02*
X83869523Y-104288247D01*
X83869523Y-104288247D02*
X83945713Y-104326342D01*
X83945713Y-104326342D02*
X84250475Y-104326342D01*
X83526666Y-103907295D02*
X83031428Y-103907295D01*
X83031428Y-103907295D02*
X83298094Y-104212057D01*
X83298094Y-104212057D02*
X83183809Y-104212057D01*
X83183809Y-104212057D02*
X83107618Y-104250152D01*
X83107618Y-104250152D02*
X83069523Y-104288247D01*
X83069523Y-104288247D02*
X83031428Y-104364438D01*
X83031428Y-104364438D02*
X83031428Y-104554914D01*
X83031428Y-104554914D02*
X83069523Y-104631104D01*
X83069523Y-104631104D02*
X83107618Y-104669200D01*
X83107618Y-104669200D02*
X83183809Y-104707295D01*
X83183809Y-104707295D02*
X83412380Y-104707295D01*
X83412380Y-104707295D02*
X83488571Y-104669200D01*
X83488571Y-104669200D02*
X83526666Y-104631104D01*
X84631428Y-119185390D02*
X84707618Y-119147295D01*
X84707618Y-119147295D02*
X84821904Y-119147295D01*
X84821904Y-119147295D02*
X84936190Y-119185390D01*
X84936190Y-119185390D02*
X85012380Y-119261580D01*
X85012380Y-119261580D02*
X85050475Y-119337771D01*
X85050475Y-119337771D02*
X85088571Y-119490152D01*
X85088571Y-119490152D02*
X85088571Y-119604438D01*
X85088571Y-119604438D02*
X85050475Y-119756819D01*
X85050475Y-119756819D02*
X85012380Y-119833009D01*
X85012380Y-119833009D02*
X84936190Y-119909200D01*
X84936190Y-119909200D02*
X84821904Y-119947295D01*
X84821904Y-119947295D02*
X84745713Y-119947295D01*
X84745713Y-119947295D02*
X84631428Y-119909200D01*
X84631428Y-119909200D02*
X84593332Y-119871104D01*
X84593332Y-119871104D02*
X84593332Y-119604438D01*
X84593332Y-119604438D02*
X84745713Y-119604438D01*
X84250475Y-119947295D02*
X84250475Y-119147295D01*
X84250475Y-119147295D02*
X83945713Y-119147295D01*
X83945713Y-119147295D02*
X83869523Y-119185390D01*
X83869523Y-119185390D02*
X83831428Y-119223485D01*
X83831428Y-119223485D02*
X83793332Y-119299676D01*
X83793332Y-119299676D02*
X83793332Y-119413961D01*
X83793332Y-119413961D02*
X83831428Y-119490152D01*
X83831428Y-119490152D02*
X83869523Y-119528247D01*
X83869523Y-119528247D02*
X83945713Y-119566342D01*
X83945713Y-119566342D02*
X84250475Y-119566342D01*
X83336190Y-119490152D02*
X83412380Y-119452057D01*
X83412380Y-119452057D02*
X83450475Y-119413961D01*
X83450475Y-119413961D02*
X83488571Y-119337771D01*
X83488571Y-119337771D02*
X83488571Y-119299676D01*
X83488571Y-119299676D02*
X83450475Y-119223485D01*
X83450475Y-119223485D02*
X83412380Y-119185390D01*
X83412380Y-119185390D02*
X83336190Y-119147295D01*
X83336190Y-119147295D02*
X83183809Y-119147295D01*
X83183809Y-119147295D02*
X83107618Y-119185390D01*
X83107618Y-119185390D02*
X83069523Y-119223485D01*
X83069523Y-119223485D02*
X83031428Y-119299676D01*
X83031428Y-119299676D02*
X83031428Y-119337771D01*
X83031428Y-119337771D02*
X83069523Y-119413961D01*
X83069523Y-119413961D02*
X83107618Y-119452057D01*
X83107618Y-119452057D02*
X83183809Y-119490152D01*
X83183809Y-119490152D02*
X83336190Y-119490152D01*
X83336190Y-119490152D02*
X83412380Y-119528247D01*
X83412380Y-119528247D02*
X83450475Y-119566342D01*
X83450475Y-119566342D02*
X83488571Y-119642533D01*
X83488571Y-119642533D02*
X83488571Y-119794914D01*
X83488571Y-119794914D02*
X83450475Y-119871104D01*
X83450475Y-119871104D02*
X83412380Y-119909200D01*
X83412380Y-119909200D02*
X83336190Y-119947295D01*
X83336190Y-119947295D02*
X83183809Y-119947295D01*
X83183809Y-119947295D02*
X83107618Y-119909200D01*
X83107618Y-119909200D02*
X83069523Y-119871104D01*
X83069523Y-119871104D02*
X83031428Y-119794914D01*
X83031428Y-119794914D02*
X83031428Y-119642533D01*
X83031428Y-119642533D02*
X83069523Y-119566342D01*
X83069523Y-119566342D02*
X83107618Y-119528247D01*
X83107618Y-119528247D02*
X83183809Y-119490152D01*
X96592381Y-131885390D02*
X96668571Y-131847295D01*
X96668571Y-131847295D02*
X96782857Y-131847295D01*
X96782857Y-131847295D02*
X96897143Y-131885390D01*
X96897143Y-131885390D02*
X96973333Y-131961580D01*
X96973333Y-131961580D02*
X97011428Y-132037771D01*
X97011428Y-132037771D02*
X97049524Y-132190152D01*
X97049524Y-132190152D02*
X97049524Y-132304438D01*
X97049524Y-132304438D02*
X97011428Y-132456819D01*
X97011428Y-132456819D02*
X96973333Y-132533009D01*
X96973333Y-132533009D02*
X96897143Y-132609200D01*
X96897143Y-132609200D02*
X96782857Y-132647295D01*
X96782857Y-132647295D02*
X96706666Y-132647295D01*
X96706666Y-132647295D02*
X96592381Y-132609200D01*
X96592381Y-132609200D02*
X96554285Y-132571104D01*
X96554285Y-132571104D02*
X96554285Y-132304438D01*
X96554285Y-132304438D02*
X96706666Y-132304438D01*
X96211428Y-132647295D02*
X96211428Y-131847295D01*
X96211428Y-131847295D02*
X95906666Y-131847295D01*
X95906666Y-131847295D02*
X95830476Y-131885390D01*
X95830476Y-131885390D02*
X95792381Y-131923485D01*
X95792381Y-131923485D02*
X95754285Y-131999676D01*
X95754285Y-131999676D02*
X95754285Y-132113961D01*
X95754285Y-132113961D02*
X95792381Y-132190152D01*
X95792381Y-132190152D02*
X95830476Y-132228247D01*
X95830476Y-132228247D02*
X95906666Y-132266342D01*
X95906666Y-132266342D02*
X96211428Y-132266342D01*
X94992381Y-132647295D02*
X95449524Y-132647295D01*
X95220952Y-132647295D02*
X95220952Y-131847295D01*
X95220952Y-131847295D02*
X95297143Y-131961580D01*
X95297143Y-131961580D02*
X95373333Y-132037771D01*
X95373333Y-132037771D02*
X95449524Y-132075866D01*
X94611428Y-132647295D02*
X94459047Y-132647295D01*
X94459047Y-132647295D02*
X94382857Y-132609200D01*
X94382857Y-132609200D02*
X94344761Y-132571104D01*
X94344761Y-132571104D02*
X94268571Y-132456819D01*
X94268571Y-132456819D02*
X94230476Y-132304438D01*
X94230476Y-132304438D02*
X94230476Y-131999676D01*
X94230476Y-131999676D02*
X94268571Y-131923485D01*
X94268571Y-131923485D02*
X94306666Y-131885390D01*
X94306666Y-131885390D02*
X94382857Y-131847295D01*
X94382857Y-131847295D02*
X94535238Y-131847295D01*
X94535238Y-131847295D02*
X94611428Y-131885390D01*
X94611428Y-131885390D02*
X94649523Y-131923485D01*
X94649523Y-131923485D02*
X94687619Y-131999676D01*
X94687619Y-131999676D02*
X94687619Y-132190152D01*
X94687619Y-132190152D02*
X94649523Y-132266342D01*
X94649523Y-132266342D02*
X94611428Y-132304438D01*
X94611428Y-132304438D02*
X94535238Y-132342533D01*
X94535238Y-132342533D02*
X94382857Y-132342533D01*
X94382857Y-132342533D02*
X94306666Y-132304438D01*
X94306666Y-132304438D02*
X94268571Y-132266342D01*
X94268571Y-132266342D02*
X94230476Y-132190152D01*
X85362381Y-131885390D02*
X85438571Y-131847295D01*
X85438571Y-131847295D02*
X85552857Y-131847295D01*
X85552857Y-131847295D02*
X85667143Y-131885390D01*
X85667143Y-131885390D02*
X85743333Y-131961580D01*
X85743333Y-131961580D02*
X85781428Y-132037771D01*
X85781428Y-132037771D02*
X85819524Y-132190152D01*
X85819524Y-132190152D02*
X85819524Y-132304438D01*
X85819524Y-132304438D02*
X85781428Y-132456819D01*
X85781428Y-132456819D02*
X85743333Y-132533009D01*
X85743333Y-132533009D02*
X85667143Y-132609200D01*
X85667143Y-132609200D02*
X85552857Y-132647295D01*
X85552857Y-132647295D02*
X85476666Y-132647295D01*
X85476666Y-132647295D02*
X85362381Y-132609200D01*
X85362381Y-132609200D02*
X85324285Y-132571104D01*
X85324285Y-132571104D02*
X85324285Y-132304438D01*
X85324285Y-132304438D02*
X85476666Y-132304438D01*
X84981428Y-132647295D02*
X84981428Y-131847295D01*
X84981428Y-131847295D02*
X84676666Y-131847295D01*
X84676666Y-131847295D02*
X84600476Y-131885390D01*
X84600476Y-131885390D02*
X84562381Y-131923485D01*
X84562381Y-131923485D02*
X84524285Y-131999676D01*
X84524285Y-131999676D02*
X84524285Y-132113961D01*
X84524285Y-132113961D02*
X84562381Y-132190152D01*
X84562381Y-132190152D02*
X84600476Y-132228247D01*
X84600476Y-132228247D02*
X84676666Y-132266342D01*
X84676666Y-132266342D02*
X84981428Y-132266342D01*
X83762381Y-132647295D02*
X84219524Y-132647295D01*
X83990952Y-132647295D02*
X83990952Y-131847295D01*
X83990952Y-131847295D02*
X84067143Y-131961580D01*
X84067143Y-131961580D02*
X84143333Y-132037771D01*
X84143333Y-132037771D02*
X84219524Y-132075866D01*
X83457619Y-131923485D02*
X83419523Y-131885390D01*
X83419523Y-131885390D02*
X83343333Y-131847295D01*
X83343333Y-131847295D02*
X83152857Y-131847295D01*
X83152857Y-131847295D02*
X83076666Y-131885390D01*
X83076666Y-131885390D02*
X83038571Y-131923485D01*
X83038571Y-131923485D02*
X83000476Y-131999676D01*
X83000476Y-131999676D02*
X83000476Y-132075866D01*
X83000476Y-132075866D02*
X83038571Y-132190152D01*
X83038571Y-132190152D02*
X83495714Y-132647295D01*
X83495714Y-132647295D02*
X83000476Y-132647295D01*
X92964200Y-136869761D02*
X93002295Y-136984047D01*
X93002295Y-136984047D02*
X93002295Y-137174523D01*
X93002295Y-137174523D02*
X92964200Y-137250714D01*
X92964200Y-137250714D02*
X92926104Y-137288809D01*
X92926104Y-137288809D02*
X92849914Y-137326904D01*
X92849914Y-137326904D02*
X92773723Y-137326904D01*
X92773723Y-137326904D02*
X92697533Y-137288809D01*
X92697533Y-137288809D02*
X92659438Y-137250714D01*
X92659438Y-137250714D02*
X92621342Y-137174523D01*
X92621342Y-137174523D02*
X92583247Y-137022142D01*
X92583247Y-137022142D02*
X92545152Y-136945952D01*
X92545152Y-136945952D02*
X92507057Y-136907857D01*
X92507057Y-136907857D02*
X92430866Y-136869761D01*
X92430866Y-136869761D02*
X92354676Y-136869761D01*
X92354676Y-136869761D02*
X92278485Y-136907857D01*
X92278485Y-136907857D02*
X92240390Y-136945952D01*
X92240390Y-136945952D02*
X92202295Y-137022142D01*
X92202295Y-137022142D02*
X92202295Y-137212619D01*
X92202295Y-137212619D02*
X92240390Y-137326904D01*
X92202295Y-137593571D02*
X93002295Y-137784047D01*
X93002295Y-137784047D02*
X92430866Y-137936428D01*
X92430866Y-137936428D02*
X93002295Y-138088809D01*
X93002295Y-138088809D02*
X92202295Y-138279286D01*
X93002295Y-138584048D02*
X92202295Y-138584048D01*
X92202295Y-138584048D02*
X92202295Y-138774524D01*
X92202295Y-138774524D02*
X92240390Y-138888810D01*
X92240390Y-138888810D02*
X92316580Y-138965000D01*
X92316580Y-138965000D02*
X92392771Y-139003095D01*
X92392771Y-139003095D02*
X92545152Y-139041191D01*
X92545152Y-139041191D02*
X92659438Y-139041191D01*
X92659438Y-139041191D02*
X92811819Y-139003095D01*
X92811819Y-139003095D02*
X92888009Y-138965000D01*
X92888009Y-138965000D02*
X92964200Y-138888810D01*
X92964200Y-138888810D02*
X93002295Y-138774524D01*
X93002295Y-138774524D02*
X93002295Y-138584048D01*
X93002295Y-139384048D02*
X92202295Y-139384048D01*
X92202295Y-139917381D02*
X92202295Y-140069762D01*
X92202295Y-140069762D02*
X92240390Y-140145952D01*
X92240390Y-140145952D02*
X92316580Y-140222143D01*
X92316580Y-140222143D02*
X92468961Y-140260238D01*
X92468961Y-140260238D02*
X92735628Y-140260238D01*
X92735628Y-140260238D02*
X92888009Y-140222143D01*
X92888009Y-140222143D02*
X92964200Y-140145952D01*
X92964200Y-140145952D02*
X93002295Y-140069762D01*
X93002295Y-140069762D02*
X93002295Y-139917381D01*
X93002295Y-139917381D02*
X92964200Y-139841190D01*
X92964200Y-139841190D02*
X92888009Y-139765000D01*
X92888009Y-139765000D02*
X92735628Y-139726904D01*
X92735628Y-139726904D02*
X92468961Y-139726904D01*
X92468961Y-139726904D02*
X92316580Y-139765000D01*
X92316580Y-139765000D02*
X92240390Y-139841190D01*
X92240390Y-139841190D02*
X92202295Y-139917381D01*
X84631428Y-109025390D02*
X84707618Y-108987295D01*
X84707618Y-108987295D02*
X84821904Y-108987295D01*
X84821904Y-108987295D02*
X84936190Y-109025390D01*
X84936190Y-109025390D02*
X85012380Y-109101580D01*
X85012380Y-109101580D02*
X85050475Y-109177771D01*
X85050475Y-109177771D02*
X85088571Y-109330152D01*
X85088571Y-109330152D02*
X85088571Y-109444438D01*
X85088571Y-109444438D02*
X85050475Y-109596819D01*
X85050475Y-109596819D02*
X85012380Y-109673009D01*
X85012380Y-109673009D02*
X84936190Y-109749200D01*
X84936190Y-109749200D02*
X84821904Y-109787295D01*
X84821904Y-109787295D02*
X84745713Y-109787295D01*
X84745713Y-109787295D02*
X84631428Y-109749200D01*
X84631428Y-109749200D02*
X84593332Y-109711104D01*
X84593332Y-109711104D02*
X84593332Y-109444438D01*
X84593332Y-109444438D02*
X84745713Y-109444438D01*
X84250475Y-109787295D02*
X84250475Y-108987295D01*
X84250475Y-108987295D02*
X83945713Y-108987295D01*
X83945713Y-108987295D02*
X83869523Y-109025390D01*
X83869523Y-109025390D02*
X83831428Y-109063485D01*
X83831428Y-109063485D02*
X83793332Y-109139676D01*
X83793332Y-109139676D02*
X83793332Y-109253961D01*
X83793332Y-109253961D02*
X83831428Y-109330152D01*
X83831428Y-109330152D02*
X83869523Y-109368247D01*
X83869523Y-109368247D02*
X83945713Y-109406342D01*
X83945713Y-109406342D02*
X84250475Y-109406342D01*
X83069523Y-108987295D02*
X83450475Y-108987295D01*
X83450475Y-108987295D02*
X83488571Y-109368247D01*
X83488571Y-109368247D02*
X83450475Y-109330152D01*
X83450475Y-109330152D02*
X83374285Y-109292057D01*
X83374285Y-109292057D02*
X83183809Y-109292057D01*
X83183809Y-109292057D02*
X83107618Y-109330152D01*
X83107618Y-109330152D02*
X83069523Y-109368247D01*
X83069523Y-109368247D02*
X83031428Y-109444438D01*
X83031428Y-109444438D02*
X83031428Y-109634914D01*
X83031428Y-109634914D02*
X83069523Y-109711104D01*
X83069523Y-109711104D02*
X83107618Y-109749200D01*
X83107618Y-109749200D02*
X83183809Y-109787295D01*
X83183809Y-109787295D02*
X83374285Y-109787295D01*
X83374285Y-109787295D02*
X83450475Y-109749200D01*
X83450475Y-109749200D02*
X83488571Y-109711104D01*
X84631428Y-106485390D02*
X84707618Y-106447295D01*
X84707618Y-106447295D02*
X84821904Y-106447295D01*
X84821904Y-106447295D02*
X84936190Y-106485390D01*
X84936190Y-106485390D02*
X85012380Y-106561580D01*
X85012380Y-106561580D02*
X85050475Y-106637771D01*
X85050475Y-106637771D02*
X85088571Y-106790152D01*
X85088571Y-106790152D02*
X85088571Y-106904438D01*
X85088571Y-106904438D02*
X85050475Y-107056819D01*
X85050475Y-107056819D02*
X85012380Y-107133009D01*
X85012380Y-107133009D02*
X84936190Y-107209200D01*
X84936190Y-107209200D02*
X84821904Y-107247295D01*
X84821904Y-107247295D02*
X84745713Y-107247295D01*
X84745713Y-107247295D02*
X84631428Y-107209200D01*
X84631428Y-107209200D02*
X84593332Y-107171104D01*
X84593332Y-107171104D02*
X84593332Y-106904438D01*
X84593332Y-106904438D02*
X84745713Y-106904438D01*
X84250475Y-107247295D02*
X84250475Y-106447295D01*
X84250475Y-106447295D02*
X83945713Y-106447295D01*
X83945713Y-106447295D02*
X83869523Y-106485390D01*
X83869523Y-106485390D02*
X83831428Y-106523485D01*
X83831428Y-106523485D02*
X83793332Y-106599676D01*
X83793332Y-106599676D02*
X83793332Y-106713961D01*
X83793332Y-106713961D02*
X83831428Y-106790152D01*
X83831428Y-106790152D02*
X83869523Y-106828247D01*
X83869523Y-106828247D02*
X83945713Y-106866342D01*
X83945713Y-106866342D02*
X84250475Y-106866342D01*
X83107618Y-106713961D02*
X83107618Y-107247295D01*
X83298094Y-106409200D02*
X83488571Y-106980628D01*
X83488571Y-106980628D02*
X82993332Y-106980628D01*
X84669523Y-124265390D02*
X84745713Y-124227295D01*
X84745713Y-124227295D02*
X84859999Y-124227295D01*
X84859999Y-124227295D02*
X84974285Y-124265390D01*
X84974285Y-124265390D02*
X85050475Y-124341580D01*
X85050475Y-124341580D02*
X85088570Y-124417771D01*
X85088570Y-124417771D02*
X85126666Y-124570152D01*
X85126666Y-124570152D02*
X85126666Y-124684438D01*
X85126666Y-124684438D02*
X85088570Y-124836819D01*
X85088570Y-124836819D02*
X85050475Y-124913009D01*
X85050475Y-124913009D02*
X84974285Y-124989200D01*
X84974285Y-124989200D02*
X84859999Y-125027295D01*
X84859999Y-125027295D02*
X84783808Y-125027295D01*
X84783808Y-125027295D02*
X84669523Y-124989200D01*
X84669523Y-124989200D02*
X84631427Y-124951104D01*
X84631427Y-124951104D02*
X84631427Y-124684438D01*
X84631427Y-124684438D02*
X84783808Y-124684438D01*
X84288570Y-125027295D02*
X84288570Y-124227295D01*
X84288570Y-124227295D02*
X83831427Y-125027295D01*
X83831427Y-125027295D02*
X83831427Y-124227295D01*
X83450475Y-125027295D02*
X83450475Y-124227295D01*
X83450475Y-124227295D02*
X83259999Y-124227295D01*
X83259999Y-124227295D02*
X83145713Y-124265390D01*
X83145713Y-124265390D02*
X83069523Y-124341580D01*
X83069523Y-124341580D02*
X83031428Y-124417771D01*
X83031428Y-124417771D02*
X82993332Y-124570152D01*
X82993332Y-124570152D02*
X82993332Y-124684438D01*
X82993332Y-124684438D02*
X83031428Y-124836819D01*
X83031428Y-124836819D02*
X83069523Y-124913009D01*
X83069523Y-124913009D02*
X83145713Y-124989200D01*
X83145713Y-124989200D02*
X83259999Y-125027295D01*
X83259999Y-125027295D02*
X83450475Y-125027295D01*
X96592381Y-114115390D02*
X96668571Y-114077295D01*
X96668571Y-114077295D02*
X96782857Y-114077295D01*
X96782857Y-114077295D02*
X96897143Y-114115390D01*
X96897143Y-114115390D02*
X96973333Y-114191580D01*
X96973333Y-114191580D02*
X97011428Y-114267771D01*
X97011428Y-114267771D02*
X97049524Y-114420152D01*
X97049524Y-114420152D02*
X97049524Y-114534438D01*
X97049524Y-114534438D02*
X97011428Y-114686819D01*
X97011428Y-114686819D02*
X96973333Y-114763009D01*
X96973333Y-114763009D02*
X96897143Y-114839200D01*
X96897143Y-114839200D02*
X96782857Y-114877295D01*
X96782857Y-114877295D02*
X96706666Y-114877295D01*
X96706666Y-114877295D02*
X96592381Y-114839200D01*
X96592381Y-114839200D02*
X96554285Y-114801104D01*
X96554285Y-114801104D02*
X96554285Y-114534438D01*
X96554285Y-114534438D02*
X96706666Y-114534438D01*
X96211428Y-114877295D02*
X96211428Y-114077295D01*
X96211428Y-114077295D02*
X95906666Y-114077295D01*
X95906666Y-114077295D02*
X95830476Y-114115390D01*
X95830476Y-114115390D02*
X95792381Y-114153485D01*
X95792381Y-114153485D02*
X95754285Y-114229676D01*
X95754285Y-114229676D02*
X95754285Y-114343961D01*
X95754285Y-114343961D02*
X95792381Y-114420152D01*
X95792381Y-114420152D02*
X95830476Y-114458247D01*
X95830476Y-114458247D02*
X95906666Y-114496342D01*
X95906666Y-114496342D02*
X96211428Y-114496342D01*
X95449524Y-114153485D02*
X95411428Y-114115390D01*
X95411428Y-114115390D02*
X95335238Y-114077295D01*
X95335238Y-114077295D02*
X95144762Y-114077295D01*
X95144762Y-114077295D02*
X95068571Y-114115390D01*
X95068571Y-114115390D02*
X95030476Y-114153485D01*
X95030476Y-114153485D02*
X94992381Y-114229676D01*
X94992381Y-114229676D02*
X94992381Y-114305866D01*
X94992381Y-114305866D02*
X95030476Y-114420152D01*
X95030476Y-114420152D02*
X95487619Y-114877295D01*
X95487619Y-114877295D02*
X94992381Y-114877295D01*
X94725714Y-114077295D02*
X94192380Y-114077295D01*
X94192380Y-114077295D02*
X94535238Y-114877295D01*
X85362381Y-126805390D02*
X85438571Y-126767295D01*
X85438571Y-126767295D02*
X85552857Y-126767295D01*
X85552857Y-126767295D02*
X85667143Y-126805390D01*
X85667143Y-126805390D02*
X85743333Y-126881580D01*
X85743333Y-126881580D02*
X85781428Y-126957771D01*
X85781428Y-126957771D02*
X85819524Y-127110152D01*
X85819524Y-127110152D02*
X85819524Y-127224438D01*
X85819524Y-127224438D02*
X85781428Y-127376819D01*
X85781428Y-127376819D02*
X85743333Y-127453009D01*
X85743333Y-127453009D02*
X85667143Y-127529200D01*
X85667143Y-127529200D02*
X85552857Y-127567295D01*
X85552857Y-127567295D02*
X85476666Y-127567295D01*
X85476666Y-127567295D02*
X85362381Y-127529200D01*
X85362381Y-127529200D02*
X85324285Y-127491104D01*
X85324285Y-127491104D02*
X85324285Y-127224438D01*
X85324285Y-127224438D02*
X85476666Y-127224438D01*
X84981428Y-127567295D02*
X84981428Y-126767295D01*
X84981428Y-126767295D02*
X84676666Y-126767295D01*
X84676666Y-126767295D02*
X84600476Y-126805390D01*
X84600476Y-126805390D02*
X84562381Y-126843485D01*
X84562381Y-126843485D02*
X84524285Y-126919676D01*
X84524285Y-126919676D02*
X84524285Y-127033961D01*
X84524285Y-127033961D02*
X84562381Y-127110152D01*
X84562381Y-127110152D02*
X84600476Y-127148247D01*
X84600476Y-127148247D02*
X84676666Y-127186342D01*
X84676666Y-127186342D02*
X84981428Y-127186342D01*
X83762381Y-127567295D02*
X84219524Y-127567295D01*
X83990952Y-127567295D02*
X83990952Y-126767295D01*
X83990952Y-126767295D02*
X84067143Y-126881580D01*
X84067143Y-126881580D02*
X84143333Y-126957771D01*
X84143333Y-126957771D02*
X84219524Y-126995866D01*
X83267142Y-126767295D02*
X83190952Y-126767295D01*
X83190952Y-126767295D02*
X83114761Y-126805390D01*
X83114761Y-126805390D02*
X83076666Y-126843485D01*
X83076666Y-126843485D02*
X83038571Y-126919676D01*
X83038571Y-126919676D02*
X83000476Y-127072057D01*
X83000476Y-127072057D02*
X83000476Y-127262533D01*
X83000476Y-127262533D02*
X83038571Y-127414914D01*
X83038571Y-127414914D02*
X83076666Y-127491104D01*
X83076666Y-127491104D02*
X83114761Y-127529200D01*
X83114761Y-127529200D02*
X83190952Y-127567295D01*
X83190952Y-127567295D02*
X83267142Y-127567295D01*
X83267142Y-127567295D02*
X83343333Y-127529200D01*
X83343333Y-127529200D02*
X83381428Y-127491104D01*
X83381428Y-127491104D02*
X83419523Y-127414914D01*
X83419523Y-127414914D02*
X83457619Y-127262533D01*
X83457619Y-127262533D02*
X83457619Y-127072057D01*
X83457619Y-127072057D02*
X83419523Y-126919676D01*
X83419523Y-126919676D02*
X83381428Y-126843485D01*
X83381428Y-126843485D02*
X83343333Y-126805390D01*
X83343333Y-126805390D02*
X83267142Y-126767295D01*
X84669523Y-98865390D02*
X84745713Y-98827295D01*
X84745713Y-98827295D02*
X84859999Y-98827295D01*
X84859999Y-98827295D02*
X84974285Y-98865390D01*
X84974285Y-98865390D02*
X85050475Y-98941580D01*
X85050475Y-98941580D02*
X85088570Y-99017771D01*
X85088570Y-99017771D02*
X85126666Y-99170152D01*
X85126666Y-99170152D02*
X85126666Y-99284438D01*
X85126666Y-99284438D02*
X85088570Y-99436819D01*
X85088570Y-99436819D02*
X85050475Y-99513009D01*
X85050475Y-99513009D02*
X84974285Y-99589200D01*
X84974285Y-99589200D02*
X84859999Y-99627295D01*
X84859999Y-99627295D02*
X84783808Y-99627295D01*
X84783808Y-99627295D02*
X84669523Y-99589200D01*
X84669523Y-99589200D02*
X84631427Y-99551104D01*
X84631427Y-99551104D02*
X84631427Y-99284438D01*
X84631427Y-99284438D02*
X84783808Y-99284438D01*
X84288570Y-99627295D02*
X84288570Y-98827295D01*
X84288570Y-98827295D02*
X83831427Y-99627295D01*
X83831427Y-99627295D02*
X83831427Y-98827295D01*
X83450475Y-99627295D02*
X83450475Y-98827295D01*
X83450475Y-98827295D02*
X83259999Y-98827295D01*
X83259999Y-98827295D02*
X83145713Y-98865390D01*
X83145713Y-98865390D02*
X83069523Y-98941580D01*
X83069523Y-98941580D02*
X83031428Y-99017771D01*
X83031428Y-99017771D02*
X82993332Y-99170152D01*
X82993332Y-99170152D02*
X82993332Y-99284438D01*
X82993332Y-99284438D02*
X83031428Y-99436819D01*
X83031428Y-99436819D02*
X83069523Y-99513009D01*
X83069523Y-99513009D02*
X83145713Y-99589200D01*
X83145713Y-99589200D02*
X83259999Y-99627295D01*
X83259999Y-99627295D02*
X83450475Y-99627295D01*
X96592381Y-139505390D02*
X96668571Y-139467295D01*
X96668571Y-139467295D02*
X96782857Y-139467295D01*
X96782857Y-139467295D02*
X96897143Y-139505390D01*
X96897143Y-139505390D02*
X96973333Y-139581580D01*
X96973333Y-139581580D02*
X97011428Y-139657771D01*
X97011428Y-139657771D02*
X97049524Y-139810152D01*
X97049524Y-139810152D02*
X97049524Y-139924438D01*
X97049524Y-139924438D02*
X97011428Y-140076819D01*
X97011428Y-140076819D02*
X96973333Y-140153009D01*
X96973333Y-140153009D02*
X96897143Y-140229200D01*
X96897143Y-140229200D02*
X96782857Y-140267295D01*
X96782857Y-140267295D02*
X96706666Y-140267295D01*
X96706666Y-140267295D02*
X96592381Y-140229200D01*
X96592381Y-140229200D02*
X96554285Y-140191104D01*
X96554285Y-140191104D02*
X96554285Y-139924438D01*
X96554285Y-139924438D02*
X96706666Y-139924438D01*
X96211428Y-140267295D02*
X96211428Y-139467295D01*
X96211428Y-139467295D02*
X95906666Y-139467295D01*
X95906666Y-139467295D02*
X95830476Y-139505390D01*
X95830476Y-139505390D02*
X95792381Y-139543485D01*
X95792381Y-139543485D02*
X95754285Y-139619676D01*
X95754285Y-139619676D02*
X95754285Y-139733961D01*
X95754285Y-139733961D02*
X95792381Y-139810152D01*
X95792381Y-139810152D02*
X95830476Y-139848247D01*
X95830476Y-139848247D02*
X95906666Y-139886342D01*
X95906666Y-139886342D02*
X96211428Y-139886342D01*
X94992381Y-140267295D02*
X95449524Y-140267295D01*
X95220952Y-140267295D02*
X95220952Y-139467295D01*
X95220952Y-139467295D02*
X95297143Y-139581580D01*
X95297143Y-139581580D02*
X95373333Y-139657771D01*
X95373333Y-139657771D02*
X95449524Y-139695866D01*
X94725714Y-139467295D02*
X94192380Y-139467295D01*
X94192380Y-139467295D02*
X94535238Y-140267295D01*
X96599523Y-136965390D02*
X96675713Y-136927295D01*
X96675713Y-136927295D02*
X96789999Y-136927295D01*
X96789999Y-136927295D02*
X96904285Y-136965390D01*
X96904285Y-136965390D02*
X96980475Y-137041580D01*
X96980475Y-137041580D02*
X97018570Y-137117771D01*
X97018570Y-137117771D02*
X97056666Y-137270152D01*
X97056666Y-137270152D02*
X97056666Y-137384438D01*
X97056666Y-137384438D02*
X97018570Y-137536819D01*
X97018570Y-137536819D02*
X96980475Y-137613009D01*
X96980475Y-137613009D02*
X96904285Y-137689200D01*
X96904285Y-137689200D02*
X96789999Y-137727295D01*
X96789999Y-137727295D02*
X96713808Y-137727295D01*
X96713808Y-137727295D02*
X96599523Y-137689200D01*
X96599523Y-137689200D02*
X96561427Y-137651104D01*
X96561427Y-137651104D02*
X96561427Y-137384438D01*
X96561427Y-137384438D02*
X96713808Y-137384438D01*
X96218570Y-137727295D02*
X96218570Y-136927295D01*
X96218570Y-136927295D02*
X95761427Y-137727295D01*
X95761427Y-137727295D02*
X95761427Y-136927295D01*
X95380475Y-137727295D02*
X95380475Y-136927295D01*
X95380475Y-136927295D02*
X95189999Y-136927295D01*
X95189999Y-136927295D02*
X95075713Y-136965390D01*
X95075713Y-136965390D02*
X94999523Y-137041580D01*
X94999523Y-137041580D02*
X94961428Y-137117771D01*
X94961428Y-137117771D02*
X94923332Y-137270152D01*
X94923332Y-137270152D02*
X94923332Y-137384438D01*
X94923332Y-137384438D02*
X94961428Y-137536819D01*
X94961428Y-137536819D02*
X94999523Y-137613009D01*
X94999523Y-137613009D02*
X95075713Y-137689200D01*
X95075713Y-137689200D02*
X95189999Y-137727295D01*
X95189999Y-137727295D02*
X95380475Y-137727295D01*
X87884200Y-136755475D02*
X87922295Y-136869761D01*
X87922295Y-136869761D02*
X87922295Y-137060237D01*
X87922295Y-137060237D02*
X87884200Y-137136428D01*
X87884200Y-137136428D02*
X87846104Y-137174523D01*
X87846104Y-137174523D02*
X87769914Y-137212618D01*
X87769914Y-137212618D02*
X87693723Y-137212618D01*
X87693723Y-137212618D02*
X87617533Y-137174523D01*
X87617533Y-137174523D02*
X87579438Y-137136428D01*
X87579438Y-137136428D02*
X87541342Y-137060237D01*
X87541342Y-137060237D02*
X87503247Y-136907856D01*
X87503247Y-136907856D02*
X87465152Y-136831666D01*
X87465152Y-136831666D02*
X87427057Y-136793571D01*
X87427057Y-136793571D02*
X87350866Y-136755475D01*
X87350866Y-136755475D02*
X87274676Y-136755475D01*
X87274676Y-136755475D02*
X87198485Y-136793571D01*
X87198485Y-136793571D02*
X87160390Y-136831666D01*
X87160390Y-136831666D02*
X87122295Y-136907856D01*
X87122295Y-136907856D02*
X87122295Y-137098333D01*
X87122295Y-137098333D02*
X87160390Y-137212618D01*
X87122295Y-137479285D02*
X87922295Y-137669761D01*
X87922295Y-137669761D02*
X87350866Y-137822142D01*
X87350866Y-137822142D02*
X87922295Y-137974523D01*
X87922295Y-137974523D02*
X87122295Y-138165000D01*
X87846104Y-138926905D02*
X87884200Y-138888809D01*
X87884200Y-138888809D02*
X87922295Y-138774524D01*
X87922295Y-138774524D02*
X87922295Y-138698333D01*
X87922295Y-138698333D02*
X87884200Y-138584047D01*
X87884200Y-138584047D02*
X87808009Y-138507857D01*
X87808009Y-138507857D02*
X87731819Y-138469762D01*
X87731819Y-138469762D02*
X87579438Y-138431666D01*
X87579438Y-138431666D02*
X87465152Y-138431666D01*
X87465152Y-138431666D02*
X87312771Y-138469762D01*
X87312771Y-138469762D02*
X87236580Y-138507857D01*
X87236580Y-138507857D02*
X87160390Y-138584047D01*
X87160390Y-138584047D02*
X87122295Y-138698333D01*
X87122295Y-138698333D02*
X87122295Y-138774524D01*
X87122295Y-138774524D02*
X87160390Y-138888809D01*
X87160390Y-138888809D02*
X87198485Y-138926905D01*
X87922295Y-139650714D02*
X87922295Y-139269762D01*
X87922295Y-139269762D02*
X87122295Y-139269762D01*
X87922295Y-139917381D02*
X87122295Y-139917381D01*
X87922295Y-140374524D02*
X87465152Y-140031666D01*
X87122295Y-140374524D02*
X87579438Y-139917381D01*
X85362381Y-134425390D02*
X85438571Y-134387295D01*
X85438571Y-134387295D02*
X85552857Y-134387295D01*
X85552857Y-134387295D02*
X85667143Y-134425390D01*
X85667143Y-134425390D02*
X85743333Y-134501580D01*
X85743333Y-134501580D02*
X85781428Y-134577771D01*
X85781428Y-134577771D02*
X85819524Y-134730152D01*
X85819524Y-134730152D02*
X85819524Y-134844438D01*
X85819524Y-134844438D02*
X85781428Y-134996819D01*
X85781428Y-134996819D02*
X85743333Y-135073009D01*
X85743333Y-135073009D02*
X85667143Y-135149200D01*
X85667143Y-135149200D02*
X85552857Y-135187295D01*
X85552857Y-135187295D02*
X85476666Y-135187295D01*
X85476666Y-135187295D02*
X85362381Y-135149200D01*
X85362381Y-135149200D02*
X85324285Y-135111104D01*
X85324285Y-135111104D02*
X85324285Y-134844438D01*
X85324285Y-134844438D02*
X85476666Y-134844438D01*
X84981428Y-135187295D02*
X84981428Y-134387295D01*
X84981428Y-134387295D02*
X84676666Y-134387295D01*
X84676666Y-134387295D02*
X84600476Y-134425390D01*
X84600476Y-134425390D02*
X84562381Y-134463485D01*
X84562381Y-134463485D02*
X84524285Y-134539676D01*
X84524285Y-134539676D02*
X84524285Y-134653961D01*
X84524285Y-134653961D02*
X84562381Y-134730152D01*
X84562381Y-134730152D02*
X84600476Y-134768247D01*
X84600476Y-134768247D02*
X84676666Y-134806342D01*
X84676666Y-134806342D02*
X84981428Y-134806342D01*
X83762381Y-135187295D02*
X84219524Y-135187295D01*
X83990952Y-135187295D02*
X83990952Y-134387295D01*
X83990952Y-134387295D02*
X84067143Y-134501580D01*
X84067143Y-134501580D02*
X84143333Y-134577771D01*
X84143333Y-134577771D02*
X84219524Y-134615866D01*
X83495714Y-134387295D02*
X83000476Y-134387295D01*
X83000476Y-134387295D02*
X83267142Y-134692057D01*
X83267142Y-134692057D02*
X83152857Y-134692057D01*
X83152857Y-134692057D02*
X83076666Y-134730152D01*
X83076666Y-134730152D02*
X83038571Y-134768247D01*
X83038571Y-134768247D02*
X83000476Y-134844438D01*
X83000476Y-134844438D02*
X83000476Y-135034914D01*
X83000476Y-135034914D02*
X83038571Y-135111104D01*
X83038571Y-135111104D02*
X83076666Y-135149200D01*
X83076666Y-135149200D02*
X83152857Y-135187295D01*
X83152857Y-135187295D02*
X83381428Y-135187295D01*
X83381428Y-135187295D02*
X83457619Y-135149200D01*
X83457619Y-135149200D02*
X83495714Y-135111104D01*
X85362381Y-129345390D02*
X85438571Y-129307295D01*
X85438571Y-129307295D02*
X85552857Y-129307295D01*
X85552857Y-129307295D02*
X85667143Y-129345390D01*
X85667143Y-129345390D02*
X85743333Y-129421580D01*
X85743333Y-129421580D02*
X85781428Y-129497771D01*
X85781428Y-129497771D02*
X85819524Y-129650152D01*
X85819524Y-129650152D02*
X85819524Y-129764438D01*
X85819524Y-129764438D02*
X85781428Y-129916819D01*
X85781428Y-129916819D02*
X85743333Y-129993009D01*
X85743333Y-129993009D02*
X85667143Y-130069200D01*
X85667143Y-130069200D02*
X85552857Y-130107295D01*
X85552857Y-130107295D02*
X85476666Y-130107295D01*
X85476666Y-130107295D02*
X85362381Y-130069200D01*
X85362381Y-130069200D02*
X85324285Y-130031104D01*
X85324285Y-130031104D02*
X85324285Y-129764438D01*
X85324285Y-129764438D02*
X85476666Y-129764438D01*
X84981428Y-130107295D02*
X84981428Y-129307295D01*
X84981428Y-129307295D02*
X84676666Y-129307295D01*
X84676666Y-129307295D02*
X84600476Y-129345390D01*
X84600476Y-129345390D02*
X84562381Y-129383485D01*
X84562381Y-129383485D02*
X84524285Y-129459676D01*
X84524285Y-129459676D02*
X84524285Y-129573961D01*
X84524285Y-129573961D02*
X84562381Y-129650152D01*
X84562381Y-129650152D02*
X84600476Y-129688247D01*
X84600476Y-129688247D02*
X84676666Y-129726342D01*
X84676666Y-129726342D02*
X84981428Y-129726342D01*
X83762381Y-130107295D02*
X84219524Y-130107295D01*
X83990952Y-130107295D02*
X83990952Y-129307295D01*
X83990952Y-129307295D02*
X84067143Y-129421580D01*
X84067143Y-129421580D02*
X84143333Y-129497771D01*
X84143333Y-129497771D02*
X84219524Y-129535866D01*
X83000476Y-130107295D02*
X83457619Y-130107295D01*
X83229047Y-130107295D02*
X83229047Y-129307295D01*
X83229047Y-129307295D02*
X83305238Y-129421580D01*
X83305238Y-129421580D02*
X83381428Y-129497771D01*
X83381428Y-129497771D02*
X83457619Y-129535866D01*
X96592381Y-109025390D02*
X96668571Y-108987295D01*
X96668571Y-108987295D02*
X96782857Y-108987295D01*
X96782857Y-108987295D02*
X96897143Y-109025390D01*
X96897143Y-109025390D02*
X96973333Y-109101580D01*
X96973333Y-109101580D02*
X97011428Y-109177771D01*
X97011428Y-109177771D02*
X97049524Y-109330152D01*
X97049524Y-109330152D02*
X97049524Y-109444438D01*
X97049524Y-109444438D02*
X97011428Y-109596819D01*
X97011428Y-109596819D02*
X96973333Y-109673009D01*
X96973333Y-109673009D02*
X96897143Y-109749200D01*
X96897143Y-109749200D02*
X96782857Y-109787295D01*
X96782857Y-109787295D02*
X96706666Y-109787295D01*
X96706666Y-109787295D02*
X96592381Y-109749200D01*
X96592381Y-109749200D02*
X96554285Y-109711104D01*
X96554285Y-109711104D02*
X96554285Y-109444438D01*
X96554285Y-109444438D02*
X96706666Y-109444438D01*
X96211428Y-109787295D02*
X96211428Y-108987295D01*
X96211428Y-108987295D02*
X95906666Y-108987295D01*
X95906666Y-108987295D02*
X95830476Y-109025390D01*
X95830476Y-109025390D02*
X95792381Y-109063485D01*
X95792381Y-109063485D02*
X95754285Y-109139676D01*
X95754285Y-109139676D02*
X95754285Y-109253961D01*
X95754285Y-109253961D02*
X95792381Y-109330152D01*
X95792381Y-109330152D02*
X95830476Y-109368247D01*
X95830476Y-109368247D02*
X95906666Y-109406342D01*
X95906666Y-109406342D02*
X96211428Y-109406342D01*
X95449524Y-109063485D02*
X95411428Y-109025390D01*
X95411428Y-109025390D02*
X95335238Y-108987295D01*
X95335238Y-108987295D02*
X95144762Y-108987295D01*
X95144762Y-108987295D02*
X95068571Y-109025390D01*
X95068571Y-109025390D02*
X95030476Y-109063485D01*
X95030476Y-109063485D02*
X94992381Y-109139676D01*
X94992381Y-109139676D02*
X94992381Y-109215866D01*
X94992381Y-109215866D02*
X95030476Y-109330152D01*
X95030476Y-109330152D02*
X95487619Y-109787295D01*
X95487619Y-109787295D02*
X94992381Y-109787295D01*
X94535238Y-109330152D02*
X94611428Y-109292057D01*
X94611428Y-109292057D02*
X94649523Y-109253961D01*
X94649523Y-109253961D02*
X94687619Y-109177771D01*
X94687619Y-109177771D02*
X94687619Y-109139676D01*
X94687619Y-109139676D02*
X94649523Y-109063485D01*
X94649523Y-109063485D02*
X94611428Y-109025390D01*
X94611428Y-109025390D02*
X94535238Y-108987295D01*
X94535238Y-108987295D02*
X94382857Y-108987295D01*
X94382857Y-108987295D02*
X94306666Y-109025390D01*
X94306666Y-109025390D02*
X94268571Y-109063485D01*
X94268571Y-109063485D02*
X94230476Y-109139676D01*
X94230476Y-109139676D02*
X94230476Y-109177771D01*
X94230476Y-109177771D02*
X94268571Y-109253961D01*
X94268571Y-109253961D02*
X94306666Y-109292057D01*
X94306666Y-109292057D02*
X94382857Y-109330152D01*
X94382857Y-109330152D02*
X94535238Y-109330152D01*
X94535238Y-109330152D02*
X94611428Y-109368247D01*
X94611428Y-109368247D02*
X94649523Y-109406342D01*
X94649523Y-109406342D02*
X94687619Y-109482533D01*
X94687619Y-109482533D02*
X94687619Y-109634914D01*
X94687619Y-109634914D02*
X94649523Y-109711104D01*
X94649523Y-109711104D02*
X94611428Y-109749200D01*
X94611428Y-109749200D02*
X94535238Y-109787295D01*
X94535238Y-109787295D02*
X94382857Y-109787295D01*
X94382857Y-109787295D02*
X94306666Y-109749200D01*
X94306666Y-109749200D02*
X94268571Y-109711104D01*
X94268571Y-109711104D02*
X94230476Y-109634914D01*
X94230476Y-109634914D02*
X94230476Y-109482533D01*
X94230476Y-109482533D02*
X94268571Y-109406342D01*
X94268571Y-109406342D02*
X94306666Y-109368247D01*
X94306666Y-109368247D02*
X94382857Y-109330152D01*
X84669523Y-111565390D02*
X84745713Y-111527295D01*
X84745713Y-111527295D02*
X84859999Y-111527295D01*
X84859999Y-111527295D02*
X84974285Y-111565390D01*
X84974285Y-111565390D02*
X85050475Y-111641580D01*
X85050475Y-111641580D02*
X85088570Y-111717771D01*
X85088570Y-111717771D02*
X85126666Y-111870152D01*
X85126666Y-111870152D02*
X85126666Y-111984438D01*
X85126666Y-111984438D02*
X85088570Y-112136819D01*
X85088570Y-112136819D02*
X85050475Y-112213009D01*
X85050475Y-112213009D02*
X84974285Y-112289200D01*
X84974285Y-112289200D02*
X84859999Y-112327295D01*
X84859999Y-112327295D02*
X84783808Y-112327295D01*
X84783808Y-112327295D02*
X84669523Y-112289200D01*
X84669523Y-112289200D02*
X84631427Y-112251104D01*
X84631427Y-112251104D02*
X84631427Y-111984438D01*
X84631427Y-111984438D02*
X84783808Y-111984438D01*
X84288570Y-112327295D02*
X84288570Y-111527295D01*
X84288570Y-111527295D02*
X83831427Y-112327295D01*
X83831427Y-112327295D02*
X83831427Y-111527295D01*
X83450475Y-112327295D02*
X83450475Y-111527295D01*
X83450475Y-111527295D02*
X83259999Y-111527295D01*
X83259999Y-111527295D02*
X83145713Y-111565390D01*
X83145713Y-111565390D02*
X83069523Y-111641580D01*
X83069523Y-111641580D02*
X83031428Y-111717771D01*
X83031428Y-111717771D02*
X82993332Y-111870152D01*
X82993332Y-111870152D02*
X82993332Y-111984438D01*
X82993332Y-111984438D02*
X83031428Y-112136819D01*
X83031428Y-112136819D02*
X83069523Y-112213009D01*
X83069523Y-112213009D02*
X83145713Y-112289200D01*
X83145713Y-112289200D02*
X83259999Y-112327295D01*
X83259999Y-112327295D02*
X83450475Y-112327295D01*
X85362381Y-139505390D02*
X85438571Y-139467295D01*
X85438571Y-139467295D02*
X85552857Y-139467295D01*
X85552857Y-139467295D02*
X85667143Y-139505390D01*
X85667143Y-139505390D02*
X85743333Y-139581580D01*
X85743333Y-139581580D02*
X85781428Y-139657771D01*
X85781428Y-139657771D02*
X85819524Y-139810152D01*
X85819524Y-139810152D02*
X85819524Y-139924438D01*
X85819524Y-139924438D02*
X85781428Y-140076819D01*
X85781428Y-140076819D02*
X85743333Y-140153009D01*
X85743333Y-140153009D02*
X85667143Y-140229200D01*
X85667143Y-140229200D02*
X85552857Y-140267295D01*
X85552857Y-140267295D02*
X85476666Y-140267295D01*
X85476666Y-140267295D02*
X85362381Y-140229200D01*
X85362381Y-140229200D02*
X85324285Y-140191104D01*
X85324285Y-140191104D02*
X85324285Y-139924438D01*
X85324285Y-139924438D02*
X85476666Y-139924438D01*
X84981428Y-140267295D02*
X84981428Y-139467295D01*
X84981428Y-139467295D02*
X84676666Y-139467295D01*
X84676666Y-139467295D02*
X84600476Y-139505390D01*
X84600476Y-139505390D02*
X84562381Y-139543485D01*
X84562381Y-139543485D02*
X84524285Y-139619676D01*
X84524285Y-139619676D02*
X84524285Y-139733961D01*
X84524285Y-139733961D02*
X84562381Y-139810152D01*
X84562381Y-139810152D02*
X84600476Y-139848247D01*
X84600476Y-139848247D02*
X84676666Y-139886342D01*
X84676666Y-139886342D02*
X84981428Y-139886342D01*
X83762381Y-140267295D02*
X84219524Y-140267295D01*
X83990952Y-140267295D02*
X83990952Y-139467295D01*
X83990952Y-139467295D02*
X84067143Y-139581580D01*
X84067143Y-139581580D02*
X84143333Y-139657771D01*
X84143333Y-139657771D02*
X84219524Y-139695866D01*
X83076666Y-139733961D02*
X83076666Y-140267295D01*
X83267142Y-139429200D02*
X83457619Y-140000628D01*
X83457619Y-140000628D02*
X82962380Y-140000628D01*
X84631428Y-96315390D02*
X84707618Y-96277295D01*
X84707618Y-96277295D02*
X84821904Y-96277295D01*
X84821904Y-96277295D02*
X84936190Y-96315390D01*
X84936190Y-96315390D02*
X85012380Y-96391580D01*
X85012380Y-96391580D02*
X85050475Y-96467771D01*
X85050475Y-96467771D02*
X85088571Y-96620152D01*
X85088571Y-96620152D02*
X85088571Y-96734438D01*
X85088571Y-96734438D02*
X85050475Y-96886819D01*
X85050475Y-96886819D02*
X85012380Y-96963009D01*
X85012380Y-96963009D02*
X84936190Y-97039200D01*
X84936190Y-97039200D02*
X84821904Y-97077295D01*
X84821904Y-97077295D02*
X84745713Y-97077295D01*
X84745713Y-97077295D02*
X84631428Y-97039200D01*
X84631428Y-97039200D02*
X84593332Y-97001104D01*
X84593332Y-97001104D02*
X84593332Y-96734438D01*
X84593332Y-96734438D02*
X84745713Y-96734438D01*
X84250475Y-97077295D02*
X84250475Y-96277295D01*
X84250475Y-96277295D02*
X83945713Y-96277295D01*
X83945713Y-96277295D02*
X83869523Y-96315390D01*
X83869523Y-96315390D02*
X83831428Y-96353485D01*
X83831428Y-96353485D02*
X83793332Y-96429676D01*
X83793332Y-96429676D02*
X83793332Y-96543961D01*
X83793332Y-96543961D02*
X83831428Y-96620152D01*
X83831428Y-96620152D02*
X83869523Y-96658247D01*
X83869523Y-96658247D02*
X83945713Y-96696342D01*
X83945713Y-96696342D02*
X84250475Y-96696342D01*
X83031428Y-97077295D02*
X83488571Y-97077295D01*
X83259999Y-97077295D02*
X83259999Y-96277295D01*
X83259999Y-96277295D02*
X83336190Y-96391580D01*
X83336190Y-96391580D02*
X83412380Y-96467771D01*
X83412380Y-96467771D02*
X83488571Y-96505866D01*
X97261428Y-96287295D02*
X96994761Y-97087295D01*
X96994761Y-97087295D02*
X96728095Y-96287295D01*
X96499524Y-97049200D02*
X96385238Y-97087295D01*
X96385238Y-97087295D02*
X96194762Y-97087295D01*
X96194762Y-97087295D02*
X96118571Y-97049200D01*
X96118571Y-97049200D02*
X96080476Y-97011104D01*
X96080476Y-97011104D02*
X96042381Y-96934914D01*
X96042381Y-96934914D02*
X96042381Y-96858723D01*
X96042381Y-96858723D02*
X96080476Y-96782533D01*
X96080476Y-96782533D02*
X96118571Y-96744438D01*
X96118571Y-96744438D02*
X96194762Y-96706342D01*
X96194762Y-96706342D02*
X96347143Y-96668247D01*
X96347143Y-96668247D02*
X96423333Y-96630152D01*
X96423333Y-96630152D02*
X96461428Y-96592057D01*
X96461428Y-96592057D02*
X96499524Y-96515866D01*
X96499524Y-96515866D02*
X96499524Y-96439676D01*
X96499524Y-96439676D02*
X96461428Y-96363485D01*
X96461428Y-96363485D02*
X96423333Y-96325390D01*
X96423333Y-96325390D02*
X96347143Y-96287295D01*
X96347143Y-96287295D02*
X96156666Y-96287295D01*
X96156666Y-96287295D02*
X96042381Y-96325390D01*
X95547142Y-96706342D02*
X95547142Y-97087295D01*
X95813809Y-96287295D02*
X95547142Y-96706342D01*
X95547142Y-96706342D02*
X95280476Y-96287295D01*
X95051905Y-97049200D02*
X94937619Y-97087295D01*
X94937619Y-97087295D02*
X94747143Y-97087295D01*
X94747143Y-97087295D02*
X94670952Y-97049200D01*
X94670952Y-97049200D02*
X94632857Y-97011104D01*
X94632857Y-97011104D02*
X94594762Y-96934914D01*
X94594762Y-96934914D02*
X94594762Y-96858723D01*
X94594762Y-96858723D02*
X94632857Y-96782533D01*
X94632857Y-96782533D02*
X94670952Y-96744438D01*
X94670952Y-96744438D02*
X94747143Y-96706342D01*
X94747143Y-96706342D02*
X94899524Y-96668247D01*
X94899524Y-96668247D02*
X94975714Y-96630152D01*
X94975714Y-96630152D02*
X95013809Y-96592057D01*
X95013809Y-96592057D02*
X95051905Y-96515866D01*
X95051905Y-96515866D02*
X95051905Y-96439676D01*
X95051905Y-96439676D02*
X95013809Y-96363485D01*
X95013809Y-96363485D02*
X94975714Y-96325390D01*
X94975714Y-96325390D02*
X94899524Y-96287295D01*
X94899524Y-96287295D02*
X94709047Y-96287295D01*
X94709047Y-96287295D02*
X94594762Y-96325390D01*
X96592381Y-134425390D02*
X96668571Y-134387295D01*
X96668571Y-134387295D02*
X96782857Y-134387295D01*
X96782857Y-134387295D02*
X96897143Y-134425390D01*
X96897143Y-134425390D02*
X96973333Y-134501580D01*
X96973333Y-134501580D02*
X97011428Y-134577771D01*
X97011428Y-134577771D02*
X97049524Y-134730152D01*
X97049524Y-134730152D02*
X97049524Y-134844438D01*
X97049524Y-134844438D02*
X97011428Y-134996819D01*
X97011428Y-134996819D02*
X96973333Y-135073009D01*
X96973333Y-135073009D02*
X96897143Y-135149200D01*
X96897143Y-135149200D02*
X96782857Y-135187295D01*
X96782857Y-135187295D02*
X96706666Y-135187295D01*
X96706666Y-135187295D02*
X96592381Y-135149200D01*
X96592381Y-135149200D02*
X96554285Y-135111104D01*
X96554285Y-135111104D02*
X96554285Y-134844438D01*
X96554285Y-134844438D02*
X96706666Y-134844438D01*
X96211428Y-135187295D02*
X96211428Y-134387295D01*
X96211428Y-134387295D02*
X95906666Y-134387295D01*
X95906666Y-134387295D02*
X95830476Y-134425390D01*
X95830476Y-134425390D02*
X95792381Y-134463485D01*
X95792381Y-134463485D02*
X95754285Y-134539676D01*
X95754285Y-134539676D02*
X95754285Y-134653961D01*
X95754285Y-134653961D02*
X95792381Y-134730152D01*
X95792381Y-134730152D02*
X95830476Y-134768247D01*
X95830476Y-134768247D02*
X95906666Y-134806342D01*
X95906666Y-134806342D02*
X96211428Y-134806342D01*
X94992381Y-135187295D02*
X95449524Y-135187295D01*
X95220952Y-135187295D02*
X95220952Y-134387295D01*
X95220952Y-134387295D02*
X95297143Y-134501580D01*
X95297143Y-134501580D02*
X95373333Y-134577771D01*
X95373333Y-134577771D02*
X95449524Y-134615866D01*
X94535238Y-134730152D02*
X94611428Y-134692057D01*
X94611428Y-134692057D02*
X94649523Y-134653961D01*
X94649523Y-134653961D02*
X94687619Y-134577771D01*
X94687619Y-134577771D02*
X94687619Y-134539676D01*
X94687619Y-134539676D02*
X94649523Y-134463485D01*
X94649523Y-134463485D02*
X94611428Y-134425390D01*
X94611428Y-134425390D02*
X94535238Y-134387295D01*
X94535238Y-134387295D02*
X94382857Y-134387295D01*
X94382857Y-134387295D02*
X94306666Y-134425390D01*
X94306666Y-134425390D02*
X94268571Y-134463485D01*
X94268571Y-134463485D02*
X94230476Y-134539676D01*
X94230476Y-134539676D02*
X94230476Y-134577771D01*
X94230476Y-134577771D02*
X94268571Y-134653961D01*
X94268571Y-134653961D02*
X94306666Y-134692057D01*
X94306666Y-134692057D02*
X94382857Y-134730152D01*
X94382857Y-134730152D02*
X94535238Y-134730152D01*
X94535238Y-134730152D02*
X94611428Y-134768247D01*
X94611428Y-134768247D02*
X94649523Y-134806342D01*
X94649523Y-134806342D02*
X94687619Y-134882533D01*
X94687619Y-134882533D02*
X94687619Y-135034914D01*
X94687619Y-135034914D02*
X94649523Y-135111104D01*
X94649523Y-135111104D02*
X94611428Y-135149200D01*
X94611428Y-135149200D02*
X94535238Y-135187295D01*
X94535238Y-135187295D02*
X94382857Y-135187295D01*
X94382857Y-135187295D02*
X94306666Y-135149200D01*
X94306666Y-135149200D02*
X94268571Y-135111104D01*
X94268571Y-135111104D02*
X94230476Y-135034914D01*
X94230476Y-135034914D02*
X94230476Y-134882533D01*
X94230476Y-134882533D02*
X94268571Y-134806342D01*
X94268571Y-134806342D02*
X94306666Y-134768247D01*
X94306666Y-134768247D02*
X94382857Y-134730152D01*
X96599523Y-124265390D02*
X96675713Y-124227295D01*
X96675713Y-124227295D02*
X96789999Y-124227295D01*
X96789999Y-124227295D02*
X96904285Y-124265390D01*
X96904285Y-124265390D02*
X96980475Y-124341580D01*
X96980475Y-124341580D02*
X97018570Y-124417771D01*
X97018570Y-124417771D02*
X97056666Y-124570152D01*
X97056666Y-124570152D02*
X97056666Y-124684438D01*
X97056666Y-124684438D02*
X97018570Y-124836819D01*
X97018570Y-124836819D02*
X96980475Y-124913009D01*
X96980475Y-124913009D02*
X96904285Y-124989200D01*
X96904285Y-124989200D02*
X96789999Y-125027295D01*
X96789999Y-125027295D02*
X96713808Y-125027295D01*
X96713808Y-125027295D02*
X96599523Y-124989200D01*
X96599523Y-124989200D02*
X96561427Y-124951104D01*
X96561427Y-124951104D02*
X96561427Y-124684438D01*
X96561427Y-124684438D02*
X96713808Y-124684438D01*
X96218570Y-125027295D02*
X96218570Y-124227295D01*
X96218570Y-124227295D02*
X95761427Y-125027295D01*
X95761427Y-125027295D02*
X95761427Y-124227295D01*
X95380475Y-125027295D02*
X95380475Y-124227295D01*
X95380475Y-124227295D02*
X95189999Y-124227295D01*
X95189999Y-124227295D02*
X95075713Y-124265390D01*
X95075713Y-124265390D02*
X94999523Y-124341580D01*
X94999523Y-124341580D02*
X94961428Y-124417771D01*
X94961428Y-124417771D02*
X94923332Y-124570152D01*
X94923332Y-124570152D02*
X94923332Y-124684438D01*
X94923332Y-124684438D02*
X94961428Y-124836819D01*
X94961428Y-124836819D02*
X94999523Y-124913009D01*
X94999523Y-124913009D02*
X95075713Y-124989200D01*
X95075713Y-124989200D02*
X95189999Y-125027295D01*
X95189999Y-125027295D02*
X95380475Y-125027295D01*
X84669523Y-136965390D02*
X84745713Y-136927295D01*
X84745713Y-136927295D02*
X84859999Y-136927295D01*
X84859999Y-136927295D02*
X84974285Y-136965390D01*
X84974285Y-136965390D02*
X85050475Y-137041580D01*
X85050475Y-137041580D02*
X85088570Y-137117771D01*
X85088570Y-137117771D02*
X85126666Y-137270152D01*
X85126666Y-137270152D02*
X85126666Y-137384438D01*
X85126666Y-137384438D02*
X85088570Y-137536819D01*
X85088570Y-137536819D02*
X85050475Y-137613009D01*
X85050475Y-137613009D02*
X84974285Y-137689200D01*
X84974285Y-137689200D02*
X84859999Y-137727295D01*
X84859999Y-137727295D02*
X84783808Y-137727295D01*
X84783808Y-137727295D02*
X84669523Y-137689200D01*
X84669523Y-137689200D02*
X84631427Y-137651104D01*
X84631427Y-137651104D02*
X84631427Y-137384438D01*
X84631427Y-137384438D02*
X84783808Y-137384438D01*
X84288570Y-137727295D02*
X84288570Y-136927295D01*
X84288570Y-136927295D02*
X83831427Y-137727295D01*
X83831427Y-137727295D02*
X83831427Y-136927295D01*
X83450475Y-137727295D02*
X83450475Y-136927295D01*
X83450475Y-136927295D02*
X83259999Y-136927295D01*
X83259999Y-136927295D02*
X83145713Y-136965390D01*
X83145713Y-136965390D02*
X83069523Y-137041580D01*
X83069523Y-137041580D02*
X83031428Y-137117771D01*
X83031428Y-137117771D02*
X82993332Y-137270152D01*
X82993332Y-137270152D02*
X82993332Y-137384438D01*
X82993332Y-137384438D02*
X83031428Y-137536819D01*
X83031428Y-137536819D02*
X83069523Y-137613009D01*
X83069523Y-137613009D02*
X83145713Y-137689200D01*
X83145713Y-137689200D02*
X83259999Y-137727295D01*
X83259999Y-137727295D02*
X83450475Y-137727295D01*
X96592381Y-126815390D02*
X96668571Y-126777295D01*
X96668571Y-126777295D02*
X96782857Y-126777295D01*
X96782857Y-126777295D02*
X96897143Y-126815390D01*
X96897143Y-126815390D02*
X96973333Y-126891580D01*
X96973333Y-126891580D02*
X97011428Y-126967771D01*
X97011428Y-126967771D02*
X97049524Y-127120152D01*
X97049524Y-127120152D02*
X97049524Y-127234438D01*
X97049524Y-127234438D02*
X97011428Y-127386819D01*
X97011428Y-127386819D02*
X96973333Y-127463009D01*
X96973333Y-127463009D02*
X96897143Y-127539200D01*
X96897143Y-127539200D02*
X96782857Y-127577295D01*
X96782857Y-127577295D02*
X96706666Y-127577295D01*
X96706666Y-127577295D02*
X96592381Y-127539200D01*
X96592381Y-127539200D02*
X96554285Y-127501104D01*
X96554285Y-127501104D02*
X96554285Y-127234438D01*
X96554285Y-127234438D02*
X96706666Y-127234438D01*
X96211428Y-127577295D02*
X96211428Y-126777295D01*
X96211428Y-126777295D02*
X95906666Y-126777295D01*
X95906666Y-126777295D02*
X95830476Y-126815390D01*
X95830476Y-126815390D02*
X95792381Y-126853485D01*
X95792381Y-126853485D02*
X95754285Y-126929676D01*
X95754285Y-126929676D02*
X95754285Y-127043961D01*
X95754285Y-127043961D02*
X95792381Y-127120152D01*
X95792381Y-127120152D02*
X95830476Y-127158247D01*
X95830476Y-127158247D02*
X95906666Y-127196342D01*
X95906666Y-127196342D02*
X96211428Y-127196342D01*
X95449524Y-126853485D02*
X95411428Y-126815390D01*
X95411428Y-126815390D02*
X95335238Y-126777295D01*
X95335238Y-126777295D02*
X95144762Y-126777295D01*
X95144762Y-126777295D02*
X95068571Y-126815390D01*
X95068571Y-126815390D02*
X95030476Y-126853485D01*
X95030476Y-126853485D02*
X94992381Y-126929676D01*
X94992381Y-126929676D02*
X94992381Y-127005866D01*
X94992381Y-127005866D02*
X95030476Y-127120152D01*
X95030476Y-127120152D02*
X95487619Y-127577295D01*
X95487619Y-127577295D02*
X94992381Y-127577295D01*
X94230476Y-127577295D02*
X94687619Y-127577295D01*
X94459047Y-127577295D02*
X94459047Y-126777295D01*
X94459047Y-126777295D02*
X94535238Y-126891580D01*
X94535238Y-126891580D02*
X94611428Y-126967771D01*
X94611428Y-126967771D02*
X94687619Y-127005866D01*
X97216190Y-101367295D02*
X96720952Y-101367295D01*
X96720952Y-101367295D02*
X96987618Y-101672057D01*
X96987618Y-101672057D02*
X96873333Y-101672057D01*
X96873333Y-101672057D02*
X96797142Y-101710152D01*
X96797142Y-101710152D02*
X96759047Y-101748247D01*
X96759047Y-101748247D02*
X96720952Y-101824438D01*
X96720952Y-101824438D02*
X96720952Y-102014914D01*
X96720952Y-102014914D02*
X96759047Y-102091104D01*
X96759047Y-102091104D02*
X96797142Y-102129200D01*
X96797142Y-102129200D02*
X96873333Y-102167295D01*
X96873333Y-102167295D02*
X97101904Y-102167295D01*
X97101904Y-102167295D02*
X97178095Y-102129200D01*
X97178095Y-102129200D02*
X97216190Y-102091104D01*
X96492380Y-101367295D02*
X96225713Y-102167295D01*
X96225713Y-102167295D02*
X95959047Y-101367295D01*
X95768571Y-101367295D02*
X95273333Y-101367295D01*
X95273333Y-101367295D02*
X95539999Y-101672057D01*
X95539999Y-101672057D02*
X95425714Y-101672057D01*
X95425714Y-101672057D02*
X95349523Y-101710152D01*
X95349523Y-101710152D02*
X95311428Y-101748247D01*
X95311428Y-101748247D02*
X95273333Y-101824438D01*
X95273333Y-101824438D02*
X95273333Y-102014914D01*
X95273333Y-102014914D02*
X95311428Y-102091104D01*
X95311428Y-102091104D02*
X95349523Y-102129200D01*
X95349523Y-102129200D02*
X95425714Y-102167295D01*
X95425714Y-102167295D02*
X95654285Y-102167295D01*
X95654285Y-102167295D02*
X95730476Y-102129200D01*
X95730476Y-102129200D02*
X95768571Y-102091104D01*
X95120952Y-102243485D02*
X94511428Y-102243485D01*
X94320951Y-101748247D02*
X94054285Y-101748247D01*
X93939999Y-102167295D02*
X94320951Y-102167295D01*
X94320951Y-102167295D02*
X94320951Y-101367295D01*
X94320951Y-101367295D02*
X93939999Y-101367295D01*
X93597141Y-102167295D02*
X93597141Y-101367295D01*
X93597141Y-101367295D02*
X93139998Y-102167295D01*
X93139998Y-102167295D02*
X93139998Y-101367295D01*
X84631428Y-121725390D02*
X84707618Y-121687295D01*
X84707618Y-121687295D02*
X84821904Y-121687295D01*
X84821904Y-121687295D02*
X84936190Y-121725390D01*
X84936190Y-121725390D02*
X85012380Y-121801580D01*
X85012380Y-121801580D02*
X85050475Y-121877771D01*
X85050475Y-121877771D02*
X85088571Y-122030152D01*
X85088571Y-122030152D02*
X85088571Y-122144438D01*
X85088571Y-122144438D02*
X85050475Y-122296819D01*
X85050475Y-122296819D02*
X85012380Y-122373009D01*
X85012380Y-122373009D02*
X84936190Y-122449200D01*
X84936190Y-122449200D02*
X84821904Y-122487295D01*
X84821904Y-122487295D02*
X84745713Y-122487295D01*
X84745713Y-122487295D02*
X84631428Y-122449200D01*
X84631428Y-122449200D02*
X84593332Y-122411104D01*
X84593332Y-122411104D02*
X84593332Y-122144438D01*
X84593332Y-122144438D02*
X84745713Y-122144438D01*
X84250475Y-122487295D02*
X84250475Y-121687295D01*
X84250475Y-121687295D02*
X83945713Y-121687295D01*
X83945713Y-121687295D02*
X83869523Y-121725390D01*
X83869523Y-121725390D02*
X83831428Y-121763485D01*
X83831428Y-121763485D02*
X83793332Y-121839676D01*
X83793332Y-121839676D02*
X83793332Y-121953961D01*
X83793332Y-121953961D02*
X83831428Y-122030152D01*
X83831428Y-122030152D02*
X83869523Y-122068247D01*
X83869523Y-122068247D02*
X83945713Y-122106342D01*
X83945713Y-122106342D02*
X84250475Y-122106342D01*
X83412380Y-122487295D02*
X83259999Y-122487295D01*
X83259999Y-122487295D02*
X83183809Y-122449200D01*
X83183809Y-122449200D02*
X83145713Y-122411104D01*
X83145713Y-122411104D02*
X83069523Y-122296819D01*
X83069523Y-122296819D02*
X83031428Y-122144438D01*
X83031428Y-122144438D02*
X83031428Y-121839676D01*
X83031428Y-121839676D02*
X83069523Y-121763485D01*
X83069523Y-121763485D02*
X83107618Y-121725390D01*
X83107618Y-121725390D02*
X83183809Y-121687295D01*
X83183809Y-121687295D02*
X83336190Y-121687295D01*
X83336190Y-121687295D02*
X83412380Y-121725390D01*
X83412380Y-121725390D02*
X83450475Y-121763485D01*
X83450475Y-121763485D02*
X83488571Y-121839676D01*
X83488571Y-121839676D02*
X83488571Y-122030152D01*
X83488571Y-122030152D02*
X83450475Y-122106342D01*
X83450475Y-122106342D02*
X83412380Y-122144438D01*
X83412380Y-122144438D02*
X83336190Y-122182533D01*
X83336190Y-122182533D02*
X83183809Y-122182533D01*
X83183809Y-122182533D02*
X83107618Y-122144438D01*
X83107618Y-122144438D02*
X83069523Y-122106342D01*
X83069523Y-122106342D02*
X83031428Y-122030152D01*
X85362381Y-142045390D02*
X85438571Y-142007295D01*
X85438571Y-142007295D02*
X85552857Y-142007295D01*
X85552857Y-142007295D02*
X85667143Y-142045390D01*
X85667143Y-142045390D02*
X85743333Y-142121580D01*
X85743333Y-142121580D02*
X85781428Y-142197771D01*
X85781428Y-142197771D02*
X85819524Y-142350152D01*
X85819524Y-142350152D02*
X85819524Y-142464438D01*
X85819524Y-142464438D02*
X85781428Y-142616819D01*
X85781428Y-142616819D02*
X85743333Y-142693009D01*
X85743333Y-142693009D02*
X85667143Y-142769200D01*
X85667143Y-142769200D02*
X85552857Y-142807295D01*
X85552857Y-142807295D02*
X85476666Y-142807295D01*
X85476666Y-142807295D02*
X85362381Y-142769200D01*
X85362381Y-142769200D02*
X85324285Y-142731104D01*
X85324285Y-142731104D02*
X85324285Y-142464438D01*
X85324285Y-142464438D02*
X85476666Y-142464438D01*
X84981428Y-142807295D02*
X84981428Y-142007295D01*
X84981428Y-142007295D02*
X84676666Y-142007295D01*
X84676666Y-142007295D02*
X84600476Y-142045390D01*
X84600476Y-142045390D02*
X84562381Y-142083485D01*
X84562381Y-142083485D02*
X84524285Y-142159676D01*
X84524285Y-142159676D02*
X84524285Y-142273961D01*
X84524285Y-142273961D02*
X84562381Y-142350152D01*
X84562381Y-142350152D02*
X84600476Y-142388247D01*
X84600476Y-142388247D02*
X84676666Y-142426342D01*
X84676666Y-142426342D02*
X84981428Y-142426342D01*
X83762381Y-142807295D02*
X84219524Y-142807295D01*
X83990952Y-142807295D02*
X83990952Y-142007295D01*
X83990952Y-142007295D02*
X84067143Y-142121580D01*
X84067143Y-142121580D02*
X84143333Y-142197771D01*
X84143333Y-142197771D02*
X84219524Y-142235866D01*
X83038571Y-142007295D02*
X83419523Y-142007295D01*
X83419523Y-142007295D02*
X83457619Y-142388247D01*
X83457619Y-142388247D02*
X83419523Y-142350152D01*
X83419523Y-142350152D02*
X83343333Y-142312057D01*
X83343333Y-142312057D02*
X83152857Y-142312057D01*
X83152857Y-142312057D02*
X83076666Y-142350152D01*
X83076666Y-142350152D02*
X83038571Y-142388247D01*
X83038571Y-142388247D02*
X83000476Y-142464438D01*
X83000476Y-142464438D02*
X83000476Y-142654914D01*
X83000476Y-142654914D02*
X83038571Y-142731104D01*
X83038571Y-142731104D02*
X83076666Y-142769200D01*
X83076666Y-142769200D02*
X83152857Y-142807295D01*
X83152857Y-142807295D02*
X83343333Y-142807295D01*
X83343333Y-142807295D02*
X83419523Y-142769200D01*
X83419523Y-142769200D02*
X83457619Y-142731104D01*
X96580475Y-119947295D02*
X96847142Y-119566342D01*
X97037618Y-119947295D02*
X97037618Y-119147295D01*
X97037618Y-119147295D02*
X96732856Y-119147295D01*
X96732856Y-119147295D02*
X96656666Y-119185390D01*
X96656666Y-119185390D02*
X96618571Y-119223485D01*
X96618571Y-119223485D02*
X96580475Y-119299676D01*
X96580475Y-119299676D02*
X96580475Y-119413961D01*
X96580475Y-119413961D02*
X96618571Y-119490152D01*
X96618571Y-119490152D02*
X96656666Y-119528247D01*
X96656666Y-119528247D02*
X96732856Y-119566342D01*
X96732856Y-119566342D02*
X97037618Y-119566342D01*
X96237618Y-119147295D02*
X96237618Y-119794914D01*
X96237618Y-119794914D02*
X96199523Y-119871104D01*
X96199523Y-119871104D02*
X96161428Y-119909200D01*
X96161428Y-119909200D02*
X96085237Y-119947295D01*
X96085237Y-119947295D02*
X95932856Y-119947295D01*
X95932856Y-119947295D02*
X95856666Y-119909200D01*
X95856666Y-119909200D02*
X95818571Y-119871104D01*
X95818571Y-119871104D02*
X95780475Y-119794914D01*
X95780475Y-119794914D02*
X95780475Y-119147295D01*
X95399523Y-119947295D02*
X95399523Y-119147295D01*
X95399523Y-119147295D02*
X94942380Y-119947295D01*
X94942380Y-119947295D02*
X94942380Y-119147295D01*
X96592381Y-121725390D02*
X96668571Y-121687295D01*
X96668571Y-121687295D02*
X96782857Y-121687295D01*
X96782857Y-121687295D02*
X96897143Y-121725390D01*
X96897143Y-121725390D02*
X96973333Y-121801580D01*
X96973333Y-121801580D02*
X97011428Y-121877771D01*
X97011428Y-121877771D02*
X97049524Y-122030152D01*
X97049524Y-122030152D02*
X97049524Y-122144438D01*
X97049524Y-122144438D02*
X97011428Y-122296819D01*
X97011428Y-122296819D02*
X96973333Y-122373009D01*
X96973333Y-122373009D02*
X96897143Y-122449200D01*
X96897143Y-122449200D02*
X96782857Y-122487295D01*
X96782857Y-122487295D02*
X96706666Y-122487295D01*
X96706666Y-122487295D02*
X96592381Y-122449200D01*
X96592381Y-122449200D02*
X96554285Y-122411104D01*
X96554285Y-122411104D02*
X96554285Y-122144438D01*
X96554285Y-122144438D02*
X96706666Y-122144438D01*
X96211428Y-122487295D02*
X96211428Y-121687295D01*
X96211428Y-121687295D02*
X95906666Y-121687295D01*
X95906666Y-121687295D02*
X95830476Y-121725390D01*
X95830476Y-121725390D02*
X95792381Y-121763485D01*
X95792381Y-121763485D02*
X95754285Y-121839676D01*
X95754285Y-121839676D02*
X95754285Y-121953961D01*
X95754285Y-121953961D02*
X95792381Y-122030152D01*
X95792381Y-122030152D02*
X95830476Y-122068247D01*
X95830476Y-122068247D02*
X95906666Y-122106342D01*
X95906666Y-122106342D02*
X96211428Y-122106342D01*
X95449524Y-121763485D02*
X95411428Y-121725390D01*
X95411428Y-121725390D02*
X95335238Y-121687295D01*
X95335238Y-121687295D02*
X95144762Y-121687295D01*
X95144762Y-121687295D02*
X95068571Y-121725390D01*
X95068571Y-121725390D02*
X95030476Y-121763485D01*
X95030476Y-121763485D02*
X94992381Y-121839676D01*
X94992381Y-121839676D02*
X94992381Y-121915866D01*
X94992381Y-121915866D02*
X95030476Y-122030152D01*
X95030476Y-122030152D02*
X95487619Y-122487295D01*
X95487619Y-122487295D02*
X94992381Y-122487295D01*
X94687619Y-121763485D02*
X94649523Y-121725390D01*
X94649523Y-121725390D02*
X94573333Y-121687295D01*
X94573333Y-121687295D02*
X94382857Y-121687295D01*
X94382857Y-121687295D02*
X94306666Y-121725390D01*
X94306666Y-121725390D02*
X94268571Y-121763485D01*
X94268571Y-121763485D02*
X94230476Y-121839676D01*
X94230476Y-121839676D02*
X94230476Y-121915866D01*
X94230476Y-121915866D02*
X94268571Y-122030152D01*
X94268571Y-122030152D02*
X94725714Y-122487295D01*
X94725714Y-122487295D02*
X94230476Y-122487295D01*
X96592381Y-142045390D02*
X96668571Y-142007295D01*
X96668571Y-142007295D02*
X96782857Y-142007295D01*
X96782857Y-142007295D02*
X96897143Y-142045390D01*
X96897143Y-142045390D02*
X96973333Y-142121580D01*
X96973333Y-142121580D02*
X97011428Y-142197771D01*
X97011428Y-142197771D02*
X97049524Y-142350152D01*
X97049524Y-142350152D02*
X97049524Y-142464438D01*
X97049524Y-142464438D02*
X97011428Y-142616819D01*
X97011428Y-142616819D02*
X96973333Y-142693009D01*
X96973333Y-142693009D02*
X96897143Y-142769200D01*
X96897143Y-142769200D02*
X96782857Y-142807295D01*
X96782857Y-142807295D02*
X96706666Y-142807295D01*
X96706666Y-142807295D02*
X96592381Y-142769200D01*
X96592381Y-142769200D02*
X96554285Y-142731104D01*
X96554285Y-142731104D02*
X96554285Y-142464438D01*
X96554285Y-142464438D02*
X96706666Y-142464438D01*
X96211428Y-142807295D02*
X96211428Y-142007295D01*
X96211428Y-142007295D02*
X95906666Y-142007295D01*
X95906666Y-142007295D02*
X95830476Y-142045390D01*
X95830476Y-142045390D02*
X95792381Y-142083485D01*
X95792381Y-142083485D02*
X95754285Y-142159676D01*
X95754285Y-142159676D02*
X95754285Y-142273961D01*
X95754285Y-142273961D02*
X95792381Y-142350152D01*
X95792381Y-142350152D02*
X95830476Y-142388247D01*
X95830476Y-142388247D02*
X95906666Y-142426342D01*
X95906666Y-142426342D02*
X96211428Y-142426342D01*
X94992381Y-142807295D02*
X95449524Y-142807295D01*
X95220952Y-142807295D02*
X95220952Y-142007295D01*
X95220952Y-142007295D02*
X95297143Y-142121580D01*
X95297143Y-142121580D02*
X95373333Y-142197771D01*
X95373333Y-142197771D02*
X95449524Y-142235866D01*
X94306666Y-142007295D02*
X94459047Y-142007295D01*
X94459047Y-142007295D02*
X94535238Y-142045390D01*
X94535238Y-142045390D02*
X94573333Y-142083485D01*
X94573333Y-142083485D02*
X94649523Y-142197771D01*
X94649523Y-142197771D02*
X94687619Y-142350152D01*
X94687619Y-142350152D02*
X94687619Y-142654914D01*
X94687619Y-142654914D02*
X94649523Y-142731104D01*
X94649523Y-142731104D02*
X94611428Y-142769200D01*
X94611428Y-142769200D02*
X94535238Y-142807295D01*
X94535238Y-142807295D02*
X94382857Y-142807295D01*
X94382857Y-142807295D02*
X94306666Y-142769200D01*
X94306666Y-142769200D02*
X94268571Y-142731104D01*
X94268571Y-142731104D02*
X94230476Y-142654914D01*
X94230476Y-142654914D02*
X94230476Y-142464438D01*
X94230476Y-142464438D02*
X94268571Y-142388247D01*
X94268571Y-142388247D02*
X94306666Y-142350152D01*
X94306666Y-142350152D02*
X94382857Y-142312057D01*
X94382857Y-142312057D02*
X94535238Y-142312057D01*
X94535238Y-142312057D02*
X94611428Y-142350152D01*
X94611428Y-142350152D02*
X94649523Y-142388247D01*
X94649523Y-142388247D02*
X94687619Y-142464438D01*
X84631428Y-93785390D02*
X84707618Y-93747295D01*
X84707618Y-93747295D02*
X84821904Y-93747295D01*
X84821904Y-93747295D02*
X84936190Y-93785390D01*
X84936190Y-93785390D02*
X85012380Y-93861580D01*
X85012380Y-93861580D02*
X85050475Y-93937771D01*
X85050475Y-93937771D02*
X85088571Y-94090152D01*
X85088571Y-94090152D02*
X85088571Y-94204438D01*
X85088571Y-94204438D02*
X85050475Y-94356819D01*
X85050475Y-94356819D02*
X85012380Y-94433009D01*
X85012380Y-94433009D02*
X84936190Y-94509200D01*
X84936190Y-94509200D02*
X84821904Y-94547295D01*
X84821904Y-94547295D02*
X84745713Y-94547295D01*
X84745713Y-94547295D02*
X84631428Y-94509200D01*
X84631428Y-94509200D02*
X84593332Y-94471104D01*
X84593332Y-94471104D02*
X84593332Y-94204438D01*
X84593332Y-94204438D02*
X84745713Y-94204438D01*
X84250475Y-94547295D02*
X84250475Y-93747295D01*
X84250475Y-93747295D02*
X83945713Y-93747295D01*
X83945713Y-93747295D02*
X83869523Y-93785390D01*
X83869523Y-93785390D02*
X83831428Y-93823485D01*
X83831428Y-93823485D02*
X83793332Y-93899676D01*
X83793332Y-93899676D02*
X83793332Y-94013961D01*
X83793332Y-94013961D02*
X83831428Y-94090152D01*
X83831428Y-94090152D02*
X83869523Y-94128247D01*
X83869523Y-94128247D02*
X83945713Y-94166342D01*
X83945713Y-94166342D02*
X84250475Y-94166342D01*
X83298094Y-93747295D02*
X83221904Y-93747295D01*
X83221904Y-93747295D02*
X83145713Y-93785390D01*
X83145713Y-93785390D02*
X83107618Y-93823485D01*
X83107618Y-93823485D02*
X83069523Y-93899676D01*
X83069523Y-93899676D02*
X83031428Y-94052057D01*
X83031428Y-94052057D02*
X83031428Y-94242533D01*
X83031428Y-94242533D02*
X83069523Y-94394914D01*
X83069523Y-94394914D02*
X83107618Y-94471104D01*
X83107618Y-94471104D02*
X83145713Y-94509200D01*
X83145713Y-94509200D02*
X83221904Y-94547295D01*
X83221904Y-94547295D02*
X83298094Y-94547295D01*
X83298094Y-94547295D02*
X83374285Y-94509200D01*
X83374285Y-94509200D02*
X83412380Y-94471104D01*
X83412380Y-94471104D02*
X83450475Y-94394914D01*
X83450475Y-94394914D02*
X83488571Y-94242533D01*
X83488571Y-94242533D02*
X83488571Y-94052057D01*
X83488571Y-94052057D02*
X83450475Y-93899676D01*
X83450475Y-93899676D02*
X83412380Y-93823485D01*
X83412380Y-93823485D02*
X83374285Y-93785390D01*
X83374285Y-93785390D02*
X83298094Y-93747295D01*
X97132857Y-107018723D02*
X96751904Y-107018723D01*
X97209047Y-107247295D02*
X96942380Y-106447295D01*
X96942380Y-106447295D02*
X96675714Y-107247295D01*
X96409047Y-107247295D02*
X96409047Y-106447295D01*
X96409047Y-106447295D02*
X96218571Y-106447295D01*
X96218571Y-106447295D02*
X96104285Y-106485390D01*
X96104285Y-106485390D02*
X96028095Y-106561580D01*
X96028095Y-106561580D02*
X95990000Y-106637771D01*
X95990000Y-106637771D02*
X95951904Y-106790152D01*
X95951904Y-106790152D02*
X95951904Y-106904438D01*
X95951904Y-106904438D02*
X95990000Y-107056819D01*
X95990000Y-107056819D02*
X96028095Y-107133009D01*
X96028095Y-107133009D02*
X96104285Y-107209200D01*
X96104285Y-107209200D02*
X96218571Y-107247295D01*
X96218571Y-107247295D02*
X96409047Y-107247295D01*
X95151904Y-107171104D02*
X95190000Y-107209200D01*
X95190000Y-107209200D02*
X95304285Y-107247295D01*
X95304285Y-107247295D02*
X95380476Y-107247295D01*
X95380476Y-107247295D02*
X95494762Y-107209200D01*
X95494762Y-107209200D02*
X95570952Y-107133009D01*
X95570952Y-107133009D02*
X95609047Y-107056819D01*
X95609047Y-107056819D02*
X95647143Y-106904438D01*
X95647143Y-106904438D02*
X95647143Y-106790152D01*
X95647143Y-106790152D02*
X95609047Y-106637771D01*
X95609047Y-106637771D02*
X95570952Y-106561580D01*
X95570952Y-106561580D02*
X95494762Y-106485390D01*
X95494762Y-106485390D02*
X95380476Y-106447295D01*
X95380476Y-106447295D02*
X95304285Y-106447295D01*
X95304285Y-106447295D02*
X95190000Y-106485390D01*
X95190000Y-106485390D02*
X95151904Y-106523485D01*
X94999524Y-107323485D02*
X94390000Y-107323485D01*
X94313809Y-106447295D02*
X94047142Y-107247295D01*
X94047142Y-107247295D02*
X93780476Y-106447295D01*
X93056666Y-107247295D02*
X93323333Y-106866342D01*
X93513809Y-107247295D02*
X93513809Y-106447295D01*
X93513809Y-106447295D02*
X93209047Y-106447295D01*
X93209047Y-106447295D02*
X93132857Y-106485390D01*
X93132857Y-106485390D02*
X93094762Y-106523485D01*
X93094762Y-106523485D02*
X93056666Y-106599676D01*
X93056666Y-106599676D02*
X93056666Y-106713961D01*
X93056666Y-106713961D02*
X93094762Y-106790152D01*
X93094762Y-106790152D02*
X93132857Y-106828247D01*
X93132857Y-106828247D02*
X93209047Y-106866342D01*
X93209047Y-106866342D02*
X93513809Y-106866342D01*
X92713809Y-106828247D02*
X92447143Y-106828247D01*
X92332857Y-107247295D02*
X92713809Y-107247295D01*
X92713809Y-107247295D02*
X92713809Y-106447295D01*
X92713809Y-106447295D02*
X92332857Y-106447295D01*
X91723333Y-106828247D02*
X91989999Y-106828247D01*
X91989999Y-107247295D02*
X91989999Y-106447295D01*
X91989999Y-106447295D02*
X91609047Y-106447295D01*
X96592381Y-129345390D02*
X96668571Y-129307295D01*
X96668571Y-129307295D02*
X96782857Y-129307295D01*
X96782857Y-129307295D02*
X96897143Y-129345390D01*
X96897143Y-129345390D02*
X96973333Y-129421580D01*
X96973333Y-129421580D02*
X97011428Y-129497771D01*
X97011428Y-129497771D02*
X97049524Y-129650152D01*
X97049524Y-129650152D02*
X97049524Y-129764438D01*
X97049524Y-129764438D02*
X97011428Y-129916819D01*
X97011428Y-129916819D02*
X96973333Y-129993009D01*
X96973333Y-129993009D02*
X96897143Y-130069200D01*
X96897143Y-130069200D02*
X96782857Y-130107295D01*
X96782857Y-130107295D02*
X96706666Y-130107295D01*
X96706666Y-130107295D02*
X96592381Y-130069200D01*
X96592381Y-130069200D02*
X96554285Y-130031104D01*
X96554285Y-130031104D02*
X96554285Y-129764438D01*
X96554285Y-129764438D02*
X96706666Y-129764438D01*
X96211428Y-130107295D02*
X96211428Y-129307295D01*
X96211428Y-129307295D02*
X95906666Y-129307295D01*
X95906666Y-129307295D02*
X95830476Y-129345390D01*
X95830476Y-129345390D02*
X95792381Y-129383485D01*
X95792381Y-129383485D02*
X95754285Y-129459676D01*
X95754285Y-129459676D02*
X95754285Y-129573961D01*
X95754285Y-129573961D02*
X95792381Y-129650152D01*
X95792381Y-129650152D02*
X95830476Y-129688247D01*
X95830476Y-129688247D02*
X95906666Y-129726342D01*
X95906666Y-129726342D02*
X96211428Y-129726342D01*
X95449524Y-129383485D02*
X95411428Y-129345390D01*
X95411428Y-129345390D02*
X95335238Y-129307295D01*
X95335238Y-129307295D02*
X95144762Y-129307295D01*
X95144762Y-129307295D02*
X95068571Y-129345390D01*
X95068571Y-129345390D02*
X95030476Y-129383485D01*
X95030476Y-129383485D02*
X94992381Y-129459676D01*
X94992381Y-129459676D02*
X94992381Y-129535866D01*
X94992381Y-129535866D02*
X95030476Y-129650152D01*
X95030476Y-129650152D02*
X95487619Y-130107295D01*
X95487619Y-130107295D02*
X94992381Y-130107295D01*
X94497142Y-129307295D02*
X94420952Y-129307295D01*
X94420952Y-129307295D02*
X94344761Y-129345390D01*
X94344761Y-129345390D02*
X94306666Y-129383485D01*
X94306666Y-129383485D02*
X94268571Y-129459676D01*
X94268571Y-129459676D02*
X94230476Y-129612057D01*
X94230476Y-129612057D02*
X94230476Y-129802533D01*
X94230476Y-129802533D02*
X94268571Y-129954914D01*
X94268571Y-129954914D02*
X94306666Y-130031104D01*
X94306666Y-130031104D02*
X94344761Y-130069200D01*
X94344761Y-130069200D02*
X94420952Y-130107295D01*
X94420952Y-130107295D02*
X94497142Y-130107295D01*
X94497142Y-130107295D02*
X94573333Y-130069200D01*
X94573333Y-130069200D02*
X94611428Y-130031104D01*
X94611428Y-130031104D02*
X94649523Y-129954914D01*
X94649523Y-129954914D02*
X94687619Y-129802533D01*
X94687619Y-129802533D02*
X94687619Y-129612057D01*
X94687619Y-129612057D02*
X94649523Y-129459676D01*
X94649523Y-129459676D02*
X94611428Y-129383485D01*
X94611428Y-129383485D02*
X94573333Y-129345390D01*
X94573333Y-129345390D02*
X94497142Y-129307295D01*
X96592381Y-116645390D02*
X96668571Y-116607295D01*
X96668571Y-116607295D02*
X96782857Y-116607295D01*
X96782857Y-116607295D02*
X96897143Y-116645390D01*
X96897143Y-116645390D02*
X96973333Y-116721580D01*
X96973333Y-116721580D02*
X97011428Y-116797771D01*
X97011428Y-116797771D02*
X97049524Y-116950152D01*
X97049524Y-116950152D02*
X97049524Y-117064438D01*
X97049524Y-117064438D02*
X97011428Y-117216819D01*
X97011428Y-117216819D02*
X96973333Y-117293009D01*
X96973333Y-117293009D02*
X96897143Y-117369200D01*
X96897143Y-117369200D02*
X96782857Y-117407295D01*
X96782857Y-117407295D02*
X96706666Y-117407295D01*
X96706666Y-117407295D02*
X96592381Y-117369200D01*
X96592381Y-117369200D02*
X96554285Y-117331104D01*
X96554285Y-117331104D02*
X96554285Y-117064438D01*
X96554285Y-117064438D02*
X96706666Y-117064438D01*
X96211428Y-117407295D02*
X96211428Y-116607295D01*
X96211428Y-116607295D02*
X95906666Y-116607295D01*
X95906666Y-116607295D02*
X95830476Y-116645390D01*
X95830476Y-116645390D02*
X95792381Y-116683485D01*
X95792381Y-116683485D02*
X95754285Y-116759676D01*
X95754285Y-116759676D02*
X95754285Y-116873961D01*
X95754285Y-116873961D02*
X95792381Y-116950152D01*
X95792381Y-116950152D02*
X95830476Y-116988247D01*
X95830476Y-116988247D02*
X95906666Y-117026342D01*
X95906666Y-117026342D02*
X96211428Y-117026342D01*
X95449524Y-116683485D02*
X95411428Y-116645390D01*
X95411428Y-116645390D02*
X95335238Y-116607295D01*
X95335238Y-116607295D02*
X95144762Y-116607295D01*
X95144762Y-116607295D02*
X95068571Y-116645390D01*
X95068571Y-116645390D02*
X95030476Y-116683485D01*
X95030476Y-116683485D02*
X94992381Y-116759676D01*
X94992381Y-116759676D02*
X94992381Y-116835866D01*
X94992381Y-116835866D02*
X95030476Y-116950152D01*
X95030476Y-116950152D02*
X95487619Y-117407295D01*
X95487619Y-117407295D02*
X94992381Y-117407295D01*
X94306666Y-116607295D02*
X94459047Y-116607295D01*
X94459047Y-116607295D02*
X94535238Y-116645390D01*
X94535238Y-116645390D02*
X94573333Y-116683485D01*
X94573333Y-116683485D02*
X94649523Y-116797771D01*
X94649523Y-116797771D02*
X94687619Y-116950152D01*
X94687619Y-116950152D02*
X94687619Y-117254914D01*
X94687619Y-117254914D02*
X94649523Y-117331104D01*
X94649523Y-117331104D02*
X94611428Y-117369200D01*
X94611428Y-117369200D02*
X94535238Y-117407295D01*
X94535238Y-117407295D02*
X94382857Y-117407295D01*
X94382857Y-117407295D02*
X94306666Y-117369200D01*
X94306666Y-117369200D02*
X94268571Y-117331104D01*
X94268571Y-117331104D02*
X94230476Y-117254914D01*
X94230476Y-117254914D02*
X94230476Y-117064438D01*
X94230476Y-117064438D02*
X94268571Y-116988247D01*
X94268571Y-116988247D02*
X94306666Y-116950152D01*
X94306666Y-116950152D02*
X94382857Y-116912057D01*
X94382857Y-116912057D02*
X94535238Y-116912057D01*
X94535238Y-116912057D02*
X94611428Y-116950152D01*
X94611428Y-116950152D02*
X94649523Y-116988247D01*
X94649523Y-116988247D02*
X94687619Y-117064438D01*
X97130476Y-103907295D02*
X96635238Y-103907295D01*
X96635238Y-103907295D02*
X96901904Y-104212057D01*
X96901904Y-104212057D02*
X96787619Y-104212057D01*
X96787619Y-104212057D02*
X96711428Y-104250152D01*
X96711428Y-104250152D02*
X96673333Y-104288247D01*
X96673333Y-104288247D02*
X96635238Y-104364438D01*
X96635238Y-104364438D02*
X96635238Y-104554914D01*
X96635238Y-104554914D02*
X96673333Y-104631104D01*
X96673333Y-104631104D02*
X96711428Y-104669200D01*
X96711428Y-104669200D02*
X96787619Y-104707295D01*
X96787619Y-104707295D02*
X97016190Y-104707295D01*
X97016190Y-104707295D02*
X97092381Y-104669200D01*
X97092381Y-104669200D02*
X97130476Y-104631104D01*
X96406666Y-103907295D02*
X96139999Y-104707295D01*
X96139999Y-104707295D02*
X95873333Y-103907295D01*
X95682857Y-103907295D02*
X95187619Y-103907295D01*
X95187619Y-103907295D02*
X95454285Y-104212057D01*
X95454285Y-104212057D02*
X95340000Y-104212057D01*
X95340000Y-104212057D02*
X95263809Y-104250152D01*
X95263809Y-104250152D02*
X95225714Y-104288247D01*
X95225714Y-104288247D02*
X95187619Y-104364438D01*
X95187619Y-104364438D02*
X95187619Y-104554914D01*
X95187619Y-104554914D02*
X95225714Y-104631104D01*
X95225714Y-104631104D02*
X95263809Y-104669200D01*
X95263809Y-104669200D02*
X95340000Y-104707295D01*
X95340000Y-104707295D02*
X95568571Y-104707295D01*
X95568571Y-104707295D02*
X95644762Y-104669200D01*
X95644762Y-104669200D02*
X95682857Y-104631104D01*
X84631428Y-114105390D02*
X84707618Y-114067295D01*
X84707618Y-114067295D02*
X84821904Y-114067295D01*
X84821904Y-114067295D02*
X84936190Y-114105390D01*
X84936190Y-114105390D02*
X85012380Y-114181580D01*
X85012380Y-114181580D02*
X85050475Y-114257771D01*
X85050475Y-114257771D02*
X85088571Y-114410152D01*
X85088571Y-114410152D02*
X85088571Y-114524438D01*
X85088571Y-114524438D02*
X85050475Y-114676819D01*
X85050475Y-114676819D02*
X85012380Y-114753009D01*
X85012380Y-114753009D02*
X84936190Y-114829200D01*
X84936190Y-114829200D02*
X84821904Y-114867295D01*
X84821904Y-114867295D02*
X84745713Y-114867295D01*
X84745713Y-114867295D02*
X84631428Y-114829200D01*
X84631428Y-114829200D02*
X84593332Y-114791104D01*
X84593332Y-114791104D02*
X84593332Y-114524438D01*
X84593332Y-114524438D02*
X84745713Y-114524438D01*
X84250475Y-114867295D02*
X84250475Y-114067295D01*
X84250475Y-114067295D02*
X83945713Y-114067295D01*
X83945713Y-114067295D02*
X83869523Y-114105390D01*
X83869523Y-114105390D02*
X83831428Y-114143485D01*
X83831428Y-114143485D02*
X83793332Y-114219676D01*
X83793332Y-114219676D02*
X83793332Y-114333961D01*
X83793332Y-114333961D02*
X83831428Y-114410152D01*
X83831428Y-114410152D02*
X83869523Y-114448247D01*
X83869523Y-114448247D02*
X83945713Y-114486342D01*
X83945713Y-114486342D02*
X84250475Y-114486342D01*
X83107618Y-114067295D02*
X83259999Y-114067295D01*
X83259999Y-114067295D02*
X83336190Y-114105390D01*
X83336190Y-114105390D02*
X83374285Y-114143485D01*
X83374285Y-114143485D02*
X83450475Y-114257771D01*
X83450475Y-114257771D02*
X83488571Y-114410152D01*
X83488571Y-114410152D02*
X83488571Y-114714914D01*
X83488571Y-114714914D02*
X83450475Y-114791104D01*
X83450475Y-114791104D02*
X83412380Y-114829200D01*
X83412380Y-114829200D02*
X83336190Y-114867295D01*
X83336190Y-114867295D02*
X83183809Y-114867295D01*
X83183809Y-114867295D02*
X83107618Y-114829200D01*
X83107618Y-114829200D02*
X83069523Y-114791104D01*
X83069523Y-114791104D02*
X83031428Y-114714914D01*
X83031428Y-114714914D02*
X83031428Y-114524438D01*
X83031428Y-114524438D02*
X83069523Y-114448247D01*
X83069523Y-114448247D02*
X83107618Y-114410152D01*
X83107618Y-114410152D02*
X83183809Y-114372057D01*
X83183809Y-114372057D02*
X83336190Y-114372057D01*
X83336190Y-114372057D02*
X83412380Y-114410152D01*
X83412380Y-114410152D02*
X83450475Y-114448247D01*
X83450475Y-114448247D02*
X83488571Y-114524438D01*
X84631428Y-101405390D02*
X84707618Y-101367295D01*
X84707618Y-101367295D02*
X84821904Y-101367295D01*
X84821904Y-101367295D02*
X84936190Y-101405390D01*
X84936190Y-101405390D02*
X85012380Y-101481580D01*
X85012380Y-101481580D02*
X85050475Y-101557771D01*
X85050475Y-101557771D02*
X85088571Y-101710152D01*
X85088571Y-101710152D02*
X85088571Y-101824438D01*
X85088571Y-101824438D02*
X85050475Y-101976819D01*
X85050475Y-101976819D02*
X85012380Y-102053009D01*
X85012380Y-102053009D02*
X84936190Y-102129200D01*
X84936190Y-102129200D02*
X84821904Y-102167295D01*
X84821904Y-102167295D02*
X84745713Y-102167295D01*
X84745713Y-102167295D02*
X84631428Y-102129200D01*
X84631428Y-102129200D02*
X84593332Y-102091104D01*
X84593332Y-102091104D02*
X84593332Y-101824438D01*
X84593332Y-101824438D02*
X84745713Y-101824438D01*
X84250475Y-102167295D02*
X84250475Y-101367295D01*
X84250475Y-101367295D02*
X83945713Y-101367295D01*
X83945713Y-101367295D02*
X83869523Y-101405390D01*
X83869523Y-101405390D02*
X83831428Y-101443485D01*
X83831428Y-101443485D02*
X83793332Y-101519676D01*
X83793332Y-101519676D02*
X83793332Y-101633961D01*
X83793332Y-101633961D02*
X83831428Y-101710152D01*
X83831428Y-101710152D02*
X83869523Y-101748247D01*
X83869523Y-101748247D02*
X83945713Y-101786342D01*
X83945713Y-101786342D02*
X84250475Y-101786342D01*
X83488571Y-101443485D02*
X83450475Y-101405390D01*
X83450475Y-101405390D02*
X83374285Y-101367295D01*
X83374285Y-101367295D02*
X83183809Y-101367295D01*
X83183809Y-101367295D02*
X83107618Y-101405390D01*
X83107618Y-101405390D02*
X83069523Y-101443485D01*
X83069523Y-101443485D02*
X83031428Y-101519676D01*
X83031428Y-101519676D02*
X83031428Y-101595866D01*
X83031428Y-101595866D02*
X83069523Y-101710152D01*
X83069523Y-101710152D02*
X83526666Y-102167295D01*
X83526666Y-102167295D02*
X83031428Y-102167295D01*
X96749523Y-98865390D02*
X96825713Y-98827295D01*
X96825713Y-98827295D02*
X96939999Y-98827295D01*
X96939999Y-98827295D02*
X97054285Y-98865390D01*
X97054285Y-98865390D02*
X97130475Y-98941580D01*
X97130475Y-98941580D02*
X97168570Y-99017771D01*
X97168570Y-99017771D02*
X97206666Y-99170152D01*
X97206666Y-99170152D02*
X97206666Y-99284438D01*
X97206666Y-99284438D02*
X97168570Y-99436819D01*
X97168570Y-99436819D02*
X97130475Y-99513009D01*
X97130475Y-99513009D02*
X97054285Y-99589200D01*
X97054285Y-99589200D02*
X96939999Y-99627295D01*
X96939999Y-99627295D02*
X96863808Y-99627295D01*
X96863808Y-99627295D02*
X96749523Y-99589200D01*
X96749523Y-99589200D02*
X96711427Y-99551104D01*
X96711427Y-99551104D02*
X96711427Y-99284438D01*
X96711427Y-99284438D02*
X96863808Y-99284438D01*
X96368570Y-99627295D02*
X96368570Y-98827295D01*
X96368570Y-98827295D02*
X95911427Y-99627295D01*
X95911427Y-99627295D02*
X95911427Y-98827295D01*
X95530475Y-99627295D02*
X95530475Y-98827295D01*
X95530475Y-98827295D02*
X95339999Y-98827295D01*
X95339999Y-98827295D02*
X95225713Y-98865390D01*
X95225713Y-98865390D02*
X95149523Y-98941580D01*
X95149523Y-98941580D02*
X95111428Y-99017771D01*
X95111428Y-99017771D02*
X95073332Y-99170152D01*
X95073332Y-99170152D02*
X95073332Y-99284438D01*
X95073332Y-99284438D02*
X95111428Y-99436819D01*
X95111428Y-99436819D02*
X95149523Y-99513009D01*
X95149523Y-99513009D02*
X95225713Y-99589200D01*
X95225713Y-99589200D02*
X95339999Y-99627295D01*
X95339999Y-99627295D02*
X95530475Y-99627295D01*
X97049523Y-112098723D02*
X96668570Y-112098723D01*
X97125713Y-112327295D02*
X96859046Y-111527295D01*
X96859046Y-111527295D02*
X96592380Y-112327295D01*
X95906666Y-111565390D02*
X95982856Y-111527295D01*
X95982856Y-111527295D02*
X96097142Y-111527295D01*
X96097142Y-111527295D02*
X96211428Y-111565390D01*
X96211428Y-111565390D02*
X96287618Y-111641580D01*
X96287618Y-111641580D02*
X96325713Y-111717771D01*
X96325713Y-111717771D02*
X96363809Y-111870152D01*
X96363809Y-111870152D02*
X96363809Y-111984438D01*
X96363809Y-111984438D02*
X96325713Y-112136819D01*
X96325713Y-112136819D02*
X96287618Y-112213009D01*
X96287618Y-112213009D02*
X96211428Y-112289200D01*
X96211428Y-112289200D02*
X96097142Y-112327295D01*
X96097142Y-112327295D02*
X96020951Y-112327295D01*
X96020951Y-112327295D02*
X95906666Y-112289200D01*
X95906666Y-112289200D02*
X95868570Y-112251104D01*
X95868570Y-112251104D02*
X95868570Y-111984438D01*
X95868570Y-111984438D02*
X96020951Y-111984438D01*
X95525713Y-112327295D02*
X95525713Y-111527295D01*
X95525713Y-111527295D02*
X95068570Y-112327295D01*
X95068570Y-112327295D02*
X95068570Y-111527295D01*
X94687618Y-112327295D02*
X94687618Y-111527295D01*
X94687618Y-111527295D02*
X94497142Y-111527295D01*
X94497142Y-111527295D02*
X94382856Y-111565390D01*
X94382856Y-111565390D02*
X94306666Y-111641580D01*
X94306666Y-111641580D02*
X94268571Y-111717771D01*
X94268571Y-111717771D02*
X94230475Y-111870152D01*
X94230475Y-111870152D02*
X94230475Y-111984438D01*
X94230475Y-111984438D02*
X94268571Y-112136819D01*
X94268571Y-112136819D02*
X94306666Y-112213009D01*
X94306666Y-112213009D02*
X94382856Y-112289200D01*
X94382856Y-112289200D02*
X94497142Y-112327295D01*
X94497142Y-112327295D02*
X94687618Y-112327295D01*
X84631428Y-116615390D02*
X84707618Y-116577295D01*
X84707618Y-116577295D02*
X84821904Y-116577295D01*
X84821904Y-116577295D02*
X84936190Y-116615390D01*
X84936190Y-116615390D02*
X85012380Y-116691580D01*
X85012380Y-116691580D02*
X85050475Y-116767771D01*
X85050475Y-116767771D02*
X85088571Y-116920152D01*
X85088571Y-116920152D02*
X85088571Y-117034438D01*
X85088571Y-117034438D02*
X85050475Y-117186819D01*
X85050475Y-117186819D02*
X85012380Y-117263009D01*
X85012380Y-117263009D02*
X84936190Y-117339200D01*
X84936190Y-117339200D02*
X84821904Y-117377295D01*
X84821904Y-117377295D02*
X84745713Y-117377295D01*
X84745713Y-117377295D02*
X84631428Y-117339200D01*
X84631428Y-117339200D02*
X84593332Y-117301104D01*
X84593332Y-117301104D02*
X84593332Y-117034438D01*
X84593332Y-117034438D02*
X84745713Y-117034438D01*
X84250475Y-117377295D02*
X84250475Y-116577295D01*
X84250475Y-116577295D02*
X83945713Y-116577295D01*
X83945713Y-116577295D02*
X83869523Y-116615390D01*
X83869523Y-116615390D02*
X83831428Y-116653485D01*
X83831428Y-116653485D02*
X83793332Y-116729676D01*
X83793332Y-116729676D02*
X83793332Y-116843961D01*
X83793332Y-116843961D02*
X83831428Y-116920152D01*
X83831428Y-116920152D02*
X83869523Y-116958247D01*
X83869523Y-116958247D02*
X83945713Y-116996342D01*
X83945713Y-116996342D02*
X84250475Y-116996342D01*
X83526666Y-116577295D02*
X82993332Y-116577295D01*
X82993332Y-116577295D02*
X83336190Y-117377295D01*
X97356666Y-93747295D02*
X97089999Y-94547295D01*
X97089999Y-94547295D02*
X96823333Y-93747295D01*
X96290000Y-94128247D02*
X96175714Y-94166342D01*
X96175714Y-94166342D02*
X96137619Y-94204438D01*
X96137619Y-94204438D02*
X96099523Y-94280628D01*
X96099523Y-94280628D02*
X96099523Y-94394914D01*
X96099523Y-94394914D02*
X96137619Y-94471104D01*
X96137619Y-94471104D02*
X96175714Y-94509200D01*
X96175714Y-94509200D02*
X96251904Y-94547295D01*
X96251904Y-94547295D02*
X96556666Y-94547295D01*
X96556666Y-94547295D02*
X96556666Y-93747295D01*
X96556666Y-93747295D02*
X96290000Y-93747295D01*
X96290000Y-93747295D02*
X96213809Y-93785390D01*
X96213809Y-93785390D02*
X96175714Y-93823485D01*
X96175714Y-93823485D02*
X96137619Y-93899676D01*
X96137619Y-93899676D02*
X96137619Y-93975866D01*
X96137619Y-93975866D02*
X96175714Y-94052057D01*
X96175714Y-94052057D02*
X96213809Y-94090152D01*
X96213809Y-94090152D02*
X96290000Y-94128247D01*
X96290000Y-94128247D02*
X96556666Y-94128247D01*
X95756666Y-93747295D02*
X95756666Y-94394914D01*
X95756666Y-94394914D02*
X95718571Y-94471104D01*
X95718571Y-94471104D02*
X95680476Y-94509200D01*
X95680476Y-94509200D02*
X95604285Y-94547295D01*
X95604285Y-94547295D02*
X95451904Y-94547295D01*
X95451904Y-94547295D02*
X95375714Y-94509200D01*
X95375714Y-94509200D02*
X95337619Y-94471104D01*
X95337619Y-94471104D02*
X95299523Y-94394914D01*
X95299523Y-94394914D02*
X95299523Y-93747295D01*
X94956667Y-94509200D02*
X94842381Y-94547295D01*
X94842381Y-94547295D02*
X94651905Y-94547295D01*
X94651905Y-94547295D02*
X94575714Y-94509200D01*
X94575714Y-94509200D02*
X94537619Y-94471104D01*
X94537619Y-94471104D02*
X94499524Y-94394914D01*
X94499524Y-94394914D02*
X94499524Y-94318723D01*
X94499524Y-94318723D02*
X94537619Y-94242533D01*
X94537619Y-94242533D02*
X94575714Y-94204438D01*
X94575714Y-94204438D02*
X94651905Y-94166342D01*
X94651905Y-94166342D02*
X94804286Y-94128247D01*
X94804286Y-94128247D02*
X94880476Y-94090152D01*
X94880476Y-94090152D02*
X94918571Y-94052057D01*
X94918571Y-94052057D02*
X94956667Y-93975866D01*
X94956667Y-93975866D02*
X94956667Y-93899676D01*
X94956667Y-93899676D02*
X94918571Y-93823485D01*
X94918571Y-93823485D02*
X94880476Y-93785390D01*
X94880476Y-93785390D02*
X94804286Y-93747295D01*
X94804286Y-93747295D02*
X94613809Y-93747295D01*
X94613809Y-93747295D02*
X94499524Y-93785390D01*
X89700390Y-138705476D02*
X89662295Y-138629286D01*
X89662295Y-138629286D02*
X89662295Y-138515000D01*
X89662295Y-138515000D02*
X89700390Y-138400714D01*
X89700390Y-138400714D02*
X89776580Y-138324524D01*
X89776580Y-138324524D02*
X89852771Y-138286429D01*
X89852771Y-138286429D02*
X90005152Y-138248333D01*
X90005152Y-138248333D02*
X90119438Y-138248333D01*
X90119438Y-138248333D02*
X90271819Y-138286429D01*
X90271819Y-138286429D02*
X90348009Y-138324524D01*
X90348009Y-138324524D02*
X90424200Y-138400714D01*
X90424200Y-138400714D02*
X90462295Y-138515000D01*
X90462295Y-138515000D02*
X90462295Y-138591191D01*
X90462295Y-138591191D02*
X90424200Y-138705476D01*
X90424200Y-138705476D02*
X90386104Y-138743572D01*
X90386104Y-138743572D02*
X90119438Y-138743572D01*
X90119438Y-138743572D02*
X90119438Y-138591191D01*
X90462295Y-139086429D02*
X89662295Y-139086429D01*
X89662295Y-139086429D02*
X90462295Y-139543572D01*
X90462295Y-139543572D02*
X89662295Y-139543572D01*
X90462295Y-139924524D02*
X89662295Y-139924524D01*
X89662295Y-139924524D02*
X89662295Y-140115000D01*
X89662295Y-140115000D02*
X89700390Y-140229286D01*
X89700390Y-140229286D02*
X89776580Y-140305476D01*
X89776580Y-140305476D02*
X89852771Y-140343571D01*
X89852771Y-140343571D02*
X90005152Y-140381667D01*
X90005152Y-140381667D02*
X90119438Y-140381667D01*
X90119438Y-140381667D02*
X90271819Y-140343571D01*
X90271819Y-140343571D02*
X90348009Y-140305476D01*
X90348009Y-140305476D02*
X90424200Y-140229286D01*
X90424200Y-140229286D02*
X90462295Y-140115000D01*
X90462295Y-140115000D02*
X90462295Y-139924524D01*
%TO.C,U1*%
X79600000Y-92815000D02*
X79600000Y-143815000D01*
X79600000Y-143815000D02*
X100600000Y-143815000D01*
X97593000Y-95482000D02*
X97593000Y-92815000D01*
X100600000Y-92815000D02*
X79600000Y-92815000D01*
X100600000Y-92815000D02*
X100600000Y-143815000D01*
X100600000Y-95482000D02*
X97593000Y-95482000D01*
%TD*%
%LPC*%
D11*
%TO.C,S9*%
X141660000Y-132175000D03*
D12*
X153260000Y-127715000D03*
X153260000Y-134235000D03*
%TD*%
D11*
%TO.C,S8*%
X125780000Y-132175000D03*
D12*
X137380000Y-127715000D03*
X137380000Y-134235000D03*
%TD*%
D11*
%TO.C,S1*%
X109900000Y-100415000D03*
D12*
X121500000Y-95955000D03*
X121500000Y-102475000D03*
%TD*%
D11*
%TO.C,S6*%
X141660000Y-116295000D03*
D12*
X153260000Y-111835000D03*
X153260000Y-118355000D03*
%TD*%
D11*
%TO.C,S3*%
X141660000Y-100415000D03*
D12*
X153260000Y-95955000D03*
X153260000Y-102475000D03*
%TD*%
D11*
%TO.C,S5*%
X125780000Y-116295000D03*
D12*
X137380000Y-111835000D03*
X137380000Y-118355000D03*
%TD*%
D11*
%TO.C,S4*%
X109900000Y-116295000D03*
D12*
X121500000Y-111835000D03*
X121500000Y-118355000D03*
%TD*%
D13*
%TO.C,U1*%
X81210000Y-94185000D03*
X81210000Y-96725000D03*
D14*
X81210000Y-99265000D03*
D13*
X81210000Y-101805000D03*
X81210000Y-104345000D03*
X81210000Y-106885000D03*
X81210000Y-109425000D03*
D14*
X81210000Y-111965000D03*
D13*
X81210000Y-114505000D03*
X81210000Y-117045000D03*
X81210000Y-119585000D03*
X81210000Y-122125000D03*
D14*
X81210000Y-124665000D03*
D13*
X81210000Y-127205000D03*
X81210000Y-129745000D03*
X81210000Y-132285000D03*
X81210000Y-134825000D03*
D14*
X81210000Y-137365000D03*
D13*
X81210000Y-139905000D03*
X81210000Y-142445000D03*
X98990000Y-142445000D03*
X98990000Y-139905000D03*
D14*
X98990000Y-137365000D03*
D13*
X98990000Y-134825000D03*
X98990000Y-132285000D03*
X98990000Y-129745000D03*
X98990000Y-127205000D03*
D14*
X98990000Y-124665000D03*
D13*
X98990000Y-122125000D03*
X98990000Y-119585000D03*
X98990000Y-117045000D03*
X98990000Y-114505000D03*
D14*
X98990000Y-111965000D03*
D13*
X98990000Y-109425000D03*
X98990000Y-106885000D03*
X98990000Y-104345000D03*
X98990000Y-101805000D03*
D14*
X98990000Y-99265000D03*
D13*
X98990000Y-96725000D03*
X98990000Y-94185000D03*
X87560000Y-142215000D03*
D14*
X90100000Y-142215000D03*
D13*
X92640000Y-142215000D03*
%TD*%
D11*
%TO.C,S7*%
X109900000Y-132175000D03*
D12*
X121500000Y-127715000D03*
X121500000Y-134235000D03*
%TD*%
D11*
%TO.C,S2*%
X125780000Y-100415000D03*
D12*
X137380000Y-95955000D03*
X137380000Y-102475000D03*
%TD*%
%LPD*%
M02*
