%TF.GenerationSoftware,KiCad,Pcbnew,8.0.7*%
%TF.CreationDate,2025-01-01T06:24:57-05:00*%
%TF.ProjectId,kicad_macropad,6b696361-645f-46d6-9163-726f7061642e,rev?*%
%TF.SameCoordinates,Original*%
%TF.FileFunction,Paste,Top*%
%TF.FilePolarity,Positive*%
%FSLAX46Y46*%
G04 Gerber Fmt 4.6, Leading zero omitted, Abs format (unit mm)*
G04 Created by KiCad (PCBNEW 8.0.7) date 2025-01-01 06:24:57*
%MOMM*%
%LPD*%
G01*
G04 APERTURE LIST*
G04 Aperture macros list*
%AMRoundRect*
0 Rectangle with rounded corners*
0 $1 Rounding radius*
0 $2 $3 $4 $5 $6 $7 $8 $9 X,Y pos of 4 corners*
0 Add a 4 corners polygon primitive as box body*
4,1,4,$2,$3,$4,$5,$6,$7,$8,$9,$2,$3,0*
0 Add four circle primitives for the rounded corners*
1,1,$1+$1,$2,$3*
1,1,$1+$1,$4,$5*
1,1,$1+$1,$6,$7*
1,1,$1+$1,$8,$9*
0 Add four rect primitives between the rounded corners*
20,1,$1+$1,$2,$3,$4,$5,0*
20,1,$1+$1,$4,$5,$6,$7,0*
20,1,$1+$1,$6,$7,$8,$9,0*
20,1,$1+$1,$8,$9,$2,$3,0*%
G04 Aperture macros list end*
%ADD10R,0.700000X3.400000*%
%ADD11R,1.600000X3.800000*%
%ADD12R,1.600000X3.000000*%
%ADD13R,1.600000X1.800000*%
%ADD14R,1.600000X2.600000*%
%ADD15RoundRect,0.150000X0.200000X-0.150000X0.200000X0.150000X-0.200000X0.150000X-0.200000X-0.150000X0*%
%ADD16RoundRect,0.150000X0.150000X0.200000X-0.150000X0.200000X-0.150000X-0.200000X0.150000X-0.200000X0*%
G04 APERTURE END LIST*
D10*
%TO.C,S9*%
X146810000Y-133275000D03*
X149260000Y-133275000D03*
D11*
X141260000Y-127075000D03*
D12*
X141260000Y-135475000D03*
D13*
X153660000Y-125950000D03*
D14*
X153660000Y-130975000D03*
D13*
X153660000Y-136000000D03*
%TD*%
D10*
%TO.C,S8*%
X130930000Y-133275000D03*
X133380000Y-133275000D03*
D11*
X125380000Y-127075000D03*
D12*
X125380000Y-135475000D03*
D13*
X137780000Y-125950000D03*
D14*
X137780000Y-130975000D03*
D13*
X137780000Y-136000000D03*
%TD*%
D15*
%TO.C,D1*%
X117050000Y-95575000D03*
X117050000Y-96975000D03*
%TD*%
D10*
%TO.C,S1*%
X115050000Y-101515000D03*
X117500000Y-101515000D03*
D11*
X109500000Y-95315000D03*
D12*
X109500000Y-103715000D03*
D13*
X121900000Y-94190000D03*
D14*
X121900000Y-99215000D03*
D13*
X121900000Y-104240000D03*
%TD*%
D16*
%TO.C,D7*%
X116100000Y-140315000D03*
X117500000Y-140315000D03*
%TD*%
D10*
%TO.C,S6*%
X146810000Y-117395000D03*
X149260000Y-117395000D03*
D11*
X141260000Y-111195000D03*
D12*
X141260000Y-119595000D03*
D13*
X153660000Y-110070000D03*
D14*
X153660000Y-115095000D03*
D13*
X153660000Y-120120000D03*
%TD*%
D16*
%TO.C,D9*%
X147900000Y-140315000D03*
X149300000Y-140315000D03*
%TD*%
D10*
%TO.C,S3*%
X146810000Y-101515000D03*
X149260000Y-101515000D03*
D11*
X141260000Y-95315000D03*
D12*
X141260000Y-103715000D03*
D13*
X153660000Y-94190000D03*
D14*
X153660000Y-99215000D03*
D13*
X153660000Y-104240000D03*
%TD*%
D16*
%TO.C,D4*%
X116150000Y-112015000D03*
X117550000Y-112015000D03*
%TD*%
%TO.C,D6*%
X148150000Y-112015000D03*
X149550000Y-112015000D03*
%TD*%
%TO.C,D8*%
X131900000Y-140315000D03*
X133300000Y-140315000D03*
%TD*%
%TO.C,D5*%
X132150000Y-112015000D03*
X133550000Y-112015000D03*
%TD*%
D10*
%TO.C,S5*%
X130930000Y-117395000D03*
X133380000Y-117395000D03*
D11*
X125380000Y-111195000D03*
D12*
X125380000Y-119595000D03*
D13*
X137780000Y-110070000D03*
D14*
X137780000Y-115095000D03*
D13*
X137780000Y-120120000D03*
%TD*%
D10*
%TO.C,S4*%
X115050000Y-117395000D03*
X117500000Y-117395000D03*
D11*
X109500000Y-111195000D03*
D12*
X109500000Y-119595000D03*
D13*
X121900000Y-110070000D03*
D14*
X121900000Y-115095000D03*
D13*
X121900000Y-120120000D03*
%TD*%
D10*
%TO.C,S7*%
X115050000Y-133275000D03*
X117500000Y-133275000D03*
D11*
X109500000Y-127075000D03*
D12*
X109500000Y-135475000D03*
D13*
X121900000Y-125950000D03*
D14*
X121900000Y-130975000D03*
D13*
X121900000Y-136000000D03*
%TD*%
D15*
%TO.C,D3*%
X148850000Y-95432500D03*
X148850000Y-96832500D03*
%TD*%
%TO.C,D2*%
X132930000Y-95485000D03*
X132930000Y-96885000D03*
%TD*%
D10*
%TO.C,S2*%
X130930000Y-101515000D03*
X133380000Y-101515000D03*
D11*
X125380000Y-95315000D03*
D12*
X125380000Y-103715000D03*
D13*
X137780000Y-94190000D03*
D14*
X137780000Y-99215000D03*
D13*
X137780000Y-104240000D03*
%TD*%
M02*
