%TF.GenerationSoftware,KiCad,Pcbnew,8.0.7*%
%TF.CreationDate,2025-01-01T06:24:57-05:00*%
%TF.ProjectId,kicad_macropad,6b696361-645f-46d6-9163-726f7061642e,rev?*%
%TF.SameCoordinates,Original*%
%TF.FileFunction,Legend,Top*%
%TF.FilePolarity,Positive*%
%FSLAX46Y46*%
G04 Gerber Fmt 4.6, Leading zero omitted, Abs format (unit mm)*
G04 Created by KiCad (PCBNEW 8.0.7) date 2025-01-01 06:24:57*
%MOMM*%
%LPD*%
G01*
G04 APERTURE LIST*
G04 Aperture macros list*
%AMRoundRect*
0 Rectangle with rounded corners*
0 $1 Rounding radius*
0 $2 $3 $4 $5 $6 $7 $8 $9 X,Y pos of 4 corners*
0 Add a 4 corners polygon primitive as box body*
4,1,4,$2,$3,$4,$5,$6,$7,$8,$9,$2,$3,0*
0 Add four circle primitives for the rounded corners*
1,1,$1+$1,$2,$3*
1,1,$1+$1,$4,$5*
1,1,$1+$1,$6,$7*
1,1,$1+$1,$8,$9*
0 Add four rect primitives between the rounded corners*
20,1,$1+$1,$2,$3,$4,$5,0*
20,1,$1+$1,$4,$5,$6,$7,0*
20,1,$1+$1,$6,$7,$8,$9,0*
20,1,$1+$1,$8,$9,$2,$3,0*%
G04 Aperture macros list end*
%ADD10C,0.150000*%
%ADD11C,0.100000*%
%ADD12C,0.120000*%
%ADD13C,1.050000*%
%ADD14C,1.200000*%
%ADD15R,0.700000X3.400000*%
%ADD16R,1.600000X3.800000*%
%ADD17R,1.600000X3.000000*%
%ADD18R,1.600000X1.800000*%
%ADD19R,1.600000X2.600000*%
%ADD20RoundRect,0.150000X0.200000X-0.150000X0.200000X0.150000X-0.200000X0.150000X-0.200000X-0.150000X0*%
%ADD21RoundRect,0.150000X0.150000X0.200000X-0.150000X0.200000X-0.150000X-0.200000X0.150000X-0.200000X0*%
%ADD22O,1.700000X1.700000*%
%ADD23R,3.500000X1.700000*%
%ADD24R,1.700000X1.700000*%
%ADD25R,1.700000X3.500000*%
G04 APERTURE END LIST*
D10*
X146648095Y-123882200D02*
X146790952Y-123929819D01*
X146790952Y-123929819D02*
X147029047Y-123929819D01*
X147029047Y-123929819D02*
X147124285Y-123882200D01*
X147124285Y-123882200D02*
X147171904Y-123834580D01*
X147171904Y-123834580D02*
X147219523Y-123739342D01*
X147219523Y-123739342D02*
X147219523Y-123644104D01*
X147219523Y-123644104D02*
X147171904Y-123548866D01*
X147171904Y-123548866D02*
X147124285Y-123501247D01*
X147124285Y-123501247D02*
X147029047Y-123453628D01*
X147029047Y-123453628D02*
X146838571Y-123406009D01*
X146838571Y-123406009D02*
X146743333Y-123358390D01*
X146743333Y-123358390D02*
X146695714Y-123310771D01*
X146695714Y-123310771D02*
X146648095Y-123215533D01*
X146648095Y-123215533D02*
X146648095Y-123120295D01*
X146648095Y-123120295D02*
X146695714Y-123025057D01*
X146695714Y-123025057D02*
X146743333Y-122977438D01*
X146743333Y-122977438D02*
X146838571Y-122929819D01*
X146838571Y-122929819D02*
X147076666Y-122929819D01*
X147076666Y-122929819D02*
X147219523Y-122977438D01*
X147695714Y-123929819D02*
X147886190Y-123929819D01*
X147886190Y-123929819D02*
X147981428Y-123882200D01*
X147981428Y-123882200D02*
X148029047Y-123834580D01*
X148029047Y-123834580D02*
X148124285Y-123691723D01*
X148124285Y-123691723D02*
X148171904Y-123501247D01*
X148171904Y-123501247D02*
X148171904Y-123120295D01*
X148171904Y-123120295D02*
X148124285Y-123025057D01*
X148124285Y-123025057D02*
X148076666Y-122977438D01*
X148076666Y-122977438D02*
X147981428Y-122929819D01*
X147981428Y-122929819D02*
X147790952Y-122929819D01*
X147790952Y-122929819D02*
X147695714Y-122977438D01*
X147695714Y-122977438D02*
X147648095Y-123025057D01*
X147648095Y-123025057D02*
X147600476Y-123120295D01*
X147600476Y-123120295D02*
X147600476Y-123358390D01*
X147600476Y-123358390D02*
X147648095Y-123453628D01*
X147648095Y-123453628D02*
X147695714Y-123501247D01*
X147695714Y-123501247D02*
X147790952Y-123548866D01*
X147790952Y-123548866D02*
X147981428Y-123548866D01*
X147981428Y-123548866D02*
X148076666Y-123501247D01*
X148076666Y-123501247D02*
X148124285Y-123453628D01*
X148124285Y-123453628D02*
X148171904Y-123358390D01*
X130768095Y-123882200D02*
X130910952Y-123929819D01*
X130910952Y-123929819D02*
X131149047Y-123929819D01*
X131149047Y-123929819D02*
X131244285Y-123882200D01*
X131244285Y-123882200D02*
X131291904Y-123834580D01*
X131291904Y-123834580D02*
X131339523Y-123739342D01*
X131339523Y-123739342D02*
X131339523Y-123644104D01*
X131339523Y-123644104D02*
X131291904Y-123548866D01*
X131291904Y-123548866D02*
X131244285Y-123501247D01*
X131244285Y-123501247D02*
X131149047Y-123453628D01*
X131149047Y-123453628D02*
X130958571Y-123406009D01*
X130958571Y-123406009D02*
X130863333Y-123358390D01*
X130863333Y-123358390D02*
X130815714Y-123310771D01*
X130815714Y-123310771D02*
X130768095Y-123215533D01*
X130768095Y-123215533D02*
X130768095Y-123120295D01*
X130768095Y-123120295D02*
X130815714Y-123025057D01*
X130815714Y-123025057D02*
X130863333Y-122977438D01*
X130863333Y-122977438D02*
X130958571Y-122929819D01*
X130958571Y-122929819D02*
X131196666Y-122929819D01*
X131196666Y-122929819D02*
X131339523Y-122977438D01*
X131910952Y-123358390D02*
X131815714Y-123310771D01*
X131815714Y-123310771D02*
X131768095Y-123263152D01*
X131768095Y-123263152D02*
X131720476Y-123167914D01*
X131720476Y-123167914D02*
X131720476Y-123120295D01*
X131720476Y-123120295D02*
X131768095Y-123025057D01*
X131768095Y-123025057D02*
X131815714Y-122977438D01*
X131815714Y-122977438D02*
X131910952Y-122929819D01*
X131910952Y-122929819D02*
X132101428Y-122929819D01*
X132101428Y-122929819D02*
X132196666Y-122977438D01*
X132196666Y-122977438D02*
X132244285Y-123025057D01*
X132244285Y-123025057D02*
X132291904Y-123120295D01*
X132291904Y-123120295D02*
X132291904Y-123167914D01*
X132291904Y-123167914D02*
X132244285Y-123263152D01*
X132244285Y-123263152D02*
X132196666Y-123310771D01*
X132196666Y-123310771D02*
X132101428Y-123358390D01*
X132101428Y-123358390D02*
X131910952Y-123358390D01*
X131910952Y-123358390D02*
X131815714Y-123406009D01*
X131815714Y-123406009D02*
X131768095Y-123453628D01*
X131768095Y-123453628D02*
X131720476Y-123548866D01*
X131720476Y-123548866D02*
X131720476Y-123739342D01*
X131720476Y-123739342D02*
X131768095Y-123834580D01*
X131768095Y-123834580D02*
X131815714Y-123882200D01*
X131815714Y-123882200D02*
X131910952Y-123929819D01*
X131910952Y-123929819D02*
X132101428Y-123929819D01*
X132101428Y-123929819D02*
X132196666Y-123882200D01*
X132196666Y-123882200D02*
X132244285Y-123834580D01*
X132244285Y-123834580D02*
X132291904Y-123739342D01*
X132291904Y-123739342D02*
X132291904Y-123548866D01*
X132291904Y-123548866D02*
X132244285Y-123453628D01*
X132244285Y-123453628D02*
X132196666Y-123406009D01*
X132196666Y-123406009D02*
X132101428Y-123358390D01*
X118804819Y-97013094D02*
X117804819Y-97013094D01*
X117804819Y-97013094D02*
X117804819Y-96774999D01*
X117804819Y-96774999D02*
X117852438Y-96632142D01*
X117852438Y-96632142D02*
X117947676Y-96536904D01*
X117947676Y-96536904D02*
X118042914Y-96489285D01*
X118042914Y-96489285D02*
X118233390Y-96441666D01*
X118233390Y-96441666D02*
X118376247Y-96441666D01*
X118376247Y-96441666D02*
X118566723Y-96489285D01*
X118566723Y-96489285D02*
X118661961Y-96536904D01*
X118661961Y-96536904D02*
X118757200Y-96632142D01*
X118757200Y-96632142D02*
X118804819Y-96774999D01*
X118804819Y-96774999D02*
X118804819Y-97013094D01*
X118804819Y-95489285D02*
X118804819Y-96060713D01*
X118804819Y-95774999D02*
X117804819Y-95774999D01*
X117804819Y-95774999D02*
X117947676Y-95870237D01*
X117947676Y-95870237D02*
X118042914Y-95965475D01*
X118042914Y-95965475D02*
X118090533Y-96060713D01*
X114888095Y-92122200D02*
X115030952Y-92169819D01*
X115030952Y-92169819D02*
X115269047Y-92169819D01*
X115269047Y-92169819D02*
X115364285Y-92122200D01*
X115364285Y-92122200D02*
X115411904Y-92074580D01*
X115411904Y-92074580D02*
X115459523Y-91979342D01*
X115459523Y-91979342D02*
X115459523Y-91884104D01*
X115459523Y-91884104D02*
X115411904Y-91788866D01*
X115411904Y-91788866D02*
X115364285Y-91741247D01*
X115364285Y-91741247D02*
X115269047Y-91693628D01*
X115269047Y-91693628D02*
X115078571Y-91646009D01*
X115078571Y-91646009D02*
X114983333Y-91598390D01*
X114983333Y-91598390D02*
X114935714Y-91550771D01*
X114935714Y-91550771D02*
X114888095Y-91455533D01*
X114888095Y-91455533D02*
X114888095Y-91360295D01*
X114888095Y-91360295D02*
X114935714Y-91265057D01*
X114935714Y-91265057D02*
X114983333Y-91217438D01*
X114983333Y-91217438D02*
X115078571Y-91169819D01*
X115078571Y-91169819D02*
X115316666Y-91169819D01*
X115316666Y-91169819D02*
X115459523Y-91217438D01*
X116411904Y-92169819D02*
X115840476Y-92169819D01*
X116126190Y-92169819D02*
X116126190Y-91169819D01*
X116126190Y-91169819D02*
X116030952Y-91312676D01*
X116030952Y-91312676D02*
X115935714Y-91407914D01*
X115935714Y-91407914D02*
X115840476Y-91455533D01*
X116061905Y-139469819D02*
X116061905Y-138469819D01*
X116061905Y-138469819D02*
X116300000Y-138469819D01*
X116300000Y-138469819D02*
X116442857Y-138517438D01*
X116442857Y-138517438D02*
X116538095Y-138612676D01*
X116538095Y-138612676D02*
X116585714Y-138707914D01*
X116585714Y-138707914D02*
X116633333Y-138898390D01*
X116633333Y-138898390D02*
X116633333Y-139041247D01*
X116633333Y-139041247D02*
X116585714Y-139231723D01*
X116585714Y-139231723D02*
X116538095Y-139326961D01*
X116538095Y-139326961D02*
X116442857Y-139422200D01*
X116442857Y-139422200D02*
X116300000Y-139469819D01*
X116300000Y-139469819D02*
X116061905Y-139469819D01*
X116966667Y-138469819D02*
X117633333Y-138469819D01*
X117633333Y-138469819D02*
X117204762Y-139469819D01*
X146648095Y-108002200D02*
X146790952Y-108049819D01*
X146790952Y-108049819D02*
X147029047Y-108049819D01*
X147029047Y-108049819D02*
X147124285Y-108002200D01*
X147124285Y-108002200D02*
X147171904Y-107954580D01*
X147171904Y-107954580D02*
X147219523Y-107859342D01*
X147219523Y-107859342D02*
X147219523Y-107764104D01*
X147219523Y-107764104D02*
X147171904Y-107668866D01*
X147171904Y-107668866D02*
X147124285Y-107621247D01*
X147124285Y-107621247D02*
X147029047Y-107573628D01*
X147029047Y-107573628D02*
X146838571Y-107526009D01*
X146838571Y-107526009D02*
X146743333Y-107478390D01*
X146743333Y-107478390D02*
X146695714Y-107430771D01*
X146695714Y-107430771D02*
X146648095Y-107335533D01*
X146648095Y-107335533D02*
X146648095Y-107240295D01*
X146648095Y-107240295D02*
X146695714Y-107145057D01*
X146695714Y-107145057D02*
X146743333Y-107097438D01*
X146743333Y-107097438D02*
X146838571Y-107049819D01*
X146838571Y-107049819D02*
X147076666Y-107049819D01*
X147076666Y-107049819D02*
X147219523Y-107097438D01*
X148076666Y-107049819D02*
X147886190Y-107049819D01*
X147886190Y-107049819D02*
X147790952Y-107097438D01*
X147790952Y-107097438D02*
X147743333Y-107145057D01*
X147743333Y-107145057D02*
X147648095Y-107287914D01*
X147648095Y-107287914D02*
X147600476Y-107478390D01*
X147600476Y-107478390D02*
X147600476Y-107859342D01*
X147600476Y-107859342D02*
X147648095Y-107954580D01*
X147648095Y-107954580D02*
X147695714Y-108002200D01*
X147695714Y-108002200D02*
X147790952Y-108049819D01*
X147790952Y-108049819D02*
X147981428Y-108049819D01*
X147981428Y-108049819D02*
X148076666Y-108002200D01*
X148076666Y-108002200D02*
X148124285Y-107954580D01*
X148124285Y-107954580D02*
X148171904Y-107859342D01*
X148171904Y-107859342D02*
X148171904Y-107621247D01*
X148171904Y-107621247D02*
X148124285Y-107526009D01*
X148124285Y-107526009D02*
X148076666Y-107478390D01*
X148076666Y-107478390D02*
X147981428Y-107430771D01*
X147981428Y-107430771D02*
X147790952Y-107430771D01*
X147790952Y-107430771D02*
X147695714Y-107478390D01*
X147695714Y-107478390D02*
X147648095Y-107526009D01*
X147648095Y-107526009D02*
X147600476Y-107621247D01*
X147861905Y-139469819D02*
X147861905Y-138469819D01*
X147861905Y-138469819D02*
X148100000Y-138469819D01*
X148100000Y-138469819D02*
X148242857Y-138517438D01*
X148242857Y-138517438D02*
X148338095Y-138612676D01*
X148338095Y-138612676D02*
X148385714Y-138707914D01*
X148385714Y-138707914D02*
X148433333Y-138898390D01*
X148433333Y-138898390D02*
X148433333Y-139041247D01*
X148433333Y-139041247D02*
X148385714Y-139231723D01*
X148385714Y-139231723D02*
X148338095Y-139326961D01*
X148338095Y-139326961D02*
X148242857Y-139422200D01*
X148242857Y-139422200D02*
X148100000Y-139469819D01*
X148100000Y-139469819D02*
X147861905Y-139469819D01*
X148909524Y-139469819D02*
X149100000Y-139469819D01*
X149100000Y-139469819D02*
X149195238Y-139422200D01*
X149195238Y-139422200D02*
X149242857Y-139374580D01*
X149242857Y-139374580D02*
X149338095Y-139231723D01*
X149338095Y-139231723D02*
X149385714Y-139041247D01*
X149385714Y-139041247D02*
X149385714Y-138660295D01*
X149385714Y-138660295D02*
X149338095Y-138565057D01*
X149338095Y-138565057D02*
X149290476Y-138517438D01*
X149290476Y-138517438D02*
X149195238Y-138469819D01*
X149195238Y-138469819D02*
X149004762Y-138469819D01*
X149004762Y-138469819D02*
X148909524Y-138517438D01*
X148909524Y-138517438D02*
X148861905Y-138565057D01*
X148861905Y-138565057D02*
X148814286Y-138660295D01*
X148814286Y-138660295D02*
X148814286Y-138898390D01*
X148814286Y-138898390D02*
X148861905Y-138993628D01*
X148861905Y-138993628D02*
X148909524Y-139041247D01*
X148909524Y-139041247D02*
X149004762Y-139088866D01*
X149004762Y-139088866D02*
X149195238Y-139088866D01*
X149195238Y-139088866D02*
X149290476Y-139041247D01*
X149290476Y-139041247D02*
X149338095Y-138993628D01*
X149338095Y-138993628D02*
X149385714Y-138898390D01*
X146648095Y-92122200D02*
X146790952Y-92169819D01*
X146790952Y-92169819D02*
X147029047Y-92169819D01*
X147029047Y-92169819D02*
X147124285Y-92122200D01*
X147124285Y-92122200D02*
X147171904Y-92074580D01*
X147171904Y-92074580D02*
X147219523Y-91979342D01*
X147219523Y-91979342D02*
X147219523Y-91884104D01*
X147219523Y-91884104D02*
X147171904Y-91788866D01*
X147171904Y-91788866D02*
X147124285Y-91741247D01*
X147124285Y-91741247D02*
X147029047Y-91693628D01*
X147029047Y-91693628D02*
X146838571Y-91646009D01*
X146838571Y-91646009D02*
X146743333Y-91598390D01*
X146743333Y-91598390D02*
X146695714Y-91550771D01*
X146695714Y-91550771D02*
X146648095Y-91455533D01*
X146648095Y-91455533D02*
X146648095Y-91360295D01*
X146648095Y-91360295D02*
X146695714Y-91265057D01*
X146695714Y-91265057D02*
X146743333Y-91217438D01*
X146743333Y-91217438D02*
X146838571Y-91169819D01*
X146838571Y-91169819D02*
X147076666Y-91169819D01*
X147076666Y-91169819D02*
X147219523Y-91217438D01*
X147552857Y-91169819D02*
X148171904Y-91169819D01*
X148171904Y-91169819D02*
X147838571Y-91550771D01*
X147838571Y-91550771D02*
X147981428Y-91550771D01*
X147981428Y-91550771D02*
X148076666Y-91598390D01*
X148076666Y-91598390D02*
X148124285Y-91646009D01*
X148124285Y-91646009D02*
X148171904Y-91741247D01*
X148171904Y-91741247D02*
X148171904Y-91979342D01*
X148171904Y-91979342D02*
X148124285Y-92074580D01*
X148124285Y-92074580D02*
X148076666Y-92122200D01*
X148076666Y-92122200D02*
X147981428Y-92169819D01*
X147981428Y-92169819D02*
X147695714Y-92169819D01*
X147695714Y-92169819D02*
X147600476Y-92122200D01*
X147600476Y-92122200D02*
X147552857Y-92074580D01*
X116111905Y-111169819D02*
X116111905Y-110169819D01*
X116111905Y-110169819D02*
X116350000Y-110169819D01*
X116350000Y-110169819D02*
X116492857Y-110217438D01*
X116492857Y-110217438D02*
X116588095Y-110312676D01*
X116588095Y-110312676D02*
X116635714Y-110407914D01*
X116635714Y-110407914D02*
X116683333Y-110598390D01*
X116683333Y-110598390D02*
X116683333Y-110741247D01*
X116683333Y-110741247D02*
X116635714Y-110931723D01*
X116635714Y-110931723D02*
X116588095Y-111026961D01*
X116588095Y-111026961D02*
X116492857Y-111122200D01*
X116492857Y-111122200D02*
X116350000Y-111169819D01*
X116350000Y-111169819D02*
X116111905Y-111169819D01*
X117540476Y-110503152D02*
X117540476Y-111169819D01*
X117302381Y-110122200D02*
X117064286Y-110836485D01*
X117064286Y-110836485D02*
X117683333Y-110836485D01*
X148111905Y-111169819D02*
X148111905Y-110169819D01*
X148111905Y-110169819D02*
X148350000Y-110169819D01*
X148350000Y-110169819D02*
X148492857Y-110217438D01*
X148492857Y-110217438D02*
X148588095Y-110312676D01*
X148588095Y-110312676D02*
X148635714Y-110407914D01*
X148635714Y-110407914D02*
X148683333Y-110598390D01*
X148683333Y-110598390D02*
X148683333Y-110741247D01*
X148683333Y-110741247D02*
X148635714Y-110931723D01*
X148635714Y-110931723D02*
X148588095Y-111026961D01*
X148588095Y-111026961D02*
X148492857Y-111122200D01*
X148492857Y-111122200D02*
X148350000Y-111169819D01*
X148350000Y-111169819D02*
X148111905Y-111169819D01*
X149540476Y-110169819D02*
X149350000Y-110169819D01*
X149350000Y-110169819D02*
X149254762Y-110217438D01*
X149254762Y-110217438D02*
X149207143Y-110265057D01*
X149207143Y-110265057D02*
X149111905Y-110407914D01*
X149111905Y-110407914D02*
X149064286Y-110598390D01*
X149064286Y-110598390D02*
X149064286Y-110979342D01*
X149064286Y-110979342D02*
X149111905Y-111074580D01*
X149111905Y-111074580D02*
X149159524Y-111122200D01*
X149159524Y-111122200D02*
X149254762Y-111169819D01*
X149254762Y-111169819D02*
X149445238Y-111169819D01*
X149445238Y-111169819D02*
X149540476Y-111122200D01*
X149540476Y-111122200D02*
X149588095Y-111074580D01*
X149588095Y-111074580D02*
X149635714Y-110979342D01*
X149635714Y-110979342D02*
X149635714Y-110741247D01*
X149635714Y-110741247D02*
X149588095Y-110646009D01*
X149588095Y-110646009D02*
X149540476Y-110598390D01*
X149540476Y-110598390D02*
X149445238Y-110550771D01*
X149445238Y-110550771D02*
X149254762Y-110550771D01*
X149254762Y-110550771D02*
X149159524Y-110598390D01*
X149159524Y-110598390D02*
X149111905Y-110646009D01*
X149111905Y-110646009D02*
X149064286Y-110741247D01*
X131861905Y-139469819D02*
X131861905Y-138469819D01*
X131861905Y-138469819D02*
X132100000Y-138469819D01*
X132100000Y-138469819D02*
X132242857Y-138517438D01*
X132242857Y-138517438D02*
X132338095Y-138612676D01*
X132338095Y-138612676D02*
X132385714Y-138707914D01*
X132385714Y-138707914D02*
X132433333Y-138898390D01*
X132433333Y-138898390D02*
X132433333Y-139041247D01*
X132433333Y-139041247D02*
X132385714Y-139231723D01*
X132385714Y-139231723D02*
X132338095Y-139326961D01*
X132338095Y-139326961D02*
X132242857Y-139422200D01*
X132242857Y-139422200D02*
X132100000Y-139469819D01*
X132100000Y-139469819D02*
X131861905Y-139469819D01*
X133004762Y-138898390D02*
X132909524Y-138850771D01*
X132909524Y-138850771D02*
X132861905Y-138803152D01*
X132861905Y-138803152D02*
X132814286Y-138707914D01*
X132814286Y-138707914D02*
X132814286Y-138660295D01*
X132814286Y-138660295D02*
X132861905Y-138565057D01*
X132861905Y-138565057D02*
X132909524Y-138517438D01*
X132909524Y-138517438D02*
X133004762Y-138469819D01*
X133004762Y-138469819D02*
X133195238Y-138469819D01*
X133195238Y-138469819D02*
X133290476Y-138517438D01*
X133290476Y-138517438D02*
X133338095Y-138565057D01*
X133338095Y-138565057D02*
X133385714Y-138660295D01*
X133385714Y-138660295D02*
X133385714Y-138707914D01*
X133385714Y-138707914D02*
X133338095Y-138803152D01*
X133338095Y-138803152D02*
X133290476Y-138850771D01*
X133290476Y-138850771D02*
X133195238Y-138898390D01*
X133195238Y-138898390D02*
X133004762Y-138898390D01*
X133004762Y-138898390D02*
X132909524Y-138946009D01*
X132909524Y-138946009D02*
X132861905Y-138993628D01*
X132861905Y-138993628D02*
X132814286Y-139088866D01*
X132814286Y-139088866D02*
X132814286Y-139279342D01*
X132814286Y-139279342D02*
X132861905Y-139374580D01*
X132861905Y-139374580D02*
X132909524Y-139422200D01*
X132909524Y-139422200D02*
X133004762Y-139469819D01*
X133004762Y-139469819D02*
X133195238Y-139469819D01*
X133195238Y-139469819D02*
X133290476Y-139422200D01*
X133290476Y-139422200D02*
X133338095Y-139374580D01*
X133338095Y-139374580D02*
X133385714Y-139279342D01*
X133385714Y-139279342D02*
X133385714Y-139088866D01*
X133385714Y-139088866D02*
X133338095Y-138993628D01*
X133338095Y-138993628D02*
X133290476Y-138946009D01*
X133290476Y-138946009D02*
X133195238Y-138898390D01*
X132111905Y-111169819D02*
X132111905Y-110169819D01*
X132111905Y-110169819D02*
X132350000Y-110169819D01*
X132350000Y-110169819D02*
X132492857Y-110217438D01*
X132492857Y-110217438D02*
X132588095Y-110312676D01*
X132588095Y-110312676D02*
X132635714Y-110407914D01*
X132635714Y-110407914D02*
X132683333Y-110598390D01*
X132683333Y-110598390D02*
X132683333Y-110741247D01*
X132683333Y-110741247D02*
X132635714Y-110931723D01*
X132635714Y-110931723D02*
X132588095Y-111026961D01*
X132588095Y-111026961D02*
X132492857Y-111122200D01*
X132492857Y-111122200D02*
X132350000Y-111169819D01*
X132350000Y-111169819D02*
X132111905Y-111169819D01*
X133588095Y-110169819D02*
X133111905Y-110169819D01*
X133111905Y-110169819D02*
X133064286Y-110646009D01*
X133064286Y-110646009D02*
X133111905Y-110598390D01*
X133111905Y-110598390D02*
X133207143Y-110550771D01*
X133207143Y-110550771D02*
X133445238Y-110550771D01*
X133445238Y-110550771D02*
X133540476Y-110598390D01*
X133540476Y-110598390D02*
X133588095Y-110646009D01*
X133588095Y-110646009D02*
X133635714Y-110741247D01*
X133635714Y-110741247D02*
X133635714Y-110979342D01*
X133635714Y-110979342D02*
X133588095Y-111074580D01*
X133588095Y-111074580D02*
X133540476Y-111122200D01*
X133540476Y-111122200D02*
X133445238Y-111169819D01*
X133445238Y-111169819D02*
X133207143Y-111169819D01*
X133207143Y-111169819D02*
X133111905Y-111122200D01*
X133111905Y-111122200D02*
X133064286Y-111074580D01*
X130768095Y-108002200D02*
X130910952Y-108049819D01*
X130910952Y-108049819D02*
X131149047Y-108049819D01*
X131149047Y-108049819D02*
X131244285Y-108002200D01*
X131244285Y-108002200D02*
X131291904Y-107954580D01*
X131291904Y-107954580D02*
X131339523Y-107859342D01*
X131339523Y-107859342D02*
X131339523Y-107764104D01*
X131339523Y-107764104D02*
X131291904Y-107668866D01*
X131291904Y-107668866D02*
X131244285Y-107621247D01*
X131244285Y-107621247D02*
X131149047Y-107573628D01*
X131149047Y-107573628D02*
X130958571Y-107526009D01*
X130958571Y-107526009D02*
X130863333Y-107478390D01*
X130863333Y-107478390D02*
X130815714Y-107430771D01*
X130815714Y-107430771D02*
X130768095Y-107335533D01*
X130768095Y-107335533D02*
X130768095Y-107240295D01*
X130768095Y-107240295D02*
X130815714Y-107145057D01*
X130815714Y-107145057D02*
X130863333Y-107097438D01*
X130863333Y-107097438D02*
X130958571Y-107049819D01*
X130958571Y-107049819D02*
X131196666Y-107049819D01*
X131196666Y-107049819D02*
X131339523Y-107097438D01*
X132244285Y-107049819D02*
X131768095Y-107049819D01*
X131768095Y-107049819D02*
X131720476Y-107526009D01*
X131720476Y-107526009D02*
X131768095Y-107478390D01*
X131768095Y-107478390D02*
X131863333Y-107430771D01*
X131863333Y-107430771D02*
X132101428Y-107430771D01*
X132101428Y-107430771D02*
X132196666Y-107478390D01*
X132196666Y-107478390D02*
X132244285Y-107526009D01*
X132244285Y-107526009D02*
X132291904Y-107621247D01*
X132291904Y-107621247D02*
X132291904Y-107859342D01*
X132291904Y-107859342D02*
X132244285Y-107954580D01*
X132244285Y-107954580D02*
X132196666Y-108002200D01*
X132196666Y-108002200D02*
X132101428Y-108049819D01*
X132101428Y-108049819D02*
X131863333Y-108049819D01*
X131863333Y-108049819D02*
X131768095Y-108002200D01*
X131768095Y-108002200D02*
X131720476Y-107954580D01*
X114888095Y-108002200D02*
X115030952Y-108049819D01*
X115030952Y-108049819D02*
X115269047Y-108049819D01*
X115269047Y-108049819D02*
X115364285Y-108002200D01*
X115364285Y-108002200D02*
X115411904Y-107954580D01*
X115411904Y-107954580D02*
X115459523Y-107859342D01*
X115459523Y-107859342D02*
X115459523Y-107764104D01*
X115459523Y-107764104D02*
X115411904Y-107668866D01*
X115411904Y-107668866D02*
X115364285Y-107621247D01*
X115364285Y-107621247D02*
X115269047Y-107573628D01*
X115269047Y-107573628D02*
X115078571Y-107526009D01*
X115078571Y-107526009D02*
X114983333Y-107478390D01*
X114983333Y-107478390D02*
X114935714Y-107430771D01*
X114935714Y-107430771D02*
X114888095Y-107335533D01*
X114888095Y-107335533D02*
X114888095Y-107240295D01*
X114888095Y-107240295D02*
X114935714Y-107145057D01*
X114935714Y-107145057D02*
X114983333Y-107097438D01*
X114983333Y-107097438D02*
X115078571Y-107049819D01*
X115078571Y-107049819D02*
X115316666Y-107049819D01*
X115316666Y-107049819D02*
X115459523Y-107097438D01*
X116316666Y-107383152D02*
X116316666Y-108049819D01*
X116078571Y-107002200D02*
X115840476Y-107716485D01*
X115840476Y-107716485D02*
X116459523Y-107716485D01*
X95530476Y-98865390D02*
X95454286Y-98827295D01*
X95454286Y-98827295D02*
X95340000Y-98827295D01*
X95340000Y-98827295D02*
X95225714Y-98865390D01*
X95225714Y-98865390D02*
X95149524Y-98941580D01*
X95149524Y-98941580D02*
X95111429Y-99017771D01*
X95111429Y-99017771D02*
X95073333Y-99170152D01*
X95073333Y-99170152D02*
X95073333Y-99284438D01*
X95073333Y-99284438D02*
X95111429Y-99436819D01*
X95111429Y-99436819D02*
X95149524Y-99513009D01*
X95149524Y-99513009D02*
X95225714Y-99589200D01*
X95225714Y-99589200D02*
X95340000Y-99627295D01*
X95340000Y-99627295D02*
X95416191Y-99627295D01*
X95416191Y-99627295D02*
X95530476Y-99589200D01*
X95530476Y-99589200D02*
X95568572Y-99551104D01*
X95568572Y-99551104D02*
X95568572Y-99284438D01*
X95568572Y-99284438D02*
X95416191Y-99284438D01*
X95911429Y-99627295D02*
X95911429Y-98827295D01*
X95911429Y-98827295D02*
X96368572Y-99627295D01*
X96368572Y-99627295D02*
X96368572Y-98827295D01*
X96749524Y-99627295D02*
X96749524Y-98827295D01*
X96749524Y-98827295D02*
X96940000Y-98827295D01*
X96940000Y-98827295D02*
X97054286Y-98865390D01*
X97054286Y-98865390D02*
X97130476Y-98941580D01*
X97130476Y-98941580D02*
X97168571Y-99017771D01*
X97168571Y-99017771D02*
X97206667Y-99170152D01*
X97206667Y-99170152D02*
X97206667Y-99284438D01*
X97206667Y-99284438D02*
X97168571Y-99436819D01*
X97168571Y-99436819D02*
X97130476Y-99513009D01*
X97130476Y-99513009D02*
X97054286Y-99589200D01*
X97054286Y-99589200D02*
X96940000Y-99627295D01*
X96940000Y-99627295D02*
X96749524Y-99627295D01*
X83488571Y-114105390D02*
X83412381Y-114067295D01*
X83412381Y-114067295D02*
X83298095Y-114067295D01*
X83298095Y-114067295D02*
X83183809Y-114105390D01*
X83183809Y-114105390D02*
X83107619Y-114181580D01*
X83107619Y-114181580D02*
X83069524Y-114257771D01*
X83069524Y-114257771D02*
X83031428Y-114410152D01*
X83031428Y-114410152D02*
X83031428Y-114524438D01*
X83031428Y-114524438D02*
X83069524Y-114676819D01*
X83069524Y-114676819D02*
X83107619Y-114753009D01*
X83107619Y-114753009D02*
X83183809Y-114829200D01*
X83183809Y-114829200D02*
X83298095Y-114867295D01*
X83298095Y-114867295D02*
X83374286Y-114867295D01*
X83374286Y-114867295D02*
X83488571Y-114829200D01*
X83488571Y-114829200D02*
X83526667Y-114791104D01*
X83526667Y-114791104D02*
X83526667Y-114524438D01*
X83526667Y-114524438D02*
X83374286Y-114524438D01*
X83869524Y-114867295D02*
X83869524Y-114067295D01*
X83869524Y-114067295D02*
X84174286Y-114067295D01*
X84174286Y-114067295D02*
X84250476Y-114105390D01*
X84250476Y-114105390D02*
X84288571Y-114143485D01*
X84288571Y-114143485D02*
X84326667Y-114219676D01*
X84326667Y-114219676D02*
X84326667Y-114333961D01*
X84326667Y-114333961D02*
X84288571Y-114410152D01*
X84288571Y-114410152D02*
X84250476Y-114448247D01*
X84250476Y-114448247D02*
X84174286Y-114486342D01*
X84174286Y-114486342D02*
X83869524Y-114486342D01*
X85012381Y-114067295D02*
X84860000Y-114067295D01*
X84860000Y-114067295D02*
X84783809Y-114105390D01*
X84783809Y-114105390D02*
X84745714Y-114143485D01*
X84745714Y-114143485D02*
X84669524Y-114257771D01*
X84669524Y-114257771D02*
X84631428Y-114410152D01*
X84631428Y-114410152D02*
X84631428Y-114714914D01*
X84631428Y-114714914D02*
X84669524Y-114791104D01*
X84669524Y-114791104D02*
X84707619Y-114829200D01*
X84707619Y-114829200D02*
X84783809Y-114867295D01*
X84783809Y-114867295D02*
X84936190Y-114867295D01*
X84936190Y-114867295D02*
X85012381Y-114829200D01*
X85012381Y-114829200D02*
X85050476Y-114791104D01*
X85050476Y-114791104D02*
X85088571Y-114714914D01*
X85088571Y-114714914D02*
X85088571Y-114524438D01*
X85088571Y-114524438D02*
X85050476Y-114448247D01*
X85050476Y-114448247D02*
X85012381Y-114410152D01*
X85012381Y-114410152D02*
X84936190Y-114372057D01*
X84936190Y-114372057D02*
X84783809Y-114372057D01*
X84783809Y-114372057D02*
X84707619Y-114410152D01*
X84707619Y-114410152D02*
X84669524Y-114448247D01*
X84669524Y-114448247D02*
X84631428Y-114524438D01*
X94687618Y-121725390D02*
X94611428Y-121687295D01*
X94611428Y-121687295D02*
X94497142Y-121687295D01*
X94497142Y-121687295D02*
X94382856Y-121725390D01*
X94382856Y-121725390D02*
X94306666Y-121801580D01*
X94306666Y-121801580D02*
X94268571Y-121877771D01*
X94268571Y-121877771D02*
X94230475Y-122030152D01*
X94230475Y-122030152D02*
X94230475Y-122144438D01*
X94230475Y-122144438D02*
X94268571Y-122296819D01*
X94268571Y-122296819D02*
X94306666Y-122373009D01*
X94306666Y-122373009D02*
X94382856Y-122449200D01*
X94382856Y-122449200D02*
X94497142Y-122487295D01*
X94497142Y-122487295D02*
X94573333Y-122487295D01*
X94573333Y-122487295D02*
X94687618Y-122449200D01*
X94687618Y-122449200D02*
X94725714Y-122411104D01*
X94725714Y-122411104D02*
X94725714Y-122144438D01*
X94725714Y-122144438D02*
X94573333Y-122144438D01*
X95068571Y-122487295D02*
X95068571Y-121687295D01*
X95068571Y-121687295D02*
X95373333Y-121687295D01*
X95373333Y-121687295D02*
X95449523Y-121725390D01*
X95449523Y-121725390D02*
X95487618Y-121763485D01*
X95487618Y-121763485D02*
X95525714Y-121839676D01*
X95525714Y-121839676D02*
X95525714Y-121953961D01*
X95525714Y-121953961D02*
X95487618Y-122030152D01*
X95487618Y-122030152D02*
X95449523Y-122068247D01*
X95449523Y-122068247D02*
X95373333Y-122106342D01*
X95373333Y-122106342D02*
X95068571Y-122106342D01*
X95830475Y-121763485D02*
X95868571Y-121725390D01*
X95868571Y-121725390D02*
X95944761Y-121687295D01*
X95944761Y-121687295D02*
X96135237Y-121687295D01*
X96135237Y-121687295D02*
X96211428Y-121725390D01*
X96211428Y-121725390D02*
X96249523Y-121763485D01*
X96249523Y-121763485D02*
X96287618Y-121839676D01*
X96287618Y-121839676D02*
X96287618Y-121915866D01*
X96287618Y-121915866D02*
X96249523Y-122030152D01*
X96249523Y-122030152D02*
X95792380Y-122487295D01*
X95792380Y-122487295D02*
X96287618Y-122487295D01*
X96592380Y-121763485D02*
X96630476Y-121725390D01*
X96630476Y-121725390D02*
X96706666Y-121687295D01*
X96706666Y-121687295D02*
X96897142Y-121687295D01*
X96897142Y-121687295D02*
X96973333Y-121725390D01*
X96973333Y-121725390D02*
X97011428Y-121763485D01*
X97011428Y-121763485D02*
X97049523Y-121839676D01*
X97049523Y-121839676D02*
X97049523Y-121915866D01*
X97049523Y-121915866D02*
X97011428Y-122030152D01*
X97011428Y-122030152D02*
X96554285Y-122487295D01*
X96554285Y-122487295D02*
X97049523Y-122487295D01*
X94687618Y-109025390D02*
X94611428Y-108987295D01*
X94611428Y-108987295D02*
X94497142Y-108987295D01*
X94497142Y-108987295D02*
X94382856Y-109025390D01*
X94382856Y-109025390D02*
X94306666Y-109101580D01*
X94306666Y-109101580D02*
X94268571Y-109177771D01*
X94268571Y-109177771D02*
X94230475Y-109330152D01*
X94230475Y-109330152D02*
X94230475Y-109444438D01*
X94230475Y-109444438D02*
X94268571Y-109596819D01*
X94268571Y-109596819D02*
X94306666Y-109673009D01*
X94306666Y-109673009D02*
X94382856Y-109749200D01*
X94382856Y-109749200D02*
X94497142Y-109787295D01*
X94497142Y-109787295D02*
X94573333Y-109787295D01*
X94573333Y-109787295D02*
X94687618Y-109749200D01*
X94687618Y-109749200D02*
X94725714Y-109711104D01*
X94725714Y-109711104D02*
X94725714Y-109444438D01*
X94725714Y-109444438D02*
X94573333Y-109444438D01*
X95068571Y-109787295D02*
X95068571Y-108987295D01*
X95068571Y-108987295D02*
X95373333Y-108987295D01*
X95373333Y-108987295D02*
X95449523Y-109025390D01*
X95449523Y-109025390D02*
X95487618Y-109063485D01*
X95487618Y-109063485D02*
X95525714Y-109139676D01*
X95525714Y-109139676D02*
X95525714Y-109253961D01*
X95525714Y-109253961D02*
X95487618Y-109330152D01*
X95487618Y-109330152D02*
X95449523Y-109368247D01*
X95449523Y-109368247D02*
X95373333Y-109406342D01*
X95373333Y-109406342D02*
X95068571Y-109406342D01*
X95830475Y-109063485D02*
X95868571Y-109025390D01*
X95868571Y-109025390D02*
X95944761Y-108987295D01*
X95944761Y-108987295D02*
X96135237Y-108987295D01*
X96135237Y-108987295D02*
X96211428Y-109025390D01*
X96211428Y-109025390D02*
X96249523Y-109063485D01*
X96249523Y-109063485D02*
X96287618Y-109139676D01*
X96287618Y-109139676D02*
X96287618Y-109215866D01*
X96287618Y-109215866D02*
X96249523Y-109330152D01*
X96249523Y-109330152D02*
X95792380Y-109787295D01*
X95792380Y-109787295D02*
X96287618Y-109787295D01*
X96744761Y-109330152D02*
X96668571Y-109292057D01*
X96668571Y-109292057D02*
X96630476Y-109253961D01*
X96630476Y-109253961D02*
X96592380Y-109177771D01*
X96592380Y-109177771D02*
X96592380Y-109139676D01*
X96592380Y-109139676D02*
X96630476Y-109063485D01*
X96630476Y-109063485D02*
X96668571Y-109025390D01*
X96668571Y-109025390D02*
X96744761Y-108987295D01*
X96744761Y-108987295D02*
X96897142Y-108987295D01*
X96897142Y-108987295D02*
X96973333Y-109025390D01*
X96973333Y-109025390D02*
X97011428Y-109063485D01*
X97011428Y-109063485D02*
X97049523Y-109139676D01*
X97049523Y-109139676D02*
X97049523Y-109177771D01*
X97049523Y-109177771D02*
X97011428Y-109253961D01*
X97011428Y-109253961D02*
X96973333Y-109292057D01*
X96973333Y-109292057D02*
X96897142Y-109330152D01*
X96897142Y-109330152D02*
X96744761Y-109330152D01*
X96744761Y-109330152D02*
X96668571Y-109368247D01*
X96668571Y-109368247D02*
X96630476Y-109406342D01*
X96630476Y-109406342D02*
X96592380Y-109482533D01*
X96592380Y-109482533D02*
X96592380Y-109634914D01*
X96592380Y-109634914D02*
X96630476Y-109711104D01*
X96630476Y-109711104D02*
X96668571Y-109749200D01*
X96668571Y-109749200D02*
X96744761Y-109787295D01*
X96744761Y-109787295D02*
X96897142Y-109787295D01*
X96897142Y-109787295D02*
X96973333Y-109749200D01*
X96973333Y-109749200D02*
X97011428Y-109711104D01*
X97011428Y-109711104D02*
X97049523Y-109634914D01*
X97049523Y-109634914D02*
X97049523Y-109482533D01*
X97049523Y-109482533D02*
X97011428Y-109406342D01*
X97011428Y-109406342D02*
X96973333Y-109368247D01*
X96973333Y-109368247D02*
X96897142Y-109330152D01*
X95149523Y-103907295D02*
X95644761Y-103907295D01*
X95644761Y-103907295D02*
X95378095Y-104212057D01*
X95378095Y-104212057D02*
X95492380Y-104212057D01*
X95492380Y-104212057D02*
X95568571Y-104250152D01*
X95568571Y-104250152D02*
X95606666Y-104288247D01*
X95606666Y-104288247D02*
X95644761Y-104364438D01*
X95644761Y-104364438D02*
X95644761Y-104554914D01*
X95644761Y-104554914D02*
X95606666Y-104631104D01*
X95606666Y-104631104D02*
X95568571Y-104669200D01*
X95568571Y-104669200D02*
X95492380Y-104707295D01*
X95492380Y-104707295D02*
X95263809Y-104707295D01*
X95263809Y-104707295D02*
X95187618Y-104669200D01*
X95187618Y-104669200D02*
X95149523Y-104631104D01*
X95873333Y-103907295D02*
X96140000Y-104707295D01*
X96140000Y-104707295D02*
X96406666Y-103907295D01*
X96597142Y-103907295D02*
X97092380Y-103907295D01*
X97092380Y-103907295D02*
X96825714Y-104212057D01*
X96825714Y-104212057D02*
X96939999Y-104212057D01*
X96939999Y-104212057D02*
X97016190Y-104250152D01*
X97016190Y-104250152D02*
X97054285Y-104288247D01*
X97054285Y-104288247D02*
X97092380Y-104364438D01*
X97092380Y-104364438D02*
X97092380Y-104554914D01*
X97092380Y-104554914D02*
X97054285Y-104631104D01*
X97054285Y-104631104D02*
X97016190Y-104669200D01*
X97016190Y-104669200D02*
X96939999Y-104707295D01*
X96939999Y-104707295D02*
X96711428Y-104707295D01*
X96711428Y-104707295D02*
X96635237Y-104669200D01*
X96635237Y-104669200D02*
X96597142Y-104631104D01*
X83450476Y-98865390D02*
X83374286Y-98827295D01*
X83374286Y-98827295D02*
X83260000Y-98827295D01*
X83260000Y-98827295D02*
X83145714Y-98865390D01*
X83145714Y-98865390D02*
X83069524Y-98941580D01*
X83069524Y-98941580D02*
X83031429Y-99017771D01*
X83031429Y-99017771D02*
X82993333Y-99170152D01*
X82993333Y-99170152D02*
X82993333Y-99284438D01*
X82993333Y-99284438D02*
X83031429Y-99436819D01*
X83031429Y-99436819D02*
X83069524Y-99513009D01*
X83069524Y-99513009D02*
X83145714Y-99589200D01*
X83145714Y-99589200D02*
X83260000Y-99627295D01*
X83260000Y-99627295D02*
X83336191Y-99627295D01*
X83336191Y-99627295D02*
X83450476Y-99589200D01*
X83450476Y-99589200D02*
X83488572Y-99551104D01*
X83488572Y-99551104D02*
X83488572Y-99284438D01*
X83488572Y-99284438D02*
X83336191Y-99284438D01*
X83831429Y-99627295D02*
X83831429Y-98827295D01*
X83831429Y-98827295D02*
X84288572Y-99627295D01*
X84288572Y-99627295D02*
X84288572Y-98827295D01*
X84669524Y-99627295D02*
X84669524Y-98827295D01*
X84669524Y-98827295D02*
X84860000Y-98827295D01*
X84860000Y-98827295D02*
X84974286Y-98865390D01*
X84974286Y-98865390D02*
X85050476Y-98941580D01*
X85050476Y-98941580D02*
X85088571Y-99017771D01*
X85088571Y-99017771D02*
X85126667Y-99170152D01*
X85126667Y-99170152D02*
X85126667Y-99284438D01*
X85126667Y-99284438D02*
X85088571Y-99436819D01*
X85088571Y-99436819D02*
X85050476Y-99513009D01*
X85050476Y-99513009D02*
X84974286Y-99589200D01*
X84974286Y-99589200D02*
X84860000Y-99627295D01*
X84860000Y-99627295D02*
X84669524Y-99627295D01*
X83488571Y-101405390D02*
X83412381Y-101367295D01*
X83412381Y-101367295D02*
X83298095Y-101367295D01*
X83298095Y-101367295D02*
X83183809Y-101405390D01*
X83183809Y-101405390D02*
X83107619Y-101481580D01*
X83107619Y-101481580D02*
X83069524Y-101557771D01*
X83069524Y-101557771D02*
X83031428Y-101710152D01*
X83031428Y-101710152D02*
X83031428Y-101824438D01*
X83031428Y-101824438D02*
X83069524Y-101976819D01*
X83069524Y-101976819D02*
X83107619Y-102053009D01*
X83107619Y-102053009D02*
X83183809Y-102129200D01*
X83183809Y-102129200D02*
X83298095Y-102167295D01*
X83298095Y-102167295D02*
X83374286Y-102167295D01*
X83374286Y-102167295D02*
X83488571Y-102129200D01*
X83488571Y-102129200D02*
X83526667Y-102091104D01*
X83526667Y-102091104D02*
X83526667Y-101824438D01*
X83526667Y-101824438D02*
X83374286Y-101824438D01*
X83869524Y-102167295D02*
X83869524Y-101367295D01*
X83869524Y-101367295D02*
X84174286Y-101367295D01*
X84174286Y-101367295D02*
X84250476Y-101405390D01*
X84250476Y-101405390D02*
X84288571Y-101443485D01*
X84288571Y-101443485D02*
X84326667Y-101519676D01*
X84326667Y-101519676D02*
X84326667Y-101633961D01*
X84326667Y-101633961D02*
X84288571Y-101710152D01*
X84288571Y-101710152D02*
X84250476Y-101748247D01*
X84250476Y-101748247D02*
X84174286Y-101786342D01*
X84174286Y-101786342D02*
X83869524Y-101786342D01*
X84631428Y-101443485D02*
X84669524Y-101405390D01*
X84669524Y-101405390D02*
X84745714Y-101367295D01*
X84745714Y-101367295D02*
X84936190Y-101367295D01*
X84936190Y-101367295D02*
X85012381Y-101405390D01*
X85012381Y-101405390D02*
X85050476Y-101443485D01*
X85050476Y-101443485D02*
X85088571Y-101519676D01*
X85088571Y-101519676D02*
X85088571Y-101595866D01*
X85088571Y-101595866D02*
X85050476Y-101710152D01*
X85050476Y-101710152D02*
X84593333Y-102167295D01*
X84593333Y-102167295D02*
X85088571Y-102167295D01*
X83488571Y-119185390D02*
X83412381Y-119147295D01*
X83412381Y-119147295D02*
X83298095Y-119147295D01*
X83298095Y-119147295D02*
X83183809Y-119185390D01*
X83183809Y-119185390D02*
X83107619Y-119261580D01*
X83107619Y-119261580D02*
X83069524Y-119337771D01*
X83069524Y-119337771D02*
X83031428Y-119490152D01*
X83031428Y-119490152D02*
X83031428Y-119604438D01*
X83031428Y-119604438D02*
X83069524Y-119756819D01*
X83069524Y-119756819D02*
X83107619Y-119833009D01*
X83107619Y-119833009D02*
X83183809Y-119909200D01*
X83183809Y-119909200D02*
X83298095Y-119947295D01*
X83298095Y-119947295D02*
X83374286Y-119947295D01*
X83374286Y-119947295D02*
X83488571Y-119909200D01*
X83488571Y-119909200D02*
X83526667Y-119871104D01*
X83526667Y-119871104D02*
X83526667Y-119604438D01*
X83526667Y-119604438D02*
X83374286Y-119604438D01*
X83869524Y-119947295D02*
X83869524Y-119147295D01*
X83869524Y-119147295D02*
X84174286Y-119147295D01*
X84174286Y-119147295D02*
X84250476Y-119185390D01*
X84250476Y-119185390D02*
X84288571Y-119223485D01*
X84288571Y-119223485D02*
X84326667Y-119299676D01*
X84326667Y-119299676D02*
X84326667Y-119413961D01*
X84326667Y-119413961D02*
X84288571Y-119490152D01*
X84288571Y-119490152D02*
X84250476Y-119528247D01*
X84250476Y-119528247D02*
X84174286Y-119566342D01*
X84174286Y-119566342D02*
X83869524Y-119566342D01*
X84783809Y-119490152D02*
X84707619Y-119452057D01*
X84707619Y-119452057D02*
X84669524Y-119413961D01*
X84669524Y-119413961D02*
X84631428Y-119337771D01*
X84631428Y-119337771D02*
X84631428Y-119299676D01*
X84631428Y-119299676D02*
X84669524Y-119223485D01*
X84669524Y-119223485D02*
X84707619Y-119185390D01*
X84707619Y-119185390D02*
X84783809Y-119147295D01*
X84783809Y-119147295D02*
X84936190Y-119147295D01*
X84936190Y-119147295D02*
X85012381Y-119185390D01*
X85012381Y-119185390D02*
X85050476Y-119223485D01*
X85050476Y-119223485D02*
X85088571Y-119299676D01*
X85088571Y-119299676D02*
X85088571Y-119337771D01*
X85088571Y-119337771D02*
X85050476Y-119413961D01*
X85050476Y-119413961D02*
X85012381Y-119452057D01*
X85012381Y-119452057D02*
X84936190Y-119490152D01*
X84936190Y-119490152D02*
X84783809Y-119490152D01*
X84783809Y-119490152D02*
X84707619Y-119528247D01*
X84707619Y-119528247D02*
X84669524Y-119566342D01*
X84669524Y-119566342D02*
X84631428Y-119642533D01*
X84631428Y-119642533D02*
X84631428Y-119794914D01*
X84631428Y-119794914D02*
X84669524Y-119871104D01*
X84669524Y-119871104D02*
X84707619Y-119909200D01*
X84707619Y-119909200D02*
X84783809Y-119947295D01*
X84783809Y-119947295D02*
X84936190Y-119947295D01*
X84936190Y-119947295D02*
X85012381Y-119909200D01*
X85012381Y-119909200D02*
X85050476Y-119871104D01*
X85050476Y-119871104D02*
X85088571Y-119794914D01*
X85088571Y-119794914D02*
X85088571Y-119642533D01*
X85088571Y-119642533D02*
X85050476Y-119566342D01*
X85050476Y-119566342D02*
X85012381Y-119528247D01*
X85012381Y-119528247D02*
X84936190Y-119490152D01*
X83488571Y-121725390D02*
X83412381Y-121687295D01*
X83412381Y-121687295D02*
X83298095Y-121687295D01*
X83298095Y-121687295D02*
X83183809Y-121725390D01*
X83183809Y-121725390D02*
X83107619Y-121801580D01*
X83107619Y-121801580D02*
X83069524Y-121877771D01*
X83069524Y-121877771D02*
X83031428Y-122030152D01*
X83031428Y-122030152D02*
X83031428Y-122144438D01*
X83031428Y-122144438D02*
X83069524Y-122296819D01*
X83069524Y-122296819D02*
X83107619Y-122373009D01*
X83107619Y-122373009D02*
X83183809Y-122449200D01*
X83183809Y-122449200D02*
X83298095Y-122487295D01*
X83298095Y-122487295D02*
X83374286Y-122487295D01*
X83374286Y-122487295D02*
X83488571Y-122449200D01*
X83488571Y-122449200D02*
X83526667Y-122411104D01*
X83526667Y-122411104D02*
X83526667Y-122144438D01*
X83526667Y-122144438D02*
X83374286Y-122144438D01*
X83869524Y-122487295D02*
X83869524Y-121687295D01*
X83869524Y-121687295D02*
X84174286Y-121687295D01*
X84174286Y-121687295D02*
X84250476Y-121725390D01*
X84250476Y-121725390D02*
X84288571Y-121763485D01*
X84288571Y-121763485D02*
X84326667Y-121839676D01*
X84326667Y-121839676D02*
X84326667Y-121953961D01*
X84326667Y-121953961D02*
X84288571Y-122030152D01*
X84288571Y-122030152D02*
X84250476Y-122068247D01*
X84250476Y-122068247D02*
X84174286Y-122106342D01*
X84174286Y-122106342D02*
X83869524Y-122106342D01*
X84707619Y-122487295D02*
X84860000Y-122487295D01*
X84860000Y-122487295D02*
X84936190Y-122449200D01*
X84936190Y-122449200D02*
X84974286Y-122411104D01*
X84974286Y-122411104D02*
X85050476Y-122296819D01*
X85050476Y-122296819D02*
X85088571Y-122144438D01*
X85088571Y-122144438D02*
X85088571Y-121839676D01*
X85088571Y-121839676D02*
X85050476Y-121763485D01*
X85050476Y-121763485D02*
X85012381Y-121725390D01*
X85012381Y-121725390D02*
X84936190Y-121687295D01*
X84936190Y-121687295D02*
X84783809Y-121687295D01*
X84783809Y-121687295D02*
X84707619Y-121725390D01*
X84707619Y-121725390D02*
X84669524Y-121763485D01*
X84669524Y-121763485D02*
X84631428Y-121839676D01*
X84631428Y-121839676D02*
X84631428Y-122030152D01*
X84631428Y-122030152D02*
X84669524Y-122106342D01*
X84669524Y-122106342D02*
X84707619Y-122144438D01*
X84707619Y-122144438D02*
X84783809Y-122182533D01*
X84783809Y-122182533D02*
X84936190Y-122182533D01*
X84936190Y-122182533D02*
X85012381Y-122144438D01*
X85012381Y-122144438D02*
X85050476Y-122106342D01*
X85050476Y-122106342D02*
X85088571Y-122030152D01*
X83457618Y-142045390D02*
X83381428Y-142007295D01*
X83381428Y-142007295D02*
X83267142Y-142007295D01*
X83267142Y-142007295D02*
X83152856Y-142045390D01*
X83152856Y-142045390D02*
X83076666Y-142121580D01*
X83076666Y-142121580D02*
X83038571Y-142197771D01*
X83038571Y-142197771D02*
X83000475Y-142350152D01*
X83000475Y-142350152D02*
X83000475Y-142464438D01*
X83000475Y-142464438D02*
X83038571Y-142616819D01*
X83038571Y-142616819D02*
X83076666Y-142693009D01*
X83076666Y-142693009D02*
X83152856Y-142769200D01*
X83152856Y-142769200D02*
X83267142Y-142807295D01*
X83267142Y-142807295D02*
X83343333Y-142807295D01*
X83343333Y-142807295D02*
X83457618Y-142769200D01*
X83457618Y-142769200D02*
X83495714Y-142731104D01*
X83495714Y-142731104D02*
X83495714Y-142464438D01*
X83495714Y-142464438D02*
X83343333Y-142464438D01*
X83838571Y-142807295D02*
X83838571Y-142007295D01*
X83838571Y-142007295D02*
X84143333Y-142007295D01*
X84143333Y-142007295D02*
X84219523Y-142045390D01*
X84219523Y-142045390D02*
X84257618Y-142083485D01*
X84257618Y-142083485D02*
X84295714Y-142159676D01*
X84295714Y-142159676D02*
X84295714Y-142273961D01*
X84295714Y-142273961D02*
X84257618Y-142350152D01*
X84257618Y-142350152D02*
X84219523Y-142388247D01*
X84219523Y-142388247D02*
X84143333Y-142426342D01*
X84143333Y-142426342D02*
X83838571Y-142426342D01*
X85057618Y-142807295D02*
X84600475Y-142807295D01*
X84829047Y-142807295D02*
X84829047Y-142007295D01*
X84829047Y-142007295D02*
X84752856Y-142121580D01*
X84752856Y-142121580D02*
X84676666Y-142197771D01*
X84676666Y-142197771D02*
X84600475Y-142235866D01*
X85781428Y-142007295D02*
X85400476Y-142007295D01*
X85400476Y-142007295D02*
X85362380Y-142388247D01*
X85362380Y-142388247D02*
X85400476Y-142350152D01*
X85400476Y-142350152D02*
X85476666Y-142312057D01*
X85476666Y-142312057D02*
X85667142Y-142312057D01*
X85667142Y-142312057D02*
X85743333Y-142350152D01*
X85743333Y-142350152D02*
X85781428Y-142388247D01*
X85781428Y-142388247D02*
X85819523Y-142464438D01*
X85819523Y-142464438D02*
X85819523Y-142654914D01*
X85819523Y-142654914D02*
X85781428Y-142731104D01*
X85781428Y-142731104D02*
X85743333Y-142769200D01*
X85743333Y-142769200D02*
X85667142Y-142807295D01*
X85667142Y-142807295D02*
X85476666Y-142807295D01*
X85476666Y-142807295D02*
X85400476Y-142769200D01*
X85400476Y-142769200D02*
X85362380Y-142731104D01*
X83450476Y-111565390D02*
X83374286Y-111527295D01*
X83374286Y-111527295D02*
X83260000Y-111527295D01*
X83260000Y-111527295D02*
X83145714Y-111565390D01*
X83145714Y-111565390D02*
X83069524Y-111641580D01*
X83069524Y-111641580D02*
X83031429Y-111717771D01*
X83031429Y-111717771D02*
X82993333Y-111870152D01*
X82993333Y-111870152D02*
X82993333Y-111984438D01*
X82993333Y-111984438D02*
X83031429Y-112136819D01*
X83031429Y-112136819D02*
X83069524Y-112213009D01*
X83069524Y-112213009D02*
X83145714Y-112289200D01*
X83145714Y-112289200D02*
X83260000Y-112327295D01*
X83260000Y-112327295D02*
X83336191Y-112327295D01*
X83336191Y-112327295D02*
X83450476Y-112289200D01*
X83450476Y-112289200D02*
X83488572Y-112251104D01*
X83488572Y-112251104D02*
X83488572Y-111984438D01*
X83488572Y-111984438D02*
X83336191Y-111984438D01*
X83831429Y-112327295D02*
X83831429Y-111527295D01*
X83831429Y-111527295D02*
X84288572Y-112327295D01*
X84288572Y-112327295D02*
X84288572Y-111527295D01*
X84669524Y-112327295D02*
X84669524Y-111527295D01*
X84669524Y-111527295D02*
X84860000Y-111527295D01*
X84860000Y-111527295D02*
X84974286Y-111565390D01*
X84974286Y-111565390D02*
X85050476Y-111641580D01*
X85050476Y-111641580D02*
X85088571Y-111717771D01*
X85088571Y-111717771D02*
X85126667Y-111870152D01*
X85126667Y-111870152D02*
X85126667Y-111984438D01*
X85126667Y-111984438D02*
X85088571Y-112136819D01*
X85088571Y-112136819D02*
X85050476Y-112213009D01*
X85050476Y-112213009D02*
X84974286Y-112289200D01*
X84974286Y-112289200D02*
X84860000Y-112327295D01*
X84860000Y-112327295D02*
X84669524Y-112327295D01*
X83488571Y-116615390D02*
X83412381Y-116577295D01*
X83412381Y-116577295D02*
X83298095Y-116577295D01*
X83298095Y-116577295D02*
X83183809Y-116615390D01*
X83183809Y-116615390D02*
X83107619Y-116691580D01*
X83107619Y-116691580D02*
X83069524Y-116767771D01*
X83069524Y-116767771D02*
X83031428Y-116920152D01*
X83031428Y-116920152D02*
X83031428Y-117034438D01*
X83031428Y-117034438D02*
X83069524Y-117186819D01*
X83069524Y-117186819D02*
X83107619Y-117263009D01*
X83107619Y-117263009D02*
X83183809Y-117339200D01*
X83183809Y-117339200D02*
X83298095Y-117377295D01*
X83298095Y-117377295D02*
X83374286Y-117377295D01*
X83374286Y-117377295D02*
X83488571Y-117339200D01*
X83488571Y-117339200D02*
X83526667Y-117301104D01*
X83526667Y-117301104D02*
X83526667Y-117034438D01*
X83526667Y-117034438D02*
X83374286Y-117034438D01*
X83869524Y-117377295D02*
X83869524Y-116577295D01*
X83869524Y-116577295D02*
X84174286Y-116577295D01*
X84174286Y-116577295D02*
X84250476Y-116615390D01*
X84250476Y-116615390D02*
X84288571Y-116653485D01*
X84288571Y-116653485D02*
X84326667Y-116729676D01*
X84326667Y-116729676D02*
X84326667Y-116843961D01*
X84326667Y-116843961D02*
X84288571Y-116920152D01*
X84288571Y-116920152D02*
X84250476Y-116958247D01*
X84250476Y-116958247D02*
X84174286Y-116996342D01*
X84174286Y-116996342D02*
X83869524Y-116996342D01*
X84593333Y-116577295D02*
X85126667Y-116577295D01*
X85126667Y-116577295D02*
X84783809Y-117377295D01*
X83488571Y-109025390D02*
X83412381Y-108987295D01*
X83412381Y-108987295D02*
X83298095Y-108987295D01*
X83298095Y-108987295D02*
X83183809Y-109025390D01*
X83183809Y-109025390D02*
X83107619Y-109101580D01*
X83107619Y-109101580D02*
X83069524Y-109177771D01*
X83069524Y-109177771D02*
X83031428Y-109330152D01*
X83031428Y-109330152D02*
X83031428Y-109444438D01*
X83031428Y-109444438D02*
X83069524Y-109596819D01*
X83069524Y-109596819D02*
X83107619Y-109673009D01*
X83107619Y-109673009D02*
X83183809Y-109749200D01*
X83183809Y-109749200D02*
X83298095Y-109787295D01*
X83298095Y-109787295D02*
X83374286Y-109787295D01*
X83374286Y-109787295D02*
X83488571Y-109749200D01*
X83488571Y-109749200D02*
X83526667Y-109711104D01*
X83526667Y-109711104D02*
X83526667Y-109444438D01*
X83526667Y-109444438D02*
X83374286Y-109444438D01*
X83869524Y-109787295D02*
X83869524Y-108987295D01*
X83869524Y-108987295D02*
X84174286Y-108987295D01*
X84174286Y-108987295D02*
X84250476Y-109025390D01*
X84250476Y-109025390D02*
X84288571Y-109063485D01*
X84288571Y-109063485D02*
X84326667Y-109139676D01*
X84326667Y-109139676D02*
X84326667Y-109253961D01*
X84326667Y-109253961D02*
X84288571Y-109330152D01*
X84288571Y-109330152D02*
X84250476Y-109368247D01*
X84250476Y-109368247D02*
X84174286Y-109406342D01*
X84174286Y-109406342D02*
X83869524Y-109406342D01*
X85050476Y-108987295D02*
X84669524Y-108987295D01*
X84669524Y-108987295D02*
X84631428Y-109368247D01*
X84631428Y-109368247D02*
X84669524Y-109330152D01*
X84669524Y-109330152D02*
X84745714Y-109292057D01*
X84745714Y-109292057D02*
X84936190Y-109292057D01*
X84936190Y-109292057D02*
X85012381Y-109330152D01*
X85012381Y-109330152D02*
X85050476Y-109368247D01*
X85050476Y-109368247D02*
X85088571Y-109444438D01*
X85088571Y-109444438D02*
X85088571Y-109634914D01*
X85088571Y-109634914D02*
X85050476Y-109711104D01*
X85050476Y-109711104D02*
X85012381Y-109749200D01*
X85012381Y-109749200D02*
X84936190Y-109787295D01*
X84936190Y-109787295D02*
X84745714Y-109787295D01*
X84745714Y-109787295D02*
X84669524Y-109749200D01*
X84669524Y-109749200D02*
X84631428Y-109711104D01*
X93063809Y-101367295D02*
X93559047Y-101367295D01*
X93559047Y-101367295D02*
X93292381Y-101672057D01*
X93292381Y-101672057D02*
X93406666Y-101672057D01*
X93406666Y-101672057D02*
X93482857Y-101710152D01*
X93482857Y-101710152D02*
X93520952Y-101748247D01*
X93520952Y-101748247D02*
X93559047Y-101824438D01*
X93559047Y-101824438D02*
X93559047Y-102014914D01*
X93559047Y-102014914D02*
X93520952Y-102091104D01*
X93520952Y-102091104D02*
X93482857Y-102129200D01*
X93482857Y-102129200D02*
X93406666Y-102167295D01*
X93406666Y-102167295D02*
X93178095Y-102167295D01*
X93178095Y-102167295D02*
X93101904Y-102129200D01*
X93101904Y-102129200D02*
X93063809Y-102091104D01*
X93787619Y-101367295D02*
X94054286Y-102167295D01*
X94054286Y-102167295D02*
X94320952Y-101367295D01*
X94511428Y-101367295D02*
X95006666Y-101367295D01*
X95006666Y-101367295D02*
X94740000Y-101672057D01*
X94740000Y-101672057D02*
X94854285Y-101672057D01*
X94854285Y-101672057D02*
X94930476Y-101710152D01*
X94930476Y-101710152D02*
X94968571Y-101748247D01*
X94968571Y-101748247D02*
X95006666Y-101824438D01*
X95006666Y-101824438D02*
X95006666Y-102014914D01*
X95006666Y-102014914D02*
X94968571Y-102091104D01*
X94968571Y-102091104D02*
X94930476Y-102129200D01*
X94930476Y-102129200D02*
X94854285Y-102167295D01*
X94854285Y-102167295D02*
X94625714Y-102167295D01*
X94625714Y-102167295D02*
X94549523Y-102129200D01*
X94549523Y-102129200D02*
X94511428Y-102091104D01*
X95159048Y-102243485D02*
X95768571Y-102243485D01*
X95959048Y-101748247D02*
X96225714Y-101748247D01*
X96340000Y-102167295D02*
X95959048Y-102167295D01*
X95959048Y-102167295D02*
X95959048Y-101367295D01*
X95959048Y-101367295D02*
X96340000Y-101367295D01*
X96682858Y-102167295D02*
X96682858Y-101367295D01*
X96682858Y-101367295D02*
X97140001Y-102167295D01*
X97140001Y-102167295D02*
X97140001Y-101367295D01*
X83488571Y-93785390D02*
X83412381Y-93747295D01*
X83412381Y-93747295D02*
X83298095Y-93747295D01*
X83298095Y-93747295D02*
X83183809Y-93785390D01*
X83183809Y-93785390D02*
X83107619Y-93861580D01*
X83107619Y-93861580D02*
X83069524Y-93937771D01*
X83069524Y-93937771D02*
X83031428Y-94090152D01*
X83031428Y-94090152D02*
X83031428Y-94204438D01*
X83031428Y-94204438D02*
X83069524Y-94356819D01*
X83069524Y-94356819D02*
X83107619Y-94433009D01*
X83107619Y-94433009D02*
X83183809Y-94509200D01*
X83183809Y-94509200D02*
X83298095Y-94547295D01*
X83298095Y-94547295D02*
X83374286Y-94547295D01*
X83374286Y-94547295D02*
X83488571Y-94509200D01*
X83488571Y-94509200D02*
X83526667Y-94471104D01*
X83526667Y-94471104D02*
X83526667Y-94204438D01*
X83526667Y-94204438D02*
X83374286Y-94204438D01*
X83869524Y-94547295D02*
X83869524Y-93747295D01*
X83869524Y-93747295D02*
X84174286Y-93747295D01*
X84174286Y-93747295D02*
X84250476Y-93785390D01*
X84250476Y-93785390D02*
X84288571Y-93823485D01*
X84288571Y-93823485D02*
X84326667Y-93899676D01*
X84326667Y-93899676D02*
X84326667Y-94013961D01*
X84326667Y-94013961D02*
X84288571Y-94090152D01*
X84288571Y-94090152D02*
X84250476Y-94128247D01*
X84250476Y-94128247D02*
X84174286Y-94166342D01*
X84174286Y-94166342D02*
X83869524Y-94166342D01*
X84821905Y-93747295D02*
X84898095Y-93747295D01*
X84898095Y-93747295D02*
X84974286Y-93785390D01*
X84974286Y-93785390D02*
X85012381Y-93823485D01*
X85012381Y-93823485D02*
X85050476Y-93899676D01*
X85050476Y-93899676D02*
X85088571Y-94052057D01*
X85088571Y-94052057D02*
X85088571Y-94242533D01*
X85088571Y-94242533D02*
X85050476Y-94394914D01*
X85050476Y-94394914D02*
X85012381Y-94471104D01*
X85012381Y-94471104D02*
X84974286Y-94509200D01*
X84974286Y-94509200D02*
X84898095Y-94547295D01*
X84898095Y-94547295D02*
X84821905Y-94547295D01*
X84821905Y-94547295D02*
X84745714Y-94509200D01*
X84745714Y-94509200D02*
X84707619Y-94471104D01*
X84707619Y-94471104D02*
X84669524Y-94394914D01*
X84669524Y-94394914D02*
X84631428Y-94242533D01*
X84631428Y-94242533D02*
X84631428Y-94052057D01*
X84631428Y-94052057D02*
X84669524Y-93899676D01*
X84669524Y-93899676D02*
X84707619Y-93823485D01*
X84707619Y-93823485D02*
X84745714Y-93785390D01*
X84745714Y-93785390D02*
X84821905Y-93747295D01*
X92964200Y-140260238D02*
X93002295Y-140145952D01*
X93002295Y-140145952D02*
X93002295Y-139955476D01*
X93002295Y-139955476D02*
X92964200Y-139879285D01*
X92964200Y-139879285D02*
X92926104Y-139841190D01*
X92926104Y-139841190D02*
X92849914Y-139803095D01*
X92849914Y-139803095D02*
X92773723Y-139803095D01*
X92773723Y-139803095D02*
X92697533Y-139841190D01*
X92697533Y-139841190D02*
X92659438Y-139879285D01*
X92659438Y-139879285D02*
X92621342Y-139955476D01*
X92621342Y-139955476D02*
X92583247Y-140107857D01*
X92583247Y-140107857D02*
X92545152Y-140184047D01*
X92545152Y-140184047D02*
X92507057Y-140222142D01*
X92507057Y-140222142D02*
X92430866Y-140260238D01*
X92430866Y-140260238D02*
X92354676Y-140260238D01*
X92354676Y-140260238D02*
X92278485Y-140222142D01*
X92278485Y-140222142D02*
X92240390Y-140184047D01*
X92240390Y-140184047D02*
X92202295Y-140107857D01*
X92202295Y-140107857D02*
X92202295Y-139917380D01*
X92202295Y-139917380D02*
X92240390Y-139803095D01*
X92202295Y-139536428D02*
X93002295Y-139345952D01*
X93002295Y-139345952D02*
X92430866Y-139193571D01*
X92430866Y-139193571D02*
X93002295Y-139041190D01*
X93002295Y-139041190D02*
X92202295Y-138850714D01*
X93002295Y-138545951D02*
X92202295Y-138545951D01*
X92202295Y-138545951D02*
X92202295Y-138355475D01*
X92202295Y-138355475D02*
X92240390Y-138241189D01*
X92240390Y-138241189D02*
X92316580Y-138164999D01*
X92316580Y-138164999D02*
X92392771Y-138126904D01*
X92392771Y-138126904D02*
X92545152Y-138088808D01*
X92545152Y-138088808D02*
X92659438Y-138088808D01*
X92659438Y-138088808D02*
X92811819Y-138126904D01*
X92811819Y-138126904D02*
X92888009Y-138164999D01*
X92888009Y-138164999D02*
X92964200Y-138241189D01*
X92964200Y-138241189D02*
X93002295Y-138355475D01*
X93002295Y-138355475D02*
X93002295Y-138545951D01*
X93002295Y-137745951D02*
X92202295Y-137745951D01*
X92202295Y-137212618D02*
X92202295Y-137060237D01*
X92202295Y-137060237D02*
X92240390Y-136984047D01*
X92240390Y-136984047D02*
X92316580Y-136907856D01*
X92316580Y-136907856D02*
X92468961Y-136869761D01*
X92468961Y-136869761D02*
X92735628Y-136869761D01*
X92735628Y-136869761D02*
X92888009Y-136907856D01*
X92888009Y-136907856D02*
X92964200Y-136984047D01*
X92964200Y-136984047D02*
X93002295Y-137060237D01*
X93002295Y-137060237D02*
X93002295Y-137212618D01*
X93002295Y-137212618D02*
X92964200Y-137288809D01*
X92964200Y-137288809D02*
X92888009Y-137364999D01*
X92888009Y-137364999D02*
X92735628Y-137403095D01*
X92735628Y-137403095D02*
X92468961Y-137403095D01*
X92468961Y-137403095D02*
X92316580Y-137364999D01*
X92316580Y-137364999D02*
X92240390Y-137288809D01*
X92240390Y-137288809D02*
X92202295Y-137212618D01*
X83488571Y-103945390D02*
X83412381Y-103907295D01*
X83412381Y-103907295D02*
X83298095Y-103907295D01*
X83298095Y-103907295D02*
X83183809Y-103945390D01*
X83183809Y-103945390D02*
X83107619Y-104021580D01*
X83107619Y-104021580D02*
X83069524Y-104097771D01*
X83069524Y-104097771D02*
X83031428Y-104250152D01*
X83031428Y-104250152D02*
X83031428Y-104364438D01*
X83031428Y-104364438D02*
X83069524Y-104516819D01*
X83069524Y-104516819D02*
X83107619Y-104593009D01*
X83107619Y-104593009D02*
X83183809Y-104669200D01*
X83183809Y-104669200D02*
X83298095Y-104707295D01*
X83298095Y-104707295D02*
X83374286Y-104707295D01*
X83374286Y-104707295D02*
X83488571Y-104669200D01*
X83488571Y-104669200D02*
X83526667Y-104631104D01*
X83526667Y-104631104D02*
X83526667Y-104364438D01*
X83526667Y-104364438D02*
X83374286Y-104364438D01*
X83869524Y-104707295D02*
X83869524Y-103907295D01*
X83869524Y-103907295D02*
X84174286Y-103907295D01*
X84174286Y-103907295D02*
X84250476Y-103945390D01*
X84250476Y-103945390D02*
X84288571Y-103983485D01*
X84288571Y-103983485D02*
X84326667Y-104059676D01*
X84326667Y-104059676D02*
X84326667Y-104173961D01*
X84326667Y-104173961D02*
X84288571Y-104250152D01*
X84288571Y-104250152D02*
X84250476Y-104288247D01*
X84250476Y-104288247D02*
X84174286Y-104326342D01*
X84174286Y-104326342D02*
X83869524Y-104326342D01*
X84593333Y-103907295D02*
X85088571Y-103907295D01*
X85088571Y-103907295D02*
X84821905Y-104212057D01*
X84821905Y-104212057D02*
X84936190Y-104212057D01*
X84936190Y-104212057D02*
X85012381Y-104250152D01*
X85012381Y-104250152D02*
X85050476Y-104288247D01*
X85050476Y-104288247D02*
X85088571Y-104364438D01*
X85088571Y-104364438D02*
X85088571Y-104554914D01*
X85088571Y-104554914D02*
X85050476Y-104631104D01*
X85050476Y-104631104D02*
X85012381Y-104669200D01*
X85012381Y-104669200D02*
X84936190Y-104707295D01*
X84936190Y-104707295D02*
X84707619Y-104707295D01*
X84707619Y-104707295D02*
X84631428Y-104669200D01*
X84631428Y-104669200D02*
X84593333Y-104631104D01*
X87884200Y-140374524D02*
X87922295Y-140260238D01*
X87922295Y-140260238D02*
X87922295Y-140069762D01*
X87922295Y-140069762D02*
X87884200Y-139993571D01*
X87884200Y-139993571D02*
X87846104Y-139955476D01*
X87846104Y-139955476D02*
X87769914Y-139917381D01*
X87769914Y-139917381D02*
X87693723Y-139917381D01*
X87693723Y-139917381D02*
X87617533Y-139955476D01*
X87617533Y-139955476D02*
X87579438Y-139993571D01*
X87579438Y-139993571D02*
X87541342Y-140069762D01*
X87541342Y-140069762D02*
X87503247Y-140222143D01*
X87503247Y-140222143D02*
X87465152Y-140298333D01*
X87465152Y-140298333D02*
X87427057Y-140336428D01*
X87427057Y-140336428D02*
X87350866Y-140374524D01*
X87350866Y-140374524D02*
X87274676Y-140374524D01*
X87274676Y-140374524D02*
X87198485Y-140336428D01*
X87198485Y-140336428D02*
X87160390Y-140298333D01*
X87160390Y-140298333D02*
X87122295Y-140222143D01*
X87122295Y-140222143D02*
X87122295Y-140031666D01*
X87122295Y-140031666D02*
X87160390Y-139917381D01*
X87122295Y-139650714D02*
X87922295Y-139460238D01*
X87922295Y-139460238D02*
X87350866Y-139307857D01*
X87350866Y-139307857D02*
X87922295Y-139155476D01*
X87922295Y-139155476D02*
X87122295Y-138965000D01*
X87846104Y-138203094D02*
X87884200Y-138241190D01*
X87884200Y-138241190D02*
X87922295Y-138355475D01*
X87922295Y-138355475D02*
X87922295Y-138431666D01*
X87922295Y-138431666D02*
X87884200Y-138545952D01*
X87884200Y-138545952D02*
X87808009Y-138622142D01*
X87808009Y-138622142D02*
X87731819Y-138660237D01*
X87731819Y-138660237D02*
X87579438Y-138698333D01*
X87579438Y-138698333D02*
X87465152Y-138698333D01*
X87465152Y-138698333D02*
X87312771Y-138660237D01*
X87312771Y-138660237D02*
X87236580Y-138622142D01*
X87236580Y-138622142D02*
X87160390Y-138545952D01*
X87160390Y-138545952D02*
X87122295Y-138431666D01*
X87122295Y-138431666D02*
X87122295Y-138355475D01*
X87122295Y-138355475D02*
X87160390Y-138241190D01*
X87160390Y-138241190D02*
X87198485Y-138203094D01*
X87922295Y-137479285D02*
X87922295Y-137860237D01*
X87922295Y-137860237D02*
X87122295Y-137860237D01*
X87922295Y-137212618D02*
X87122295Y-137212618D01*
X87922295Y-136755475D02*
X87465152Y-137098333D01*
X87122295Y-136755475D02*
X87579438Y-137212618D01*
X83450476Y-136965390D02*
X83374286Y-136927295D01*
X83374286Y-136927295D02*
X83260000Y-136927295D01*
X83260000Y-136927295D02*
X83145714Y-136965390D01*
X83145714Y-136965390D02*
X83069524Y-137041580D01*
X83069524Y-137041580D02*
X83031429Y-137117771D01*
X83031429Y-137117771D02*
X82993333Y-137270152D01*
X82993333Y-137270152D02*
X82993333Y-137384438D01*
X82993333Y-137384438D02*
X83031429Y-137536819D01*
X83031429Y-137536819D02*
X83069524Y-137613009D01*
X83069524Y-137613009D02*
X83145714Y-137689200D01*
X83145714Y-137689200D02*
X83260000Y-137727295D01*
X83260000Y-137727295D02*
X83336191Y-137727295D01*
X83336191Y-137727295D02*
X83450476Y-137689200D01*
X83450476Y-137689200D02*
X83488572Y-137651104D01*
X83488572Y-137651104D02*
X83488572Y-137384438D01*
X83488572Y-137384438D02*
X83336191Y-137384438D01*
X83831429Y-137727295D02*
X83831429Y-136927295D01*
X83831429Y-136927295D02*
X84288572Y-137727295D01*
X84288572Y-137727295D02*
X84288572Y-136927295D01*
X84669524Y-137727295D02*
X84669524Y-136927295D01*
X84669524Y-136927295D02*
X84860000Y-136927295D01*
X84860000Y-136927295D02*
X84974286Y-136965390D01*
X84974286Y-136965390D02*
X85050476Y-137041580D01*
X85050476Y-137041580D02*
X85088571Y-137117771D01*
X85088571Y-137117771D02*
X85126667Y-137270152D01*
X85126667Y-137270152D02*
X85126667Y-137384438D01*
X85126667Y-137384438D02*
X85088571Y-137536819D01*
X85088571Y-137536819D02*
X85050476Y-137613009D01*
X85050476Y-137613009D02*
X84974286Y-137689200D01*
X84974286Y-137689200D02*
X84860000Y-137727295D01*
X84860000Y-137727295D02*
X84669524Y-137727295D01*
X94423333Y-93747295D02*
X94690000Y-94547295D01*
X94690000Y-94547295D02*
X94956666Y-93747295D01*
X95489999Y-94128247D02*
X95604285Y-94166342D01*
X95604285Y-94166342D02*
X95642380Y-94204438D01*
X95642380Y-94204438D02*
X95680476Y-94280628D01*
X95680476Y-94280628D02*
X95680476Y-94394914D01*
X95680476Y-94394914D02*
X95642380Y-94471104D01*
X95642380Y-94471104D02*
X95604285Y-94509200D01*
X95604285Y-94509200D02*
X95528095Y-94547295D01*
X95528095Y-94547295D02*
X95223333Y-94547295D01*
X95223333Y-94547295D02*
X95223333Y-93747295D01*
X95223333Y-93747295D02*
X95489999Y-93747295D01*
X95489999Y-93747295D02*
X95566190Y-93785390D01*
X95566190Y-93785390D02*
X95604285Y-93823485D01*
X95604285Y-93823485D02*
X95642380Y-93899676D01*
X95642380Y-93899676D02*
X95642380Y-93975866D01*
X95642380Y-93975866D02*
X95604285Y-94052057D01*
X95604285Y-94052057D02*
X95566190Y-94090152D01*
X95566190Y-94090152D02*
X95489999Y-94128247D01*
X95489999Y-94128247D02*
X95223333Y-94128247D01*
X96023333Y-93747295D02*
X96023333Y-94394914D01*
X96023333Y-94394914D02*
X96061428Y-94471104D01*
X96061428Y-94471104D02*
X96099523Y-94509200D01*
X96099523Y-94509200D02*
X96175714Y-94547295D01*
X96175714Y-94547295D02*
X96328095Y-94547295D01*
X96328095Y-94547295D02*
X96404285Y-94509200D01*
X96404285Y-94509200D02*
X96442380Y-94471104D01*
X96442380Y-94471104D02*
X96480476Y-94394914D01*
X96480476Y-94394914D02*
X96480476Y-93747295D01*
X96823332Y-94509200D02*
X96937618Y-94547295D01*
X96937618Y-94547295D02*
X97128094Y-94547295D01*
X97128094Y-94547295D02*
X97204285Y-94509200D01*
X97204285Y-94509200D02*
X97242380Y-94471104D01*
X97242380Y-94471104D02*
X97280475Y-94394914D01*
X97280475Y-94394914D02*
X97280475Y-94318723D01*
X97280475Y-94318723D02*
X97242380Y-94242533D01*
X97242380Y-94242533D02*
X97204285Y-94204438D01*
X97204285Y-94204438D02*
X97128094Y-94166342D01*
X97128094Y-94166342D02*
X96975713Y-94128247D01*
X96975713Y-94128247D02*
X96899523Y-94090152D01*
X96899523Y-94090152D02*
X96861428Y-94052057D01*
X96861428Y-94052057D02*
X96823332Y-93975866D01*
X96823332Y-93975866D02*
X96823332Y-93899676D01*
X96823332Y-93899676D02*
X96861428Y-93823485D01*
X96861428Y-93823485D02*
X96899523Y-93785390D01*
X96899523Y-93785390D02*
X96975713Y-93747295D01*
X96975713Y-93747295D02*
X97166190Y-93747295D01*
X97166190Y-93747295D02*
X97280475Y-93785390D01*
X94687618Y-129345390D02*
X94611428Y-129307295D01*
X94611428Y-129307295D02*
X94497142Y-129307295D01*
X94497142Y-129307295D02*
X94382856Y-129345390D01*
X94382856Y-129345390D02*
X94306666Y-129421580D01*
X94306666Y-129421580D02*
X94268571Y-129497771D01*
X94268571Y-129497771D02*
X94230475Y-129650152D01*
X94230475Y-129650152D02*
X94230475Y-129764438D01*
X94230475Y-129764438D02*
X94268571Y-129916819D01*
X94268571Y-129916819D02*
X94306666Y-129993009D01*
X94306666Y-129993009D02*
X94382856Y-130069200D01*
X94382856Y-130069200D02*
X94497142Y-130107295D01*
X94497142Y-130107295D02*
X94573333Y-130107295D01*
X94573333Y-130107295D02*
X94687618Y-130069200D01*
X94687618Y-130069200D02*
X94725714Y-130031104D01*
X94725714Y-130031104D02*
X94725714Y-129764438D01*
X94725714Y-129764438D02*
X94573333Y-129764438D01*
X95068571Y-130107295D02*
X95068571Y-129307295D01*
X95068571Y-129307295D02*
X95373333Y-129307295D01*
X95373333Y-129307295D02*
X95449523Y-129345390D01*
X95449523Y-129345390D02*
X95487618Y-129383485D01*
X95487618Y-129383485D02*
X95525714Y-129459676D01*
X95525714Y-129459676D02*
X95525714Y-129573961D01*
X95525714Y-129573961D02*
X95487618Y-129650152D01*
X95487618Y-129650152D02*
X95449523Y-129688247D01*
X95449523Y-129688247D02*
X95373333Y-129726342D01*
X95373333Y-129726342D02*
X95068571Y-129726342D01*
X95830475Y-129383485D02*
X95868571Y-129345390D01*
X95868571Y-129345390D02*
X95944761Y-129307295D01*
X95944761Y-129307295D02*
X96135237Y-129307295D01*
X96135237Y-129307295D02*
X96211428Y-129345390D01*
X96211428Y-129345390D02*
X96249523Y-129383485D01*
X96249523Y-129383485D02*
X96287618Y-129459676D01*
X96287618Y-129459676D02*
X96287618Y-129535866D01*
X96287618Y-129535866D02*
X96249523Y-129650152D01*
X96249523Y-129650152D02*
X95792380Y-130107295D01*
X95792380Y-130107295D02*
X96287618Y-130107295D01*
X96782857Y-129307295D02*
X96859047Y-129307295D01*
X96859047Y-129307295D02*
X96935238Y-129345390D01*
X96935238Y-129345390D02*
X96973333Y-129383485D01*
X96973333Y-129383485D02*
X97011428Y-129459676D01*
X97011428Y-129459676D02*
X97049523Y-129612057D01*
X97049523Y-129612057D02*
X97049523Y-129802533D01*
X97049523Y-129802533D02*
X97011428Y-129954914D01*
X97011428Y-129954914D02*
X96973333Y-130031104D01*
X96973333Y-130031104D02*
X96935238Y-130069200D01*
X96935238Y-130069200D02*
X96859047Y-130107295D01*
X96859047Y-130107295D02*
X96782857Y-130107295D01*
X96782857Y-130107295D02*
X96706666Y-130069200D01*
X96706666Y-130069200D02*
X96668571Y-130031104D01*
X96668571Y-130031104D02*
X96630476Y-129954914D01*
X96630476Y-129954914D02*
X96592380Y-129802533D01*
X96592380Y-129802533D02*
X96592380Y-129612057D01*
X96592380Y-129612057D02*
X96630476Y-129459676D01*
X96630476Y-129459676D02*
X96668571Y-129383485D01*
X96668571Y-129383485D02*
X96706666Y-129345390D01*
X96706666Y-129345390D02*
X96782857Y-129307295D01*
X83457618Y-131885390D02*
X83381428Y-131847295D01*
X83381428Y-131847295D02*
X83267142Y-131847295D01*
X83267142Y-131847295D02*
X83152856Y-131885390D01*
X83152856Y-131885390D02*
X83076666Y-131961580D01*
X83076666Y-131961580D02*
X83038571Y-132037771D01*
X83038571Y-132037771D02*
X83000475Y-132190152D01*
X83000475Y-132190152D02*
X83000475Y-132304438D01*
X83000475Y-132304438D02*
X83038571Y-132456819D01*
X83038571Y-132456819D02*
X83076666Y-132533009D01*
X83076666Y-132533009D02*
X83152856Y-132609200D01*
X83152856Y-132609200D02*
X83267142Y-132647295D01*
X83267142Y-132647295D02*
X83343333Y-132647295D01*
X83343333Y-132647295D02*
X83457618Y-132609200D01*
X83457618Y-132609200D02*
X83495714Y-132571104D01*
X83495714Y-132571104D02*
X83495714Y-132304438D01*
X83495714Y-132304438D02*
X83343333Y-132304438D01*
X83838571Y-132647295D02*
X83838571Y-131847295D01*
X83838571Y-131847295D02*
X84143333Y-131847295D01*
X84143333Y-131847295D02*
X84219523Y-131885390D01*
X84219523Y-131885390D02*
X84257618Y-131923485D01*
X84257618Y-131923485D02*
X84295714Y-131999676D01*
X84295714Y-131999676D02*
X84295714Y-132113961D01*
X84295714Y-132113961D02*
X84257618Y-132190152D01*
X84257618Y-132190152D02*
X84219523Y-132228247D01*
X84219523Y-132228247D02*
X84143333Y-132266342D01*
X84143333Y-132266342D02*
X83838571Y-132266342D01*
X85057618Y-132647295D02*
X84600475Y-132647295D01*
X84829047Y-132647295D02*
X84829047Y-131847295D01*
X84829047Y-131847295D02*
X84752856Y-131961580D01*
X84752856Y-131961580D02*
X84676666Y-132037771D01*
X84676666Y-132037771D02*
X84600475Y-132075866D01*
X85362380Y-131923485D02*
X85400476Y-131885390D01*
X85400476Y-131885390D02*
X85476666Y-131847295D01*
X85476666Y-131847295D02*
X85667142Y-131847295D01*
X85667142Y-131847295D02*
X85743333Y-131885390D01*
X85743333Y-131885390D02*
X85781428Y-131923485D01*
X85781428Y-131923485D02*
X85819523Y-131999676D01*
X85819523Y-131999676D02*
X85819523Y-132075866D01*
X85819523Y-132075866D02*
X85781428Y-132190152D01*
X85781428Y-132190152D02*
X85324285Y-132647295D01*
X85324285Y-132647295D02*
X85819523Y-132647295D01*
X83457618Y-139505390D02*
X83381428Y-139467295D01*
X83381428Y-139467295D02*
X83267142Y-139467295D01*
X83267142Y-139467295D02*
X83152856Y-139505390D01*
X83152856Y-139505390D02*
X83076666Y-139581580D01*
X83076666Y-139581580D02*
X83038571Y-139657771D01*
X83038571Y-139657771D02*
X83000475Y-139810152D01*
X83000475Y-139810152D02*
X83000475Y-139924438D01*
X83000475Y-139924438D02*
X83038571Y-140076819D01*
X83038571Y-140076819D02*
X83076666Y-140153009D01*
X83076666Y-140153009D02*
X83152856Y-140229200D01*
X83152856Y-140229200D02*
X83267142Y-140267295D01*
X83267142Y-140267295D02*
X83343333Y-140267295D01*
X83343333Y-140267295D02*
X83457618Y-140229200D01*
X83457618Y-140229200D02*
X83495714Y-140191104D01*
X83495714Y-140191104D02*
X83495714Y-139924438D01*
X83495714Y-139924438D02*
X83343333Y-139924438D01*
X83838571Y-140267295D02*
X83838571Y-139467295D01*
X83838571Y-139467295D02*
X84143333Y-139467295D01*
X84143333Y-139467295D02*
X84219523Y-139505390D01*
X84219523Y-139505390D02*
X84257618Y-139543485D01*
X84257618Y-139543485D02*
X84295714Y-139619676D01*
X84295714Y-139619676D02*
X84295714Y-139733961D01*
X84295714Y-139733961D02*
X84257618Y-139810152D01*
X84257618Y-139810152D02*
X84219523Y-139848247D01*
X84219523Y-139848247D02*
X84143333Y-139886342D01*
X84143333Y-139886342D02*
X83838571Y-139886342D01*
X85057618Y-140267295D02*
X84600475Y-140267295D01*
X84829047Y-140267295D02*
X84829047Y-139467295D01*
X84829047Y-139467295D02*
X84752856Y-139581580D01*
X84752856Y-139581580D02*
X84676666Y-139657771D01*
X84676666Y-139657771D02*
X84600475Y-139695866D01*
X85743333Y-139733961D02*
X85743333Y-140267295D01*
X85552857Y-139429200D02*
X85362380Y-140000628D01*
X85362380Y-140000628D02*
X85857619Y-140000628D01*
X94687618Y-142045390D02*
X94611428Y-142007295D01*
X94611428Y-142007295D02*
X94497142Y-142007295D01*
X94497142Y-142007295D02*
X94382856Y-142045390D01*
X94382856Y-142045390D02*
X94306666Y-142121580D01*
X94306666Y-142121580D02*
X94268571Y-142197771D01*
X94268571Y-142197771D02*
X94230475Y-142350152D01*
X94230475Y-142350152D02*
X94230475Y-142464438D01*
X94230475Y-142464438D02*
X94268571Y-142616819D01*
X94268571Y-142616819D02*
X94306666Y-142693009D01*
X94306666Y-142693009D02*
X94382856Y-142769200D01*
X94382856Y-142769200D02*
X94497142Y-142807295D01*
X94497142Y-142807295D02*
X94573333Y-142807295D01*
X94573333Y-142807295D02*
X94687618Y-142769200D01*
X94687618Y-142769200D02*
X94725714Y-142731104D01*
X94725714Y-142731104D02*
X94725714Y-142464438D01*
X94725714Y-142464438D02*
X94573333Y-142464438D01*
X95068571Y-142807295D02*
X95068571Y-142007295D01*
X95068571Y-142007295D02*
X95373333Y-142007295D01*
X95373333Y-142007295D02*
X95449523Y-142045390D01*
X95449523Y-142045390D02*
X95487618Y-142083485D01*
X95487618Y-142083485D02*
X95525714Y-142159676D01*
X95525714Y-142159676D02*
X95525714Y-142273961D01*
X95525714Y-142273961D02*
X95487618Y-142350152D01*
X95487618Y-142350152D02*
X95449523Y-142388247D01*
X95449523Y-142388247D02*
X95373333Y-142426342D01*
X95373333Y-142426342D02*
X95068571Y-142426342D01*
X96287618Y-142807295D02*
X95830475Y-142807295D01*
X96059047Y-142807295D02*
X96059047Y-142007295D01*
X96059047Y-142007295D02*
X95982856Y-142121580D01*
X95982856Y-142121580D02*
X95906666Y-142197771D01*
X95906666Y-142197771D02*
X95830475Y-142235866D01*
X96973333Y-142007295D02*
X96820952Y-142007295D01*
X96820952Y-142007295D02*
X96744761Y-142045390D01*
X96744761Y-142045390D02*
X96706666Y-142083485D01*
X96706666Y-142083485D02*
X96630476Y-142197771D01*
X96630476Y-142197771D02*
X96592380Y-142350152D01*
X96592380Y-142350152D02*
X96592380Y-142654914D01*
X96592380Y-142654914D02*
X96630476Y-142731104D01*
X96630476Y-142731104D02*
X96668571Y-142769200D01*
X96668571Y-142769200D02*
X96744761Y-142807295D01*
X96744761Y-142807295D02*
X96897142Y-142807295D01*
X96897142Y-142807295D02*
X96973333Y-142769200D01*
X96973333Y-142769200D02*
X97011428Y-142731104D01*
X97011428Y-142731104D02*
X97049523Y-142654914D01*
X97049523Y-142654914D02*
X97049523Y-142464438D01*
X97049523Y-142464438D02*
X97011428Y-142388247D01*
X97011428Y-142388247D02*
X96973333Y-142350152D01*
X96973333Y-142350152D02*
X96897142Y-142312057D01*
X96897142Y-142312057D02*
X96744761Y-142312057D01*
X96744761Y-142312057D02*
X96668571Y-142350152D01*
X96668571Y-142350152D02*
X96630476Y-142388247D01*
X96630476Y-142388247D02*
X96592380Y-142464438D01*
X94687618Y-131885390D02*
X94611428Y-131847295D01*
X94611428Y-131847295D02*
X94497142Y-131847295D01*
X94497142Y-131847295D02*
X94382856Y-131885390D01*
X94382856Y-131885390D02*
X94306666Y-131961580D01*
X94306666Y-131961580D02*
X94268571Y-132037771D01*
X94268571Y-132037771D02*
X94230475Y-132190152D01*
X94230475Y-132190152D02*
X94230475Y-132304438D01*
X94230475Y-132304438D02*
X94268571Y-132456819D01*
X94268571Y-132456819D02*
X94306666Y-132533009D01*
X94306666Y-132533009D02*
X94382856Y-132609200D01*
X94382856Y-132609200D02*
X94497142Y-132647295D01*
X94497142Y-132647295D02*
X94573333Y-132647295D01*
X94573333Y-132647295D02*
X94687618Y-132609200D01*
X94687618Y-132609200D02*
X94725714Y-132571104D01*
X94725714Y-132571104D02*
X94725714Y-132304438D01*
X94725714Y-132304438D02*
X94573333Y-132304438D01*
X95068571Y-132647295D02*
X95068571Y-131847295D01*
X95068571Y-131847295D02*
X95373333Y-131847295D01*
X95373333Y-131847295D02*
X95449523Y-131885390D01*
X95449523Y-131885390D02*
X95487618Y-131923485D01*
X95487618Y-131923485D02*
X95525714Y-131999676D01*
X95525714Y-131999676D02*
X95525714Y-132113961D01*
X95525714Y-132113961D02*
X95487618Y-132190152D01*
X95487618Y-132190152D02*
X95449523Y-132228247D01*
X95449523Y-132228247D02*
X95373333Y-132266342D01*
X95373333Y-132266342D02*
X95068571Y-132266342D01*
X96287618Y-132647295D02*
X95830475Y-132647295D01*
X96059047Y-132647295D02*
X96059047Y-131847295D01*
X96059047Y-131847295D02*
X95982856Y-131961580D01*
X95982856Y-131961580D02*
X95906666Y-132037771D01*
X95906666Y-132037771D02*
X95830475Y-132075866D01*
X96668571Y-132647295D02*
X96820952Y-132647295D01*
X96820952Y-132647295D02*
X96897142Y-132609200D01*
X96897142Y-132609200D02*
X96935238Y-132571104D01*
X96935238Y-132571104D02*
X97011428Y-132456819D01*
X97011428Y-132456819D02*
X97049523Y-132304438D01*
X97049523Y-132304438D02*
X97049523Y-131999676D01*
X97049523Y-131999676D02*
X97011428Y-131923485D01*
X97011428Y-131923485D02*
X96973333Y-131885390D01*
X96973333Y-131885390D02*
X96897142Y-131847295D01*
X96897142Y-131847295D02*
X96744761Y-131847295D01*
X96744761Y-131847295D02*
X96668571Y-131885390D01*
X96668571Y-131885390D02*
X96630476Y-131923485D01*
X96630476Y-131923485D02*
X96592380Y-131999676D01*
X96592380Y-131999676D02*
X96592380Y-132190152D01*
X96592380Y-132190152D02*
X96630476Y-132266342D01*
X96630476Y-132266342D02*
X96668571Y-132304438D01*
X96668571Y-132304438D02*
X96744761Y-132342533D01*
X96744761Y-132342533D02*
X96897142Y-132342533D01*
X96897142Y-132342533D02*
X96973333Y-132304438D01*
X96973333Y-132304438D02*
X97011428Y-132266342D01*
X97011428Y-132266342D02*
X97049523Y-132190152D01*
X95380476Y-124265390D02*
X95304286Y-124227295D01*
X95304286Y-124227295D02*
X95190000Y-124227295D01*
X95190000Y-124227295D02*
X95075714Y-124265390D01*
X95075714Y-124265390D02*
X94999524Y-124341580D01*
X94999524Y-124341580D02*
X94961429Y-124417771D01*
X94961429Y-124417771D02*
X94923333Y-124570152D01*
X94923333Y-124570152D02*
X94923333Y-124684438D01*
X94923333Y-124684438D02*
X94961429Y-124836819D01*
X94961429Y-124836819D02*
X94999524Y-124913009D01*
X94999524Y-124913009D02*
X95075714Y-124989200D01*
X95075714Y-124989200D02*
X95190000Y-125027295D01*
X95190000Y-125027295D02*
X95266191Y-125027295D01*
X95266191Y-125027295D02*
X95380476Y-124989200D01*
X95380476Y-124989200D02*
X95418572Y-124951104D01*
X95418572Y-124951104D02*
X95418572Y-124684438D01*
X95418572Y-124684438D02*
X95266191Y-124684438D01*
X95761429Y-125027295D02*
X95761429Y-124227295D01*
X95761429Y-124227295D02*
X96218572Y-125027295D01*
X96218572Y-125027295D02*
X96218572Y-124227295D01*
X96599524Y-125027295D02*
X96599524Y-124227295D01*
X96599524Y-124227295D02*
X96790000Y-124227295D01*
X96790000Y-124227295D02*
X96904286Y-124265390D01*
X96904286Y-124265390D02*
X96980476Y-124341580D01*
X96980476Y-124341580D02*
X97018571Y-124417771D01*
X97018571Y-124417771D02*
X97056667Y-124570152D01*
X97056667Y-124570152D02*
X97056667Y-124684438D01*
X97056667Y-124684438D02*
X97018571Y-124836819D01*
X97018571Y-124836819D02*
X96980476Y-124913009D01*
X96980476Y-124913009D02*
X96904286Y-124989200D01*
X96904286Y-124989200D02*
X96790000Y-125027295D01*
X96790000Y-125027295D02*
X96599524Y-125027295D01*
X83457618Y-134425390D02*
X83381428Y-134387295D01*
X83381428Y-134387295D02*
X83267142Y-134387295D01*
X83267142Y-134387295D02*
X83152856Y-134425390D01*
X83152856Y-134425390D02*
X83076666Y-134501580D01*
X83076666Y-134501580D02*
X83038571Y-134577771D01*
X83038571Y-134577771D02*
X83000475Y-134730152D01*
X83000475Y-134730152D02*
X83000475Y-134844438D01*
X83000475Y-134844438D02*
X83038571Y-134996819D01*
X83038571Y-134996819D02*
X83076666Y-135073009D01*
X83076666Y-135073009D02*
X83152856Y-135149200D01*
X83152856Y-135149200D02*
X83267142Y-135187295D01*
X83267142Y-135187295D02*
X83343333Y-135187295D01*
X83343333Y-135187295D02*
X83457618Y-135149200D01*
X83457618Y-135149200D02*
X83495714Y-135111104D01*
X83495714Y-135111104D02*
X83495714Y-134844438D01*
X83495714Y-134844438D02*
X83343333Y-134844438D01*
X83838571Y-135187295D02*
X83838571Y-134387295D01*
X83838571Y-134387295D02*
X84143333Y-134387295D01*
X84143333Y-134387295D02*
X84219523Y-134425390D01*
X84219523Y-134425390D02*
X84257618Y-134463485D01*
X84257618Y-134463485D02*
X84295714Y-134539676D01*
X84295714Y-134539676D02*
X84295714Y-134653961D01*
X84295714Y-134653961D02*
X84257618Y-134730152D01*
X84257618Y-134730152D02*
X84219523Y-134768247D01*
X84219523Y-134768247D02*
X84143333Y-134806342D01*
X84143333Y-134806342D02*
X83838571Y-134806342D01*
X85057618Y-135187295D02*
X84600475Y-135187295D01*
X84829047Y-135187295D02*
X84829047Y-134387295D01*
X84829047Y-134387295D02*
X84752856Y-134501580D01*
X84752856Y-134501580D02*
X84676666Y-134577771D01*
X84676666Y-134577771D02*
X84600475Y-134615866D01*
X85324285Y-134387295D02*
X85819523Y-134387295D01*
X85819523Y-134387295D02*
X85552857Y-134692057D01*
X85552857Y-134692057D02*
X85667142Y-134692057D01*
X85667142Y-134692057D02*
X85743333Y-134730152D01*
X85743333Y-134730152D02*
X85781428Y-134768247D01*
X85781428Y-134768247D02*
X85819523Y-134844438D01*
X85819523Y-134844438D02*
X85819523Y-135034914D01*
X85819523Y-135034914D02*
X85781428Y-135111104D01*
X85781428Y-135111104D02*
X85743333Y-135149200D01*
X85743333Y-135149200D02*
X85667142Y-135187295D01*
X85667142Y-135187295D02*
X85438571Y-135187295D01*
X85438571Y-135187295D02*
X85362380Y-135149200D01*
X85362380Y-135149200D02*
X85324285Y-135111104D01*
X83488571Y-106485390D02*
X83412381Y-106447295D01*
X83412381Y-106447295D02*
X83298095Y-106447295D01*
X83298095Y-106447295D02*
X83183809Y-106485390D01*
X83183809Y-106485390D02*
X83107619Y-106561580D01*
X83107619Y-106561580D02*
X83069524Y-106637771D01*
X83069524Y-106637771D02*
X83031428Y-106790152D01*
X83031428Y-106790152D02*
X83031428Y-106904438D01*
X83031428Y-106904438D02*
X83069524Y-107056819D01*
X83069524Y-107056819D02*
X83107619Y-107133009D01*
X83107619Y-107133009D02*
X83183809Y-107209200D01*
X83183809Y-107209200D02*
X83298095Y-107247295D01*
X83298095Y-107247295D02*
X83374286Y-107247295D01*
X83374286Y-107247295D02*
X83488571Y-107209200D01*
X83488571Y-107209200D02*
X83526667Y-107171104D01*
X83526667Y-107171104D02*
X83526667Y-106904438D01*
X83526667Y-106904438D02*
X83374286Y-106904438D01*
X83869524Y-107247295D02*
X83869524Y-106447295D01*
X83869524Y-106447295D02*
X84174286Y-106447295D01*
X84174286Y-106447295D02*
X84250476Y-106485390D01*
X84250476Y-106485390D02*
X84288571Y-106523485D01*
X84288571Y-106523485D02*
X84326667Y-106599676D01*
X84326667Y-106599676D02*
X84326667Y-106713961D01*
X84326667Y-106713961D02*
X84288571Y-106790152D01*
X84288571Y-106790152D02*
X84250476Y-106828247D01*
X84250476Y-106828247D02*
X84174286Y-106866342D01*
X84174286Y-106866342D02*
X83869524Y-106866342D01*
X85012381Y-106713961D02*
X85012381Y-107247295D01*
X84821905Y-106409200D02*
X84631428Y-106980628D01*
X84631428Y-106980628D02*
X85126667Y-106980628D01*
X94230476Y-112098723D02*
X94611429Y-112098723D01*
X94154286Y-112327295D02*
X94420953Y-111527295D01*
X94420953Y-111527295D02*
X94687619Y-112327295D01*
X95373333Y-111565390D02*
X95297143Y-111527295D01*
X95297143Y-111527295D02*
X95182857Y-111527295D01*
X95182857Y-111527295D02*
X95068571Y-111565390D01*
X95068571Y-111565390D02*
X94992381Y-111641580D01*
X94992381Y-111641580D02*
X94954286Y-111717771D01*
X94954286Y-111717771D02*
X94916190Y-111870152D01*
X94916190Y-111870152D02*
X94916190Y-111984438D01*
X94916190Y-111984438D02*
X94954286Y-112136819D01*
X94954286Y-112136819D02*
X94992381Y-112213009D01*
X94992381Y-112213009D02*
X95068571Y-112289200D01*
X95068571Y-112289200D02*
X95182857Y-112327295D01*
X95182857Y-112327295D02*
X95259048Y-112327295D01*
X95259048Y-112327295D02*
X95373333Y-112289200D01*
X95373333Y-112289200D02*
X95411429Y-112251104D01*
X95411429Y-112251104D02*
X95411429Y-111984438D01*
X95411429Y-111984438D02*
X95259048Y-111984438D01*
X95754286Y-112327295D02*
X95754286Y-111527295D01*
X95754286Y-111527295D02*
X96211429Y-112327295D01*
X96211429Y-112327295D02*
X96211429Y-111527295D01*
X96592381Y-112327295D02*
X96592381Y-111527295D01*
X96592381Y-111527295D02*
X96782857Y-111527295D01*
X96782857Y-111527295D02*
X96897143Y-111565390D01*
X96897143Y-111565390D02*
X96973333Y-111641580D01*
X96973333Y-111641580D02*
X97011428Y-111717771D01*
X97011428Y-111717771D02*
X97049524Y-111870152D01*
X97049524Y-111870152D02*
X97049524Y-111984438D01*
X97049524Y-111984438D02*
X97011428Y-112136819D01*
X97011428Y-112136819D02*
X96973333Y-112213009D01*
X96973333Y-112213009D02*
X96897143Y-112289200D01*
X96897143Y-112289200D02*
X96782857Y-112327295D01*
X96782857Y-112327295D02*
X96592381Y-112327295D01*
X95399524Y-119947295D02*
X95132857Y-119566342D01*
X94942381Y-119947295D02*
X94942381Y-119147295D01*
X94942381Y-119147295D02*
X95247143Y-119147295D01*
X95247143Y-119147295D02*
X95323333Y-119185390D01*
X95323333Y-119185390D02*
X95361428Y-119223485D01*
X95361428Y-119223485D02*
X95399524Y-119299676D01*
X95399524Y-119299676D02*
X95399524Y-119413961D01*
X95399524Y-119413961D02*
X95361428Y-119490152D01*
X95361428Y-119490152D02*
X95323333Y-119528247D01*
X95323333Y-119528247D02*
X95247143Y-119566342D01*
X95247143Y-119566342D02*
X94942381Y-119566342D01*
X95742381Y-119147295D02*
X95742381Y-119794914D01*
X95742381Y-119794914D02*
X95780476Y-119871104D01*
X95780476Y-119871104D02*
X95818571Y-119909200D01*
X95818571Y-119909200D02*
X95894762Y-119947295D01*
X95894762Y-119947295D02*
X96047143Y-119947295D01*
X96047143Y-119947295D02*
X96123333Y-119909200D01*
X96123333Y-119909200D02*
X96161428Y-119871104D01*
X96161428Y-119871104D02*
X96199524Y-119794914D01*
X96199524Y-119794914D02*
X96199524Y-119147295D01*
X96580476Y-119947295D02*
X96580476Y-119147295D01*
X96580476Y-119147295D02*
X97037619Y-119947295D01*
X97037619Y-119947295D02*
X97037619Y-119147295D01*
X94687618Y-114115390D02*
X94611428Y-114077295D01*
X94611428Y-114077295D02*
X94497142Y-114077295D01*
X94497142Y-114077295D02*
X94382856Y-114115390D01*
X94382856Y-114115390D02*
X94306666Y-114191580D01*
X94306666Y-114191580D02*
X94268571Y-114267771D01*
X94268571Y-114267771D02*
X94230475Y-114420152D01*
X94230475Y-114420152D02*
X94230475Y-114534438D01*
X94230475Y-114534438D02*
X94268571Y-114686819D01*
X94268571Y-114686819D02*
X94306666Y-114763009D01*
X94306666Y-114763009D02*
X94382856Y-114839200D01*
X94382856Y-114839200D02*
X94497142Y-114877295D01*
X94497142Y-114877295D02*
X94573333Y-114877295D01*
X94573333Y-114877295D02*
X94687618Y-114839200D01*
X94687618Y-114839200D02*
X94725714Y-114801104D01*
X94725714Y-114801104D02*
X94725714Y-114534438D01*
X94725714Y-114534438D02*
X94573333Y-114534438D01*
X95068571Y-114877295D02*
X95068571Y-114077295D01*
X95068571Y-114077295D02*
X95373333Y-114077295D01*
X95373333Y-114077295D02*
X95449523Y-114115390D01*
X95449523Y-114115390D02*
X95487618Y-114153485D01*
X95487618Y-114153485D02*
X95525714Y-114229676D01*
X95525714Y-114229676D02*
X95525714Y-114343961D01*
X95525714Y-114343961D02*
X95487618Y-114420152D01*
X95487618Y-114420152D02*
X95449523Y-114458247D01*
X95449523Y-114458247D02*
X95373333Y-114496342D01*
X95373333Y-114496342D02*
X95068571Y-114496342D01*
X95830475Y-114153485D02*
X95868571Y-114115390D01*
X95868571Y-114115390D02*
X95944761Y-114077295D01*
X95944761Y-114077295D02*
X96135237Y-114077295D01*
X96135237Y-114077295D02*
X96211428Y-114115390D01*
X96211428Y-114115390D02*
X96249523Y-114153485D01*
X96249523Y-114153485D02*
X96287618Y-114229676D01*
X96287618Y-114229676D02*
X96287618Y-114305866D01*
X96287618Y-114305866D02*
X96249523Y-114420152D01*
X96249523Y-114420152D02*
X95792380Y-114877295D01*
X95792380Y-114877295D02*
X96287618Y-114877295D01*
X96554285Y-114077295D02*
X97087619Y-114077295D01*
X97087619Y-114077295D02*
X96744761Y-114877295D01*
X94687618Y-126815390D02*
X94611428Y-126777295D01*
X94611428Y-126777295D02*
X94497142Y-126777295D01*
X94497142Y-126777295D02*
X94382856Y-126815390D01*
X94382856Y-126815390D02*
X94306666Y-126891580D01*
X94306666Y-126891580D02*
X94268571Y-126967771D01*
X94268571Y-126967771D02*
X94230475Y-127120152D01*
X94230475Y-127120152D02*
X94230475Y-127234438D01*
X94230475Y-127234438D02*
X94268571Y-127386819D01*
X94268571Y-127386819D02*
X94306666Y-127463009D01*
X94306666Y-127463009D02*
X94382856Y-127539200D01*
X94382856Y-127539200D02*
X94497142Y-127577295D01*
X94497142Y-127577295D02*
X94573333Y-127577295D01*
X94573333Y-127577295D02*
X94687618Y-127539200D01*
X94687618Y-127539200D02*
X94725714Y-127501104D01*
X94725714Y-127501104D02*
X94725714Y-127234438D01*
X94725714Y-127234438D02*
X94573333Y-127234438D01*
X95068571Y-127577295D02*
X95068571Y-126777295D01*
X95068571Y-126777295D02*
X95373333Y-126777295D01*
X95373333Y-126777295D02*
X95449523Y-126815390D01*
X95449523Y-126815390D02*
X95487618Y-126853485D01*
X95487618Y-126853485D02*
X95525714Y-126929676D01*
X95525714Y-126929676D02*
X95525714Y-127043961D01*
X95525714Y-127043961D02*
X95487618Y-127120152D01*
X95487618Y-127120152D02*
X95449523Y-127158247D01*
X95449523Y-127158247D02*
X95373333Y-127196342D01*
X95373333Y-127196342D02*
X95068571Y-127196342D01*
X95830475Y-126853485D02*
X95868571Y-126815390D01*
X95868571Y-126815390D02*
X95944761Y-126777295D01*
X95944761Y-126777295D02*
X96135237Y-126777295D01*
X96135237Y-126777295D02*
X96211428Y-126815390D01*
X96211428Y-126815390D02*
X96249523Y-126853485D01*
X96249523Y-126853485D02*
X96287618Y-126929676D01*
X96287618Y-126929676D02*
X96287618Y-127005866D01*
X96287618Y-127005866D02*
X96249523Y-127120152D01*
X96249523Y-127120152D02*
X95792380Y-127577295D01*
X95792380Y-127577295D02*
X96287618Y-127577295D01*
X97049523Y-127577295D02*
X96592380Y-127577295D01*
X96820952Y-127577295D02*
X96820952Y-126777295D01*
X96820952Y-126777295D02*
X96744761Y-126891580D01*
X96744761Y-126891580D02*
X96668571Y-126967771D01*
X96668571Y-126967771D02*
X96592380Y-127005866D01*
X89700390Y-139924523D02*
X89662295Y-140000713D01*
X89662295Y-140000713D02*
X89662295Y-140114999D01*
X89662295Y-140114999D02*
X89700390Y-140229285D01*
X89700390Y-140229285D02*
X89776580Y-140305475D01*
X89776580Y-140305475D02*
X89852771Y-140343570D01*
X89852771Y-140343570D02*
X90005152Y-140381666D01*
X90005152Y-140381666D02*
X90119438Y-140381666D01*
X90119438Y-140381666D02*
X90271819Y-140343570D01*
X90271819Y-140343570D02*
X90348009Y-140305475D01*
X90348009Y-140305475D02*
X90424200Y-140229285D01*
X90424200Y-140229285D02*
X90462295Y-140114999D01*
X90462295Y-140114999D02*
X90462295Y-140038808D01*
X90462295Y-140038808D02*
X90424200Y-139924523D01*
X90424200Y-139924523D02*
X90386104Y-139886427D01*
X90386104Y-139886427D02*
X90119438Y-139886427D01*
X90119438Y-139886427D02*
X90119438Y-140038808D01*
X90462295Y-139543570D02*
X89662295Y-139543570D01*
X89662295Y-139543570D02*
X90462295Y-139086427D01*
X90462295Y-139086427D02*
X89662295Y-139086427D01*
X90462295Y-138705475D02*
X89662295Y-138705475D01*
X89662295Y-138705475D02*
X89662295Y-138514999D01*
X89662295Y-138514999D02*
X89700390Y-138400713D01*
X89700390Y-138400713D02*
X89776580Y-138324523D01*
X89776580Y-138324523D02*
X89852771Y-138286428D01*
X89852771Y-138286428D02*
X90005152Y-138248332D01*
X90005152Y-138248332D02*
X90119438Y-138248332D01*
X90119438Y-138248332D02*
X90271819Y-138286428D01*
X90271819Y-138286428D02*
X90348009Y-138324523D01*
X90348009Y-138324523D02*
X90424200Y-138400713D01*
X90424200Y-138400713D02*
X90462295Y-138514999D01*
X90462295Y-138514999D02*
X90462295Y-138705475D01*
X94687618Y-134425390D02*
X94611428Y-134387295D01*
X94611428Y-134387295D02*
X94497142Y-134387295D01*
X94497142Y-134387295D02*
X94382856Y-134425390D01*
X94382856Y-134425390D02*
X94306666Y-134501580D01*
X94306666Y-134501580D02*
X94268571Y-134577771D01*
X94268571Y-134577771D02*
X94230475Y-134730152D01*
X94230475Y-134730152D02*
X94230475Y-134844438D01*
X94230475Y-134844438D02*
X94268571Y-134996819D01*
X94268571Y-134996819D02*
X94306666Y-135073009D01*
X94306666Y-135073009D02*
X94382856Y-135149200D01*
X94382856Y-135149200D02*
X94497142Y-135187295D01*
X94497142Y-135187295D02*
X94573333Y-135187295D01*
X94573333Y-135187295D02*
X94687618Y-135149200D01*
X94687618Y-135149200D02*
X94725714Y-135111104D01*
X94725714Y-135111104D02*
X94725714Y-134844438D01*
X94725714Y-134844438D02*
X94573333Y-134844438D01*
X95068571Y-135187295D02*
X95068571Y-134387295D01*
X95068571Y-134387295D02*
X95373333Y-134387295D01*
X95373333Y-134387295D02*
X95449523Y-134425390D01*
X95449523Y-134425390D02*
X95487618Y-134463485D01*
X95487618Y-134463485D02*
X95525714Y-134539676D01*
X95525714Y-134539676D02*
X95525714Y-134653961D01*
X95525714Y-134653961D02*
X95487618Y-134730152D01*
X95487618Y-134730152D02*
X95449523Y-134768247D01*
X95449523Y-134768247D02*
X95373333Y-134806342D01*
X95373333Y-134806342D02*
X95068571Y-134806342D01*
X96287618Y-135187295D02*
X95830475Y-135187295D01*
X96059047Y-135187295D02*
X96059047Y-134387295D01*
X96059047Y-134387295D02*
X95982856Y-134501580D01*
X95982856Y-134501580D02*
X95906666Y-134577771D01*
X95906666Y-134577771D02*
X95830475Y-134615866D01*
X96744761Y-134730152D02*
X96668571Y-134692057D01*
X96668571Y-134692057D02*
X96630476Y-134653961D01*
X96630476Y-134653961D02*
X96592380Y-134577771D01*
X96592380Y-134577771D02*
X96592380Y-134539676D01*
X96592380Y-134539676D02*
X96630476Y-134463485D01*
X96630476Y-134463485D02*
X96668571Y-134425390D01*
X96668571Y-134425390D02*
X96744761Y-134387295D01*
X96744761Y-134387295D02*
X96897142Y-134387295D01*
X96897142Y-134387295D02*
X96973333Y-134425390D01*
X96973333Y-134425390D02*
X97011428Y-134463485D01*
X97011428Y-134463485D02*
X97049523Y-134539676D01*
X97049523Y-134539676D02*
X97049523Y-134577771D01*
X97049523Y-134577771D02*
X97011428Y-134653961D01*
X97011428Y-134653961D02*
X96973333Y-134692057D01*
X96973333Y-134692057D02*
X96897142Y-134730152D01*
X96897142Y-134730152D02*
X96744761Y-134730152D01*
X96744761Y-134730152D02*
X96668571Y-134768247D01*
X96668571Y-134768247D02*
X96630476Y-134806342D01*
X96630476Y-134806342D02*
X96592380Y-134882533D01*
X96592380Y-134882533D02*
X96592380Y-135034914D01*
X96592380Y-135034914D02*
X96630476Y-135111104D01*
X96630476Y-135111104D02*
X96668571Y-135149200D01*
X96668571Y-135149200D02*
X96744761Y-135187295D01*
X96744761Y-135187295D02*
X96897142Y-135187295D01*
X96897142Y-135187295D02*
X96973333Y-135149200D01*
X96973333Y-135149200D02*
X97011428Y-135111104D01*
X97011428Y-135111104D02*
X97049523Y-135034914D01*
X97049523Y-135034914D02*
X97049523Y-134882533D01*
X97049523Y-134882533D02*
X97011428Y-134806342D01*
X97011428Y-134806342D02*
X96973333Y-134768247D01*
X96973333Y-134768247D02*
X96897142Y-134730152D01*
X94687618Y-116645390D02*
X94611428Y-116607295D01*
X94611428Y-116607295D02*
X94497142Y-116607295D01*
X94497142Y-116607295D02*
X94382856Y-116645390D01*
X94382856Y-116645390D02*
X94306666Y-116721580D01*
X94306666Y-116721580D02*
X94268571Y-116797771D01*
X94268571Y-116797771D02*
X94230475Y-116950152D01*
X94230475Y-116950152D02*
X94230475Y-117064438D01*
X94230475Y-117064438D02*
X94268571Y-117216819D01*
X94268571Y-117216819D02*
X94306666Y-117293009D01*
X94306666Y-117293009D02*
X94382856Y-117369200D01*
X94382856Y-117369200D02*
X94497142Y-117407295D01*
X94497142Y-117407295D02*
X94573333Y-117407295D01*
X94573333Y-117407295D02*
X94687618Y-117369200D01*
X94687618Y-117369200D02*
X94725714Y-117331104D01*
X94725714Y-117331104D02*
X94725714Y-117064438D01*
X94725714Y-117064438D02*
X94573333Y-117064438D01*
X95068571Y-117407295D02*
X95068571Y-116607295D01*
X95068571Y-116607295D02*
X95373333Y-116607295D01*
X95373333Y-116607295D02*
X95449523Y-116645390D01*
X95449523Y-116645390D02*
X95487618Y-116683485D01*
X95487618Y-116683485D02*
X95525714Y-116759676D01*
X95525714Y-116759676D02*
X95525714Y-116873961D01*
X95525714Y-116873961D02*
X95487618Y-116950152D01*
X95487618Y-116950152D02*
X95449523Y-116988247D01*
X95449523Y-116988247D02*
X95373333Y-117026342D01*
X95373333Y-117026342D02*
X95068571Y-117026342D01*
X95830475Y-116683485D02*
X95868571Y-116645390D01*
X95868571Y-116645390D02*
X95944761Y-116607295D01*
X95944761Y-116607295D02*
X96135237Y-116607295D01*
X96135237Y-116607295D02*
X96211428Y-116645390D01*
X96211428Y-116645390D02*
X96249523Y-116683485D01*
X96249523Y-116683485D02*
X96287618Y-116759676D01*
X96287618Y-116759676D02*
X96287618Y-116835866D01*
X96287618Y-116835866D02*
X96249523Y-116950152D01*
X96249523Y-116950152D02*
X95792380Y-117407295D01*
X95792380Y-117407295D02*
X96287618Y-117407295D01*
X96973333Y-116607295D02*
X96820952Y-116607295D01*
X96820952Y-116607295D02*
X96744761Y-116645390D01*
X96744761Y-116645390D02*
X96706666Y-116683485D01*
X96706666Y-116683485D02*
X96630476Y-116797771D01*
X96630476Y-116797771D02*
X96592380Y-116950152D01*
X96592380Y-116950152D02*
X96592380Y-117254914D01*
X96592380Y-117254914D02*
X96630476Y-117331104D01*
X96630476Y-117331104D02*
X96668571Y-117369200D01*
X96668571Y-117369200D02*
X96744761Y-117407295D01*
X96744761Y-117407295D02*
X96897142Y-117407295D01*
X96897142Y-117407295D02*
X96973333Y-117369200D01*
X96973333Y-117369200D02*
X97011428Y-117331104D01*
X97011428Y-117331104D02*
X97049523Y-117254914D01*
X97049523Y-117254914D02*
X97049523Y-117064438D01*
X97049523Y-117064438D02*
X97011428Y-116988247D01*
X97011428Y-116988247D02*
X96973333Y-116950152D01*
X96973333Y-116950152D02*
X96897142Y-116912057D01*
X96897142Y-116912057D02*
X96744761Y-116912057D01*
X96744761Y-116912057D02*
X96668571Y-116950152D01*
X96668571Y-116950152D02*
X96630476Y-116988247D01*
X96630476Y-116988247D02*
X96592380Y-117064438D01*
X91647142Y-107018723D02*
X92028095Y-107018723D01*
X91570952Y-107247295D02*
X91837619Y-106447295D01*
X91837619Y-106447295D02*
X92104285Y-107247295D01*
X92370952Y-107247295D02*
X92370952Y-106447295D01*
X92370952Y-106447295D02*
X92561428Y-106447295D01*
X92561428Y-106447295D02*
X92675714Y-106485390D01*
X92675714Y-106485390D02*
X92751904Y-106561580D01*
X92751904Y-106561580D02*
X92789999Y-106637771D01*
X92789999Y-106637771D02*
X92828095Y-106790152D01*
X92828095Y-106790152D02*
X92828095Y-106904438D01*
X92828095Y-106904438D02*
X92789999Y-107056819D01*
X92789999Y-107056819D02*
X92751904Y-107133009D01*
X92751904Y-107133009D02*
X92675714Y-107209200D01*
X92675714Y-107209200D02*
X92561428Y-107247295D01*
X92561428Y-107247295D02*
X92370952Y-107247295D01*
X93628095Y-107171104D02*
X93589999Y-107209200D01*
X93589999Y-107209200D02*
X93475714Y-107247295D01*
X93475714Y-107247295D02*
X93399523Y-107247295D01*
X93399523Y-107247295D02*
X93285237Y-107209200D01*
X93285237Y-107209200D02*
X93209047Y-107133009D01*
X93209047Y-107133009D02*
X93170952Y-107056819D01*
X93170952Y-107056819D02*
X93132856Y-106904438D01*
X93132856Y-106904438D02*
X93132856Y-106790152D01*
X93132856Y-106790152D02*
X93170952Y-106637771D01*
X93170952Y-106637771D02*
X93209047Y-106561580D01*
X93209047Y-106561580D02*
X93285237Y-106485390D01*
X93285237Y-106485390D02*
X93399523Y-106447295D01*
X93399523Y-106447295D02*
X93475714Y-106447295D01*
X93475714Y-106447295D02*
X93589999Y-106485390D01*
X93589999Y-106485390D02*
X93628095Y-106523485D01*
X93780476Y-107323485D02*
X94389999Y-107323485D01*
X94466190Y-106447295D02*
X94732857Y-107247295D01*
X94732857Y-107247295D02*
X94999523Y-106447295D01*
X95723333Y-107247295D02*
X95456666Y-106866342D01*
X95266190Y-107247295D02*
X95266190Y-106447295D01*
X95266190Y-106447295D02*
X95570952Y-106447295D01*
X95570952Y-106447295D02*
X95647142Y-106485390D01*
X95647142Y-106485390D02*
X95685237Y-106523485D01*
X95685237Y-106523485D02*
X95723333Y-106599676D01*
X95723333Y-106599676D02*
X95723333Y-106713961D01*
X95723333Y-106713961D02*
X95685237Y-106790152D01*
X95685237Y-106790152D02*
X95647142Y-106828247D01*
X95647142Y-106828247D02*
X95570952Y-106866342D01*
X95570952Y-106866342D02*
X95266190Y-106866342D01*
X96066190Y-106828247D02*
X96332856Y-106828247D01*
X96447142Y-107247295D02*
X96066190Y-107247295D01*
X96066190Y-107247295D02*
X96066190Y-106447295D01*
X96066190Y-106447295D02*
X96447142Y-106447295D01*
X97056666Y-106828247D02*
X96790000Y-106828247D01*
X96790000Y-107247295D02*
X96790000Y-106447295D01*
X96790000Y-106447295D02*
X97170952Y-106447295D01*
X83457618Y-126805390D02*
X83381428Y-126767295D01*
X83381428Y-126767295D02*
X83267142Y-126767295D01*
X83267142Y-126767295D02*
X83152856Y-126805390D01*
X83152856Y-126805390D02*
X83076666Y-126881580D01*
X83076666Y-126881580D02*
X83038571Y-126957771D01*
X83038571Y-126957771D02*
X83000475Y-127110152D01*
X83000475Y-127110152D02*
X83000475Y-127224438D01*
X83000475Y-127224438D02*
X83038571Y-127376819D01*
X83038571Y-127376819D02*
X83076666Y-127453009D01*
X83076666Y-127453009D02*
X83152856Y-127529200D01*
X83152856Y-127529200D02*
X83267142Y-127567295D01*
X83267142Y-127567295D02*
X83343333Y-127567295D01*
X83343333Y-127567295D02*
X83457618Y-127529200D01*
X83457618Y-127529200D02*
X83495714Y-127491104D01*
X83495714Y-127491104D02*
X83495714Y-127224438D01*
X83495714Y-127224438D02*
X83343333Y-127224438D01*
X83838571Y-127567295D02*
X83838571Y-126767295D01*
X83838571Y-126767295D02*
X84143333Y-126767295D01*
X84143333Y-126767295D02*
X84219523Y-126805390D01*
X84219523Y-126805390D02*
X84257618Y-126843485D01*
X84257618Y-126843485D02*
X84295714Y-126919676D01*
X84295714Y-126919676D02*
X84295714Y-127033961D01*
X84295714Y-127033961D02*
X84257618Y-127110152D01*
X84257618Y-127110152D02*
X84219523Y-127148247D01*
X84219523Y-127148247D02*
X84143333Y-127186342D01*
X84143333Y-127186342D02*
X83838571Y-127186342D01*
X85057618Y-127567295D02*
X84600475Y-127567295D01*
X84829047Y-127567295D02*
X84829047Y-126767295D01*
X84829047Y-126767295D02*
X84752856Y-126881580D01*
X84752856Y-126881580D02*
X84676666Y-126957771D01*
X84676666Y-126957771D02*
X84600475Y-126995866D01*
X85552857Y-126767295D02*
X85629047Y-126767295D01*
X85629047Y-126767295D02*
X85705238Y-126805390D01*
X85705238Y-126805390D02*
X85743333Y-126843485D01*
X85743333Y-126843485D02*
X85781428Y-126919676D01*
X85781428Y-126919676D02*
X85819523Y-127072057D01*
X85819523Y-127072057D02*
X85819523Y-127262533D01*
X85819523Y-127262533D02*
X85781428Y-127414914D01*
X85781428Y-127414914D02*
X85743333Y-127491104D01*
X85743333Y-127491104D02*
X85705238Y-127529200D01*
X85705238Y-127529200D02*
X85629047Y-127567295D01*
X85629047Y-127567295D02*
X85552857Y-127567295D01*
X85552857Y-127567295D02*
X85476666Y-127529200D01*
X85476666Y-127529200D02*
X85438571Y-127491104D01*
X85438571Y-127491104D02*
X85400476Y-127414914D01*
X85400476Y-127414914D02*
X85362380Y-127262533D01*
X85362380Y-127262533D02*
X85362380Y-127072057D01*
X85362380Y-127072057D02*
X85400476Y-126919676D01*
X85400476Y-126919676D02*
X85438571Y-126843485D01*
X85438571Y-126843485D02*
X85476666Y-126805390D01*
X85476666Y-126805390D02*
X85552857Y-126767295D01*
X95380476Y-136965390D02*
X95304286Y-136927295D01*
X95304286Y-136927295D02*
X95190000Y-136927295D01*
X95190000Y-136927295D02*
X95075714Y-136965390D01*
X95075714Y-136965390D02*
X94999524Y-137041580D01*
X94999524Y-137041580D02*
X94961429Y-137117771D01*
X94961429Y-137117771D02*
X94923333Y-137270152D01*
X94923333Y-137270152D02*
X94923333Y-137384438D01*
X94923333Y-137384438D02*
X94961429Y-137536819D01*
X94961429Y-137536819D02*
X94999524Y-137613009D01*
X94999524Y-137613009D02*
X95075714Y-137689200D01*
X95075714Y-137689200D02*
X95190000Y-137727295D01*
X95190000Y-137727295D02*
X95266191Y-137727295D01*
X95266191Y-137727295D02*
X95380476Y-137689200D01*
X95380476Y-137689200D02*
X95418572Y-137651104D01*
X95418572Y-137651104D02*
X95418572Y-137384438D01*
X95418572Y-137384438D02*
X95266191Y-137384438D01*
X95761429Y-137727295D02*
X95761429Y-136927295D01*
X95761429Y-136927295D02*
X96218572Y-137727295D01*
X96218572Y-137727295D02*
X96218572Y-136927295D01*
X96599524Y-137727295D02*
X96599524Y-136927295D01*
X96599524Y-136927295D02*
X96790000Y-136927295D01*
X96790000Y-136927295D02*
X96904286Y-136965390D01*
X96904286Y-136965390D02*
X96980476Y-137041580D01*
X96980476Y-137041580D02*
X97018571Y-137117771D01*
X97018571Y-137117771D02*
X97056667Y-137270152D01*
X97056667Y-137270152D02*
X97056667Y-137384438D01*
X97056667Y-137384438D02*
X97018571Y-137536819D01*
X97018571Y-137536819D02*
X96980476Y-137613009D01*
X96980476Y-137613009D02*
X96904286Y-137689200D01*
X96904286Y-137689200D02*
X96790000Y-137727295D01*
X96790000Y-137727295D02*
X96599524Y-137727295D01*
X94687618Y-139505390D02*
X94611428Y-139467295D01*
X94611428Y-139467295D02*
X94497142Y-139467295D01*
X94497142Y-139467295D02*
X94382856Y-139505390D01*
X94382856Y-139505390D02*
X94306666Y-139581580D01*
X94306666Y-139581580D02*
X94268571Y-139657771D01*
X94268571Y-139657771D02*
X94230475Y-139810152D01*
X94230475Y-139810152D02*
X94230475Y-139924438D01*
X94230475Y-139924438D02*
X94268571Y-140076819D01*
X94268571Y-140076819D02*
X94306666Y-140153009D01*
X94306666Y-140153009D02*
X94382856Y-140229200D01*
X94382856Y-140229200D02*
X94497142Y-140267295D01*
X94497142Y-140267295D02*
X94573333Y-140267295D01*
X94573333Y-140267295D02*
X94687618Y-140229200D01*
X94687618Y-140229200D02*
X94725714Y-140191104D01*
X94725714Y-140191104D02*
X94725714Y-139924438D01*
X94725714Y-139924438D02*
X94573333Y-139924438D01*
X95068571Y-140267295D02*
X95068571Y-139467295D01*
X95068571Y-139467295D02*
X95373333Y-139467295D01*
X95373333Y-139467295D02*
X95449523Y-139505390D01*
X95449523Y-139505390D02*
X95487618Y-139543485D01*
X95487618Y-139543485D02*
X95525714Y-139619676D01*
X95525714Y-139619676D02*
X95525714Y-139733961D01*
X95525714Y-139733961D02*
X95487618Y-139810152D01*
X95487618Y-139810152D02*
X95449523Y-139848247D01*
X95449523Y-139848247D02*
X95373333Y-139886342D01*
X95373333Y-139886342D02*
X95068571Y-139886342D01*
X96287618Y-140267295D02*
X95830475Y-140267295D01*
X96059047Y-140267295D02*
X96059047Y-139467295D01*
X96059047Y-139467295D02*
X95982856Y-139581580D01*
X95982856Y-139581580D02*
X95906666Y-139657771D01*
X95906666Y-139657771D02*
X95830475Y-139695866D01*
X96554285Y-139467295D02*
X97087619Y-139467295D01*
X97087619Y-139467295D02*
X96744761Y-140267295D01*
X94518571Y-96287295D02*
X94785238Y-97087295D01*
X94785238Y-97087295D02*
X95051904Y-96287295D01*
X95280475Y-97049200D02*
X95394761Y-97087295D01*
X95394761Y-97087295D02*
X95585237Y-97087295D01*
X95585237Y-97087295D02*
X95661428Y-97049200D01*
X95661428Y-97049200D02*
X95699523Y-97011104D01*
X95699523Y-97011104D02*
X95737618Y-96934914D01*
X95737618Y-96934914D02*
X95737618Y-96858723D01*
X95737618Y-96858723D02*
X95699523Y-96782533D01*
X95699523Y-96782533D02*
X95661428Y-96744438D01*
X95661428Y-96744438D02*
X95585237Y-96706342D01*
X95585237Y-96706342D02*
X95432856Y-96668247D01*
X95432856Y-96668247D02*
X95356666Y-96630152D01*
X95356666Y-96630152D02*
X95318571Y-96592057D01*
X95318571Y-96592057D02*
X95280475Y-96515866D01*
X95280475Y-96515866D02*
X95280475Y-96439676D01*
X95280475Y-96439676D02*
X95318571Y-96363485D01*
X95318571Y-96363485D02*
X95356666Y-96325390D01*
X95356666Y-96325390D02*
X95432856Y-96287295D01*
X95432856Y-96287295D02*
X95623333Y-96287295D01*
X95623333Y-96287295D02*
X95737618Y-96325390D01*
X96232857Y-96706342D02*
X96232857Y-97087295D01*
X95966190Y-96287295D02*
X96232857Y-96706342D01*
X96232857Y-96706342D02*
X96499523Y-96287295D01*
X96728094Y-97049200D02*
X96842380Y-97087295D01*
X96842380Y-97087295D02*
X97032856Y-97087295D01*
X97032856Y-97087295D02*
X97109047Y-97049200D01*
X97109047Y-97049200D02*
X97147142Y-97011104D01*
X97147142Y-97011104D02*
X97185237Y-96934914D01*
X97185237Y-96934914D02*
X97185237Y-96858723D01*
X97185237Y-96858723D02*
X97147142Y-96782533D01*
X97147142Y-96782533D02*
X97109047Y-96744438D01*
X97109047Y-96744438D02*
X97032856Y-96706342D01*
X97032856Y-96706342D02*
X96880475Y-96668247D01*
X96880475Y-96668247D02*
X96804285Y-96630152D01*
X96804285Y-96630152D02*
X96766190Y-96592057D01*
X96766190Y-96592057D02*
X96728094Y-96515866D01*
X96728094Y-96515866D02*
X96728094Y-96439676D01*
X96728094Y-96439676D02*
X96766190Y-96363485D01*
X96766190Y-96363485D02*
X96804285Y-96325390D01*
X96804285Y-96325390D02*
X96880475Y-96287295D01*
X96880475Y-96287295D02*
X97070952Y-96287295D01*
X97070952Y-96287295D02*
X97185237Y-96325390D01*
X83450476Y-124265390D02*
X83374286Y-124227295D01*
X83374286Y-124227295D02*
X83260000Y-124227295D01*
X83260000Y-124227295D02*
X83145714Y-124265390D01*
X83145714Y-124265390D02*
X83069524Y-124341580D01*
X83069524Y-124341580D02*
X83031429Y-124417771D01*
X83031429Y-124417771D02*
X82993333Y-124570152D01*
X82993333Y-124570152D02*
X82993333Y-124684438D01*
X82993333Y-124684438D02*
X83031429Y-124836819D01*
X83031429Y-124836819D02*
X83069524Y-124913009D01*
X83069524Y-124913009D02*
X83145714Y-124989200D01*
X83145714Y-124989200D02*
X83260000Y-125027295D01*
X83260000Y-125027295D02*
X83336191Y-125027295D01*
X83336191Y-125027295D02*
X83450476Y-124989200D01*
X83450476Y-124989200D02*
X83488572Y-124951104D01*
X83488572Y-124951104D02*
X83488572Y-124684438D01*
X83488572Y-124684438D02*
X83336191Y-124684438D01*
X83831429Y-125027295D02*
X83831429Y-124227295D01*
X83831429Y-124227295D02*
X84288572Y-125027295D01*
X84288572Y-125027295D02*
X84288572Y-124227295D01*
X84669524Y-125027295D02*
X84669524Y-124227295D01*
X84669524Y-124227295D02*
X84860000Y-124227295D01*
X84860000Y-124227295D02*
X84974286Y-124265390D01*
X84974286Y-124265390D02*
X85050476Y-124341580D01*
X85050476Y-124341580D02*
X85088571Y-124417771D01*
X85088571Y-124417771D02*
X85126667Y-124570152D01*
X85126667Y-124570152D02*
X85126667Y-124684438D01*
X85126667Y-124684438D02*
X85088571Y-124836819D01*
X85088571Y-124836819D02*
X85050476Y-124913009D01*
X85050476Y-124913009D02*
X84974286Y-124989200D01*
X84974286Y-124989200D02*
X84860000Y-125027295D01*
X84860000Y-125027295D02*
X84669524Y-125027295D01*
X83488571Y-96315390D02*
X83412381Y-96277295D01*
X83412381Y-96277295D02*
X83298095Y-96277295D01*
X83298095Y-96277295D02*
X83183809Y-96315390D01*
X83183809Y-96315390D02*
X83107619Y-96391580D01*
X83107619Y-96391580D02*
X83069524Y-96467771D01*
X83069524Y-96467771D02*
X83031428Y-96620152D01*
X83031428Y-96620152D02*
X83031428Y-96734438D01*
X83031428Y-96734438D02*
X83069524Y-96886819D01*
X83069524Y-96886819D02*
X83107619Y-96963009D01*
X83107619Y-96963009D02*
X83183809Y-97039200D01*
X83183809Y-97039200D02*
X83298095Y-97077295D01*
X83298095Y-97077295D02*
X83374286Y-97077295D01*
X83374286Y-97077295D02*
X83488571Y-97039200D01*
X83488571Y-97039200D02*
X83526667Y-97001104D01*
X83526667Y-97001104D02*
X83526667Y-96734438D01*
X83526667Y-96734438D02*
X83374286Y-96734438D01*
X83869524Y-97077295D02*
X83869524Y-96277295D01*
X83869524Y-96277295D02*
X84174286Y-96277295D01*
X84174286Y-96277295D02*
X84250476Y-96315390D01*
X84250476Y-96315390D02*
X84288571Y-96353485D01*
X84288571Y-96353485D02*
X84326667Y-96429676D01*
X84326667Y-96429676D02*
X84326667Y-96543961D01*
X84326667Y-96543961D02*
X84288571Y-96620152D01*
X84288571Y-96620152D02*
X84250476Y-96658247D01*
X84250476Y-96658247D02*
X84174286Y-96696342D01*
X84174286Y-96696342D02*
X83869524Y-96696342D01*
X85088571Y-97077295D02*
X84631428Y-97077295D01*
X84860000Y-97077295D02*
X84860000Y-96277295D01*
X84860000Y-96277295D02*
X84783809Y-96391580D01*
X84783809Y-96391580D02*
X84707619Y-96467771D01*
X84707619Y-96467771D02*
X84631428Y-96505866D01*
X83457618Y-129345390D02*
X83381428Y-129307295D01*
X83381428Y-129307295D02*
X83267142Y-129307295D01*
X83267142Y-129307295D02*
X83152856Y-129345390D01*
X83152856Y-129345390D02*
X83076666Y-129421580D01*
X83076666Y-129421580D02*
X83038571Y-129497771D01*
X83038571Y-129497771D02*
X83000475Y-129650152D01*
X83000475Y-129650152D02*
X83000475Y-129764438D01*
X83000475Y-129764438D02*
X83038571Y-129916819D01*
X83038571Y-129916819D02*
X83076666Y-129993009D01*
X83076666Y-129993009D02*
X83152856Y-130069200D01*
X83152856Y-130069200D02*
X83267142Y-130107295D01*
X83267142Y-130107295D02*
X83343333Y-130107295D01*
X83343333Y-130107295D02*
X83457618Y-130069200D01*
X83457618Y-130069200D02*
X83495714Y-130031104D01*
X83495714Y-130031104D02*
X83495714Y-129764438D01*
X83495714Y-129764438D02*
X83343333Y-129764438D01*
X83838571Y-130107295D02*
X83838571Y-129307295D01*
X83838571Y-129307295D02*
X84143333Y-129307295D01*
X84143333Y-129307295D02*
X84219523Y-129345390D01*
X84219523Y-129345390D02*
X84257618Y-129383485D01*
X84257618Y-129383485D02*
X84295714Y-129459676D01*
X84295714Y-129459676D02*
X84295714Y-129573961D01*
X84295714Y-129573961D02*
X84257618Y-129650152D01*
X84257618Y-129650152D02*
X84219523Y-129688247D01*
X84219523Y-129688247D02*
X84143333Y-129726342D01*
X84143333Y-129726342D02*
X83838571Y-129726342D01*
X85057618Y-130107295D02*
X84600475Y-130107295D01*
X84829047Y-130107295D02*
X84829047Y-129307295D01*
X84829047Y-129307295D02*
X84752856Y-129421580D01*
X84752856Y-129421580D02*
X84676666Y-129497771D01*
X84676666Y-129497771D02*
X84600475Y-129535866D01*
X85819523Y-130107295D02*
X85362380Y-130107295D01*
X85590952Y-130107295D02*
X85590952Y-129307295D01*
X85590952Y-129307295D02*
X85514761Y-129421580D01*
X85514761Y-129421580D02*
X85438571Y-129497771D01*
X85438571Y-129497771D02*
X85362380Y-129535866D01*
X114888095Y-123882200D02*
X115030952Y-123929819D01*
X115030952Y-123929819D02*
X115269047Y-123929819D01*
X115269047Y-123929819D02*
X115364285Y-123882200D01*
X115364285Y-123882200D02*
X115411904Y-123834580D01*
X115411904Y-123834580D02*
X115459523Y-123739342D01*
X115459523Y-123739342D02*
X115459523Y-123644104D01*
X115459523Y-123644104D02*
X115411904Y-123548866D01*
X115411904Y-123548866D02*
X115364285Y-123501247D01*
X115364285Y-123501247D02*
X115269047Y-123453628D01*
X115269047Y-123453628D02*
X115078571Y-123406009D01*
X115078571Y-123406009D02*
X114983333Y-123358390D01*
X114983333Y-123358390D02*
X114935714Y-123310771D01*
X114935714Y-123310771D02*
X114888095Y-123215533D01*
X114888095Y-123215533D02*
X114888095Y-123120295D01*
X114888095Y-123120295D02*
X114935714Y-123025057D01*
X114935714Y-123025057D02*
X114983333Y-122977438D01*
X114983333Y-122977438D02*
X115078571Y-122929819D01*
X115078571Y-122929819D02*
X115316666Y-122929819D01*
X115316666Y-122929819D02*
X115459523Y-122977438D01*
X115792857Y-122929819D02*
X116459523Y-122929819D01*
X116459523Y-122929819D02*
X116030952Y-123929819D01*
X150604819Y-96870594D02*
X149604819Y-96870594D01*
X149604819Y-96870594D02*
X149604819Y-96632499D01*
X149604819Y-96632499D02*
X149652438Y-96489642D01*
X149652438Y-96489642D02*
X149747676Y-96394404D01*
X149747676Y-96394404D02*
X149842914Y-96346785D01*
X149842914Y-96346785D02*
X150033390Y-96299166D01*
X150033390Y-96299166D02*
X150176247Y-96299166D01*
X150176247Y-96299166D02*
X150366723Y-96346785D01*
X150366723Y-96346785D02*
X150461961Y-96394404D01*
X150461961Y-96394404D02*
X150557200Y-96489642D01*
X150557200Y-96489642D02*
X150604819Y-96632499D01*
X150604819Y-96632499D02*
X150604819Y-96870594D01*
X149604819Y-95965832D02*
X149604819Y-95346785D01*
X149604819Y-95346785D02*
X149985771Y-95680118D01*
X149985771Y-95680118D02*
X149985771Y-95537261D01*
X149985771Y-95537261D02*
X150033390Y-95442023D01*
X150033390Y-95442023D02*
X150081009Y-95394404D01*
X150081009Y-95394404D02*
X150176247Y-95346785D01*
X150176247Y-95346785D02*
X150414342Y-95346785D01*
X150414342Y-95346785D02*
X150509580Y-95394404D01*
X150509580Y-95394404D02*
X150557200Y-95442023D01*
X150557200Y-95442023D02*
X150604819Y-95537261D01*
X150604819Y-95537261D02*
X150604819Y-95822975D01*
X150604819Y-95822975D02*
X150557200Y-95918213D01*
X150557200Y-95918213D02*
X150509580Y-95965832D01*
X134684819Y-96923094D02*
X133684819Y-96923094D01*
X133684819Y-96923094D02*
X133684819Y-96684999D01*
X133684819Y-96684999D02*
X133732438Y-96542142D01*
X133732438Y-96542142D02*
X133827676Y-96446904D01*
X133827676Y-96446904D02*
X133922914Y-96399285D01*
X133922914Y-96399285D02*
X134113390Y-96351666D01*
X134113390Y-96351666D02*
X134256247Y-96351666D01*
X134256247Y-96351666D02*
X134446723Y-96399285D01*
X134446723Y-96399285D02*
X134541961Y-96446904D01*
X134541961Y-96446904D02*
X134637200Y-96542142D01*
X134637200Y-96542142D02*
X134684819Y-96684999D01*
X134684819Y-96684999D02*
X134684819Y-96923094D01*
X133780057Y-95970713D02*
X133732438Y-95923094D01*
X133732438Y-95923094D02*
X133684819Y-95827856D01*
X133684819Y-95827856D02*
X133684819Y-95589761D01*
X133684819Y-95589761D02*
X133732438Y-95494523D01*
X133732438Y-95494523D02*
X133780057Y-95446904D01*
X133780057Y-95446904D02*
X133875295Y-95399285D01*
X133875295Y-95399285D02*
X133970533Y-95399285D01*
X133970533Y-95399285D02*
X134113390Y-95446904D01*
X134113390Y-95446904D02*
X134684819Y-96018332D01*
X134684819Y-96018332D02*
X134684819Y-95399285D01*
X130768095Y-92122200D02*
X130910952Y-92169819D01*
X130910952Y-92169819D02*
X131149047Y-92169819D01*
X131149047Y-92169819D02*
X131244285Y-92122200D01*
X131244285Y-92122200D02*
X131291904Y-92074580D01*
X131291904Y-92074580D02*
X131339523Y-91979342D01*
X131339523Y-91979342D02*
X131339523Y-91884104D01*
X131339523Y-91884104D02*
X131291904Y-91788866D01*
X131291904Y-91788866D02*
X131244285Y-91741247D01*
X131244285Y-91741247D02*
X131149047Y-91693628D01*
X131149047Y-91693628D02*
X130958571Y-91646009D01*
X130958571Y-91646009D02*
X130863333Y-91598390D01*
X130863333Y-91598390D02*
X130815714Y-91550771D01*
X130815714Y-91550771D02*
X130768095Y-91455533D01*
X130768095Y-91455533D02*
X130768095Y-91360295D01*
X130768095Y-91360295D02*
X130815714Y-91265057D01*
X130815714Y-91265057D02*
X130863333Y-91217438D01*
X130863333Y-91217438D02*
X130958571Y-91169819D01*
X130958571Y-91169819D02*
X131196666Y-91169819D01*
X131196666Y-91169819D02*
X131339523Y-91217438D01*
X131720476Y-91265057D02*
X131768095Y-91217438D01*
X131768095Y-91217438D02*
X131863333Y-91169819D01*
X131863333Y-91169819D02*
X132101428Y-91169819D01*
X132101428Y-91169819D02*
X132196666Y-91217438D01*
X132196666Y-91217438D02*
X132244285Y-91265057D01*
X132244285Y-91265057D02*
X132291904Y-91360295D01*
X132291904Y-91360295D02*
X132291904Y-91455533D01*
X132291904Y-91455533D02*
X132244285Y-91598390D01*
X132244285Y-91598390D02*
X131672857Y-92169819D01*
X131672857Y-92169819D02*
X132291904Y-92169819D01*
%TO.C,S9*%
D11*
X140360000Y-124575000D02*
X154560000Y-124575000D01*
X154560000Y-137375000D01*
X140360000Y-137375000D01*
X140360000Y-124575000D01*
%TO.C,S8*%
X124480000Y-124575000D02*
X138680000Y-124575000D01*
X138680000Y-137375000D01*
X124480000Y-137375000D01*
X124480000Y-124575000D01*
D12*
%TO.C,D1*%
X116450000Y-96975000D02*
X116450000Y-95015000D01*
X117650000Y-95015000D02*
X116450000Y-95015000D01*
X117650000Y-96975000D02*
X117650000Y-95015000D01*
%TO.C,S1*%
D11*
X108600000Y-92815000D02*
X122800000Y-92815000D01*
X122800000Y-105615000D01*
X108600000Y-105615000D01*
X108600000Y-92815000D01*
D12*
%TO.C,D7*%
X115540000Y-139715000D02*
X115540000Y-140915000D01*
X117500000Y-139715000D02*
X115540000Y-139715000D01*
X117500000Y-140915000D02*
X115540000Y-140915000D01*
%TO.C,S6*%
D11*
X140360000Y-108695000D02*
X154560000Y-108695000D01*
X154560000Y-121495000D01*
X140360000Y-121495000D01*
X140360000Y-108695000D01*
D12*
%TO.C,D9*%
X147340000Y-139715000D02*
X147340000Y-140915000D01*
X149300000Y-139715000D02*
X147340000Y-139715000D01*
X149300000Y-140915000D02*
X147340000Y-140915000D01*
%TO.C,S3*%
D11*
X140360000Y-92815000D02*
X154560000Y-92815000D01*
X154560000Y-105615000D01*
X140360000Y-105615000D01*
X140360000Y-92815000D01*
D12*
%TO.C,D4*%
X115590000Y-111415000D02*
X115590000Y-112615000D01*
X117550000Y-111415000D02*
X115590000Y-111415000D01*
X117550000Y-112615000D02*
X115590000Y-112615000D01*
%TO.C,D6*%
X147590000Y-111415000D02*
X147590000Y-112615000D01*
X149550000Y-111415000D02*
X147590000Y-111415000D01*
X149550000Y-112615000D02*
X147590000Y-112615000D01*
%TO.C,D8*%
X131340000Y-139715000D02*
X131340000Y-140915000D01*
X133300000Y-139715000D02*
X131340000Y-139715000D01*
X133300000Y-140915000D02*
X131340000Y-140915000D01*
%TO.C,D5*%
X131590000Y-111415000D02*
X131590000Y-112615000D01*
X133550000Y-111415000D02*
X131590000Y-111415000D01*
X133550000Y-112615000D02*
X131590000Y-112615000D01*
%TO.C,S5*%
D11*
X124480000Y-108695000D02*
X138680000Y-108695000D01*
X138680000Y-121495000D01*
X124480000Y-121495000D01*
X124480000Y-108695000D01*
%TO.C,S4*%
X108600000Y-108695000D02*
X122800000Y-108695000D01*
X122800000Y-121495000D01*
X108600000Y-121495000D01*
X108600000Y-108695000D01*
D10*
%TO.C,U1*%
X79600000Y-92815000D02*
X79600000Y-143815000D01*
X79600000Y-92815000D02*
X100600000Y-92815000D01*
X79600000Y-95482000D02*
X82607000Y-95482000D01*
X82607000Y-95482000D02*
X82607000Y-92815000D01*
X100600000Y-92815000D02*
X100600000Y-143815000D01*
X100600000Y-143815000D02*
X79600000Y-143815000D01*
%TO.C,S7*%
D11*
X108600000Y-124575000D02*
X122800000Y-124575000D01*
X122800000Y-137375000D01*
X108600000Y-137375000D01*
X108600000Y-124575000D01*
D12*
%TO.C,D3*%
X148250000Y-96832500D02*
X148250000Y-94872500D01*
X149450000Y-94872500D02*
X148250000Y-94872500D01*
X149450000Y-96832500D02*
X149450000Y-94872500D01*
%TO.C,D2*%
X132330000Y-96885000D02*
X132330000Y-94925000D01*
X133530000Y-94925000D02*
X132330000Y-94925000D01*
X133530000Y-96885000D02*
X133530000Y-94925000D01*
%TO.C,S2*%
D11*
X124480000Y-92815000D02*
X138680000Y-92815000D01*
X138680000Y-105615000D01*
X124480000Y-105615000D01*
X124480000Y-92815000D01*
%TD*%
%LPC*%
D13*
%TO.C,S9*%
X141660000Y-132175000D03*
D14*
X153260000Y-127715000D03*
X153260000Y-134235000D03*
D15*
X146810000Y-133275000D03*
X149260000Y-133275000D03*
D16*
X141260000Y-127075000D03*
D17*
X141260000Y-135475000D03*
D18*
X153660000Y-125950000D03*
D19*
X153660000Y-130975000D03*
D18*
X153660000Y-136000000D03*
%TD*%
D13*
%TO.C,S8*%
X125780000Y-132175000D03*
D14*
X137380000Y-127715000D03*
X137380000Y-134235000D03*
D15*
X130930000Y-133275000D03*
X133380000Y-133275000D03*
D16*
X125380000Y-127075000D03*
D17*
X125380000Y-135475000D03*
D18*
X137780000Y-125950000D03*
D19*
X137780000Y-130975000D03*
D18*
X137780000Y-136000000D03*
%TD*%
D20*
%TO.C,D1*%
X117050000Y-95575000D03*
X117050000Y-96975000D03*
%TD*%
D13*
%TO.C,S1*%
X109900000Y-100415000D03*
D14*
X121500000Y-95955000D03*
X121500000Y-102475000D03*
D15*
X115050000Y-101515000D03*
X117500000Y-101515000D03*
D16*
X109500000Y-95315000D03*
D17*
X109500000Y-103715000D03*
D18*
X121900000Y-94190000D03*
D19*
X121900000Y-99215000D03*
D18*
X121900000Y-104240000D03*
%TD*%
D21*
%TO.C,D7*%
X116100000Y-140315000D03*
X117500000Y-140315000D03*
%TD*%
D13*
%TO.C,S6*%
X141660000Y-116295000D03*
D14*
X153260000Y-111835000D03*
X153260000Y-118355000D03*
D15*
X146810000Y-117395000D03*
X149260000Y-117395000D03*
D16*
X141260000Y-111195000D03*
D17*
X141260000Y-119595000D03*
D18*
X153660000Y-110070000D03*
D19*
X153660000Y-115095000D03*
D18*
X153660000Y-120120000D03*
%TD*%
D21*
%TO.C,D9*%
X147900000Y-140315000D03*
X149300000Y-140315000D03*
%TD*%
D13*
%TO.C,S3*%
X141660000Y-100415000D03*
D14*
X153260000Y-95955000D03*
X153260000Y-102475000D03*
D15*
X146810000Y-101515000D03*
X149260000Y-101515000D03*
D16*
X141260000Y-95315000D03*
D17*
X141260000Y-103715000D03*
D18*
X153660000Y-94190000D03*
D19*
X153660000Y-99215000D03*
D18*
X153660000Y-104240000D03*
%TD*%
D21*
%TO.C,D4*%
X116150000Y-112015000D03*
X117550000Y-112015000D03*
%TD*%
%TO.C,D6*%
X148150000Y-112015000D03*
X149550000Y-112015000D03*
%TD*%
%TO.C,D8*%
X131900000Y-140315000D03*
X133300000Y-140315000D03*
%TD*%
%TO.C,D5*%
X132150000Y-112015000D03*
X133550000Y-112015000D03*
%TD*%
D13*
%TO.C,S5*%
X125780000Y-116295000D03*
D14*
X137380000Y-111835000D03*
X137380000Y-118355000D03*
D15*
X130930000Y-117395000D03*
X133380000Y-117395000D03*
D16*
X125380000Y-111195000D03*
D17*
X125380000Y-119595000D03*
D18*
X137780000Y-110070000D03*
D19*
X137780000Y-115095000D03*
D18*
X137780000Y-120120000D03*
%TD*%
D13*
%TO.C,S4*%
X109900000Y-116295000D03*
D14*
X121500000Y-111835000D03*
X121500000Y-118355000D03*
D15*
X115050000Y-117395000D03*
X117500000Y-117395000D03*
D16*
X109500000Y-111195000D03*
D17*
X109500000Y-119595000D03*
D18*
X121900000Y-110070000D03*
D19*
X121900000Y-115095000D03*
D18*
X121900000Y-120120000D03*
%TD*%
D22*
%TO.C,U1*%
X81210000Y-94185000D03*
D23*
X80310000Y-94185000D03*
D22*
X81210000Y-96725000D03*
D23*
X80310000Y-96725000D03*
D24*
X81210000Y-99265000D03*
D23*
X80310000Y-99265000D03*
D22*
X81210000Y-101805000D03*
D23*
X80310000Y-101805000D03*
D22*
X81210000Y-104345000D03*
D23*
X80310000Y-104345000D03*
D22*
X81210000Y-106885000D03*
D23*
X80310000Y-106885000D03*
D22*
X81210000Y-109425000D03*
D23*
X80310000Y-109425000D03*
D24*
X81210000Y-111965000D03*
D23*
X80310000Y-111965000D03*
D22*
X81210000Y-114505000D03*
D23*
X80310000Y-114505000D03*
D22*
X81210000Y-117045000D03*
D23*
X80310000Y-117045000D03*
D22*
X81210000Y-119585000D03*
D23*
X80310000Y-119585000D03*
D22*
X81210000Y-122125000D03*
D23*
X80310000Y-122125000D03*
D24*
X81210000Y-124665000D03*
D23*
X80310000Y-124665000D03*
D22*
X81210000Y-127205000D03*
D23*
X80310000Y-127205000D03*
D22*
X81210000Y-129745000D03*
D23*
X80310000Y-129745000D03*
D22*
X81210000Y-132285000D03*
D23*
X80310000Y-132285000D03*
D22*
X81210000Y-134825000D03*
D23*
X80310000Y-134825000D03*
D24*
X81210000Y-137365000D03*
D23*
X80310000Y-137365000D03*
D22*
X81210000Y-139905000D03*
D23*
X80310000Y-139905000D03*
D22*
X81210000Y-142445000D03*
D23*
X80310000Y-142445000D03*
D22*
X98990000Y-142445000D03*
D23*
X99890000Y-142445000D03*
D22*
X98990000Y-139905000D03*
D23*
X99890000Y-139905000D03*
D24*
X98990000Y-137365000D03*
D23*
X99890000Y-137365000D03*
D22*
X98990000Y-134825000D03*
D23*
X99890000Y-134825000D03*
D22*
X98990000Y-132285000D03*
D23*
X99890000Y-132285000D03*
D22*
X98990000Y-129745000D03*
D23*
X99890000Y-129745000D03*
D22*
X98990000Y-127205000D03*
D23*
X99890000Y-127205000D03*
D24*
X98990000Y-124665000D03*
D23*
X99890000Y-124665000D03*
D22*
X98990000Y-122125000D03*
D23*
X99890000Y-122125000D03*
D22*
X98990000Y-119585000D03*
D23*
X99890000Y-119585000D03*
D22*
X98990000Y-117045000D03*
D23*
X99890000Y-117045000D03*
D22*
X98990000Y-114505000D03*
D23*
X99890000Y-114505000D03*
D24*
X98990000Y-111965000D03*
D23*
X99890000Y-111965000D03*
D22*
X98990000Y-109425000D03*
D23*
X99890000Y-109425000D03*
D22*
X98990000Y-106885000D03*
D23*
X99890000Y-106885000D03*
D22*
X98990000Y-104345000D03*
D23*
X99890000Y-104345000D03*
D22*
X98990000Y-101805000D03*
D23*
X99890000Y-101805000D03*
D24*
X98990000Y-99265000D03*
D23*
X99890000Y-99265000D03*
D22*
X98990000Y-96725000D03*
D23*
X99890000Y-96725000D03*
D22*
X98990000Y-94185000D03*
D23*
X99890000Y-94185000D03*
D22*
X87560000Y-142215000D03*
D25*
X87560000Y-143115000D03*
D24*
X90100000Y-142215000D03*
D25*
X90100000Y-143115000D03*
D22*
X92640000Y-142215000D03*
D25*
X92640000Y-143115000D03*
%TD*%
D13*
%TO.C,S7*%
X109900000Y-132175000D03*
D14*
X121500000Y-127715000D03*
X121500000Y-134235000D03*
D15*
X115050000Y-133275000D03*
X117500000Y-133275000D03*
D16*
X109500000Y-127075000D03*
D17*
X109500000Y-135475000D03*
D18*
X121900000Y-125950000D03*
D19*
X121900000Y-130975000D03*
D18*
X121900000Y-136000000D03*
%TD*%
D20*
%TO.C,D3*%
X148850000Y-95432500D03*
X148850000Y-96832500D03*
%TD*%
%TO.C,D2*%
X132930000Y-95485000D03*
X132930000Y-96885000D03*
%TD*%
D13*
%TO.C,S2*%
X125780000Y-100415000D03*
D14*
X137380000Y-95955000D03*
X137380000Y-102475000D03*
D15*
X130930000Y-101515000D03*
X133380000Y-101515000D03*
D16*
X125380000Y-95315000D03*
D17*
X125380000Y-103715000D03*
D18*
X137780000Y-94190000D03*
D19*
X137780000Y-99215000D03*
D18*
X137780000Y-104240000D03*
%TD*%
%LPD*%
M02*
