M48
; DRILL file {KiCad 8.0.7} date 2025-01-01T06:29:48-0500
; FORMAT={-:-/ absolute / metric / decimal}
; #@! TF.CreationDate,2025-01-01T06:29:48-05:00
; #@! TF.GenerationSoftware,Kicad,Pcbnew,8.0.7
; #@! TF.FileFunction,Plated,1,2,PTH
FMAT,2
METRIC
; #@! TA.AperFunction,Plated,PTH,ViaDrill
T1C0.300
; #@! TA.AperFunction,Plated,PTH,ComponentDrill
T2C1.020
%
G90
G05
T1
X113.6Y-94.565
X116.1Y-108.315
X129.6Y-94.315
X130.85Y-109.815
X130.85Y-114.315
X146.35Y-94.065
X146.6Y-110.065
X146.6Y-114.315
T2
X81.21Y-94.185
X81.21Y-96.725
X81.21Y-99.265
X81.21Y-101.805
X81.21Y-104.345
X81.21Y-106.885
X81.21Y-109.425
X81.21Y-111.965
X81.21Y-114.505
X81.21Y-117.045
X81.21Y-119.585
X81.21Y-122.125
X81.21Y-124.665
X81.21Y-127.205
X81.21Y-129.745
X81.21Y-132.285
X81.21Y-134.825
X81.21Y-137.365
X81.21Y-139.905
X81.21Y-142.445
X87.56Y-142.215
X90.1Y-142.215
X92.64Y-142.215
X98.99Y-94.185
X98.99Y-96.725
X98.99Y-99.265
X98.99Y-101.805
X98.99Y-104.345
X98.99Y-106.885
X98.99Y-109.425
X98.99Y-111.965
X98.99Y-114.505
X98.99Y-117.045
X98.99Y-119.585
X98.99Y-122.125
X98.99Y-124.665
X98.99Y-127.205
X98.99Y-129.745
X98.99Y-132.285
X98.99Y-134.825
X98.99Y-137.365
X98.99Y-139.905
X98.99Y-142.445
M30
