M48
; DRILL file {KiCad 8.0.7} date 2025-01-01T06:29:48-0500
; FORMAT={-:-/ absolute / metric / decimal}
; #@! TF.CreationDate,2025-01-01T06:29:48-05:00
; #@! TF.GenerationSoftware,Kicad,Pcbnew,8.0.7
; #@! TF.FileFunction,NonPlated,1,2,NPTH
FMAT,2
METRIC
; #@! TA.AperFunction,NonPlated,NPTH,ComponentDrill
T1C1.050
; #@! TA.AperFunction,NonPlated,NPTH,ComponentDrill
T2C1.200
%
G90
G05
T1
X109.9Y-100.415
X109.9Y-116.295
X109.9Y-132.175
X125.78Y-100.415
X125.78Y-116.295
X125.78Y-132.175
X141.66Y-100.415
X141.66Y-116.295
X141.66Y-132.175
T2
X121.5Y-95.955
X121.5Y-102.475
X121.5Y-111.835
X121.5Y-118.355
X121.5Y-127.715
X121.5Y-134.235
X137.38Y-95.955
X137.38Y-102.475
X137.38Y-111.835
X137.38Y-118.355
X137.38Y-127.715
X137.38Y-134.235
X153.26Y-95.955
X153.26Y-102.475
X153.26Y-111.835
X153.26Y-118.355
X153.26Y-127.715
X153.26Y-134.235
M30
