%TF.GenerationSoftware,KiCad,Pcbnew,8.0.7*%
%TF.CreationDate,2025-01-01T06:24:57-05:00*%
%TF.ProjectId,kicad_macropad,6b696361-645f-46d6-9163-726f7061642e,rev?*%
%TF.SameCoordinates,Original*%
%TF.FileFunction,Copper,L2,Bot*%
%TF.FilePolarity,Positive*%
%FSLAX46Y46*%
G04 Gerber Fmt 4.6, Leading zero omitted, Abs format (unit mm)*
G04 Created by KiCad (PCBNEW 8.0.7) date 2025-01-01 06:24:57*
%MOMM*%
%LPD*%
G01*
G04 APERTURE LIST*
%TA.AperFunction,ComponentPad*%
%ADD10O,1.700000X1.700000*%
%TD*%
%TA.AperFunction,ComponentPad*%
%ADD11R,1.700000X1.700000*%
%TD*%
%TA.AperFunction,ViaPad*%
%ADD12C,0.600000*%
%TD*%
%TA.AperFunction,Conductor*%
%ADD13C,0.200000*%
%TD*%
G04 APERTURE END LIST*
D10*
%TO.P,U1,1,GPIO0*%
%TO.N,Column 0*%
X81210000Y-94185000D03*
%TO.P,U1,2,GPIO1*%
%TO.N,Column 1*%
X81210000Y-96725000D03*
D11*
%TO.P,U1,3,GND*%
%TO.N,unconnected-(U1-GND-Pad3)*%
X81210000Y-99265000D03*
D10*
%TO.P,U1,4,GPIO2*%
%TO.N,Column 2*%
X81210000Y-101805000D03*
%TO.P,U1,5,GPIO3*%
%TO.N,Row 0*%
X81210000Y-104345000D03*
%TO.P,U1,6,GPIO4*%
%TO.N,Row 1*%
X81210000Y-106885000D03*
%TO.P,U1,7,GPIO5*%
%TO.N,Row 2*%
X81210000Y-109425000D03*
D11*
%TO.P,U1,8,GND*%
%TO.N,unconnected-(U1-GND-Pad8)*%
X81210000Y-111965000D03*
D10*
%TO.P,U1,9,GPIO6*%
%TO.N,unconnected-(U1-GPIO6-Pad9)*%
X81210000Y-114505000D03*
%TO.P,U1,10,GPIO7*%
%TO.N,unconnected-(U1-GPIO7-Pad10)*%
X81210000Y-117045000D03*
%TO.P,U1,11,GPIO8*%
%TO.N,unconnected-(U1-GPIO8-Pad11)*%
X81210000Y-119585000D03*
%TO.P,U1,12,GPIO9*%
%TO.N,unconnected-(U1-GPIO9-Pad12)*%
X81210000Y-122125000D03*
D11*
%TO.P,U1,13,GND*%
%TO.N,unconnected-(U1-GND-Pad13)*%
X81210000Y-124665000D03*
D10*
%TO.P,U1,14,GPIO10*%
%TO.N,unconnected-(U1-GPIO10-Pad14)*%
X81210000Y-127205000D03*
%TO.P,U1,15,GPIO11*%
%TO.N,unconnected-(U1-GPIO11-Pad15)*%
X81210000Y-129745000D03*
%TO.P,U1,16,GPIO12*%
%TO.N,unconnected-(U1-GPIO12-Pad16)*%
X81210000Y-132285000D03*
%TO.P,U1,17,GPIO13*%
%TO.N,unconnected-(U1-GPIO13-Pad17)*%
X81210000Y-134825000D03*
D11*
%TO.P,U1,18,GND*%
%TO.N,unconnected-(U1-GND-Pad18)*%
X81210000Y-137365000D03*
D10*
%TO.P,U1,19,GPIO14*%
%TO.N,unconnected-(U1-GPIO14-Pad19)*%
X81210000Y-139905000D03*
%TO.P,U1,20,GPIO15*%
%TO.N,unconnected-(U1-GPIO15-Pad20)*%
X81210000Y-142445000D03*
%TO.P,U1,21,GPIO16*%
%TO.N,unconnected-(U1-GPIO16-Pad21)*%
X98990000Y-142445000D03*
%TO.P,U1,22,GPIO17*%
%TO.N,unconnected-(U1-GPIO17-Pad22)*%
X98990000Y-139905000D03*
D11*
%TO.P,U1,23,GND*%
%TO.N,unconnected-(U1-GND-Pad23)*%
X98990000Y-137365000D03*
D10*
%TO.P,U1,24,GPIO18*%
%TO.N,unconnected-(U1-GPIO18-Pad24)*%
X98990000Y-134825000D03*
%TO.P,U1,25,GPIO19*%
%TO.N,unconnected-(U1-GPIO19-Pad25)*%
X98990000Y-132285000D03*
%TO.P,U1,26,GPIO20*%
%TO.N,unconnected-(U1-GPIO20-Pad26)*%
X98990000Y-129745000D03*
%TO.P,U1,27,GPIO21*%
%TO.N,unconnected-(U1-GPIO21-Pad27)*%
X98990000Y-127205000D03*
D11*
%TO.P,U1,28,GND*%
%TO.N,unconnected-(U1-GND-Pad28)*%
X98990000Y-124665000D03*
D10*
%TO.P,U1,29,GPIO22*%
%TO.N,unconnected-(U1-GPIO22-Pad29)*%
X98990000Y-122125000D03*
%TO.P,U1,30,RUN*%
%TO.N,unconnected-(U1-RUN-Pad30)*%
X98990000Y-119585000D03*
%TO.P,U1,31,GPIO26_ADC0*%
%TO.N,unconnected-(U1-GPIO26_ADC0-Pad31)*%
X98990000Y-117045000D03*
%TO.P,U1,32,GPIO27_ADC1*%
%TO.N,unconnected-(U1-GPIO27_ADC1-Pad32)*%
X98990000Y-114505000D03*
D11*
%TO.P,U1,33,AGND*%
%TO.N,unconnected-(U1-AGND-Pad33)*%
X98990000Y-111965000D03*
D10*
%TO.P,U1,34,GPIO28_ADC2*%
%TO.N,unconnected-(U1-GPIO28_ADC2-Pad34)*%
X98990000Y-109425000D03*
%TO.P,U1,35,ADC_VREF*%
%TO.N,unconnected-(U1-ADC_VREF-Pad35)*%
X98990000Y-106885000D03*
%TO.P,U1,36,3V3*%
%TO.N,unconnected-(U1-3V3-Pad36)*%
X98990000Y-104345000D03*
%TO.P,U1,37,3V3_EN*%
%TO.N,unconnected-(U1-3V3_EN-Pad37)*%
X98990000Y-101805000D03*
D11*
%TO.P,U1,38,GND*%
%TO.N,unconnected-(U1-GND-Pad38)*%
X98990000Y-99265000D03*
D10*
%TO.P,U1,39,VSYS*%
%TO.N,unconnected-(U1-VSYS-Pad39)*%
X98990000Y-96725000D03*
%TO.P,U1,40,VBUS*%
%TO.N,unconnected-(U1-VBUS-Pad40)*%
X98990000Y-94185000D03*
%TO.P,U1,41,SWCLK*%
%TO.N,unconnected-(U1-SWCLK-Pad41)*%
X87560000Y-142215000D03*
D11*
%TO.P,U1,42,GND*%
%TO.N,unconnected-(U1-GND-Pad42)*%
X90100000Y-142215000D03*
D10*
%TO.P,U1,43,SWDIO*%
%TO.N,unconnected-(U1-SWDIO-Pad43)*%
X92640000Y-142215000D03*
%TD*%
D12*
%TO.N,Row 0*%
X113600000Y-94565000D03*
%TO.N,Row 1*%
X116100000Y-108315000D03*
%TO.N,Column 1*%
X130850000Y-109815000D03*
X129600000Y-94315000D03*
X130850000Y-114315000D03*
%TO.N,Column 2*%
X146350000Y-94065000D03*
X146600000Y-110065000D03*
X146600000Y-114315000D03*
%TD*%
D13*
%TO.N,Row 0*%
X113600000Y-94565000D02*
X110050000Y-98115000D01*
X110050000Y-98115000D02*
X87440000Y-98115000D01*
X87440000Y-98115000D02*
X81210000Y-104345000D01*
%TO.N,Row 1*%
X82360000Y-108035000D02*
X81210000Y-106885000D01*
X115820000Y-108035000D02*
X82360000Y-108035000D01*
X116100000Y-108315000D02*
X115820000Y-108035000D01*
%TO.N,Column 1*%
X130850000Y-114565000D02*
X130850000Y-114315000D01*
X130850000Y-109815000D02*
X130850000Y-114315000D01*
X129600000Y-94315000D02*
X128320000Y-93035000D01*
X128320000Y-93035000D02*
X84900000Y-93035000D01*
X84900000Y-93035000D02*
X81210000Y-96725000D01*
%TO.N,Column 2*%
X144920000Y-92635000D02*
X84386346Y-92635000D01*
X79850000Y-100445000D02*
X81210000Y-101805000D01*
X146600000Y-110065000D02*
X146600000Y-114315000D01*
X79850000Y-95815000D02*
X79850000Y-100445000D01*
X80330000Y-95335000D02*
X79850000Y-95815000D01*
X81686346Y-95335000D02*
X80330000Y-95335000D01*
X84386346Y-92635000D02*
X81686346Y-95335000D01*
X146350000Y-94065000D02*
X144920000Y-92635000D01*
%TD*%
M02*
